  0
SECTION
  2
HEADER
  9
$ACADVER
  1
AC1014
  9
$ACADMAINTVER
 70
     9
  9
$DWGCODEPAGE
  3
ANSI_1252
  9
$INSBASE
 10
0.0
 20
0.0
 30
0.0
  9
$EXTMIN
 10
1.000000000000000E+20
 20
1.000000000000000E+20
 30
1.000000000000000E+20
  9
$EXTMAX
 10
-1.000000000000000E+20
 20
-1.000000000000000E+20
 30
-1.000000000000000E+20
  9
$LIMMIN
 10
0.0
 20
0.0
  9
$LIMMAX
 10
12.0
 20
9.0
  9
$ORTHOMODE
 70
     0
  9
$REGENMODE
 70
     1
  9
$FILLMODE
 70
     1
  9
$QTEXTMODE
 70
     0
  9
$MIRRTEXT
 70
     1
  9
$DRAGMODE
 70
     2
  9
$LTSCALE
 40
1.0
  9
$OSMODE
 70
    37
  9
$ATTMODE
 70
     1
  9
$TEXTSIZE
 40
0.2
  9
$TRACEWID
 40
0.05
  9
$TEXTSTYLE
  7
STANDARD
  9
$CLAYER
  8
0
  9
$CELTYPE
  6
BYLAYER
  9
$CECOLOR
 62
   256
  9
$CELTSCALE
 40
1.0
  9
$DELOBJ
 70
     1
  9
$DISPSILH
 70
     0
  9
$DIMSCALE
 40
1.0
  9
$DIMASZ
 40
0.18
  9
$DIMEXO
 40
0.0625
  9
$DIMDLI
 40
0.38
  9
$DIMRND
 40
0.0
  9
$DIMDLE
 40
0.0
  9
$DIMEXE
 40
0.18
  9
$DIMTP
 40
0.0
  9
$DIMTM
 40
0.0
  9
$DIMTXT
 40
0.18
  9
$DIMCEN
 40
0.09
  9
$DIMTSZ
 40
0.0
  9
$DIMTOL
 70
     0
  9
$DIMLIM
 70
     0
  9
$DIMTIH
 70
     1
  9
$DIMTOH
 70
     1
  9
$DIMSE1
 70
     0
  9
$DIMSE2
 70
     0
  9
$DIMTAD
 70
     0
  9
$DIMZIN
 70
     0
  9
$DIMBLK
  1

  9
$DIMASO
 70
     1
  9
$DIMSHO
 70
     1
  9
$DIMPOST
  1

  9
$DIMAPOST
  1

  9
$DIMALT
 70
     0
  9
$DIMALTD
 70
     2
  9
$DIMALTF
 40
25.4
  9
$DIMLFAC
 40
1.0
  9
$DIMTOFL
 70
     0
  9
$DIMTVP
 40
0.0
  9
$DIMTIX
 70
     0
  9
$DIMSOXD
 70
     0
  9
$DIMSAH
 70
     0
  9
$DIMBLK1
  1

  9
$DIMBLK2
  1

  9
$DIMSTYLE
  2
STANDARD
  9
$DIMCLRD
 70
     0
  9
$DIMCLRE
 70
     0
  9
$DIMCLRT
 70
     0
  9
$DIMTFAC
 40
1.0
  9
$DIMGAP
 40
0.09
  9
$DIMJUST
 70
     0
  9
$DIMSD1
 70
     0
  9
$DIMSD2
 70
     0
  9
$DIMTOLJ
 70
     1
  9
$DIMTZIN
 70
     0
  9
$DIMALTZ
 70
     0
  9
$DIMALTTZ
 70
     0
  9
$DIMFIT
 70
     3
  9
$DIMUPT
 70
     0
  9
$DIMUNIT
 70
     2
  9
$DIMDEC
 70
     4
  9
$DIMTDEC
 70
     4
  9
$DIMALTU
 70
     2
  9
$DIMALTTD
 70
     2
  9
$DIMTXSTY
  7
STANDARD
  9
$DIMAUNIT
 70
     0
  9
$LUNITS
 70
     2
  9
$LUPREC
 70
     4
  9
$SKETCHINC
 40
0.1
  9
$FILLETRAD
 40
0.5
  9
$AUNITS
 70
     0
  9
$AUPREC
 70
     0
  9
$MENU
  1
.
  9
$ELEVATION
 40
0.0
  9
$PELEVATION
 40
0.0
  9
$THICKNESS
 40
0.0
  9
$LIMCHECK
 70
     0
  9
$CHAMFERA
 40
0.0
  9
$CHAMFERB
 40
0.0
  9
$CHAMFERC
 40
0.0
  9
$CHAMFERD
 40
0.0
  9
$SKPOLY
 70
     0
  9
$TDCREATE
 40
2458585.470954248
  9
$TDUPDATE
 40
2458585.470955359
  9
$TDINDWG
 40
0.0000000116
  9
$TDUSRTIMER
 40
0.0000000116
  9
$USRTIMER
 70
     1
  9
$ANGBASE
 50
0.0
  9
$ANGDIR
 70
     0
  9
$PDMODE
 70
     0
  9
$PDSIZE
 40
0.0
  9
$PLINEWID
 40
0.0
  9
$COORDS
 70
     1
  9
$SPLFRAME
 70
     0
  9
$SPLINETYPE
 70
     6
  9
$SPLINESEGS
 70
     8
  9
$ATTDIA
 70
     0
  9
$ATTREQ
 70
     1
  9
$HANDLING
 70
     1
  9
$HANDSEED
  5
367
  9
$SURFTAB1
 70
     6
  9
$SURFTAB2
 70
     6
  9
$SURFTYPE
 70
     6
  9
$SURFU
 70
     6
  9
$SURFV
 70
     6
  9
$UCSNAME
  2

  9
$UCSORG
 10
0.0
 20
0.0
 30
0.0
  9
$UCSXDIR
 10
1.0
 20
0.0
 30
0.0
  9
$UCSYDIR
 10
0.0
 20
1.0
 30
0.0
  9
$PUCSNAME
  2

  9
$PUCSORG
 10
0.0
 20
0.0
 30
0.0
  9
$PUCSXDIR
 10
1.0
 20
0.0
 30
0.0
  9
$PUCSYDIR
 10
0.0
 20
1.0
 30
0.0
  9
$USERI1
 70
     0
  9
$USERI2
 70
     0
  9
$USERI3
 70
     0
  9
$USERI4
 70
     0
  9
$USERI5
 70
     0
  9
$USERR1
 40
0.0
  9
$USERR2
 40
0.0
  9
$USERR3
 40
0.0
  9
$USERR4
 40
0.0
  9
$USERR5
 40
0.0
  9
$WORLDVIEW
 70
     1
  9
$SHADEDGE
 70
     3
  9
$SHADEDIF
 70
    70
  9
$TILEMODE
 70
     1
  9
$MAXACTVP
 70
    64
  9
$PINSBASE
 10
0.0
 20
0.0
 30
0.0
  9
$PLIMCHECK
 70
     0
  9
$PEXTMIN
 10
1.000000000000000E+20
 20
1.000000000000000E+20
 30
1.000000000000000E+20
  9
$PEXTMAX
 10
-1.000000000000000E+20
 20
-1.000000000000000E+20
 30
-1.000000000000000E+20
  9
$PLIMMIN
 10
0.0
 20
0.0
  9
$PLIMMAX
 10
12.0
 20
9.0
  9
$UNITMODE
 70
     0
  9
$VISRETAIN
 70
     1
  9
$PLINEGEN
 70
     0
  9
$PSLTSCALE
 70
     1
  9
$TREEDEPTH
 70
  3020
  9
$PICKSTYLE
 70
     1
  9
$CMLSTYLE
  2
STANDARD
  9
$CMLJUST
 70
     0
  9
$CMLSCALE
 40
1.0
  9
$PROXYGRAPHICS
 70
     1
  9
$MEASUREMENT
 70
     1
  0
ENDSEC
  0
SECTION
  2
CLASSES
  0
CLASS
  1
ACDBDICTIONARYWDFLT
  2
AcDbDictionaryWithDefault
  3
ObjectDBX Classes
 90
        0
280
     0
281
     0
  0
CLASS
  1
VISUALSTYLE
  2
AcDbVisualStyle
  3
ObjectDBX Classes
 90
     4095
280
     0
281
     0
  0
CLASS
  1
MATERIAL
  2
AcDbMaterial
  3
ObjectDBX Classes
 90
     1153
280
     0
281
     0
  0
CLASS
  1
SCALE
  2
AcDbScale
  3
ObjectDBX Classes
 90
     1153
280
     0
281
     0
  0
CLASS
  1
TABLESTYLE
  2
AcDbTableStyle
  3
ObjectDBX Classes
 90
     4095
280
     0
281
     0
  0
CLASS
  1
MLEADERSTYLE
  2
AcDbMLeaderStyle
  3
ACDB_MLEADERSTYLE_CLASS
 90
     4095
280
     0
281
     0
  0
CLASS
  1
SUN
  2
AcDbSun
  3
SCENEOE
 90
     1153
280
     0
281
     0
  0
CLASS
  1
DICTIONARYVAR
  2
AcDbDictionaryVar
  3
ObjectDBX Classes
 90
        0
280
     0
281
     0
  0
CLASS
  1
XRECORD
  2
AcDbXrecord
  3
ObjectDBX Classes
 90
        0
280
     0
281
     0
  0
CLASS
  1
LWPOLYLINE
  2
AcDbPolyline
  3
ObjectDBX Classes
 90
        0
280
     0
281
     1
  0
CLASS
  1
HATCH
  2
AcDbHatch
  3
ObjectDBX Classes
 90
        0
280
     0
281
     1
  0
CLASS
  1
ACDBPLACEHOLDER
  2
AcDbPlaceHolder
  3
ObjectDBX Classes
 90
        0
280
     0
281
     0
  0
CLASS
  1
LAYOUT
  2
AcDbLayout
  3
ObjectDBX Classes
 90
        0
280
     0
281
     0
  0
ENDSEC
  0
SECTION
  2
TABLES
  0
TABLE
  2
VPORT
  5
8
102
{ACAD_XDICTIONARY
360
35C
102
}
330
0
100
AcDbSymbolTable
 70
     1
  0
VPORT
  5
29
330
8
100
AcDbSymbolTableRecord
100
AcDbViewportTableRecord
  2
*ACTIVE
 70
     0
 10
0.0
 20
0.0
 11
1.0
 21
1.0
 12
0.0
 22
0.0
 13
0.0
 23
0.0
 14
0.5
 24
0.5
 15
0.5
 25
0.5
 16
0.0
 26
0.0
 36
1.0
 17
0.0
 27
0.0
 37
-1000.0
 40
17.72761228043321
 41
1.905236907730673
 42
50.0
 43
28.1124014834661
 44
38.15133912041788
 50
0.0
 51
0.0
 71
     0
 72
   100
 73
     1
 74
     3
 75
     0
 76
     0
 77
     0
 78
     0
  0
ENDTAB
  0
TABLE
  2
LTYPE
  5
5
330
0
100
AcDbSymbolTable
 70
     1
  0
LTYPE
  5
14
330
5
100
AcDbSymbolTableRecord
100
AcDbLinetypeTableRecord
  2
BYBLOCK
 70
     0
  3

 72
    65
 73
     0
 40
0.0
  0
LTYPE
  5
15
330
5
100
AcDbSymbolTableRecord
100
AcDbLinetypeTableRecord
  2
BYLAYER
 70
     0
  3

 72
    65
 73
     0
 40
0.0
  0
LTYPE
  5
16
330
5
100
AcDbSymbolTableRecord
100
AcDbLinetypeTableRecord
  2
CONTINUOUS
 70
     0
  3
Solid line
 72
    65
 73
     0
 40
0.0
  0
ENDTAB
  0
TABLE
  2
LAYER
  5
2
330
0
100
AcDbSymbolTable
 70
     3
  0
LAYER
  5
10
330
2
100
AcDbSymbolTableRecord
100
AcDbLayerTableRecord
  2
0
 70
     0
 62
     7
  6
CONTINUOUS
  0
LAYER
  5
6E
330
2
100
AcDbSymbolTableRecord
100
AcDbLayerTableRecord
  2
PROFILEEDGES
 70
     0
 62
     7
  6
CONTINUOUS
  0
LAYER
  5
6F
330
2
100
AcDbSymbolTableRecord
100
AcDbLayerTableRecord
  2
SECTIONCUTEDGES
 70
     0
 62
     7
  6
CONTINUOUS
  0
ENDTAB
  0
TABLE
  2
STYLE
  5
3
330
0
100
AcDbSymbolTable
 70
     1
  0
STYLE
  5
11
330
3
100
AcDbSymbolTableRecord
100
AcDbTextStyleTableRecord
  2
STANDARD
 70
     0
 40
0.0
 41
1.0
 50
0.0
 71
     0
 42
0.2
  3
txt
  4

  0
ENDTAB
  0
TABLE
  2
VIEW
  5
6
330
0
100
AcDbSymbolTable
 70
     0
  0
ENDTAB
  0
TABLE
  2
UCS
  5
7
330
0
100
AcDbSymbolTable
 70
     0
  0
ENDTAB
  0
TABLE
  2
APPID
  5
9
330
0
100
AcDbSymbolTable
 70
     2
  0
APPID
  5
12
330
9
100
AcDbSymbolTableRecord
100
AcDbRegAppTableRecord
  2
ACAD
 70
     0
  0
APPID
  5
366
330
9
100
AcDbSymbolTableRecord
100
AcDbRegAppTableRecord
  2
ACAD_MLEADERVER
 70
     0
  0
ENDTAB
  0
TABLE
  2
DIMSTYLE
  5
A
330
0
100
AcDbSymbolTable
 70
     1
  0
DIMSTYLE
105
27
330
A
100
AcDbSymbolTableRecord
100
AcDbDimStyleTableRecord
  2
STANDARD
 70
     0
  3

  4

  5

  6

  7

 40
1.0
 41
0.18
 42
0.0625
 43
0.38
 44
0.18
 45
0.0
 46
0.0
 47
0.0
 48
0.0
140
0.18
141
0.09
142
0.0
143
25.4
144
1.0
145
0.0
146
1.0
147
0.09
 71
     0
 72
     0
 73
     1
 74
     1
 75
     0
 76
     0
 77
     0
 78
     0
170
     0
171
     2
172
     0
173
     0
174
     0
175
     0
176
     0
177
     0
178
     0
270
     2
271
     4
272
     4
273
     2
274
     2
340
11
275
     0
280
     0
281
     0
282
     0
283
     1
284
     0
285
     0
286
     0
287
     3
288
     0
  0
ENDTAB
  0
TABLE
  2
BLOCK_RECORD
  5
1
330
0
100
AcDbSymbolTable
 70
     1
  0
BLOCK_RECORD
  5
1F
330
1
100
AcDbSymbolTableRecord
100
AcDbBlockTableRecord
  2
*MODEL_SPACE
  0
BLOCK_RECORD
  5
1B
330
1
100
AcDbSymbolTableRecord
100
AcDbBlockTableRecord
  2
*PAPER_SPACE
  0
ENDTAB
  0
ENDSEC
  0
SECTION
  2
BLOCKS
  0
BLOCK
  5
20
330
1F
100
AcDbEntity
  8
0
100
AcDbBlockBegin
  2
*MODEL_SPACE
 70
     0
 10
0.0
 20
0.0
 30
0.0
  3
*MODEL_SPACE
  1

  0
ENDBLK
  5
21
330
1F
100
AcDbEntity
  8
0
100
AcDbBlockEnd
  0
BLOCK
  5
1C
330
1B
100
AcDbEntity
 67
     1
  8
0
100
AcDbBlockBegin
  2
*PAPER_SPACE
 70
     0
 10
0.0
 20
0.0
 30
0.0
  3
*PAPER_SPACE
  1

  0
ENDBLK
  5
1D
330
1B
100
AcDbEntity
 67
     1
  8
0
100
AcDbBlockEnd
  0
ENDSEC
  0
SECTION
  2
ENTITIES
  0
LINE
  5
70
330
1F
100
AcDbEntity
  8
0
100
AcDbLine
 10
-5.534804786263858
 20
4.354860347489986
 30
0.0
 11
-4.956044222793551
 21
4.354860347489986
 31
0.0
  0
LINE
  5
71
330
1F
100
AcDbEntity
  8
0
100
AcDbLine
 10
-4.782416053752455
 20
-0.8539847237427903
 30
0.0
 11
-4.377283659323241
 21
0.882296966668135
 31
0.0
  0
LINE
  5
72
330
1F
100
AcDbEntity
  8
0
100
AcDbLine
 10
-5.534804786263858
 20
4.354860347489986
 30
0.0
 11
-6.113565349734167
 21
0.8822969666681355
 31
0.0
  0
LINE
  5
73
330
1F
100
AcDbEntity
  8
0
100
AcDbLine
 10
-4.956044222793551
 20
4.354860347489986
 30
0.0
 11
-4.377283659323241
 21
0.882296966668135
 31
0.0
  0
LINE
  5
74
330
1F
100
AcDbEntity
  8
0
100
AcDbLine
 10
-5.70843295530495
 20
-0.8539847237427903
 30
0.0
 11
-4.782416053752455
 21
-0.8539847237427903
 31
0.0
  0
LINE
  5
75
330
1F
100
AcDbEntity
  8
0
100
AcDbLine
 10
-6.113565349734167
 20
0.8822969666681355
 30
0.0
 11
-5.70843295530495
 21
-0.8539847237427903
 31
0.0
  0
LINE
  5
76
330
1F
100
AcDbEntity
  8
0
100
AcDbLine
 10
-5.289562625277508
 20
4.370962739564543
 30
0.0
 11
-5.534804786263858
 21
4.354860347489986
 31
0.0
  0
LINE
  5
77
330
1F
100
AcDbEntity
  8
0
100
AcDbLine
 10
-4.956044222793551
 20
4.354860347489986
 30
0.0
 11
-5.289562625277508
 21
4.370962739564543
 31
0.0
  0
LINE
  5
78
330
1F
100
AcDbEntity
  8
0
100
AcDbLine
 10
4.968060083429201
 20
0.9163409903766796
 30
0.0
 11
5.028557035728674
 21
0.919511501300087
 31
0.0
  0
LINE
  5
79
330
1F
100
AcDbEntity
  8
0
100
AcDbLine
 10
5.028557035728674
 20
0.919511501300087
 30
0.0
 11
5.088391170758952
 21
0.9289882972891604
 31
0.0
  0
LINE
  5
7A
330
1F
100
AcDbEntity
  8
0
100
AcDbLine
 10
5.088391170758952
 20
0.9289882972891604
 30
0.0
 11
5.146906933215547
 21
0.9446675485838965
 31
0.0
  0
LINE
  5
7B
330
1F
100
AcDbEntity
  8
0
100
AcDbLine
 10
5.146906933215547
 20
0.9446675485838965
 30
0.0
 11
5.203463212159772
 21
0.9663774700260156
 31
0.0
  0
LINE
  5
7C
330
1F
100
AcDbEntity
  8
0
100
AcDbLine
 10
5.203463212159772
 20
0.9663774700260156
 30
0.0
 11
5.257440365164355
 21
0.9938802031731049
 31
0.0
  0
LINE
  5
7D
330
1F
100
AcDbEntity
  8
0
100
AcDbLine
 10
5.257440365164355
 20
0.9938802031731049
 30
0.0
 11
5.30824700724553
 21
1.026874422325488
 31
0.0
  0
LINE
  5
7E
330
1F
100
AcDbEntity
  8
0
100
AcDbLine
 10
5.30824700724553
 20
1.026874422325488
 30
0.0
 11
5.355326490200683
 21
1.064998635913647
 31
0.0
  0
LINE
  5
7F
330
1F
100
AcDbEntity
  8
0
100
AcDbLine
 10
5.355326490200683
 20
1.064998635913647
 30
0.0
 11
5.398163001362542
 21
1.107835147075506
 31
0.0
  0
LINE
  5
80
330
1F
100
AcDbEntity
  8
0
100
AcDbLine
 10
5.398163001362542
 20
1.107835147075506
 30
0.0
 11
5.436287214950701
 21
1.154914630030659
 31
0.0
  0
LINE
  5
81
330
1F
100
AcDbEntity
  8
0
100
AcDbLine
 10
5.436287214950701
 20
1.154914630030659
 30
0.0
 11
5.469281434103084
 21
1.205721272111834
 31
0.0
  0
LINE
  5
82
330
1F
100
AcDbEntity
  8
0
100
AcDbLine
 10
5.469281434103084
 20
1.205721272111834
 30
0.0
 11
5.496784167250174
 21
1.259698425116416
 31
0.0
  0
LINE
  5
83
330
1F
100
AcDbEntity
  8
0
100
AcDbLine
 10
5.496784167250174
 20
1.259698425116416
 30
0.0
 11
5.518494088692293
 21
1.316254704060642
 31
0.0
  0
LINE
  5
84
330
1F
100
AcDbEntity
  8
0
100
AcDbLine
 10
5.518494088692293
 20
1.316254704060642
 30
0.0
 11
5.534173339987029
 21
1.374770466517237
 31
0.0
  0
LINE
  5
85
330
1F
100
AcDbEntity
  8
0
100
AcDbLine
 10
5.534173339987029
 20
1.374770466517237
 30
0.0
 11
5.543650135976102
 21
1.434604601547515
 31
0.0
  0
LINE
  5
86
330
1F
100
AcDbEntity
  8
0
100
AcDbLine
 10
5.543650135976102
 20
1.434604601547515
 30
0.0
 11
5.546820646899509
 21
1.495101553846988
 31
0.0
  0
LINE
  5
87
330
1F
100
AcDbEntity
  8
0
100
AcDbLine
 10
5.546820646899509
 20
1.495101553846988
 30
0.0
 11
5.543650135976102
 21
1.55559850614646
 31
0.0
  0
LINE
  5
88
330
1F
100
AcDbEntity
  8
0
100
AcDbLine
 10
5.543650135976102
 20
1.55559850614646
 30
0.0
 11
5.534173339987029
 21
1.615432641176739
 31
0.0
  0
LINE
  5
89
330
1F
100
AcDbEntity
  8
0
100
AcDbLine
 10
5.534173339987029
 20
1.615432641176739
 30
0.0
 11
5.518494088692293
 21
1.673948403633334
 31
0.0
  0
LINE
  5
8A
330
1F
100
AcDbEntity
  8
0
100
AcDbLine
 10
5.518494088692293
 20
1.673948403633334
 30
0.0
 11
5.496784167250174
 21
1.73050468257756
 31
0.0
  0
LINE
  5
8B
330
1F
100
AcDbEntity
  8
0
100
AcDbLine
 10
5.496784167250174
 20
1.73050468257756
 30
0.0
 11
5.469281434103084
 21
1.784481835582142
 31
0.0
  0
LINE
  5
8C
330
1F
100
AcDbEntity
  8
0
100
AcDbLine
 10
5.469281434103084
 20
1.784481835582142
 30
0.0
 11
5.436287214950701
 21
1.835288477663317
 31
0.0
  0
LINE
  5
8D
330
1F
100
AcDbEntity
  8
0
100
AcDbLine
 10
5.436287214950701
 20
1.835288477663317
 30
0.0
 11
5.398163001362542
 21
1.88236796061847
 31
0.0
  0
LINE
  5
8E
330
1F
100
AcDbEntity
  8
0
100
AcDbLine
 10
5.398163001362542
 20
1.88236796061847
 30
0.0
 11
5.355326490200683
 21
1.925204471780329
 31
0.0
  0
LINE
  5
8F
330
1F
100
AcDbEntity
  8
0
100
AcDbLine
 10
5.355326490200683
 20
1.925204471780329
 30
0.0
 11
5.30824700724553
 21
1.963328685368487
 31
0.0
  0
LINE
  5
90
330
1F
100
AcDbEntity
  8
0
100
AcDbLine
 10
5.30824700724553
 20
1.963328685368487
 30
0.0
 11
5.257440365164356
 21
1.996322904520871
 31
0.0
  0
LINE
  5
91
330
1F
100
AcDbEntity
  8
0
100
AcDbLine
 10
5.257440365164356
 20
1.996322904520871
 30
0.0
 11
5.203463212159773
 21
2.023825637667961
 31
0.0
  0
LINE
  5
92
330
1F
100
AcDbEntity
  8
0
100
AcDbLine
 10
5.203463212159773
 20
2.023825637667961
 30
0.0
 11
5.146906933215547
 21
2.04553555911008
 31
0.0
  0
LINE
  5
93
330
1F
100
AcDbEntity
  8
0
100
AcDbLine
 10
5.146906933215547
 20
2.04553555911008
 30
0.0
 11
5.088391170758952
 21
2.061214810404815
 31
0.0
  0
LINE
  5
94
330
1F
100
AcDbEntity
  8
0
100
AcDbLine
 10
5.088391170758952
 20
2.061214810404815
 30
0.0
 11
5.028557035728674
 21
2.070691606393889
 31
0.0
  0
LINE
  5
95
330
1F
100
AcDbEntity
  8
0
100
AcDbLine
 10
5.028557035728674
 20
2.070691606393889
 30
0.0
 11
4.968060083429201
 21
2.073862117317296
 31
0.0
  0
LINE
  5
96
330
1F
100
AcDbEntity
  8
0
100
AcDbLine
 10
4.968060083429201
 20
2.073862117317296
 30
0.0
 11
4.907563131129728
 21
2.070691606393889
 31
0.0
  0
LINE
  5
97
330
1F
100
AcDbEntity
  8
0
100
AcDbLine
 10
4.907563131129728
 20
2.070691606393889
 30
0.0
 11
4.84772899609945
 21
2.061214810404815
 31
0.0
  0
LINE
  5
98
330
1F
100
AcDbEntity
  8
0
100
AcDbLine
 10
4.84772899609945
 20
2.061214810404815
 30
0.0
 11
4.789213233642855
 21
2.04553555911008
 31
0.0
  0
LINE
  5
99
330
1F
100
AcDbEntity
  8
0
100
AcDbLine
 10
4.789213233642855
 20
2.04553555911008
 30
0.0
 11
4.73265695469863
 21
2.023825637667961
 31
0.0
  0
LINE
  5
9A
330
1F
100
AcDbEntity
  8
0
100
AcDbLine
 10
4.73265695469863
 20
2.023825637667961
 30
0.0
 11
4.678679801694047
 21
1.996322904520871
 31
0.0
  0
LINE
  5
9B
330
1F
100
AcDbEntity
  8
0
100
AcDbLine
 10
4.678679801694047
 20
1.996322904520871
 30
0.0
 11
4.627873159612871
 21
1.963328685368488
 31
0.0
  0
LINE
  5
9C
330
1F
100
AcDbEntity
  8
0
100
AcDbLine
 10
4.627873159612871
 20
1.963328685368488
 30
0.0
 11
4.580793676657718
 21
1.925204471780329
 31
0.0
  0
LINE
  5
9D
330
1F
100
AcDbEntity
  8
0
100
AcDbLine
 10
4.580793676657718
 20
1.925204471780329
 30
0.0
 11
4.537957165495861
 21
1.88236796061847
 31
0.0
  0
LINE
  5
9E
330
1F
100
AcDbEntity
  8
0
100
AcDbLine
 10
4.537957165495861
 20
1.88236796061847
 30
0.0
 11
4.499832951907701
 21
1.835288477663317
 31
0.0
  0
LINE
  5
9F
330
1F
100
AcDbEntity
  8
0
100
AcDbLine
 10
4.499832951907701
 20
1.835288477663317
 30
0.0
 11
4.466838732755318
 21
1.784481835582142
 31
0.0
  0
LINE
  5
A0
330
1F
100
AcDbEntity
  8
0
100
AcDbLine
 10
4.466838732755318
 20
1.784481835582142
 30
0.0
 11
4.439335999608228
 21
1.73050468257756
 31
0.0
  0
LINE
  5
A1
330
1F
100
AcDbEntity
  8
0
100
AcDbLine
 10
4.439335999608228
 20
1.73050468257756
 30
0.0
 11
4.417626078166109
 21
1.673948403633334
 31
0.0
  0
LINE
  5
A2
330
1F
100
AcDbEntity
  8
0
100
AcDbLine
 10
4.417626078166109
 20
1.673948403633334
 30
0.0
 11
4.401946826871373
 21
1.615432641176739
 31
0.0
  0
LINE
  5
A3
330
1F
100
AcDbEntity
  8
0
100
AcDbLine
 10
4.401946826871373
 20
1.615432641176739
 30
0.0
 11
4.392470030882299
 21
1.555598506146461
 31
0.0
  0
LINE
  5
A4
330
1F
100
AcDbEntity
  8
0
100
AcDbLine
 10
4.392470030882299
 20
1.555598506146461
 30
0.0
 11
4.389299519958892
 21
1.495101553846988
 31
0.0
  0
LINE
  5
A5
330
1F
100
AcDbEntity
  8
0
100
AcDbLine
 10
4.389299519958892
 20
1.495101553846988
 30
0.0
 11
4.392470030882299
 21
1.434604601547516
 31
0.0
  0
LINE
  5
A6
330
1F
100
AcDbEntity
  8
0
100
AcDbLine
 10
4.392470030882299
 20
1.434604601547516
 30
0.0
 11
4.401946826871373
 21
1.374770466517237
 31
0.0
  0
LINE
  5
A7
330
1F
100
AcDbEntity
  8
0
100
AcDbLine
 10
4.401946826871373
 20
1.374770466517237
 30
0.0
 11
4.417626078166109
 21
1.316254704060642
 31
0.0
  0
LINE
  5
A8
330
1F
100
AcDbEntity
  8
0
100
AcDbLine
 10
4.417626078166109
 20
1.316254704060642
 30
0.0
 11
4.439335999608228
 21
1.259698425116416
 31
0.0
  0
LINE
  5
A9
330
1F
100
AcDbEntity
  8
0
100
AcDbLine
 10
4.439335999608228
 20
1.259698425116416
 30
0.0
 11
4.466838732755318
 21
1.205721272111834
 31
0.0
  0
LINE
  5
AA
330
1F
100
AcDbEntity
  8
0
100
AcDbLine
 10
4.466838732755318
 20
1.205721272111834
 30
0.0
 11
4.499832951907701
 21
1.154914630030659
 31
0.0
  0
LINE
  5
AB
330
1F
100
AcDbEntity
  8
0
100
AcDbLine
 10
4.499832951907701
 20
1.154914630030659
 30
0.0
 11
4.537957165495859
 21
1.107835147075507
 31
0.0
  0
LINE
  5
AC
330
1F
100
AcDbEntity
  8
0
100
AcDbLine
 10
4.537957165495859
 20
1.107835147075507
 30
0.0
 11
4.580793676657718
 21
1.064998635913648
 31
0.0
  0
LINE
  5
AD
330
1F
100
AcDbEntity
  8
0
100
AcDbLine
 10
4.580793676657718
 20
1.064998635913648
 30
0.0
 11
4.627873159612871
 21
1.026874422325488
 31
0.0
  0
LINE
  5
AE
330
1F
100
AcDbEntity
  8
0
100
AcDbLine
 10
4.627873159612871
 20
1.026874422325488
 30
0.0
 11
4.678679801694045
 21
0.9938802031731052
 31
0.0
  0
LINE
  5
AF
330
1F
100
AcDbEntity
  8
0
100
AcDbLine
 10
4.678679801694045
 20
0.9938802031731052
 30
0.0
 11
4.732656954698628
 21
0.9663774700260159
 31
0.0
  0
LINE
  5
B0
330
1F
100
AcDbEntity
  8
0
100
AcDbLine
 10
4.732656954698628
 20
0.9663774700260159
 30
0.0
 11
4.789213233642855
 21
0.9446675485838965
 31
0.0
  0
LINE
  5
B1
330
1F
100
AcDbEntity
  8
0
100
AcDbLine
 10
4.789213233642855
 20
0.9446675485838965
 30
0.0
 11
4.847728996099448
 21
0.9289882972891604
 31
0.0
  0
LINE
  5
B2
330
1F
100
AcDbEntity
  8
0
100
AcDbLine
 10
4.847728996099448
 20
0.9289882972891604
 30
0.0
 11
4.907563131129728
 21
0.919511501300087
 31
0.0
  0
LINE
  5
B3
330
1F
100
AcDbEntity
  8
0
100
AcDbLine
 10
4.907563131129728
 20
0.919511501300087
 30
0.0
 11
4.968060083429201
 21
0.9163409903766796
 31
0.0
  0
LINE
  5
B4
330
1F
100
AcDbEntity
  8
0
100
AcDbLine
 10
-6.060683566416575
 20
4.837296315694909
 30
0.0
 11
-6.077259037869083
 21
4.870135034707427
 31
0.0
  0
LINE
  5
B5
330
1F
100
AcDbEntity
  8
0
100
AcDbLine
 10
-4.906112462733093
 20
5.435539441805711
 30
0.0
 11
-5.024280458036425
 21
5.68426395477555
 31
0.0
  0
LINE
  5
B6
330
1F
100
AcDbEntity
  8
0
100
AcDbLine
 10
-6.077259037869083
 20
4.870135034707427
 30
0.0
 11
-6.091754767678644
 21
4.927434567500502
 31
0.0
  0
LINE
  5
B7
330
1F
100
AcDbEntity
  8
0
100
AcDbLine
 10
-4.46093958150467
 20
4.817144886528583
 30
0.0
 11
-4.497666482123504
 21
4.815080306379901
 31
0.0
  0
LINE
  5
B8
330
1F
100
AcDbEntity
  8
0
100
AcDbLine
 10
-6.091754767678644
 20
4.927434567500502
 30
0.0
 11
-6.127135458748689
 21
5.012133069011957
 31
0.0
  0
LINE
  5
B9
330
1F
100
AcDbEntity
  8
0
100
AcDbLine
 10
-3.817100118908192
 20
5.651956716268857
 30
0.0
 11
-3.971855585232394
 21
5.517576230312862
 31
0.0
  0
LINE
  5
BA
330
1F
100
AcDbEntity
  8
0
100
AcDbLine
 10
-6.20250496809054
 20
5.145261852400431
 30
0.0
 11
-6.329748880448934
 21
5.317541080230506
 31
0.0
  0
LINE
  5
BB
330
1F
100
AcDbEntity
  8
0
100
AcDbLine
 10
-6.518993423825015
 20
5.517576230312862
 30
0.0
 11
-6.673748890149217
 21
5.651956716268859
 31
0.0
  0
LINE
  5
BC
330
1F
100
AcDbEntity
  8
0
100
AcDbLine
 10
-6.673748890149217
 20
5.651956716268859
 30
0.0
 11
-6.893421462349869
 21
5.580580770838722
 31
0.0
  0
LINE
  5
BD
330
1F
100
AcDbEntity
  8
0
100
AcDbLine
 10
-6.893421462349869
 20
5.580580770838722
 30
0.0
 11
-6.939634396737738
 21
5.380901693170945
 31
0.0
  0
LINE
  5
BE
330
1F
100
AcDbEntity
  8
0
100
AcDbLine
 10
-6.939634396737738
 20
5.380901693170945
 30
0.0
 11
-6.975158737263195
 21
5.107834705608693
 31
0.0
  0
LINE
  5
BF
330
1F
100
AcDbEntity
  8
0
100
AcDbLine
 10
-6.959562113780911
 20
4.741661253122713
 30
0.0
 11
-6.938401164049602
 21
4.652342477574964
 31
0.0
  0
LINE
  5
C0
330
1F
100
AcDbEntity
  8
0
100
AcDbLine
 10
-6.938401164049602
 20
4.652342477574964
 30
0.0
 11
-6.916448635472387
 21
4.597465805572345
 31
0.0
  0
LINE
  5
C1
330
1F
100
AcDbEntity
  8
0
100
AcDbLine
 10
-6.916448635472387
 20
4.597465805572345
 30
0.0
 11
-6.910556358827509
 21
4.561155906148135
 31
0.0
  0
LINE
  5
C2
330
1F
100
AcDbEntity
  8
0
100
AcDbLine
 10
-6.910556358827509
 20
4.561155906148135
 30
0.0
 11
-6.923608447279024
 21
4.526764472515472
 31
0.0
  0
LINE
  5
C3
330
1F
100
AcDbEntity
  8
0
100
AcDbLine
 10
-7.171881531514746
 20
4.391526252474617
 30
0.0
 11
-7.207448880023803
 21
4.382140548436495
 31
0.0
  0
LINE
  5
C4
330
1F
100
AcDbEntity
  8
0
100
AcDbLine
 10
-3.574400373585022
 20
4.597465805572345
 30
0.0
 11
-3.552447845007806
 21
4.652342477574964
 31
0.0
  0
LINE
  5
C5
330
1F
100
AcDbEntity
  8
0
100
AcDbLine
 10
-4.804236424101911
 20
4.93200735451691
 30
0.0
 11
-4.800316152992944
 21
4.990981875417453
 31
0.0
  0
LINE
  5
C6
330
1F
100
AcDbEntity
  8
0
100
AcDbLine
 10
-4.430165442640835
 20
4.837296315694908
 30
0.0
 11
-4.46093958150467
 21
4.817144886528583
 31
0.0
  0
LINE
  5
C7
330
1F
100
AcDbEntity
  8
0
100
AcDbLine
 10
-4.497666482123504
 20
4.815080306379901
 30
0.0
 11
-4.741287757183549
 21
4.853666125681436
 31
0.0
  0
LINE
  5
C8
330
1F
100
AcDbEntity
  8
0
100
AcDbLine
 10
-4.79861993621471
 20
4.895653774444667
 30
0.0
 11
-4.804236424101911
 21
4.93200735451691
 31
0.0
  0
LINE
  5
C9
330
1F
100
AcDbEntity
  8
0
100
AcDbLine
 10
-3.597427546707541
 20
5.580580770838722
 30
0.0
 11
-3.817100118908192
 21
5.651956716268857
 31
0.0
  0
LINE
  5
CA
330
1F
100
AcDbEntity
  8
0
100
AcDbLine
 10
-4.807791913421005
 20
5.082468172013732
 30
0.0
 11
-4.838333519903038
 21
5.232371628206121
 31
0.0
  0
LINE
  5
CB
330
1F
100
AcDbEntity
  8
0
100
AcDbLine
 10
-3.971855585232394
 20
5.517576230312862
 30
0.0
 11
-4.161100128608475
 21
5.317541080230506
 31
0.0
  0
LINE
  5
CC
330
1F
100
AcDbEntity
  8
0
100
AcDbLine
 10
-3.283400129033606
 20
4.382140548436495
 30
0.0
 11
-3.318967477542665
 21
4.391526252474617
 31
0.0
  0
LINE
  5
CD
330
1F
100
AcDbEntity
  8
0
100
AcDbLine
 10
-5.692229072842699
 20
4.895653774444668
 30
0.0
 11
-5.715269884069185
 21
4.866978894527194
 31
0.0
  0
LINE
  5
CE
330
1F
100
AcDbEntity
  8
0
100
AcDbLine
 10
-5.715269884069185
 20
4.866978894527194
 30
0.0
 11
-5.749561251873859
 21
4.853666125681436
 31
0.0
  0
LINE
  5
CF
330
1F
100
AcDbEntity
  8
0
100
AcDbLine
 10
-5.749561251873859
 20
4.853666125681436
 30
0.0
 11
-5.993182526933904
 21
4.815080306379901
 31
0.0
  0
LINE
  5
D0
330
1F
100
AcDbEntity
  8
0
100
AcDbLine
 10
-6.329748880448934
 20
5.317541080230506
 30
0.0
 11
-6.518993423825015
 21
5.517576230312862
 31
0.0
  0
LINE
  5
D1
330
1F
100
AcDbEntity
  8
0
100
AcDbLine
 10
-3.318967477542665
 20
4.391526252474617
 30
0.0
 11
-3.5387414047906
 21
4.503506661542777
 31
0.0
  0
LINE
  5
D2
330
1F
100
AcDbEntity
  8
0
100
AcDbLine
 10
-5.652515489154371
 20
5.232371628206121
 30
0.0
 11
-5.683057095636403
 21
5.082468172013733
 31
0.0
  0
LINE
  5
D3
330
1F
100
AcDbEntity
  8
0
100
AcDbLine
 10
-6.975158737263195
 20
5.107834705608693
 30
0.0
 11
-6.976838035397039
 21
4.893665787388109
 31
0.0
  0
LINE
  5
D4
330
1F
100
AcDbEntity
  8
0
100
AcDbLine
 10
-6.923608447279024
 20
4.526764472515472
 30
0.0
 11
-6.952107604266811
 21
4.503506661542777
 31
0.0
  0
LINE
  5
D5
330
1F
100
AcDbEntity
  8
0
100
AcDbLine
 10
-6.952107604266811
 20
4.503506661542777
 30
0.0
 11
-7.171881531514746
 21
4.391526252474617
 31
0.0
  0
LINE
  5
D6
330
1F
100
AcDbEntity
  8
0
100
AcDbLine
 10
-6.976838035397039
 20
4.893665787388109
 30
0.0
 11
-6.959562113780911
 21
4.741661253122713
 31
0.0
  0
LINE
  5
D7
330
1F
100
AcDbEntity
  8
0
100
AcDbLine
 10
-7.207448880023803
 20
4.382140548436495
 30
0.0
 11
-7.242943959396964
 21
4.391795964561609
 31
0.0
  0
LINE
  5
D8
330
1F
100
AcDbEntity
  8
0
100
AcDbLine
 10
-4.161100128608475
 20
5.317541080230506
 30
0.0
 11
-4.28834404096687
 21
5.145261852400431
 31
0.0
  0
LINE
  5
D9
330
1F
100
AcDbEntity
  8
0
100
AcDbLine
 10
-3.567240561778385
 20
4.526764472515472
 30
0.0
 11
-3.5802926502299
 21
4.561155906148135
 31
0.0
  0
LINE
  5
DA
330
1F
100
AcDbEntity
  8
0
100
AcDbLine
 10
-5.584736546324317
 20
5.435539441805711
 30
0.0
 11
-5.652515489154371
 21
5.232371628206121
 31
0.0
  0
LINE
  5
DB
330
1F
100
AcDbEntity
  8
0
100
AcDbLine
 10
-4.363713550308719
 20
5.012133069011957
 30
0.0
 11
-4.399094241378765
 21
4.927434567500502
 31
0.0
  0
LINE
  5
DC
330
1F
100
AcDbEntity
  8
0
100
AcDbLine
 10
-4.741287757183549
 20
4.853666125681436
 30
0.0
 11
-4.775579124988225
 21
4.866978894527193
 31
0.0
  0
LINE
  5
DD
330
1F
100
AcDbEntity
  8
0
100
AcDbLine
 10
-4.800316152992944
 20
4.990981875417453
 30
0.0
 11
-4.807791913421005
 21
5.082468172013732
 31
0.0
  0
LINE
  5
DE
330
1F
100
AcDbEntity
  8
0
100
AcDbLine
 10
-5.024280458036425
 20
5.68426395477555
 30
0.0
 11
-5.129935798843586
 21
5.859889460673507
 31
0.0
  0
LINE
  5
DF
330
1F
100
AcDbEntity
  8
0
100
AcDbLine
 10
-4.399094241378765
 20
4.927434567500502
 30
0.0
 11
-4.413589971188325
 21
4.870135034707426
 31
0.0
  0
LINE
  5
E0
330
1F
100
AcDbEntity
  8
0
100
AcDbLine
 10
-3.515690271794215
 20
5.107834705608693
 30
0.0
 11
-3.551214612319671
 21
5.380901693170945
 31
0.0
  0
LINE
  5
E1
330
1F
100
AcDbEntity
  8
0
100
AcDbLine
 10
-3.531286895276499
 20
4.741661253122712
 30
0.0
 11
-3.51401097366037
 21
4.893665787388108
 31
0.0
  0
LINE
  5
E2
330
1F
100
AcDbEntity
  8
0
100
AcDbLine
 10
-3.5387414047906
 20
4.503506661542777
 30
0.0
 11
-3.567240561778385
 21
4.526764472515472
 31
0.0
  0
LINE
  5
E3
330
1F
100
AcDbEntity
  8
0
100
AcDbLine
 10
-5.129935798843586
 20
5.859889460673507
 30
0.0
 11
-5.360913210213823
 21
5.859889460673507
 31
0.0
  0
LINE
  5
E4
330
1F
100
AcDbEntity
  8
0
100
AcDbLine
 10
-3.551214612319671
 20
5.380901693170945
 30
0.0
 11
-3.597427546707541
 21
5.580580770838722
 31
0.0
  0
LINE
  5
E5
330
1F
100
AcDbEntity
  8
0
100
AcDbLine
 10
-4.775579124988225
 20
4.866978894527193
 30
0.0
 11
-4.79861993621471
 21
4.895653774444667
 31
0.0
  0
LINE
  5
E6
330
1F
100
AcDbEntity
  8
0
100
AcDbLine
 10
-4.413589971188325
 20
4.870135034707426
 30
0.0
 11
-4.430165442640835
 21
4.837296315694908
 31
0.0
  0
LINE
  5
E7
330
1F
100
AcDbEntity
  8
0
100
AcDbLine
 10
-5.360913210213823
 20
5.859889460673507
 30
0.0
 11
-5.466568551020984
 21
5.68426395477555
 31
0.0
  0
LINE
  5
E8
330
1F
100
AcDbEntity
  8
0
100
AcDbLine
 10
-4.28834404096687
 20
5.145261852400431
 30
0.0
 11
-4.363713550308719
 21
5.012133069011957
 31
0.0
  0
LINE
  5
E9
330
1F
100
AcDbEntity
  8
0
100
AcDbLine
 10
-5.466568551020984
 20
5.68426395477555
 30
0.0
 11
-5.584736546324317
 21
5.435539441805711
 31
0.0
  0
LINE
  5
EA
330
1F
100
AcDbEntity
  8
0
100
AcDbLine
 10
-5.686612584955498
 20
4.93200735451691
 30
0.0
 11
-5.692229072842699
 21
4.895653774444668
 31
0.0
  0
LINE
  5
EB
330
1F
100
AcDbEntity
  8
0
100
AcDbLine
 10
-3.5802926502299
 20
4.561155906148135
 30
0.0
 11
-3.574400373585022
 21
4.597465805572345
 31
0.0
  0
LINE
  5
EC
330
1F
100
AcDbEntity
  8
0
100
AcDbLine
 10
-4.838333519903038
 20
5.232371628206121
 30
0.0
 11
-4.906112462733093
 21
5.435539441805711
 31
0.0
  0
LINE
  5
ED
330
1F
100
AcDbEntity
  8
0
100
AcDbLine
 10
-5.993182526933904
 20
4.815080306379901
 30
0.0
 11
-6.029909427552739
 21
4.817144886528583
 31
0.0
  0
LINE
  5
EE
330
1F
100
AcDbEntity
  8
0
100
AcDbLine
 10
-6.029909427552739
 20
4.817144886528583
 30
0.0
 11
-6.060683566416575
 21
4.837296315694909
 31
0.0
  0
LINE
  5
EF
330
1F
100
AcDbEntity
  8
0
100
AcDbLine
 10
-3.552447845007806
 20
4.652342477574964
 30
0.0
 11
-3.531286895276499
 21
4.741661253122712
 31
0.0
  0
LINE
  5
F0
330
1F
100
AcDbEntity
  8
0
100
AcDbLine
 10
-3.51401097366037
 20
4.893665787388108
 30
0.0
 11
-3.515690271794215
 21
5.107834705608693
 31
0.0
  0
LINE
  5
F1
330
1F
100
AcDbEntity
  8
0
100
AcDbLine
 10
-5.683057095636403
 20
5.082468172013733
 30
0.0
 11
-5.690532856064466
 21
4.990981875417453
 31
0.0
  0
LINE
  5
F2
330
1F
100
AcDbEntity
  8
0
100
AcDbLine
 10
-5.690532856064466
 20
4.990981875417453
 30
0.0
 11
-5.686612584955498
 21
4.93200735451691
 31
0.0
  0
LINE
  5
F3
330
1F
100
AcDbEntity
  8
0
100
AcDbLine
 10
-6.127135458748689
 20
5.012133069011957
 30
0.0
 11
-6.20250496809054
 21
5.145261852400431
 31
0.0
  0
LINE
  5
F4
330
1F
100
AcDbEntity
  8
0
100
AcDbLine
 10
-9.508389390261001
 20
1.839377430229971
 30
0.0
 11
-9.375260606872525
 21
1.764007920888122
 31
0.0
  0
LINE
  5
F5
330
1F
100
AcDbEntity
  8
0
100
AcDbLine
 10
-9.230106432387762
 20
1.352142346208616
 30
0.0
 11
-9.258781312305237
 21
1.32910153498213
 31
0.0
  0
LINE
  5
F6
330
1F
100
AcDbEntity
  8
0
100
AcDbLine
 10
-7.982713201342781
 20
3.899257645572459
 30
0.0
 11
-7.965888937257732
 21
3.866545692737868
 31
0.0
  0
LINE
  5
F7
330
1F
100
AcDbEntity
  8
0
100
AcDbLine
 10
-9.258781312305237
 20
1.32910153498213
 30
0.0
 11
-9.29513489237748
 21
1.323485047094929
 31
0.0
  0
LINE
  5
F8
330
1F
100
AcDbEntity
  8
0
100
AcDbLine
 10
-8.2646122899844
 20
4.841371327383602
 30
0.0
 11
-8.246859173950646
 21
4.637184657314071
 31
0.0
  0
LINE
  5
F9
330
1F
100
AcDbEntity
  8
0
100
AcDbLine
 10
-8.889892010376041
 20
2.560480909418456
 30
0.0
 11
-8.924283444008704
 21
2.547428820966941
 31
0.0
  0
LINE
  5
FA
330
1F
100
AcDbEntity
  8
0
100
AcDbLine
 10
-9.29513489237748
 20
1.323485047094929
 30
0.0
 11
-9.354109413278023
 21
1.327405318203897
 31
0.0
  0
LINE
  5
FB
330
1F
100
AcDbEntity
  8
0
100
AcDbLine
 10
-7.965888937257732
 20
3.866545692737868
 30
0.0
 11
-7.967674673577394
 21
3.829804178533189
 31
0.0
  0
LINE
  5
FC
330
1F
100
AcDbEntity
  8
0
100
AcDbLine
 10
-9.354109413278023
 20
1.327405318203897
 30
0.0
 11
-9.4455957098743
 21
1.319929557775836
 31
0.0
  0
LINE
  5
FD
330
1F
100
AcDbEntity
  8
0
100
AcDbLine
 10
-9.4455957098743
 20
1.319929557775836
 30
0.0
 11
-9.59549916606669
 21
1.289387951293802
 31
0.0
  0
LINE
  5
FE
330
1F
100
AcDbEntity
  8
0
100
AcDbLine
 10
-8.525426755408592
 20
3.768550223910329
 30
0.0
 11
-8.729632432332142
 21
3.833134951874393
 31
0.0
  0
LINE
  5
FF
330
1F
100
AcDbEntity
  8
0
100
AcDbLine
 10
-9.200423853555478
 20
1.697556028556006
 30
0.0
 11
-9.180272424389154
 21
1.66678188969217
 31
0.0
  0
LINE
  5
100
330
1F
100
AcDbEntity
  8
0
100
AcDbLine
 10
-7.360170992635875
 20
4.537540834052677
 30
0.0
 11
-7.472990712132909
 21
4.640863371756401
 31
0.0
  0
LINE
  5
101
330
1F
100
AcDbEntity
  8
0
100
AcDbLine
 10
-7.967674673577394
 20
3.829804178533189
 30
0.0
 11
-7.987591923697023
 21
3.79887796201826
 31
0.0
  0
LINE
  5
102
330
1F
100
AcDbEntity
  8
0
100
AcDbLine
 10
-8.960593343432913
 20
2.553321097611819
 30
0.0
 11
-9.015470015435534
 21
2.575273626189035
 31
0.0
  0
LINE
  5
103
330
1F
100
AcDbEntity
  8
0
100
AcDbLine
 10
-9.20449886524417
 20
3.901484752123832
 30
0.0
 11
-9.340263981260287
 21
3.714620101008577
 31
0.0
  0
LINE
  5
104
330
1F
100
AcDbEntity
  8
0
100
AcDbLine
 10
-8.077747638869145
 20
4.977136443399719
 30
0.0
 11
-8.2646122899844
 21
4.841371327383602
 31
0.0
  0
LINE
  5
105
330
1F
100
AcDbEntity
  8
0
100
AcDbLine
 10
-8.831048544943718
 20
2.937221141616982
 30
0.0
 11
-8.781032877757216
 21
2.90572835392034
 31
0.0
  0
LINE
  5
106
330
1F
100
AcDbEntity
  8
0
100
AcDbLine
 10
-7.268855891780907
 20
4.417905339896648
 30
0.0
 11
-7.30034867947755
 21
4.467921007083149
 31
0.0
  0
LINE
  5
107
330
1F
100
AcDbEntity
  8
0
100
AcDbLine
 10
-7.88904059031645
 20
4.897155075634958
 30
0.0
 11
-8.077747638869145
 21
4.977136443399719
 31
0.0
  0
LINE
  5
108
330
1F
100
AcDbEntity
  8
0
100
AcDbLine
 10
-8.729632432332142
 20
3.833134951874393
 30
0.0
 11
-9.00031219517464
 21
3.883731636090078
 31
0.0
  0
LINE
  5
109
330
1F
100
AcDbEntity
  8
0
100
AcDbLine
 10
-9.260282613495527
 20
3.525913052455882
 30
0.0
 11
-9.12851766051756
 21
3.284116535456967
 31
0.0
  0
LINE
  5
10A
330
1F
100
AcDbEntity
  8
0
100
AcDbLine
 10
-8.866634199403345
 20
2.588980066406241
 30
0.0
 11
-8.889892010376041
 21
2.560480909418456
 31
0.0
  0
LINE
  5
10B
330
1F
100
AcDbEntity
  8
0
100
AcDbLine
 10
-7.30034867947755
 20
4.467921007083149
 30
0.0
 11
-7.360170992635875
 21
4.537540834052677
 31
0.0
  0
LINE
  5
10C
330
1F
100
AcDbEntity
  8
0
100
AcDbLine
 10
-8.020549120938847
 20
3.94466475767328
 30
0.0
 11
-7.982713201342781
 21
3.899257645572459
 31
0.0
  0
LINE
  5
10D
330
1F
100
AcDbEntity
  8
0
100
AcDbLine
 10
-8.745268086297065
 20
2.844321342163235
 30
0.0
 11
-8.754653790335187
 21
2.808753993654177
 31
0.0
  0
LINE
  5
10E
330
1F
100
AcDbEntity
  8
0
100
AcDbLine
 10
-9.104788790983282
 20
2.596434575920342
 30
0.0
 11
-9.256793325248678
 21
2.61371049753647
 31
0.0
  0
LINE
  5
10F
330
1F
100
AcDbEntity
  8
0
100
AcDbLine
 10
-8.246859173950646
 20
4.637184657314071
 30
0.0
 11
-8.196262489734963
 21
4.366504894471576
 31
0.0
  0
LINE
  5
110
330
1F
100
AcDbEntity
  8
0
100
AcDbLine
 10
-9.256793325248678
 20
2.61371049753647
 30
0.0
 11
-9.470962243469263
 21
2.612031199402626
 31
0.0
  0
LINE
  5
111
330
1F
100
AcDbEntity
  8
0
100
AcDbLine
 10
-9.003990909616968
 20
3.10986317427234
 30
0.0
 11
-8.900668371913248
 21
2.997043454775307
 31
0.0
  0
LINE
  5
112
330
1F
100
AcDbEntity
  8
0
100
AcDbLine
 10
-8.924283444008704
 20
2.547428820966941
 30
0.0
 11
-8.960593343432913
 21
2.553321097611819
 31
0.0
  0
LINE
  5
113
330
1F
100
AcDbEntity
  8
0
100
AcDbLine
 10
-8.307792295533849
 20
3.657421583078281
 30
0.0
 11
-8.38620040596195
 21
3.705147861772249
 31
0.0
  0
LINE
  5
114
330
1F
100
AcDbEntity
  8
0
100
AcDbLine
 10
-8.781032877757216
 20
2.90572835392034
 30
0.0
 11
-8.754923502422178
 21
2.879816421536395
 31
0.0
  0
LINE
  5
115
330
1F
100
AcDbEntity
  8
0
100
AcDbLine
 10
-9.744029231031513
 20
2.576506858877169
 30
0.0
 11
-9.943708308699291
 21
2.5302939244893
 31
0.0
  0
LINE
  5
116
330
1F
100
AcDbEntity
  8
0
100
AcDbLine
 10
-9.943708308699291
 20
2.5302939244893
 30
0.0
 11
-10.01508425412943
 21
2.310621352288649
 31
0.0
  0
LINE
  5
117
330
1F
100
AcDbEntity
  8
0
100
AcDbLine
 10
-10.01508425412943
 20
2.310621352288649
 30
0.0
 11
-9.880703768173431
 21
2.155865885964447
 31
0.0
  0
LINE
  5
118
330
1F
100
AcDbEntity
  8
0
100
AcDbLine
 10
-8.262385183433027
 20
3.619585663482214
 30
0.0
 11
-8.307792295533849
 21
3.657421583078281
 31
0.0
  0
LINE
  5
119
330
1F
100
AcDbEntity
  8
0
100
AcDbLine
 10
-8.38620040596195
 20
3.705147861772249
 30
0.0
 11
-8.525426755408592
 21
3.768550223910329
 31
0.0
  0
LINE
  5
11A
330
1F
100
AcDbEntity
  8
0
100
AcDbLine
 10
-8.900668371913248
 20
2.997043454775307
 30
0.0
 11
-8.831048544943718
 21
2.937221141616982
 31
0.0
  0
LINE
  5
11B
330
1F
100
AcDbEntity
  8
0
100
AcDbLine
 10
-8.754923502422178
 20
2.879816421536395
 30
0.0
 11
-8.745268086297065
 21
2.844321342163235
 31
0.0
  0
LINE
  5
11C
330
1F
100
AcDbEntity
  8
0
100
AcDbLine
 10
-7.472990712132909
 20
4.640863371756401
 30
0.0
 11
-7.647244073317537
 21
4.76539012265699
 31
0.0
  0
LINE
  5
11D
330
1F
100
AcDbEntity
  8
0
100
AcDbLine
 10
-8.131677761770899
 20
4.162299217548024
 30
0.0
 11
-8.06827539963282
 21
4.023072868101382
 31
0.0
  0
LINE
  5
11E
330
1F
100
AcDbEntity
  8
0
100
AcDbLine
 10
-8.754653790335187
 20
2.808753993654177
 30
0.0
 11
-8.866634199403345
 21
2.588980066406241
 31
0.0
  0
LINE
  5
11F
330
1F
100
AcDbEntity
  8
0
100
AcDbLine
 10
-9.015470015435534
 20
2.575273626189035
 30
0.0
 11
-9.104788790983282
 21
2.596434575920342
 31
0.0
  0
LINE
  5
120
330
1F
100
AcDbEntity
  8
0
100
AcDbLine
 10
-9.880703768173431
 20
2.155865885964447
 30
0.0
 11
-9.680668618091076
 21
1.966621342588365
 31
0.0
  0
LINE
  5
121
330
1F
100
AcDbEntity
  8
0
100
AcDbLine
 10
-9.340263981260287
 20
3.714620101008577
 30
0.0
 11
-9.260282613495527
 21
3.525913052455882
 31
0.0
  0
LINE
  5
122
330
1F
100
AcDbEntity
  8
0
100
AcDbLine
 10
-9.680668618091076
 20
1.966621342588365
 30
0.0
 11
-9.508389390261001
 21
1.839377430229971
 31
0.0
  0
LINE
  5
123
330
1F
100
AcDbEntity
  8
0
100
AcDbLine
 10
-9.375260606872525
 20
1.764007920888122
 30
0.0
 11
-9.29056210536107
 21
1.728627229818076
 31
0.0
  0
LINE
  5
124
330
1F
100
AcDbEntity
  8
0
100
AcDbLine
 10
-9.29056210536107
 20
1.728627229818076
 30
0.0
 11
-9.233262572567995
 21
1.714131500008515
 31
0.0
  0
LINE
  5
125
330
1F
100
AcDbEntity
  8
0
100
AcDbLine
 10
-7.647244073317537
 20
4.76539012265699
 30
0.0
 11
-7.88904059031645
 21
4.897155075634958
 31
0.0
  0
LINE
  5
126
330
1F
100
AcDbEntity
  8
0
100
AcDbLine
 10
-8.162005499878829
 20
3.624464385836454
 30
0.0
 11
-8.192931716393757
 21
3.604547135716825
 31
0.0
  0
LINE
  5
127
330
1F
100
AcDbEntity
  8
0
100
AcDbLine
 10
-8.06827539963282
 20
4.023072868101382
 30
0.0
 11
-8.020549120938847
 21
3.94466475767328
 31
0.0
  0
LINE
  5
128
330
1F
100
AcDbEntity
  8
0
100
AcDbLine
 10
-8.229673230598436
 20
3.602761399397163
 30
0.0
 11
-8.262385183433027
 21
3.619585663482214
 31
0.0
  0
LINE
  5
129
330
1F
100
AcDbEntity
  8
0
100
AcDbLine
 10
-7.242943959396964
 20
4.391795964561609
 30
0.0
 11
-7.268855891780907
 21
4.417905339896648
 31
0.0
  0
LINE
  5
12A
330
1F
100
AcDbEntity
  8
0
100
AcDbLine
 10
-9.12851766051756
 20
3.284116535456967
 30
0.0
 11
-9.003990909616968
 21
3.10986317427234
 31
0.0
  0
LINE
  5
12B
330
1F
100
AcDbEntity
  8
0
100
AcDbLine
 10
-9.233262572567995
 20
1.714131500008515
 30
0.0
 11
-9.200423853555478
 21
1.697556028556006
 31
0.0
  0
LINE
  5
12C
330
1F
100
AcDbEntity
  8
0
100
AcDbLine
 10
-9.17820784424047
 20
1.630054989073336
 30
0.0
 11
-9.216793663542004
 21
1.38643371401329
 31
0.0
  0
LINE
  5
12D
330
1F
100
AcDbEntity
  8
0
100
AcDbLine
 10
-7.987591923697023
 20
3.79887796201826
 30
0.0
 11
-8.162005499878829
 21
3.624464385836454
 31
0.0
  0
LINE
  5
12E
330
1F
100
AcDbEntity
  8
0
100
AcDbLine
 10
-9.216793663542004
 20
1.38643371401329
 30
0.0
 11
-9.230106432387762
 21
1.352142346208616
 31
0.0
  0
LINE
  5
12F
330
1F
100
AcDbEntity
  8
0
100
AcDbLine
 10
-8.196262489734963
 20
4.366504894471576
 30
0.0
 11
-8.131677761770899
 21
4.162299217548024
 31
0.0
  0
LINE
  5
130
330
1F
100
AcDbEntity
  8
0
100
AcDbLine
 10
-8.192931716393757
 20
3.604547135716825
 30
0.0
 11
-8.229673230598436
 21
3.602761399397163
 31
0.0
  0
LINE
  5
131
330
1F
100
AcDbEntity
  8
0
100
AcDbLine
 10
-9.00031219517464
 20
3.883731636090078
 30
0.0
 11
-9.20449886524417
 21
3.901484752123832
 31
0.0
  0
LINE
  5
132
330
1F
100
AcDbEntity
  8
0
100
AcDbLine
 10
-9.470962243469263
 20
2.612031199402626
 30
0.0
 11
-9.744029231031513
 21
2.576506858877169
 31
0.0
  0
LINE
  5
133
330
1F
100
AcDbEntity
  8
0
100
AcDbLine
 10
-9.180272424389154
 20
1.66678188969217
 30
0.0
 11
-9.17820784424047
 21
1.630054989073336
 31
0.0
  0
LINE
  5
134
330
1F
100
AcDbEntity
  8
0
100
AcDbLine
 10
-9.003990909616968
 20
-1.345269240936068
 30
0.0
 11
-9.12851766051756
 21
-1.519522602120696
 31
0.0
  0
LINE
  5
135
330
1F
100
AcDbEntity
  8
0
100
AcDbLine
 10
-9.340263981260287
 20
-1.950026167672304
 30
0.0
 11
-9.20449886524417
 21
-2.13689081878756
 31
0.0
  0
LINE
  5
136
330
1F
100
AcDbEntity
  8
0
100
AcDbLine
 10
-10.22301699853408
 20
0.7668082609830174
 30
0.0
 11
-10.04739149263612
 21
0.661152920175858
 31
0.0
  0
LINE
  5
137
330
1F
100
AcDbEntity
  8
0
100
AcDbLine
 10
-9.000312195174642
 20
-2.119137702753806
 30
0.0
 11
-8.729632432332146
 21
-2.068541018538122
 31
0.0
  0
LINE
  5
138
330
1F
100
AcDbEntity
  8
0
100
AcDbLine
 10
-9.470962243469263
 20
-0.8474372660663545
 30
0.0
 11
-9.256793325248678
 21
-0.8491165642001983
 31
0.0
  0
LINE
  5
139
330
1F
100
AcDbEntity
  8
0
100
AcDbLine
 10
-9.104788790983283
 20
-0.8318406425840705
 30
0.0
 11
-9.015470015435534
 21
-0.8106796928527625
 31
0.0
  0
LINE
  5
13A
330
1F
100
AcDbEntity
  8
0
100
AcDbLine
 10
-8.525426755408592
 20
-2.003956290574057
 30
0.0
 11
-8.38620040596195
 21
-1.940553928435978
 31
0.0
  0
LINE
  5
13B
330
1F
100
AcDbEntity
  8
0
100
AcDbLine
 10
-8.307792295533849
 20
-1.892827649742008
 30
0.0
 11
-8.262385183433027
 21
-1.854991730145942
 31
0.0
  0
LINE
  5
13C
330
1F
100
AcDbEntity
  8
0
100
AcDbLine
 10
-8.831048544943718
 20
-1.17262720828071
 30
0.0
 11
-8.900668371913246
 21
-1.232449521439035
 31
0.0
  0
LINE
  5
13D
330
1F
100
AcDbEntity
  8
0
100
AcDbLine
 10
-9.015470015435534
 20
-0.8106796928527625
 30
0.0
 11
-8.960593343432913
 21
-0.7887271642755468
 31
0.0
  0
LINE
  5
13E
330
1F
100
AcDbEntity
  8
0
100
AcDbLine
 10
-7.965888937257733
 20
-2.101951759401596
 30
0.0
 11
-7.982713201342784
 21
-2.134663712236187
 31
0.0
  0
LINE
  5
13F
330
1F
100
AcDbEntity
  8
0
100
AcDbLine
 10
-8.196262489734963
 20
-2.601910961135303
 30
0.0
 11
-8.246859173950646
 21
-2.8725907239778
 31
0.0
  0
LINE
  5
140
330
1F
100
AcDbEntity
  8
0
100
AcDbLine
 10
-8.2646122899844
 20
-3.07677739404733
 30
0.0
 11
-8.077747638869146
 21
-3.212542510063447
 31
0.0
  0
LINE
  5
141
330
1F
100
AcDbEntity
  8
0
100
AcDbLine
 10
-9.17820784424047
 20
0.1345389442629377
 30
0.0
 11
-9.180272424389154
 21
0.0978120436441036
 31
0.0
  0
LINE
  5
142
330
1F
100
AcDbEntity
  8
0
100
AcDbLine
 10
-8.866634199403347
 20
-0.8243861330699696
 30
0.0
 11
-8.754653790335187
 21
-1.044160060317904
 31
0.0
  0
LINE
  5
143
330
1F
100
AcDbEntity
  8
0
100
AcDbLine
 10
-10.01508425412943
 20
-0.5460274189523749
 30
0.0
 11
-9.943708308699291
 21
-0.7656999911530258
 31
0.0
  0
LINE
  5
144
330
1F
100
AcDbEntity
  8
0
100
AcDbLine
 10
-8.745268086297065
 20
-1.079727408826963
 30
0.0
 11
-8.754923502422178
 21
-1.115222488200123
 31
0.0
  0
LINE
  5
145
330
1F
100
AcDbEntity
  8
0
100
AcDbLine
 10
-8.960593343432913
 20
-0.7887271642755468
 30
0.0
 11
-8.924283444008706
 21
-0.7828348876306692
 31
0.0
  0
LINE
  5
146
330
1F
100
AcDbEntity
  8
0
100
AcDbLine
 10
-9.798666979666278
 20
1.221609008463748
 30
0.0
 11
-10.04739149263612
 21
1.103441013160416
 31
0.0
  0
LINE
  5
147
330
1F
100
AcDbEntity
  8
0
100
AcDbLine
 10
-9.260282613495527
 20
-1.76131911911961
 30
0.0
 11
-9.340263981260287
 21
-1.950026167672304
 31
0.0
  0
LINE
  5
148
330
1F
100
AcDbEntity
  8
0
100
AcDbLine
 10
-9.29513489237748
 20
0.4411088862413446
 30
0.0
 11
-9.258781312305237
 21
0.4354923983541432
 31
0.0
  0
LINE
  5
149
330
1F
100
AcDbEntity
  8
0
100
AcDbLine
 10
-9.20449886524417
 20
-2.13689081878756
 30
0.0
 11
-9.000312195174642
 21
-2.119137702753806
 31
0.0
  0
LINE
  5
14A
330
1F
100
AcDbEntity
  8
0
100
AcDbLine
 10
-9.216793663542004
 20
0.3781602193229834
 30
0.0
 11
-9.17820784424047
 21
0.1345389442629377
 31
0.0
  0
LINE
  5
14B
330
1F
100
AcDbEntity
  8
0
100
AcDbLine
 10
-8.781032877757218
 20
-1.141134420584068
 30
0.0
 11
-8.831048544943718
 21
-1.17262720828071
 31
0.0
  0
LINE
  5
14C
330
1F
100
AcDbEntity
  8
0
100
AcDbLine
 10
-10.22301699853408
 20
0.9977856723532549
 30
0.0
 11
-10.22301699853408
 21
0.7668082609830174
 31
0.0
  0
LINE
  5
14D
330
1F
100
AcDbEntity
  8
0
100
AcDbLine
 10
-8.900668371913246
 20
-1.232449521439035
 30
0.0
 11
-9.003990909616968
 21
-1.345269240936068
 31
0.0
  0
LINE
  5
14E
330
1F
100
AcDbEntity
  8
0
100
AcDbLine
 10
-8.262385183433027
 20
-1.854991730145942
 30
0.0
 11
-8.229673230598436
 21
-1.838167466060891
 31
0.0
  0
LINE
  5
14F
330
1F
100
AcDbEntity
  8
0
100
AcDbLine
 10
-9.290562105361072
 20
0.0359667035181977
 30
0.0
 11
-9.375260606872525
 21
0.0005860124481518
 31
0.0
  0
LINE
  5
150
330
1F
100
AcDbEntity
  8
0
100
AcDbLine
 10
-9.375260606872525
 20
0.0005860124481518
 30
0.0
 11
-9.508389390261001
 21
-0.0747834968936971
 31
0.0
  0
LINE
  5
151
330
1F
100
AcDbEntity
  8
0
100
AcDbLine
 10
-9.79866697966628
 20
0.5429849248725258
 30
0.0
 11
-9.595499166066691
 21
0.4752059820424718
 31
0.0
  0
LINE
  5
152
330
1F
100
AcDbEntity
  8
0
100
AcDbLine
 10
-9.744029231031513
 20
-0.8119129255408972
 30
0.0
 11
-9.470962243469263
 21
-0.8474372660663545
 31
0.0
  0
LINE
  5
153
330
1F
100
AcDbEntity
  8
0
100
AcDbLine
 10
-9.943708308699291
 20
-0.7656999911530258
 30
0.0
 11
-9.744029231031513
 21
-0.8119129255408972
 31
0.0
  0
LINE
  5
154
330
1F
100
AcDbEntity
  8
0
100
AcDbLine
 10
-9.680668618091076
 20
-0.202027409252091
 30
0.0
 11
-9.880703768173431
 21
-0.3912719526281725
 31
0.0
  0
LINE
  5
155
330
1F
100
AcDbEntity
  8
0
100
AcDbLine
 10
-9.12851766051756
 20
-1.519522602120696
 30
0.0
 11
-9.260282613495527
 21
-1.76131911911961
 31
0.0
  0
LINE
  5
156
330
1F
100
AcDbEntity
  8
0
100
AcDbLine
 10
-8.229673230598436
 20
-1.838167466060891
 30
0.0
 11
-8.192931716393758
 21
-1.839953202380554
 31
0.0
  0
LINE
  5
157
330
1F
100
AcDbEntity
  8
0
100
AcDbLine
 10
-8.38620040596195
 20
-1.940553928435978
 30
0.0
 11
-8.307792295533849
 21
-1.892827649742008
 31
0.0
  0
LINE
  5
158
330
1F
100
AcDbEntity
  8
0
100
AcDbLine
 10
-9.508389390261001
 20
-0.0747834968936971
 30
0.0
 11
-9.680668618091076
 21
-0.202027409252091
 31
0.0
  0
LINE
  5
159
330
1F
100
AcDbEntity
  8
0
100
AcDbLine
 10
-10.04739149263612
 20
0.661152920175858
 30
0.0
 11
-9.79866697966628
 21
0.5429849248725258
 31
0.0
  0
LINE
  5
15A
330
1F
100
AcDbEntity
  8
0
100
AcDbLine
 10
-8.16200549987883
 20
-1.859870452500182
 30
0.0
 11
-7.987591923697023
 21
-2.034284028681988
 31
0.0
  0
LINE
  5
15B
330
1F
100
AcDbEntity
  8
0
100
AcDbLine
 10
-8.192931716393758
 20
-1.839953202380554
 30
0.0
 11
-8.16200549987883
 21
-1.859870452500182
 31
0.0
  0
LINE
  5
15C
330
1F
100
AcDbEntity
  8
0
100
AcDbLine
 10
-8.729632432332146
 20
-2.068541018538122
 30
0.0
 11
-8.525426755408592
 21
-2.003956290574057
 31
0.0
  0
LINE
  5
15D
330
1F
100
AcDbEntity
  8
0
100
AcDbLine
 10
-7.967674673577394
 20
-2.065210245196916
 30
0.0
 11
-7.965888937257733
 21
-2.101951759401596
 31
0.0
  0
LINE
  5
15E
330
1F
100
AcDbEntity
  8
0
100
AcDbLine
 10
-7.982713201342784
 20
-2.134663712236187
 30
0.0
 11
-8.020549120938849
 21
-2.180070824337009
 31
0.0
  0
LINE
  5
15F
330
1F
100
AcDbEntity
  8
0
100
AcDbLine
 10
-8.020549120938849
 20
-2.180070824337009
 30
0.0
 11
-8.06827539963282
 21
-2.25847893476511
 31
0.0
  0
LINE
  5
160
330
1F
100
AcDbEntity
  8
0
100
AcDbLine
 10
-8.06827539963282
 20
-2.25847893476511
 30
0.0
 11
-8.131677761770899
 21
-2.397705284211752
 31
0.0
  0
LINE
  5
161
330
1F
100
AcDbEntity
  8
0
100
AcDbLine
 10
-9.59549916606669
 20
1.289387951293802
 30
0.0
 11
-9.798666979666278
 21
1.221609008463748
 31
0.0
  0
LINE
  5
162
330
1F
100
AcDbEntity
  8
0
100
AcDbLine
 10
-8.131677761770899
 20
-2.397705284211752
 30
0.0
 11
-8.196262489734963
 21
-2.601910961135303
 31
0.0
  0
LINE
  5
163
330
1F
100
AcDbEntity
  8
0
100
AcDbLine
 10
-8.924283444008706
 20
-0.7828348876306692
 30
0.0
 11
-8.889892010376041
 21
-0.7958869760821838
 31
0.0
  0
LINE
  5
164
330
1F
100
AcDbEntity
  8
0
100
AcDbLine
 10
-7.987591923697023
 20
-2.034284028681988
 30
0.0
 11
-7.967674673577394
 21
-2.065210245196916
 31
0.0
  0
LINE
  5
165
330
1F
100
AcDbEntity
  8
0
100
AcDbLine
 10
-8.246859173950646
 20
-2.8725907239778
 30
0.0
 11
-8.2646122899844
 21
-3.07677739404733
 31
0.0
  0
LINE
  5
166
330
1F
100
AcDbEntity
  8
0
100
AcDbLine
 10
-9.233262572567995
 20
0.0504624333277591
 30
0.0
 11
-9.290562105361072
 21
0.0359667035181977
 31
0.0
  0
LINE
  5
167
330
1F
100
AcDbEntity
  8
0
100
AcDbLine
 10
-10.04739149263612
 20
1.103441013160416
 30
0.0
 11
-10.22301699853408
 21
0.9977856723532549
 31
0.0
  0
LINE
  5
168
330
1F
100
AcDbEntity
  8
0
100
AcDbLine
 10
-9.20042385355548
 20
0.067037904780268
 30
0.0
 11
-9.233262572567995
 21
0.0504624333277591
 31
0.0
  0
LINE
  5
169
330
1F
100
AcDbEntity
  8
0
100
AcDbLine
 10
-9.256793325248678
 20
-0.8491165642001983
 30
0.0
 11
-9.104788790983283
 21
-0.8318406425840705
 31
0.0
  0
LINE
  5
16A
330
1F
100
AcDbEntity
  8
0
100
AcDbLine
 10
-9.354109413278023
 20
0.4371886151323769
 30
0.0
 11
-9.29513489237748
 21
0.4411088862413446
 31
0.0
  0
LINE
  5
16B
330
1F
100
AcDbEntity
  8
0
100
AcDbLine
 10
-8.889892010376041
 20
-0.7958869760821838
 30
0.0
 11
-8.866634199403347
 21
-0.8243861330699696
 31
0.0
  0
LINE
  5
16C
330
1F
100
AcDbEntity
  8
0
100
AcDbLine
 10
-9.880703768173431
 20
-0.3912719526281725
 30
0.0
 11
-10.01508425412943
 21
-0.5460274189523749
 31
0.0
  0
LINE
  5
16D
330
1F
100
AcDbEntity
  8
0
100
AcDbLine
 10
-9.258781312305237
 20
0.4354923983541432
 30
0.0
 11
-9.230106432387762
 21
0.4124515871276579
 31
0.0
  0
LINE
  5
16E
330
1F
100
AcDbEntity
  8
0
100
AcDbLine
 10
-9.230106432387762
 20
0.4124515871276579
 30
0.0
 11
-9.216793663542004
 21
0.3781602193229834
 31
0.0
  0
LINE
  5
16F
330
1F
100
AcDbEntity
  8
0
100
AcDbLine
 10
-9.180272424389154
 20
0.0978120436441036
 30
0.0
 11
-9.20042385355548
 21
0.067037904780268
 31
0.0
  0
LINE
  5
170
330
1F
100
AcDbEntity
  8
0
100
AcDbLine
 10
-9.595499166066691
 20
0.4752059820424718
 30
0.0
 11
-9.445595709874302
 21
0.444664375560438
 31
0.0
  0
LINE
  5
171
330
1F
100
AcDbEntity
  8
0
100
AcDbLine
 10
-9.445595709874302
 20
0.444664375560438
 30
0.0
 11
-9.354109413278023
 21
0.4371886151323769
 31
0.0
  0
LINE
  5
172
330
1F
100
AcDbEntity
  8
0
100
AcDbLine
 10
-8.754653790335187
 20
-1.044160060317904
 30
0.0
 11
-8.745268086297065
 21
-1.079727408826963
 31
0.0
  0
LINE
  5
173
330
1F
100
AcDbEntity
  8
0
100
AcDbLine
 10
-8.754923502422178
 20
-1.115222488200123
 30
0.0
 11
-8.781032877757218
 21
-1.141134420584068
 31
0.0
  0
LINE
  5
174
330
1F
100
AcDbEntity
  8
0
100
AcDbLine
 10
-7.360170992635877
 20
-2.772946900716407
 30
0.0
 11
-7.300348679477551
 21
-2.703327073746877
 31
0.0
  0
LINE
  5
175
330
1F
100
AcDbEntity
  8
0
100
AcDbLine
 10
-6.938401164049605
 20
-2.887748544238693
 30
0.0
 11
-6.959562113780912
 21
-2.977067319786441
 31
0.0
  0
LINE
  5
176
330
1F
100
AcDbEntity
  8
0
100
AcDbLine
 10
-4.36371355030872
 20
-3.247539135675685
 30
0.0
 11
-4.288344040966871
 21
-3.38066791906416
 31
0.0
  0
LINE
  5
177
330
1F
100
AcDbEntity
  8
0
100
AcDbLine
 10
-7.88904059031645
 20
-3.132561142298687
 30
0.0
 11
-7.647244073317538
 21
-3.00079618932072
 31
0.0
  0
LINE
  5
178
330
1F
100
AcDbEntity
  8
0
100
AcDbLine
 10
-3.971855585232395
 20
-3.752982296976591
 30
0.0
 11
-3.817100118908192
 21
-3.887362782932588
 31
0.0
  0
LINE
  5
179
330
1F
100
AcDbEntity
  8
0
100
AcDbLine
 10
-5.466568551020986
 20
-3.919670021439278
 30
0.0
 11
-5.360913210213824
 21
-4.095295527337236
 31
0.0
  0
LINE
  5
17A
330
1F
100
AcDbEntity
  8
0
100
AcDbLine
 10
-5.690532856064467
 20
-3.226387942081182
 30
0.0
 11
-5.683057095636406
 21
-3.31787423867746
 31
0.0
  0
LINE
  5
17B
330
1F
100
AcDbEntity
  8
0
100
AcDbLine
 10
-3.597427546707542
 20
-3.815986837502451
 30
0.0
 11
-3.551214612319673
 21
-3.616307759834674
 31
0.0
  0
LINE
  5
17C
330
1F
100
AcDbEntity
  8
0
100
AcDbLine
 10
-4.798619936214712
 20
-3.131059841108397
 30
0.0
 11
-4.775579124988226
 21
-3.102384961190923
 31
0.0
  0
LINE
  5
17D
330
1F
100
AcDbEntity
  8
0
100
AcDbLine
 10
-3.515690271794216
 20
-3.343240772272423
 30
0.0
 11
-3.514010973660372
 21
-3.129071854051838
 31
0.0
  0
LINE
  5
17E
330
1F
100
AcDbEntity
  8
0
100
AcDbLine
 10
-4.399094241378766
 20
-3.162840634164231
 30
0.0
 11
-4.36371355030872
 21
-3.247539135675685
 31
0.0
  0
LINE
  5
17F
330
1F
100
AcDbEntity
  8
0
100
AcDbLine
 10
-3.514010973660372
 20
-3.129071854051838
 30
0.0
 11
-3.531286895276499
 21
-2.977067319786442
 31
0.0
  0
LINE
  5
180
330
1F
100
AcDbEntity
  8
0
100
AcDbLine
 10
-7.647244073317538
 20
-3.00079618932072
 30
0.0
 11
-7.47299071213291
 21
-2.87626943842013
 31
0.0
  0
LINE
  5
181
330
1F
100
AcDbEntity
  8
0
100
AcDbLine
 10
-6.916448635472388
 20
-2.832871872236074
 30
0.0
 11
-6.938401164049605
 21
-2.887748544238693
 31
0.0
  0
LINE
  5
182
330
1F
100
AcDbEntity
  8
0
100
AcDbLine
 10
-5.6922290728427
 20
-3.131059841108396
 30
0.0
 11
-5.686612584955499
 21
-3.167413421180639
 31
0.0
  0
LINE
  5
183
330
1F
100
AcDbEntity
  8
0
100
AcDbLine
 10
-5.129935798843587
 20
-4.095295527337236
 30
0.0
 11
-5.024280458036425
 21
-3.919670021439278
 31
0.0
  0
LINE
  5
184
330
1F
100
AcDbEntity
  8
0
100
AcDbLine
 10
-3.551214612319673
 20
-3.616307759834674
 30
0.0
 11
-3.515690271794216
 21
-3.343240772272423
 31
0.0
  0
LINE
  5
185
330
1F
100
AcDbEntity
  8
0
100
AcDbLine
 10
-4.497666482123505
 20
-3.05048637304363
 30
0.0
 11
-4.460939581504672
 21
-3.052550953192311
 31
0.0
  0
LINE
  5
186
330
1F
100
AcDbEntity
  8
0
100
AcDbLine
 10
-6.202504968090541
 20
-3.38066791906416
 30
0.0
 11
-6.127135458748691
 21
-3.247539135675685
 31
0.0
  0
LINE
  5
187
330
1F
100
AcDbEntity
  8
0
100
AcDbLine
 10
-4.83833351990304
 20
-3.467777694869849
 30
0.0
 11
-4.807791913421005
 21
-3.317874238677462
 31
0.0
  0
LINE
  5
188
330
1F
100
AcDbEntity
  8
0
100
AcDbLine
 10
-6.959562113780912
 20
-2.977067319786441
 30
0.0
 11
-6.97683803539704
 21
-3.129071854051837
 31
0.0
  0
LINE
  5
189
330
1F
100
AcDbEntity
  8
0
100
AcDbLine
 10
-8.077747638869146
 20
-3.212542510063447
 30
0.0
 11
-7.88904059031645
 21
-3.132561142298687
 31
0.0
  0
LINE
  5
18A
330
1F
100
AcDbEntity
  8
0
100
AcDbLine
 10
-7.242943959396966
 20
-2.627202031225338
 30
0.0
 11
-7.207448880023805
 21
-2.617546615100224
 31
0.0
  0
LINE
  5
18B
330
1F
100
AcDbEntity
  8
0
100
AcDbLine
 10
-6.518993423825017
 20
-3.752982296976591
 30
0.0
 11
-6.329748880448935
 21
-3.552947146894236
 31
0.0
  0
LINE
  5
18C
330
1F
100
AcDbEntity
  8
0
100
AcDbLine
 10
-7.47299071213291
 20
-2.87626943842013
 30
0.0
 11
-7.360170992635877
 21
-2.772946900716407
 31
0.0
  0
LINE
  5
18D
330
1F
100
AcDbEntity
  8
0
100
AcDbLine
 10
-6.975158737263195
 20
-3.343240772272422
 30
0.0
 11
-6.939634396737738
 21
-3.616307759834674
 31
0.0
  0
LINE
  5
18E
330
1F
100
AcDbEntity
  8
0
100
AcDbLine
 10
-6.127135458748691
 20
-3.247539135675685
 30
0.0
 11
-6.091754767678647
 21
-3.162840634164231
 31
0.0
  0
LINE
  5
18F
330
1F
100
AcDbEntity
  8
0
100
AcDbLine
 10
-7.207448880023805
 20
-2.617546615100224
 30
0.0
 11
-7.171881531514747
 21
-2.626932319138346
 31
0.0
  0
LINE
  5
190
330
1F
100
AcDbEntity
  8
0
100
AcDbLine
 10
-6.060683566416575
 20
-3.072702382358637
 30
0.0
 11
-6.02990942755274
 21
-3.052550953192311
 31
0.0
  0
LINE
  5
191
330
1F
100
AcDbEntity
  8
0
100
AcDbLine
 10
-6.97683803539704
 20
-3.129071854051837
 30
0.0
 11
-6.975158737263195
 21
-3.343240772272422
 31
0.0
  0
LINE
  5
192
330
1F
100
AcDbEntity
  8
0
100
AcDbLine
 10
-6.02990942755274
 20
-3.052550953192311
 30
0.0
 11
-5.993182526933906
 21
-3.05048637304363
 31
0.0
  0
LINE
  5
193
330
1F
100
AcDbEntity
  8
0
100
AcDbLine
 10
-5.683057095636406
 20
-3.31787423867746
 30
0.0
 11
-5.652515489154371
 21
-3.467777694869849
 31
0.0
  0
LINE
  5
194
330
1F
100
AcDbEntity
  8
0
100
AcDbLine
 10
-5.584736546324319
 20
-3.670945508469439
 30
0.0
 11
-5.466568551020986
 21
-3.919670021439278
 31
0.0
  0
LINE
  5
195
330
1F
100
AcDbEntity
  8
0
100
AcDbLine
 10
-7.300348679477551
 20
-2.703327073746877
 30
0.0
 11
-7.268855891780911
 21
-2.653311406560376
 31
0.0
  0
LINE
  5
196
330
1F
100
AcDbEntity
  8
0
100
AcDbLine
 10
-5.686612584955499
 20
-3.167413421180639
 30
0.0
 11
-5.690532856064467
 21
-3.226387942081182
 31
0.0
  0
LINE
  5
197
330
1F
100
AcDbEntity
  8
0
100
AcDbLine
 10
-5.360913210213824
 20
-4.095295527337236
 30
0.0
 11
-5.129935798843587
 21
-4.095295527337236
 31
0.0
  0
LINE
  5
198
330
1F
100
AcDbEntity
  8
0
100
AcDbLine
 10
-6.673748890149218
 20
-3.887362782932586
 30
0.0
 11
-6.518993423825017
 21
-3.752982296976591
 31
0.0
  0
LINE
  5
199
330
1F
100
AcDbEntity
  8
0
100
AcDbLine
 10
-5.993182526933906
 20
-3.05048637304363
 30
0.0
 11
-5.749561251873859
 21
-3.089072192345165
 31
0.0
  0
LINE
  5
19A
330
1F
100
AcDbEntity
  8
0
100
AcDbLine
 10
-5.024280458036425
 20
-3.919670021439278
 30
0.0
 11
-4.906112462733093
 21
-3.67094550846944
 31
0.0
  0
LINE
  5
19B
330
1F
100
AcDbEntity
  8
0
100
AcDbLine
 10
-4.906112462733093
 20
-3.67094550846944
 30
0.0
 11
-4.83833351990304
 21
-3.467777694869849
 31
0.0
  0
LINE
  5
19C
330
1F
100
AcDbEntity
  8
0
100
AcDbLine
 10
-6.952107604266811
 20
-2.738912728206505
 30
0.0
 11
-6.923608447279026
 21
-2.762170539179201
 31
0.0
  0
LINE
  5
19D
330
1F
100
AcDbEntity
  8
0
100
AcDbLine
 10
-4.807791913421005
 20
-3.317874238677462
 30
0.0
 11
-4.800316152992944
 21
-3.226387942081182
 31
0.0
  0
LINE
  5
19E
330
1F
100
AcDbEntity
  8
0
100
AcDbLine
 10
-4.804236424101912
 20
-3.167413421180639
 30
0.0
 11
-4.798619936214712
 21
-3.131059841108397
 31
0.0
  0
LINE
  5
19F
330
1F
100
AcDbEntity
  8
0
100
AcDbLine
 10
-4.775579124988226
 20
-3.102384961190923
 30
0.0
 11
-4.741287757183551
 21
-3.089072192345165
 31
0.0
  0
LINE
  5
1A0
330
1F
100
AcDbEntity
  8
0
100
AcDbLine
 10
-4.460939581504672
 20
-3.052550953192311
 30
0.0
 11
-4.430165442640836
 21
-3.072702382358638
 31
0.0
  0
LINE
  5
1A1
330
1F
100
AcDbEntity
  8
0
100
AcDbLine
 10
-4.413589971188327
 20
-3.105541101371156
 30
0.0
 11
-4.399094241378766
 21
-3.162840634164231
 31
0.0
  0
LINE
  5
1A2
330
1F
100
AcDbEntity
  8
0
100
AcDbLine
 10
-6.91055635882751
 20
-2.796561972811864
 30
0.0
 11
-6.916448635472388
 21
-2.832871872236074
 31
0.0
  0
LINE
  5
1A3
330
1F
100
AcDbEntity
  8
0
100
AcDbLine
 10
-6.923608447279026
 20
-2.762170539179201
 30
0.0
 11
-6.91055635882751
 21
-2.796561972811864
 31
0.0
  0
LINE
  5
1A4
330
1F
100
AcDbEntity
  8
0
100
AcDbLine
 10
-5.715269884069186
 20
-3.102384961190922
 30
0.0
 11
-5.6922290728427
 21
-3.131059841108396
 31
0.0
  0
LINE
  5
1A5
330
1F
100
AcDbEntity
  8
0
100
AcDbLine
 10
-5.652515489154371
 20
-3.467777694869849
 30
0.0
 11
-5.584736546324319
 21
-3.670945508469439
 31
0.0
  0
LINE
  5
1A6
330
1F
100
AcDbEntity
  8
0
100
AcDbLine
 10
-6.077259037869085
 20
-3.105541101371154
 30
0.0
 11
-6.060683566416575
 21
-3.072702382358637
 31
0.0
  0
LINE
  5
1A7
330
1F
100
AcDbEntity
  8
0
100
AcDbLine
 10
-6.89342146234987
 20
-3.81598683750245
 30
0.0
 11
-6.673748890149218
 21
-3.887362782932586
 31
0.0
  0
LINE
  5
1A8
330
1F
100
AcDbEntity
  8
0
100
AcDbLine
 10
-6.091754767678647
 20
-3.162840634164231
 30
0.0
 11
-6.077259037869085
 21
-3.105541101371154
 31
0.0
  0
LINE
  5
1A9
330
1F
100
AcDbEntity
  8
0
100
AcDbLine
 10
-5.749561251873859
 20
-3.089072192345165
 30
0.0
 11
-5.715269884069186
 21
-3.102384961190922
 31
0.0
  0
LINE
  5
1AA
330
1F
100
AcDbEntity
  8
0
100
AcDbLine
 10
-4.741287757183551
 20
-3.089072192345165
 30
0.0
 11
-4.497666482123505
 21
-3.05048637304363
 31
0.0
  0
LINE
  5
1AB
330
1F
100
AcDbEntity
  8
0
100
AcDbLine
 10
-4.430165442640836
 20
-3.072702382358638
 30
0.0
 11
-4.413589971188327
 21
-3.105541101371156
 31
0.0
  0
LINE
  5
1AC
330
1F
100
AcDbEntity
  8
0
100
AcDbLine
 10
-4.288344040966871
 20
-3.38066791906416
 30
0.0
 11
-4.161100128608477
 21
-3.552947146894236
 31
0.0
  0
LINE
  5
1AD
330
1F
100
AcDbEntity
  8
0
100
AcDbLine
 10
-4.161100128608477
 20
-3.552947146894236
 30
0.0
 11
-3.971855585232395
 21
-3.752982296976591
 31
0.0
  0
LINE
  5
1AE
330
1F
100
AcDbEntity
  8
0
100
AcDbLine
 10
-3.817100118908192
 20
-3.887362782932588
 30
0.0
 11
-3.597427546707542
 21
-3.815986837502451
 31
0.0
  0
LINE
  5
1AF
330
1F
100
AcDbEntity
  8
0
100
AcDbLine
 10
-7.171881531514747
 20
-2.626932319138346
 30
0.0
 11
-6.952107604266811
 21
-2.738912728206505
 31
0.0
  0
LINE
  5
1B0
330
1F
100
AcDbEntity
  8
0
100
AcDbLine
 10
-6.939634396737738
 20
-3.616307759834674
 30
0.0
 11
-6.89342146234987
 21
-3.81598683750245
 31
0.0
  0
LINE
  5
1B1
330
1F
100
AcDbEntity
  8
0
100
AcDbLine
 10
-6.329748880448935
 20
-3.552947146894236
 30
0.0
 11
-6.202504968090541
 21
-3.38066791906416
 31
0.0
  0
LINE
  5
1B2
330
1F
100
AcDbEntity
  8
0
100
AcDbLine
 10
-7.268855891780911
 20
-2.653311406560376
 30
0.0
 11
-7.242943959396966
 21
-2.627202031225338
 31
0.0
  0
LINE
  5
1B3
330
1F
100
AcDbEntity
  8
0
100
AcDbLine
 10
-4.800316152992944
 20
-3.226387942081182
 30
0.0
 11
-4.804236424101912
 21
-3.167413421180639
 31
0.0
  0
LINE
  5
1B4
330
1F
100
AcDbEntity
  8
0
100
AcDbLine
 10
-1.386060218074128
 20
-0.8318406425840718
 30
0.0
 11
-1.234055683808732
 21
-0.8491165642002
 31
0.0
  0
LINE
  5
1B5
330
1F
100
AcDbEntity
  8
0
100
AcDbLine
 10
-1.48685809944044
 20
-1.34526924093607
 30
0.0
 11
-1.590180637144162
 21
-1.232449521439036
 31
0.0
  0
LINE
  5
1B6
330
1F
100
AcDbEntity
  8
0
100
AcDbLine
 10
-1.234055683808732
 20
-0.8491165642002
 30
0.0
 11
-1.019886765588147
 21
-0.8474372660663554
 31
0.0
  0
LINE
  5
1B7
330
1F
100
AcDbEntity
  8
0
100
AcDbLine
 10
-2.183056713523561
 20
-1.892827649742009
 30
0.0
 11
-2.104648603095459
 21
-1.940553928435979
 31
0.0
  0
LINE
  5
1B8
330
1F
100
AcDbEntity
  8
0
100
AcDbLine
 10
-1.475378993621876
 20
-0.8106796928527641
 30
0.0
 11
-1.386060218074128
 21
-0.8318406425840718
 31
0.0
  0
LINE
  5
1B9
330
1F
100
AcDbEntity
  8
0
100
AcDbLine
 10
-1.019886765588147
 20
-0.8474372660663554
 30
0.0
 11
-0.7468197780258948
 21
-0.8119129255408988
 31
0.0
  0
LINE
  5
1BA
330
1F
100
AcDbEntity
  8
0
100
AcDbLine
 10
-3.574400373585023
 20
-2.832871872236074
 30
0.0
 11
-3.580292650229901
 21
-2.796561972811864
 31
0.0
  0
LINE
  5
1BB
330
1F
100
AcDbEntity
  8
0
100
AcDbLine
 10
-0.475764754927983
 20
-0.5460274189523775
 30
0.0
 11
-0.6101452408839784
 21
-0.3912719526281752
 31
0.0
  0
LINE
  5
1BC
330
1F
100
AcDbEntity
  8
0
100
AcDbLine
 10
-0.5471407003581191
 20
-0.7656999911530294
 30
0.0
 11
-0.475764754927983
 21
-0.5460274189523775
 31
0.0
  0
LINE
  5
1BD
330
1F
100
AcDbEntity
  8
0
100
AcDbLine
 10
-0.7468197780258948
 20
-0.8119129255408988
 30
0.0
 11
-0.5471407003581191
 21
-0.7656999911530294
 31
0.0
  0
LINE
  5
1BE
330
1F
100
AcDbEntity
  8
0
100
AcDbLine
 10
-1.530255665624495
 20
-0.7887271642755483
 30
0.0
 11
-1.475378993621876
 21
-0.8106796928527641
 31
0.0
  0
LINE
  5
1BF
330
1F
100
AcDbEntity
  8
0
100
AcDbLine
 10
-1.566565565048705
 20
-0.7828348876306702
 30
0.0
 11
-1.530255665624495
 21
-0.7887271642755483
 31
0.0
  0
LINE
  5
1C0
330
1F
100
AcDbEntity
  8
0
100
AcDbLine
 10
-1.600956998681369
 20
-0.7958869760821855
 30
0.0
 11
-1.566565565048705
 21
-0.7828348876306702
 31
0.0
  0
LINE
  5
1C1
330
1F
100
AcDbEntity
  8
0
100
AcDbLine
 10
-1.624214809654064
 20
-0.8243861330699708
 30
0.0
 11
-1.600956998681369
 21
-0.7958869760821855
 31
0.0
  0
LINE
  5
1C2
330
1F
100
AcDbEntity
  8
0
100
AcDbLine
 10
-1.736195218722224
 20
-1.044160060317906
 30
0.0
 11
-1.624214809654064
 21
-0.8243861330699708
 31
0.0
  0
LINE
  5
1C3
330
1F
100
AcDbEntity
  8
0
100
AcDbLine
 10
-1.745580922760345
 20
-1.079727408826965
 30
0.0
 11
-1.736195218722224
 21
-1.044160060317906
 31
0.0
  0
LINE
  5
1C4
330
1F
100
AcDbEntity
  8
0
100
AcDbLine
 10
-1.735925506635231
 20
-1.115222488200125
 30
0.0
 11
-1.745580922760345
 21
-1.079727408826965
 31
0.0
  0
LINE
  5
1C5
330
1F
100
AcDbEntity
  8
0
100
AcDbLine
 10
-1.709816131300193
 20
-1.14113442058407
 30
0.0
 11
-1.735925506635231
 21
-1.115222488200125
 31
0.0
  0
LINE
  5
1C6
330
1F
100
AcDbEntity
  8
0
100
AcDbLine
 10
-1.659800464113693
 20
-1.172627208280711
 30
0.0
 11
-1.709816131300193
 21
-1.14113442058407
 31
0.0
  0
LINE
  5
1C7
330
1F
100
AcDbEntity
  8
0
100
AcDbLine
 10
-1.590180637144162
 20
-1.232449521439036
 30
0.0
 11
-1.659800464113693
 21
-1.172627208280711
 31
0.0
  0
LINE
  5
1C8
330
1F
100
AcDbEntity
  8
0
100
AcDbLine
 10
-1.362331348539849
 20
-1.519522602120698
 30
0.0
 11
-1.48685809944044
 21
-1.34526924093607
 31
0.0
  0
LINE
  5
1C9
330
1F
100
AcDbEntity
  8
0
100
AcDbLine
 10
-1.230566395561883
 20
-1.761319119119611
 30
0.0
 11
-1.362331348539849
 21
-1.519522602120698
 31
0.0
  0
LINE
  5
1CA
330
1F
100
AcDbEntity
  8
0
100
AcDbLine
 10
-1.150585027797122
 20
-1.950026167672306
 30
0.0
 11
-1.230566395561883
 21
-1.761319119119611
 31
0.0
  0
LINE
  5
1CB
330
1F
100
AcDbEntity
  8
0
100
AcDbLine
 10
-1.28635014381324
 20
-2.136890818787561
 30
0.0
 11
-1.150585027797122
 21
-1.950026167672306
 31
0.0
  0
LINE
  5
1CC
330
1F
100
AcDbEntity
  8
0
100
AcDbLine
 10
-1.490536813882769
 20
-2.119137702753807
 30
0.0
 11
-1.28635014381324
 21
-2.136890818787561
 31
0.0
  0
LINE
  5
1CD
330
1F
100
AcDbEntity
  8
0
100
AcDbLine
 10
-1.761216576725267
 20
-2.068541018538123
 30
0.0
 11
-1.490536813882769
 21
-2.119137702753807
 31
0.0
  0
LINE
  5
1CE
330
1F
100
AcDbEntity
  8
0
100
AcDbLine
 10
-1.965422253648817
 20
-2.003956290574058
 30
0.0
 11
-1.761216576725267
 21
-2.068541018538123
 31
0.0
  0
LINE
  5
1CF
330
1F
100
AcDbEntity
  8
0
100
AcDbLine
 10
-2.104648603095459
 20
-1.940553928435979
 30
0.0
 11
-1.965422253648817
 21
-2.003956290574058
 31
0.0
  0
LINE
  5
1D0
330
1F
100
AcDbEntity
  8
0
100
AcDbLine
 10
-2.228463825624382
 20
-1.854991730145943
 30
0.0
 11
-2.183056713523561
 21
-1.892827649742009
 31
0.0
  0
LINE
  5
1D1
330
1F
100
AcDbEntity
  8
0
100
AcDbLine
 10
-2.261175778458973
 20
-1.838167466060892
 30
0.0
 11
-2.228463825624382
 21
-1.854991730145943
 31
0.0
  0
LINE
  5
1D2
330
1F
100
AcDbEntity
  8
0
100
AcDbLine
 10
-2.297917292663653
 20
-1.839953202380555
 30
0.0
 11
-2.261175778458973
 21
-1.838167466060892
 31
0.0
  0
LINE
  5
1D3
330
1F
100
AcDbEntity
  8
0
100
AcDbLine
 10
-2.328843509178581
 20
-1.859870452500183
 30
0.0
 11
-2.297917292663653
 21
-1.839953202380555
 31
0.0
  0
LINE
  5
1D4
330
1F
100
AcDbEntity
  8
0
100
AcDbLine
 10
-2.503257085360387
 20
-2.03428402868199
 30
0.0
 11
-2.328843509178581
 21
-1.859870452500183
 31
0.0
  0
LINE
  5
1D5
330
1F
100
AcDbEntity
  8
0
100
AcDbLine
 10
-2.523174335480015
 20
-2.065210245196918
 30
0.0
 11
-2.503257085360387
 21
-2.03428402868199
 31
0.0
  0
LINE
  5
1D6
330
1F
100
AcDbEntity
  8
0
100
AcDbLine
 10
-2.524960071799678
 20
-2.101951759401597
 30
0.0
 11
-2.523174335480015
 21
-2.065210245196918
 31
0.0
  0
LINE
  5
1D7
330
1F
100
AcDbEntity
  8
0
100
AcDbLine
 10
-2.508135807714628
 20
-2.134663712236188
 30
0.0
 11
-2.524960071799678
 21
-2.101951759401597
 31
0.0
  0
LINE
  5
1D8
330
1F
100
AcDbEntity
  8
0
100
AcDbLine
 10
-2.470299888118562
 20
-2.18007082433701
 30
0.0
 11
-2.508135807714628
 21
-2.134663712236188
 31
0.0
  0
LINE
  5
1D9
330
1F
100
AcDbEntity
  8
0
100
AcDbLine
 10
-2.422573609424592
 20
-2.258478934765112
 30
0.0
 11
-2.470299888118562
 21
-2.18007082433701
 31
0.0
  0
LINE
  5
1DA
330
1F
100
AcDbEntity
  8
0
100
AcDbLine
 10
-2.359171247286512
 20
-2.397705284211753
 30
0.0
 11
-2.422573609424592
 21
-2.258478934765112
 31
0.0
  0
LINE
  5
1DB
330
1F
100
AcDbEntity
  8
0
100
AcDbLine
 10
-2.294586519322448
 20
-2.601910961135304
 30
0.0
 11
-2.359171247286512
 21
-2.397705284211753
 31
0.0
  0
LINE
  5
1DC
330
1F
100
AcDbEntity
  8
0
100
AcDbLine
 10
-2.243989835106764
 20
-2.872590723977801
 30
0.0
 11
-2.294586519322448
 21
-2.601910961135304
 31
0.0
  0
LINE
  5
1DD
330
1F
100
AcDbEntity
  8
0
100
AcDbLine
 10
-2.22623671907301
 20
-3.076777394047331
 30
0.0
 11
-2.243989835106764
 21
-2.872590723977801
 31
0.0
  0
LINE
  5
1DE
330
1F
100
AcDbEntity
  8
0
100
AcDbLine
 10
-2.413101370188266
 20
-3.212542510063448
 30
0.0
 11
-2.22623671907301
 21
-3.076777394047331
 31
0.0
  0
LINE
  5
1DF
330
1F
100
AcDbEntity
  8
0
100
AcDbLine
 10
-2.601808418740959
 20
-3.132561142298687
 30
0.0
 11
-2.413101370188266
 21
-3.212542510063448
 31
0.0
  0
LINE
  5
1E0
330
1F
100
AcDbEntity
  8
0
100
AcDbLine
 10
-2.843604935739874
 20
-3.00079618932072
 30
0.0
 11
-2.601808418740959
 21
-3.132561142298687
 31
0.0
  0
LINE
  5
1E1
330
1F
100
AcDbEntity
  8
0
100
AcDbLine
 10
-3.017858296924502
 20
-2.87626943842013
 30
0.0
 11
-2.843604935739874
 21
-3.00079618932072
 31
0.0
  0
LINE
  5
1E2
330
1F
100
AcDbEntity
  8
0
100
AcDbLine
 10
-3.130678016421535
 20
-2.772946900716407
 30
0.0
 11
-3.017858296924502
 21
-2.87626943842013
 31
0.0
  0
LINE
  5
1E3
330
1F
100
AcDbEntity
  8
0
100
AcDbLine
 10
-3.19050032957986
 20
-2.703327073746878
 30
0.0
 11
-3.130678016421535
 21
-2.772946900716407
 31
0.0
  0
LINE
  5
1E4
330
1F
100
AcDbEntity
  8
0
100
AcDbLine
 10
-3.221993117276502
 20
-2.653311406560378
 30
0.0
 11
-3.19050032957986
 21
-2.703327073746878
 31
0.0
  0
LINE
  5
1E5
330
1F
100
AcDbEntity
  8
0
100
AcDbLine
 10
-3.247905049660447
 20
-2.627202031225339
 30
0.0
 11
-3.221993117276502
 21
-2.653311406560378
 31
0.0
  0
LINE
  5
1E6
330
1F
100
AcDbEntity
  8
0
100
AcDbLine
 10
-3.283400129033606
 20
-2.617546615100224
 30
0.0
 11
-3.247905049660447
 21
-2.627202031225339
 31
0.0
  0
LINE
  5
1E7
330
1F
100
AcDbEntity
  8
0
100
AcDbLine
 10
-3.318967477542665
 20
-2.626932319138346
 30
0.0
 11
-3.283400129033606
 21
-2.617546615100224
 31
0.0
  0
LINE
  5
1E8
330
1F
100
AcDbEntity
  8
0
100
AcDbLine
 10
-3.538741404790601
 20
-2.738912728206506
 30
0.0
 11
-3.318967477542665
 21
-2.626932319138346
 31
0.0
  0
LINE
  5
1E9
330
1F
100
AcDbEntity
  8
0
100
AcDbLine
 10
-3.567240561778386
 20
-2.762170539179202
 30
0.0
 11
-3.538741404790601
 21
-2.738912728206506
 31
0.0
  0
LINE
  5
1EA
330
1F
100
AcDbEntity
  8
0
100
AcDbLine
 10
-3.580292650229901
 20
-2.796561972811864
 30
0.0
 11
-3.567240561778386
 21
-2.762170539179202
 31
0.0
  0
LINE
  5
1EB
330
1F
100
AcDbEntity
  8
0
100
AcDbLine
 10
-3.552447845007807
 20
-2.887748544238693
 30
0.0
 11
-3.574400373585023
 21
-2.832871872236074
 31
0.0
  0
LINE
  5
1EC
330
1F
100
AcDbEntity
  8
0
100
AcDbLine
 10
-3.531286895276499
 20
-2.977067319786442
 30
0.0
 11
-3.552447845007807
 21
-2.887748544238693
 31
0.0
  0
LINE
  5
1ED
330
1F
100
AcDbEntity
  8
0
100
AcDbLine
 10
-3.247905049660446
 20
4.391795964561609
 30
0.0
 11
-3.283400129033606
 21
4.382140548436495
 31
0.0
  0
LINE
  5
1EE
330
1F
100
AcDbEntity
  8
0
100
AcDbLine
 10
-3.221993117276501
 20
4.417905339896647
 30
0.0
 11
-3.247905049660446
 21
4.391795964561609
 31
0.0
  0
LINE
  5
1EF
330
1F
100
AcDbEntity
  8
0
100
AcDbLine
 10
-3.190500329579858
 20
4.467921007083149
 30
0.0
 11
-3.221993117276501
 21
4.417905339896647
 31
0.0
  0
LINE
  5
1F0
330
1F
100
AcDbEntity
  8
0
100
AcDbLine
 10
-3.130678016421534
 20
4.537540834052678
 30
0.0
 11
-3.190500329579858
 21
4.467921007083149
 31
0.0
  0
LINE
  5
1F1
330
1F
100
AcDbEntity
  8
0
100
AcDbLine
 10
-3.0178582969245
 20
4.640863371756401
 30
0.0
 11
-3.130678016421534
 21
4.537540834052678
 31
0.0
  0
LINE
  5
1F2
330
1F
100
AcDbEntity
  8
0
100
AcDbLine
 10
-2.843604935739873
 20
4.76539012265699
 30
0.0
 11
-3.0178582969245
 21
4.640863371756401
 31
0.0
  0
LINE
  5
1F3
330
1F
100
AcDbEntity
  8
0
100
AcDbLine
 10
-2.601808418740959
 20
4.897155075634958
 30
0.0
 11
-2.843604935739873
 21
4.76539012265699
 31
0.0
  0
LINE
  5
1F4
330
1F
100
AcDbEntity
  8
0
100
AcDbLine
 10
-2.413101370188264
 20
4.977136443399719
 30
0.0
 11
-2.601808418740959
 21
4.897155075634958
 31
0.0
  0
LINE
  5
1F5
330
1F
100
AcDbEntity
  8
0
100
AcDbLine
 10
-2.226236719073009
 20
4.841371327383602
 30
0.0
 11
-2.413101370188264
 21
4.977136443399719
 31
0.0
  0
LINE
  5
1F6
330
1F
100
AcDbEntity
  8
0
100
AcDbLine
 10
-2.243989835106763
 20
4.637184657314071
 30
0.0
 11
-2.226236719073009
 21
4.841371327383602
 31
0.0
  0
LINE
  5
1F7
330
1F
100
AcDbEntity
  8
0
100
AcDbLine
 10
-2.294586519322448
 20
4.366504894471574
 30
0.0
 11
-2.243989835106763
 21
4.637184657314071
 31
0.0
  0
LINE
  5
1F8
330
1F
100
AcDbEntity
  8
0
100
AcDbLine
 10
-2.359171247286512
 20
4.162299217548024
 30
0.0
 11
-2.294586519322448
 21
4.366504894471574
 31
0.0
  0
LINE
  5
1F9
330
1F
100
AcDbEntity
  8
0
100
AcDbLine
 10
-2.422573609424592
 20
4.023072868101382
 30
0.0
 11
-2.359171247286512
 21
4.162299217548024
 31
0.0
  0
LINE
  5
1FA
330
1F
100
AcDbEntity
  8
0
100
AcDbLine
 10
-2.470299888118561
 20
3.94466475767328
 30
0.0
 11
-2.422573609424592
 21
4.023072868101382
 31
0.0
  0
LINE
  5
1FB
330
1F
100
AcDbEntity
  8
0
100
AcDbLine
 10
-2.508135807714627
 20
3.899257645572459
 30
0.0
 11
-2.470299888118561
 21
3.94466475767328
 31
0.0
  0
LINE
  5
1FC
330
1F
100
AcDbEntity
  8
0
100
AcDbLine
 10
-2.524960071799678
 20
3.866545692737868
 30
0.0
 11
-2.508135807714627
 21
3.899257645572459
 31
0.0
  0
LINE
  5
1FD
330
1F
100
AcDbEntity
  8
0
100
AcDbLine
 10
-2.523174335480015
 20
3.829804178533188
 30
0.0
 11
-2.524960071799678
 21
3.866545692737868
 31
0.0
  0
LINE
  5
1FE
330
1F
100
AcDbEntity
  8
0
100
AcDbLine
 10
-2.503257085360387
 20
3.79887796201826
 30
0.0
 11
-2.523174335480015
 21
3.829804178533188
 31
0.0
  0
LINE
  5
1FF
330
1F
100
AcDbEntity
  8
0
100
AcDbLine
 10
-2.32884350917858
 20
3.624464385836454
 30
0.0
 11
-2.503257085360387
 21
3.79887796201826
 31
0.0
  0
LINE
  5
200
330
1F
100
AcDbEntity
  8
0
100
AcDbLine
 10
-2.297917292663652
 20
3.604547135716825
 30
0.0
 11
-2.32884350917858
 21
3.624464385836454
 31
0.0
  0
LINE
  5
201
330
1F
100
AcDbEntity
  8
0
100
AcDbLine
 10
-2.261175778458973
 20
3.602761399397163
 30
0.0
 11
-2.297917292663652
 21
3.604547135716825
 31
0.0
  0
LINE
  5
202
330
1F
100
AcDbEntity
  8
0
100
AcDbLine
 10
-2.228463825624382
 20
3.619585663482213
 30
0.0
 11
-2.261175778458973
 21
3.602761399397163
 31
0.0
  0
LINE
  5
203
330
1F
100
AcDbEntity
  8
0
100
AcDbLine
 10
-2.183056713523561
 20
3.657421583078279
 30
0.0
 11
-2.228463825624382
 21
3.619585663482213
 31
0.0
  0
LINE
  5
204
330
1F
100
AcDbEntity
  8
0
100
AcDbLine
 10
-2.104648603095458
 20
3.705147861772249
 30
0.0
 11
-2.183056713523561
 21
3.657421583078279
 31
0.0
  0
LINE
  5
205
330
1F
100
AcDbEntity
  8
0
100
AcDbLine
 10
-1.965422253648816
 20
3.768550223910328
 30
0.0
 11
-2.104648603095458
 21
3.705147861772249
 31
0.0
  0
LINE
  5
206
330
1F
100
AcDbEntity
  8
0
100
AcDbLine
 10
-1.761216576725265
 20
3.833134951874393
 30
0.0
 11
-1.965422253648816
 21
3.768550223910328
 31
0.0
  0
LINE
  5
207
330
1F
100
AcDbEntity
  8
0
100
AcDbLine
 10
-1.490536813882769
 20
3.883731636090077
 30
0.0
 11
-1.761216576725265
 21
3.833134951874393
 31
0.0
  0
LINE
  5
208
330
1F
100
AcDbEntity
  8
0
100
AcDbLine
 10
-1.286350143813239
 20
3.901484752123831
 30
0.0
 11
-1.490536813882769
 21
3.883731636090077
 31
0.0
  0
LINE
  5
209
330
1F
100
AcDbEntity
  8
0
100
AcDbLine
 10
-1.150585027797122
 20
3.714620101008576
 30
0.0
 11
-1.286350143813239
 21
3.901484752123831
 31
0.0
  0
LINE
  5
20A
330
1F
100
AcDbEntity
  8
0
100
AcDbLine
 10
-1.230566395561883
 20
3.525913052455882
 30
0.0
 11
-1.150585027797122
 21
3.714620101008576
 31
0.0
  0
LINE
  5
20B
330
1F
100
AcDbEntity
  8
0
100
AcDbLine
 10
-1.362331348539849
 20
3.284116535456967
 30
0.0
 11
-1.230566395561883
 21
3.525913052455882
 31
0.0
  0
LINE
  5
20C
330
1F
100
AcDbEntity
  8
0
100
AcDbLine
 10
-1.48685809944044
 20
3.10986317427234
 30
0.0
 11
-1.362331348539849
 21
3.284116535456967
 31
0.0
  0
LINE
  5
20D
330
1F
100
AcDbEntity
  8
0
100
AcDbLine
 10
-1.590180637144162
 20
2.997043454775306
 30
0.0
 11
-1.48685809944044
 21
3.10986317427234
 31
0.0
  0
LINE
  5
20E
330
1F
100
AcDbEntity
  8
0
100
AcDbLine
 10
-1.659800464113692
 20
2.937221141616982
 30
0.0
 11
-1.590180637144162
 21
2.997043454775306
 31
0.0
  0
LINE
  5
20F
330
1F
100
AcDbEntity
  8
0
100
AcDbLine
 10
-1.709816131300192
 20
2.905728353920339
 30
0.0
 11
-1.659800464113692
 21
2.937221141616982
 31
0.0
  0
LINE
  5
210
330
1F
100
AcDbEntity
  8
0
100
AcDbLine
 10
-1.735925506635231
 20
2.879816421536395
 30
0.0
 11
-1.709816131300192
 21
2.905728353920339
 31
0.0
  0
LINE
  5
211
330
1F
100
AcDbEntity
  8
0
100
AcDbLine
 10
-1.745580922760344
 20
2.844321342163234
 30
0.0
 11
-1.735925506635231
 21
2.879816421536395
 31
0.0
  0
LINE
  5
212
330
1F
100
AcDbEntity
  8
0
100
AcDbLine
 10
-1.736195218722224
 20
2.808753993654176
 30
0.0
 11
-1.745580922760344
 21
2.844321342163234
 31
0.0
  0
LINE
  5
213
330
1F
100
AcDbEntity
  8
0
100
AcDbLine
 10
-1.624214809654064
 20
2.588980066406241
 30
0.0
 11
-1.736195218722224
 21
2.808753993654176
 31
0.0
  0
LINE
  5
214
330
1F
100
AcDbEntity
  8
0
100
AcDbLine
 10
-1.600956998681368
 20
2.560480909418455
 30
0.0
 11
-1.624214809654064
 21
2.588980066406241
 31
0.0
  0
LINE
  5
215
330
1F
100
AcDbEntity
  8
0
100
AcDbLine
 10
-1.566565565048705
 20
2.54742882096694
 30
0.0
 11
-1.600956998681368
 21
2.560480909418455
 31
0.0
  0
LINE
  5
216
330
1F
100
AcDbEntity
  8
0
100
AcDbLine
 10
-1.530255665624495
 20
2.553321097611819
 30
0.0
 11
-1.566565565048705
 21
2.54742882096694
 31
0.0
  0
LINE
  5
217
330
1F
100
AcDbEntity
  8
0
100
AcDbLine
 10
-1.475378993621876
 20
2.575273626189034
 30
0.0
 11
-1.530255665624495
 21
2.553321097611819
 31
0.0
  0
LINE
  5
218
330
1F
100
AcDbEntity
  8
0
100
AcDbLine
 10
-1.386060218074128
 20
2.596434575920342
 30
0.0
 11
-1.475378993621876
 21
2.575273626189034
 31
0.0
  0
LINE
  5
219
330
1F
100
AcDbEntity
  8
0
100
AcDbLine
 10
-1.234055683808731
 20
2.61371049753647
 30
0.0
 11
-1.386060218074128
 21
2.596434575920342
 31
0.0
  0
LINE
  5
21A
330
1F
100
AcDbEntity
  8
0
100
AcDbLine
 10
-1.019886765588147
 20
2.612031199402626
 30
0.0
 11
-1.234055683808731
 21
2.61371049753647
 31
0.0
  0
LINE
  5
21B
330
1F
100
AcDbEntity
  8
0
100
AcDbLine
 10
-0.7468197780258948
 20
2.576506858877169
 30
0.0
 11
-1.019886765588147
 21
2.612031199402626
 31
0.0
  0
LINE
  5
21C
330
1F
100
AcDbEntity
  8
0
100
AcDbLine
 10
-0.5471407003581191
 20
2.5302939244893
 30
0.0
 11
-0.7468197780258948
 21
2.576506858877169
 31
0.0
  0
LINE
  5
21D
330
1F
100
AcDbEntity
  8
0
100
AcDbLine
 10
-0.475764754927983
 20
2.310621352288649
 30
0.0
 11
-0.5471407003581191
 21
2.5302939244893
 31
0.0
  0
LINE
  5
21E
330
1F
100
AcDbEntity
  8
0
100
AcDbLine
 10
-0.6101452408839784
 20
2.155865885964446
 30
0.0
 11
-0.475764754927983
 21
2.310621352288649
 31
0.0
  0
LINE
  5
21F
330
1F
100
AcDbEntity
  8
0
100
AcDbLine
 10
-0.8101803909663342
 20
1.966621342588364
 30
0.0
 11
-0.6101452408839784
 21
2.155865885964446
 31
0.0
  0
LINE
  5
220
330
1F
100
AcDbEntity
  8
0
100
AcDbLine
 10
-0.9824596187964092
 20
1.83937743022997
 30
0.0
 11
-0.8101803909663342
 21
1.966621342588364
 31
0.0
  0
LINE
  5
221
330
1F
100
AcDbEntity
  8
0
100
AcDbLine
 10
-1.115588402184885
 20
1.764007920888121
 30
0.0
 11
-0.9824596187964092
 21
1.83937743022997
 31
0.0
  0
LINE
  5
222
330
1F
100
AcDbEntity
  8
0
100
AcDbLine
 10
-1.20028690369634
 20
1.728627229818075
 30
0.0
 11
-1.115588402184885
 21
1.764007920888121
 31
0.0
  0
LINE
  5
223
330
1F
100
AcDbEntity
  8
0
100
AcDbLine
 10
-1.257586436489414
 20
1.714131500008514
 30
0.0
 11
-1.20028690369634
 21
1.728627229818075
 31
0.0
  0
LINE
  5
224
330
1F
100
AcDbEntity
  8
0
100
AcDbLine
 10
-1.290425155501932
 20
1.697556028556005
 30
0.0
 11
-1.257586436489414
 21
1.714131500008514
 31
0.0
  0
LINE
  5
225
330
1F
100
AcDbEntity
  8
0
100
AcDbLine
 10
-1.310576584668258
 20
1.66678188969217
 30
0.0
 11
-1.290425155501932
 21
1.697556028556005
 31
0.0
  0
LINE
  5
226
330
1F
100
AcDbEntity
  8
0
100
AcDbLine
 10
-1.31264116481694
 20
1.630054989073336
 30
0.0
 11
-1.310576584668258
 21
1.66678188969217
 31
0.0
  0
LINE
  5
227
330
1F
100
AcDbEntity
  8
0
100
AcDbLine
 10
-1.274055345515405
 20
1.38643371401329
 30
0.0
 11
-1.31264116481694
 21
1.630054989073336
 31
0.0
  0
LINE
  5
228
330
1F
100
AcDbEntity
  8
0
100
AcDbLine
 10
-1.260742576669647
 20
1.352142346208615
 30
0.0
 11
-1.274055345515405
 21
1.38643371401329
 31
0.0
  0
LINE
  5
229
330
1F
100
AcDbEntity
  8
0
100
AcDbLine
 10
-1.232067696752174
 20
1.32910153498213
 30
0.0
 11
-1.260742576669647
 21
1.352142346208615
 31
0.0
  0
LINE
  5
22A
330
1F
100
AcDbEntity
  8
0
100
AcDbLine
 10
-1.195714116679931
 20
1.323485047094928
 30
0.0
 11
-1.232067696752174
 21
1.32910153498213
 31
0.0
  0
LINE
  5
22B
330
1F
100
AcDbEntity
  8
0
100
AcDbLine
 10
-1.136739595779387
 20
1.327405318203897
 30
0.0
 11
-1.195714116679931
 21
1.323485047094928
 31
0.0
  0
LINE
  5
22C
330
1F
100
AcDbEntity
  8
0
100
AcDbLine
 10
-1.045253299183108
 20
1.319929557775835
 30
0.0
 11
-1.136739595779387
 21
1.327405318203897
 31
0.0
  0
LINE
  5
22D
330
1F
100
AcDbEntity
  8
0
100
AcDbLine
 10
-0.8953498429907204
 20
1.289387951293802
 30
0.0
 11
-1.045253299183108
 21
1.319929557775835
 31
0.0
  0
LINE
  5
22E
330
1F
100
AcDbEntity
  8
0
100
AcDbLine
 10
-0.6921820293911305
 20
1.221609008463748
 30
0.0
 11
-0.8953498429907204
 21
1.289387951293802
 31
0.0
  0
LINE
  5
22F
330
1F
100
AcDbEntity
  8
0
100
AcDbLine
 10
-0.4434575164212905
 20
1.103441013160416
 30
0.0
 11
-0.6921820293911305
 21
1.221609008463748
 31
0.0
  0
LINE
  5
230
330
1F
100
AcDbEntity
  8
0
100
AcDbLine
 10
-0.2678320105233333
 20
0.9977856723532543
 30
0.0
 11
-0.4434575164212905
 21
1.103441013160416
 31
0.0
  0
LINE
  5
231
330
1F
100
AcDbEntity
  8
0
100
AcDbLine
 10
-0.2678320105233333
 20
0.7668082609830168
 30
0.0
 11
-0.2678320105233333
 21
0.9977856723532543
 31
0.0
  0
LINE
  5
232
330
1F
100
AcDbEntity
  8
0
100
AcDbLine
 10
-0.4434575164212905
 20
0.6611529201758556
 30
0.0
 11
-0.2678320105233333
 21
0.7668082609830168
 31
0.0
  0
LINE
  5
233
330
1F
100
AcDbEntity
  8
0
100
AcDbLine
 10
-0.6921820293911305
 20
0.5429849248725234
 30
0.0
 11
-0.4434575164212905
 21
0.6611529201758556
 31
0.0
  0
LINE
  5
234
330
1F
100
AcDbEntity
  8
0
100
AcDbLine
 10
-0.8953498429907204
 20
0.4752059820424696
 30
0.0
 11
-0.6921820293911305
 21
0.5429849248725234
 31
0.0
  0
LINE
  5
235
330
1F
100
AcDbEntity
  8
0
100
AcDbLine
 10
-1.045253299183109
 20
0.4446643755604359
 30
0.0
 11
-0.8953498429907204
 21
0.4752059820424696
 31
0.0
  0
LINE
  5
236
330
1F
100
AcDbEntity
  8
0
100
AcDbLine
 10
-1.136739595779387
 20
0.4371886151323746
 30
0.0
 11
-1.045253299183109
 21
0.4446643755604359
 31
0.0
  0
LINE
  5
237
330
1F
100
AcDbEntity
  8
0
100
AcDbLine
 10
-1.195714116679931
 20
0.4411088862413423
 30
0.0
 11
-1.136739595779387
 21
0.4371886151323746
 31
0.0
  0
LINE
  5
238
330
1F
100
AcDbEntity
  8
0
100
AcDbLine
 10
-1.232067696752174
 20
0.435492398354141
 30
0.0
 11
-1.195714116679931
 21
0.4411088862413423
 31
0.0
  0
LINE
  5
239
330
1F
100
AcDbEntity
  8
0
100
AcDbLine
 10
-1.260742576669647
 20
0.4124515871276558
 30
0.0
 11
-1.232067696752174
 21
0.435492398354141
 31
0.0
  0
LINE
  5
23A
330
1F
100
AcDbEntity
  8
0
100
AcDbLine
 10
-1.274055345515405
 20
0.3781602193229812
 30
0.0
 11
-1.260742576669647
 21
0.4124515871276558
 31
0.0
  0
LINE
  5
23B
330
1F
100
AcDbEntity
  8
0
100
AcDbLine
 10
-1.31264116481694
 20
0.1345389442629352
 30
0.0
 11
-1.274055345515405
 21
0.3781602193229812
 31
0.0
  0
LINE
  5
23C
330
1F
100
AcDbEntity
  8
0
100
AcDbLine
 10
-1.310576584668258
 20
0.0978120436441013
 30
0.0
 11
-1.31264116481694
 21
0.1345389442629352
 31
0.0
  0
LINE
  5
23D
330
1F
100
AcDbEntity
  8
0
100
AcDbLine
 10
-1.290425155501932
 20
0.067037904780266
 30
0.0
 11
-1.310576584668258
 21
0.0978120436441013
 31
0.0
  0
LINE
  5
23E
330
1F
100
AcDbEntity
  8
0
100
AcDbLine
 10
-1.257586436489414
 20
0.0504624333277566
 30
0.0
 11
-1.290425155501932
 21
0.067037904780266
 31
0.0
  0
LINE
  5
23F
330
1F
100
AcDbEntity
  8
0
100
AcDbLine
 10
-1.200286903696339
 20
0.0359667035181954
 30
0.0
 11
-1.257586436489414
 21
0.0504624333277566
 31
0.0
  0
LINE
  5
240
330
1F
100
AcDbEntity
  8
0
100
AcDbLine
 10
-1.115588402184884
 20
0.0005860124481497
 30
0.0
 11
-1.200286903696339
 21
0.0359667035181954
 31
0.0
  0
LINE
  5
241
330
1F
100
AcDbEntity
  8
0
100
AcDbLine
 10
-0.9824596187964092
 20
-0.0747834968936991
 30
0.0
 11
-1.115588402184884
 21
0.0005860124481497
 31
0.0
  0
LINE
  5
242
330
1F
100
AcDbEntity
  8
0
100
AcDbLine
 10
-0.8101803909663335
 20
-0.2020274092520936
 30
0.0
 11
-0.9824596187964092
 21
-0.0747834968936991
 31
0.0
  0
LINE
  5
243
330
1F
100
AcDbEntity
  8
0
100
AcDbLine
 10
-0.6101452408839784
 20
-0.3912719526281752
 30
0.0
 11
-0.8101803909663335
 21
-0.2020274092520936
 31
0.0
  0
LINE
  5
244
330
1F
100
AcDbEntity
  8
0
100
AcDbLine
 10
7.073283667590042
 20
1.096650921748968
 30
0.0
 11
7.371042733159034
 21
1.041794204169417
 31
0.0
  0
LINE
  5
245
330
1F
100
AcDbEntity
  8
0
100
AcDbLine
 10
7.371042733159034
 20
1.948408903524559
 30
0.0
 11
7.073283667590042
 21
1.893552185945008
 31
0.0
  0
LINE
  5
246
330
1F
100
AcDbEntity
  8
0
100
AcDbLine
 10
6.86529990878851
 20
2.298209675751951
 30
0.0
 11
6.857529377498293
 21
2.341042342531821
 31
0.0
  0
LINE
  5
247
330
1F
100
AcDbEntity
  8
0
100
AcDbLine
 10
7.371042733159034
 20
1.041794204169417
 30
0.0
 11
7.425356080317631
 21
1.041956795459643
 31
0.0
  0
LINE
  5
248
330
1F
100
AcDbEntity
  8
0
100
AcDbLine
 10
7.546736874797462
 20
-0.0567563894607756
 30
0.0
 11
7.459089432177908
 21
0.1220644409199327
 31
0.0
  0
LINE
  5
249
330
1F
100
AcDbEntity
  8
0
100
AcDbLine
 10
7.515199593412492
 20
1.05301354745107
 30
0.0
 11
7.638191627311599
 21
1.083563211093713
 31
0.0
  0
LINE
  5
24A
330
1F
100
AcDbEntity
  8
0
100
AcDbLine
 10
7.515199593412492
 20
1.937189560242906
 30
0.0
 11
7.425356080317631
 21
1.948246312234333
 31
0.0
  0
LINE
  5
24B
330
1F
100
AcDbEntity
  8
0
100
AcDbLine
 10
7.029873400945908
 20
1.093400191078358
 30
0.0
 11
7.073283667590042
 21
1.096650921748968
 31
0.0
  0
LINE
  5
24C
330
1F
100
AcDbEntity
  8
0
100
AcDbLine
 10
7.630840289730862
 20
-0.3045490720696994
 30
0.0
 11
7.623856327379018
 21
-0.2791164153024241
 31
0.0
  0
LINE
  5
24D
330
1F
100
AcDbEntity
  8
0
100
AcDbLine
 10
6.905425145288088
 20
0.5800355110856822
 30
0.0
 11
6.872216233389996
 21
0.6081813219738467
 31
0.0
  0
LINE
  5
24E
330
1F
100
AcDbEntity
  8
0
100
AcDbLine
 10
7.790396125882421
 20
1.8484815098037
 30
0.0
 11
7.638191627311599
 21
1.906639896600264
 31
0.0
  0
LINE
  5
24F
330
1F
100
AcDbEntity
  8
0
100
AcDbLine
 10
7.425356080317631
 20
1.948246312234333
 30
0.0
 11
7.371042733159034
 21
1.948408903524559
 31
0.0
  0
LINE
  5
250
330
1F
100
AcDbEntity
  8
0
100
AcDbLine
 10
7.178561259145041
 20
0.4493971403853247
 30
0.0
 11
6.905425145288088
 21
0.5800355110856822
 31
0.0
  0
LINE
  5
251
330
1F
100
AcDbEntity
  8
0
100
AcDbLine
 10
7.966412643375616
 20
1.234872814443584
 30
0.0
 11
8.159503535000084
 21
1.369436177326823
 31
0.0
  0
LINE
  5
252
330
1F
100
AcDbEntity
  8
0
100
AcDbLine
 10
6.99390437258234
 20
1.921323265279294
 30
0.0
 11
6.975014454601881
 21
1.960543024313474
 31
0.0
  0
LINE
  5
253
330
1F
100
AcDbEntity
  8
0
100
AcDbLine
 10
6.872216233389996
 20
2.38202178572013
 30
0.0
 11
6.905425145288088
 21
2.410167596608294
 31
0.0
  0
LINE
  5
254
330
1F
100
AcDbEntity
  8
0
100
AcDbLine
 10
6.905425145288088
 20
2.410167596608294
 30
0.0
 11
7.178561259145041
 21
2.540805967308651
 31
0.0
  0
LINE
  5
255
330
1F
100
AcDbEntity
  8
0
100
AcDbLine
 10
7.178561259145041
 20
2.540805967308651
 30
0.0
 11
7.222406111255187
 21
2.572862090888048
 31
0.0
  0
LINE
  5
256
330
1F
100
AcDbEntity
  8
0
100
AcDbLine
 10
7.425356080317631
 20
1.041956795459643
 30
0.0
 11
7.515199593412492
 21
1.05301354745107
 31
0.0
  0
LINE
  5
257
330
1F
100
AcDbEntity
  8
0
100
AcDbLine
 10
7.222406111255187
 20
2.572862090888048
 30
0.0
 11
7.28859204442446
 21
2.634615883163004
 31
0.0
  0
LINE
  5
258
330
1F
100
AcDbEntity
  8
0
100
AcDbLine
 10
7.28859204442446
 20
2.634615883163004
 30
0.0
 11
7.370138048269936
 21
2.731623983897692
 31
0.0
  0
LINE
  5
259
330
1F
100
AcDbEntity
  8
0
100
AcDbLine
 10
6.975014454601881
 20
1.029660083380502
 30
0.0
 11
6.99390437258234
 21
1.068879842414682
 31
0.0
  0
LINE
  5
25A
330
1F
100
AcDbEntity
  8
0
100
AcDbLine
 10
6.872216233389996
 20
0.6081813219738467
 30
0.0
 11
6.857529377498293
 21
0.6491607651621557
 31
0.0
  0
LINE
  5
25B
330
1F
100
AcDbEntity
  8
0
100
AcDbLine
 10
7.623856327379018
 20
-0.2791164153024241
 30
0.0
 11
7.546736874797462
 21
-0.0567563894607756
 31
0.0
  0
LINE
  5
25C
330
1F
100
AcDbEntity
  8
0
100
AcDbLine
 10
7.459089432177908
 20
2.868138666774044
 30
0.0
 11
7.546736874797462
 21
3.046959497154752
 31
0.0
  0
LINE
  5
25D
330
1F
100
AcDbEntity
  8
0
100
AcDbLine
 10
7.546736874797462
 20
3.046959497154752
 30
0.0
 11
7.623856327379018
 21
3.2693195229964
 31
0.0
  0
LINE
  5
25E
330
1F
100
AcDbEntity
  8
0
100
AcDbLine
 10
7.459089432177908
 20
0.1220644409199327
 30
0.0
 11
7.370138048269936
 21
0.2585791237962838
 31
0.0
  0
LINE
  5
25F
330
1F
100
AcDbEntity
  8
0
100
AcDbLine
 10
7.623856327379018
 20
3.2693195229964
 30
0.0
 11
7.630840289730862
 21
3.294752179763676
 31
0.0
  0
LINE
  5
260
330
1F
100
AcDbEntity
  8
0
100
AcDbLine
 10
7.073283667590042
 20
1.893552185945008
 30
0.0
 11
7.029873400945908
 21
1.896802916615618
 31
0.0
  0
LINE
  5
261
330
1F
100
AcDbEntity
  8
0
100
AcDbLine
 10
7.370138048269936
 20
2.731623983897692
 30
0.0
 11
7.459089432177908
 21
2.868138666774044
 31
0.0
  0
LINE
  5
262
330
1F
100
AcDbEntity
  8
0
100
AcDbLine
 10
7.630840289730862
 20
3.294752179763676
 30
0.0
 11
7.502473874294362
 21
3.471433393166167
 31
0.0
  0
LINE
  5
263
330
1F
100
AcDbEntity
  8
0
100
AcDbLine
 10
7.502473874294362
 20
3.471433393166167
 30
0.0
 11
7.476127817294351
 21
3.47265037341508
 31
0.0
  0
LINE
  5
264
330
1F
100
AcDbEntity
  8
0
100
AcDbLine
 10
6.857529377498293
 20
2.341042342531821
 30
0.0
 11
6.872216233389996
 21
2.38202178572013
 31
0.0
  0
LINE
  5
265
330
1F
100
AcDbEntity
  8
0
100
AcDbLine
 10
7.370138048269936
 20
0.2585791237962838
 30
0.0
 11
7.28859204442446
 21
0.3555872245309722
 31
0.0
  0
LINE
  5
266
330
1F
100
AcDbEntity
  8
0
100
AcDbLine
 10
6.857529377498293
 20
0.6491607651621557
 30
0.0
 11
6.86529990878851
 21
0.691993431942025
 31
0.0
  0
LINE
  5
267
330
1F
100
AcDbEntity
  8
0
100
AcDbLine
 10
7.476127817294351
 20
3.47265037341508
 30
0.0
 11
7.2408196443095
 21
3.468018442358998
 31
0.0
  0
LINE
  5
268
330
1F
100
AcDbEntity
  8
0
100
AcDbLine
 10
8.159503535000084
 20
1.369436177326823
 30
0.0
 11
8.180102619805222
 21
1.385906558790674
 31
0.0
  0
LINE
  5
269
330
1F
100
AcDbEntity
  8
0
100
AcDbLine
 10
7.2408196443095
 20
3.468018442358998
 30
0.0
 11
7.04366637904367
 21
3.439919446454944
 31
0.0
  0
LINE
  5
26A
330
1F
100
AcDbEntity
  8
0
100
AcDbLine
 10
7.04366637904367
 20
3.439919446454944
 30
0.0
 11
6.886345711023417
 21
3.397507010146295
 31
0.0
  0
LINE
  5
26B
330
1F
100
AcDbEntity
  8
0
100
AcDbLine
 10
6.886345711023417
 20
3.397507010146295
 30
0.0
 11
6.768886423674656
 21
3.34992930353028
 31
0.0
  0
LINE
  5
26C
330
1F
100
AcDbEntity
  8
0
100
AcDbLine
 10
6.768886423674656
 20
3.34992930353028
 30
0.0
 11
6.689702498987753
 21
3.30606571178263
 31
0.0
  0
LINE
  5
26D
330
1F
100
AcDbEntity
  8
0
100
AcDbLine
 10
6.689702498987753
 20
3.30606571178263
 30
0.0
 11
6.645666509352513
 21
3.274272666437095
 31
0.0
  0
LINE
  5
26E
330
1F
100
AcDbEntity
  8
0
100
AcDbLine
 10
7.638191627311599
 20
1.083563211093713
 30
0.0
 11
7.790396125882421
 21
1.141721597890276
 31
0.0
  0
LINE
  5
26F
330
1F
100
AcDbEntity
  8
0
100
AcDbLine
 10
8.180102619805222
 20
1.385906558790674
 30
0.0
 11
8.180102619805222
 21
1.604296548903302
 31
0.0
  0
LINE
  5
270
330
1F
100
AcDbEntity
  8
0
100
AcDbLine
 10
6.86529990878851
 20
0.691993431942025
 30
0.0
 11
6.975014454601881
 21
1.029660083380502
 31
0.0
  0
LINE
  5
271
330
1F
100
AcDbEntity
  8
0
100
AcDbLine
 10
6.99390437258234
 20
1.068879842414682
 30
0.0
 11
7.029873400945908
 21
1.093400191078358
 31
0.0
  0
LINE
  5
272
330
1F
100
AcDbEntity
  8
0
100
AcDbLine
 10
7.966412643375616
 20
1.755330293250392
 30
0.0
 11
7.790396125882421
 21
1.8484815098037
 31
0.0
  0
LINE
  5
273
330
1F
100
AcDbEntity
  8
0
100
AcDbLine
 10
7.029873400945908
 20
1.896802916615618
 30
0.0
 11
6.99390437258234
 21
1.921323265279294
 31
0.0
  0
LINE
  5
274
330
1F
100
AcDbEntity
  8
0
100
AcDbLine
 10
6.975014454601881
 20
1.960543024313474
 30
0.0
 11
6.86529990878851
 21
2.298209675751951
 31
0.0
  0
LINE
  5
275
330
1F
100
AcDbEntity
  8
0
100
AcDbLine
 10
8.180102619805222
 20
1.604296548903302
 30
0.0
 11
8.159503535000084
 21
1.620766930367153
 31
0.0
  0
LINE
  5
276
330
1F
100
AcDbEntity
  8
0
100
AcDbLine
 10
8.159503535000084
 20
1.620766930367153
 30
0.0
 11
7.966412643375616
 21
1.755330293250392
 31
0.0
  0
LINE
  5
277
330
1F
100
AcDbEntity
  8
0
100
AcDbLine
 10
7.638191627311599
 20
1.906639896600264
 30
0.0
 11
7.515199593412492
 21
1.937189560242906
 31
0.0
  0
LINE
  5
278
330
1F
100
AcDbEntity
  8
0
100
AcDbLine
 10
7.790396125882421
 20
1.141721597890276
 30
0.0
 11
7.966412643375616
 21
1.234872814443584
 31
0.0
  0
LINE
  5
279
330
1F
100
AcDbEntity
  8
0
100
AcDbLine
 10
7.222406111255187
 20
0.4173410168059291
 30
0.0
 11
7.178561259145041
 21
0.4493971403853247
 31
0.0
  0
LINE
  5
27A
330
1F
100
AcDbEntity
  8
0
100
AcDbLine
 10
7.28859204442446
 20
0.3555872245309722
 30
0.0
 11
7.222406111255187
 21
0.4173410168059291
 31
0.0
  0
LINE
  5
27B
330
1F
100
AcDbEntity
  8
0
100
AcDbLine
 10
4.712965427753698
 20
3.580135092614463
 30
0.0
 11
4.696459289043308
 21
3.620416178559122
 31
0.0
  0
LINE
  5
27C
330
1F
100
AcDbEntity
  8
0
100
AcDbLine
 10
3.760500008541717
 20
3.780962475743761
 30
0.0
 11
3.777747584891871
 21
3.692099492900107
 31
0.0
  0
LINE
  5
27D
330
1F
100
AcDbEntity
  8
0
100
AcDbLine
 10
3.936678834079279
 20
3.290084213841245
 30
0.0
 11
3.905215932360607
 21
3.259999262196798
 31
0.0
  0
LINE
  5
27E
330
1F
100
AcDbEntity
  8
0
100
AcDbLine
 10
2.695300522548904
 20
3.468018442358999
 30
0.0
 11
2.459992349564051
 21
3.47265037341508
 31
0.0
  0
LINE
  5
27F
330
1F
100
AcDbEntity
  8
0
100
AcDbLine
 10
3.499101832197975
 20
3.05487426218177
 30
0.0
 11
3.290453657505888
 21
3.274272666437095
 31
0.0
  0
LINE
  5
280
330
1F
100
AcDbEntity
  8
0
100
AcDbLine
 10
2.459992349564051
 20
3.47265037341508
 30
0.0
 11
2.433646292564042
 21
3.471433393166169
 31
0.0
  0
LINE
  5
281
330
1F
100
AcDbEntity
  8
0
100
AcDbLine
 10
5.834755471339056
 20
4.569177381800229
 30
0.0
 11
5.647109741243391
 21
4.427119397034704
 31
0.0
  0
LINE
  5
282
330
1F
100
AcDbEntity
  8
0
100
AcDbLine
 10
5.334718799799142
 20
4.054187889715119
 30
0.0
 11
5.296440031387976
 21
3.972158355407344
 31
0.0
  0
LINE
  5
283
330
1F
100
AcDbEntity
  8
0
100
AcDbLine
 10
5.296440031387976
 20
3.972158355407344
 30
0.0
 11
5.279501650588521
 21
3.920553536142176
 31
0.0
  0
LINE
  5
284
330
1F
100
AcDbEntity
  8
0
100
AcDbLine
 10
5.239660877815091
 20
3.620416178559123
 30
0.0
 11
5.223154739104705
 21
3.580135092614463
 31
0.0
  0
LINE
  5
285
330
1F
100
AcDbEntity
  8
0
100
AcDbLine
 10
5.145581947615494
 20
3.547657910718816
 30
0.0
 11
4.790538219242906
 21
3.547657910718817
 31
0.0
  0
LINE
  5
286
330
1F
100
AcDbEntity
  8
0
100
AcDbLine
 10
6.437018334660427
 20
3.05487426218177
 30
0.0
 11
6.399987959667618
 21
3.031988244006924
 31
0.0
  0
LINE
  5
287
330
1F
100
AcDbEntity
  8
0
100
AcDbLine
 10
6.399987959667618
 20
3.031988244006924
 30
0.0
 11
6.356475705124757
 21
3.030683558372441
 31
0.0
  0
LINE
  5
288
330
1F
100
AcDbEntity
  8
0
100
AcDbLine
 10
4.696459289043308
 20
3.620416178559122
 30
0.0
 11
4.65661851626988
 21
3.920553536142176
 31
0.0
  0
LINE
  5
289
330
1F
100
AcDbEntity
  8
0
100
AcDbLine
 10
4.639680135470424
 20
3.972158355407344
 30
0.0
 11
4.60140136705926
 21
4.054187889715119
 31
0.0
  0
LINE
  5
28A
330
1F
100
AcDbEntity
  8
0
100
AcDbLine
 10
4.60140136705926
 20
4.054187889715119
 30
0.0
 11
4.534340281733735
 21
4.161719899769246
 31
0.0
  0
LINE
  5
28B
330
1F
100
AcDbEntity
  8
0
100
AcDbLine
 10
4.431994592314948
 20
4.288503050058893
 30
0.0
 11
4.289010425615011
 21
4.427119397034704
 31
0.0
  0
LINE
  5
28C
330
1F
100
AcDbEntity
  8
0
100
AcDbLine
 10
3.759825972633498
 20
4.070102226334703
 30
0.0
 11
3.751547836572113
 21
3.907375216273917
 31
0.0
  0
LINE
  5
28D
330
1F
100
AcDbEntity
  8
0
100
AcDbLine
 10
3.777747584891871
 20
3.692099492900107
 30
0.0
 11
3.794376698679201
 21
3.640394186691304
 31
0.0
  0
LINE
  5
28E
330
1F
100
AcDbEntity
  8
0
100
AcDbLine
 10
4.747400706167614
 20
3.55350371824956
 30
0.0
 11
4.712965427753698
 21
3.580135092614463
 31
0.0
  0
LINE
  5
28F
330
1F
100
AcDbEntity
  8
0
100
AcDbLine
 10
3.938561148885818
 20
3.374160145083666
 30
0.0
 11
3.9488840304222
 21
3.331869997096299
 31
0.0
  0
LINE
  5
290
330
1F
100
AcDbEntity
  8
0
100
AcDbLine
 10
6.073785221763431
 20
4.491511907901715
 30
0.0
 11
6.064486425419725
 21
4.516192429511524
 31
0.0
  0
LINE
  5
291
330
1F
100
AcDbEntity
  8
0
100
AcDbLine
 10
3.794376698679201
 20
3.640394186691304
 30
0.0
 11
3.938561148885818
 21
3.374160145083666
 31
0.0
  0
LINE
  5
292
330
1F
100
AcDbEntity
  8
0
100
AcDbLine
 10
5.504125574543454
 20
4.288503050058893
 30
0.0
 11
5.401779885124666
 21
4.161719899769246
 31
0.0
  0
LINE
  5
293
330
1F
100
AcDbEntity
  8
0
100
AcDbLine
 10
6.176294194224903
 20
4.070102226334703
 30
0.0
 11
6.142094217917151
 21
4.266289191233861
 31
0.0
  0
LINE
  5
294
330
1F
100
AcDbEntity
  8
0
100
AcDbLine
 10
6.158372581966532
 20
3.692099492900107
 30
0.0
 11
6.175620158316685
 21
3.780962475743761
 31
0.0
  0
LINE
  5
295
330
1F
100
AcDbEntity
  8
0
100
AcDbLine
 10
3.61797952236094
 20
3.051309794740456
 30
0.0
 11
3.579644461733645
 21
3.030683558372441
 31
0.0
  0
LINE
  5
296
330
1F
100
AcDbEntity
  8
0
100
AcDbLine
 10
5.401779885124666
 20
4.161719899769246
 30
0.0
 11
5.334718799799142
 21
4.054187889715119
 31
0.0
  0
LINE
  5
297
330
1F
100
AcDbEntity
  8
0
100
AcDbLine
 10
6.356475705124757
 20
3.030683558372441
 30
0.0
 11
6.318140644497462
 21
3.051309794740455
 31
0.0
  0
LINE
  5
298
330
1F
100
AcDbEntity
  8
0
100
AcDbLine
 10
4.101364695519345
 20
4.569177381800229
 30
0.0
 11
4.079334964628925
 21
4.583678647857703
 31
0.0
  0
LINE
  5
299
330
1F
100
AcDbEntity
  8
0
100
AcDbLine
 10
6.141743468179199
 20
3.640394186691304
 30
0.0
 11
6.158372581966532
 21
3.692099492900107
 31
0.0
  0
LINE
  5
29A
330
1F
100
AcDbEntity
  8
0
100
AcDbLine
 10
3.579644461733645
 20
3.030683558372441
 30
0.0
 11
3.536132207190784
 21
3.031988244006925
 31
0.0
  0
LINE
  5
29B
330
1F
100
AcDbEntity
  8
0
100
AcDbLine
 10
4.289010425615011
 20
4.427119397034704
 30
0.0
 11
4.101364695519345
 21
4.569177381800229
 31
0.0
  0
LINE
  5
29C
330
1F
100
AcDbEntity
  8
0
100
AcDbLine
 10
4.790538219242906
 20
3.547657910718817
 30
0.0
 11
4.747400706167614
 21
3.55350371824956
 31
0.0
  0
LINE
  5
29D
330
1F
100
AcDbEntity
  8
0
100
AcDbLine
 10
3.79402594894125
 20
4.266289191233861
 30
0.0
 11
3.759825972633498
 21
4.070102226334703
 31
0.0
  0
LINE
  5
29E
330
1F
100
AcDbEntity
  8
0
100
AcDbLine
 10
6.645666509352513
 20
3.274272666437095
 30
0.0
 11
6.437018334660427
 21
3.05487426218177
 31
0.0
  0
LINE
  5
29F
330
1F
100
AcDbEntity
  8
0
100
AcDbLine
 10
5.997559017972583
 20
3.374160145083665
 30
0.0
 11
6.141743468179199
 21
3.640394186691304
 31
0.0
  0
LINE
  5
2A0
330
1F
100
AcDbEntity
  8
0
100
AcDbLine
 10
6.184572330286287
 20
3.907375216273917
 30
0.0
 11
6.176294194224903
 21
4.070102226334703
 31
0.0
  0
LINE
  5
2A1
330
1F
100
AcDbEntity
  8
0
100
AcDbLine
 10
4.079334964628925
 20
4.583678647857703
 30
0.0
 11
3.871633741438677
 21
4.516192429511524
 31
0.0
  0
LINE
  5
2A2
330
1F
100
AcDbEntity
  8
0
100
AcDbLine
 10
3.862334945094972
 20
4.491511907901715
 30
0.0
 11
3.79402594894125
 21
4.266289191233861
 31
0.0
  0
LINE
  5
2A3
330
1F
100
AcDbEntity
  8
0
100
AcDbLine
 10
3.751547836572113
 20
3.907375216273917
 30
0.0
 11
3.760500008541717
 21
3.780962475743761
 31
0.0
  0
LINE
  5
2A4
330
1F
100
AcDbEntity
  8
0
100
AcDbLine
 10
6.064486425419725
 20
4.516192429511524
 30
0.0
 11
5.856785202229477
 21
4.583678647857703
 31
0.0
  0
LINE
  5
2A5
330
1F
100
AcDbEntity
  8
0
100
AcDbLine
 10
3.9488840304222
 20
3.331869997096299
 30
0.0
 11
3.936678834079279
 21
3.290084213841245
 31
0.0
  0
LINE
  5
2A6
330
1F
100
AcDbEntity
  8
0
100
AcDbLine
 10
6.030904234497795
 20
3.259999262196798
 30
0.0
 11
5.999441332779123
 21
3.290084213841245
 31
0.0
  0
LINE
  5
2A7
330
1F
100
AcDbEntity
  8
0
100
AcDbLine
 10
3.905215932360607
 20
3.259999262196798
 30
0.0
 11
3.61797952236094
 21
3.051309794740456
 31
0.0
  0
LINE
  5
2A8
330
1F
100
AcDbEntity
  8
0
100
AcDbLine
 10
4.65661851626988
 20
3.920553536142176
 30
0.0
 11
4.639680135470424
 21
3.972158355407344
 31
0.0
  0
LINE
  5
2A9
330
1F
100
AcDbEntity
  8
0
100
AcDbLine
 10
3.536132207190784
 20
3.031988244006925
 30
0.0
 11
3.499101832197975
 21
3.05487426218177
 31
0.0
  0
LINE
  5
2AA
330
1F
100
AcDbEntity
  8
0
100
AcDbLine
 10
3.290453657505888
 20
3.274272666437095
 30
0.0
 11
3.24641766787065
 21
3.30606571178263
 31
0.0
  0
LINE
  5
2AB
330
1F
100
AcDbEntity
  8
0
100
AcDbLine
 10
3.24641766787065
 20
3.30606571178263
 30
0.0
 11
3.167233743183746
 21
3.349929303530281
 31
0.0
  0
LINE
  5
2AC
330
1F
100
AcDbEntity
  8
0
100
AcDbLine
 10
3.167233743183746
 20
3.349929303530281
 30
0.0
 11
3.049774455834985
 21
3.397507010146296
 31
0.0
  0
LINE
  5
2AD
330
1F
100
AcDbEntity
  8
0
100
AcDbLine
 10
5.999441332779123
 20
3.290084213841245
 30
0.0
 11
5.987236136436202
 21
3.331869997096299
 31
0.0
  0
LINE
  5
2AE
330
1F
100
AcDbEntity
  8
0
100
AcDbLine
 10
6.142094217917151
 20
4.266289191233861
 30
0.0
 11
6.073785221763431
 21
4.491511907901715
 31
0.0
  0
LINE
  5
2AF
330
1F
100
AcDbEntity
  8
0
100
AcDbLine
 10
5.188719460690788
 20
3.55350371824956
 30
0.0
 11
5.145581947615494
 21
3.547657910718816
 31
0.0
  0
LINE
  5
2B0
330
1F
100
AcDbEntity
  8
0
100
AcDbLine
 10
3.049774455834985
 20
3.397507010146296
 30
0.0
 11
2.892453787814731
 21
3.439919446454944
 31
0.0
  0
LINE
  5
2B1
330
1F
100
AcDbEntity
  8
0
100
AcDbLine
 10
6.318140644497462
 20
3.051309794740455
 30
0.0
 11
6.030904234497795
 21
3.259999262196798
 31
0.0
  0
LINE
  5
2B2
330
1F
100
AcDbEntity
  8
0
100
AcDbLine
 10
6.175620158316685
 20
3.780962475743761
 30
0.0
 11
6.184572330286287
 21
3.907375216273917
 31
0.0
  0
LINE
  5
2B3
330
1F
100
AcDbEntity
  8
0
100
AcDbLine
 10
2.892453787814731
 20
3.439919446454944
 30
0.0
 11
2.695300522548904
 21
3.468018442358999
 31
0.0
  0
LINE
  5
2B4
330
1F
100
AcDbEntity
  8
0
100
AcDbLine
 10
5.279501650588521
 20
3.920553536142176
 30
0.0
 11
5.239660877815091
 21
3.620416178559123
 31
0.0
  0
LINE
  5
2B5
330
1F
100
AcDbEntity
  8
0
100
AcDbLine
 10
5.223154739104705
 20
3.580135092614463
 30
0.0
 11
5.188719460690788
 21
3.55350371824956
 31
0.0
  0
LINE
  5
2B6
330
1F
100
AcDbEntity
  8
0
100
AcDbLine
 10
4.534340281733735
 20
4.161719899769246
 30
0.0
 11
4.431994592314948
 21
4.288503050058893
 31
0.0
  0
LINE
  5
2B7
330
1F
100
AcDbEntity
  8
0
100
AcDbLine
 10
5.987236136436202
 20
3.331869997096299
 30
0.0
 11
5.997559017972583
 21
3.374160145083665
 31
0.0
  0
LINE
  5
2B8
330
1F
100
AcDbEntity
  8
0
100
AcDbLine
 10
3.871633741438677
 20
4.516192429511524
 30
0.0
 11
3.862334945094972
 21
4.491511907901715
 31
0.0
  0
LINE
  5
2B9
330
1F
100
AcDbEntity
  8
0
100
AcDbLine
 10
5.856785202229477
 20
4.583678647857703
 30
0.0
 11
5.834755471339056
 21
4.569177381800229
 31
0.0
  0
LINE
  5
2BA
330
1F
100
AcDbEntity
  8
0
100
AcDbLine
 10
5.647109741243391
 20
4.427119397034704
 30
0.0
 11
5.504125574543454
 21
4.288503050058893
 31
0.0
  0
LINE
  5
2BB
330
1F
100
AcDbEntity
  8
0
100
AcDbLine
 10
3.030695021570313
 20
2.410167596608294
 30
0.0
 11
3.063903933468406
 21
2.38202178572013
 31
0.0
  0
LINE
  5
2BC
330
1F
100
AcDbEntity
  8
0
100
AcDbLine
 10
2.145724040975981
 20
1.8484815098037
 30
0.0
 11
1.969707523482785
 21
1.755330293250392
 31
0.0
  0
LINE
  5
2BD
330
1F
100
AcDbEntity
  8
0
100
AcDbLine
 10
1.969707523482785
 20
1.234872814443584
 30
0.0
 11
2.145724040975981
 21
1.141721597890277
 31
0.0
  0
LINE
  5
2BE
330
1F
100
AcDbEntity
  8
0
100
AcDbLine
 10
1.969707523482785
 20
1.755330293250392
 30
0.0
 11
1.776616631858317
 21
1.620766930367154
 31
0.0
  0
LINE
  5
2BF
330
1F
100
AcDbEntity
  8
0
100
AcDbLine
 10
3.030695021570313
 20
0.5800355110856824
 30
0.0
 11
2.757558907713362
 21
0.4493971403853248
 31
0.0
  0
LINE
  5
2C0
330
1F
100
AcDbEntity
  8
0
100
AcDbLine
 10
1.756017547053181
 20
1.604296548903302
 30
0.0
 11
1.756017547053181
 21
1.385906558790674
 31
0.0
  0
LINE
  5
2C1
330
1F
100
AcDbEntity
  8
0
100
AcDbLine
 10
2.30527987712754
 20
3.294752179763676
 30
0.0
 11
2.312263839479384
 21
3.2693195229964
 31
0.0
  0
LINE
  5
2C2
330
1F
100
AcDbEntity
  8
0
100
AcDbLine
 10
2.145724040975981
 20
1.141721597890277
 30
0.0
 11
2.297928539546803
 21
1.083563211093713
 31
0.0
  0
LINE
  5
2C3
330
1F
100
AcDbEntity
  8
0
100
AcDbLine
 10
2.86283649926836
 20
1.096650921748968
 30
0.0
 11
2.906246765912493
 21
1.093400191078358
 31
0.0
  0
LINE
  5
2C4
330
1F
100
AcDbEntity
  8
0
100
AcDbLine
 10
3.049774455834985
 20
-0.4073039024523196
 30
0.0
 11
3.167233743183744
 21
-0.3597261958363043
 31
0.0
  0
LINE
  5
2C5
330
1F
100
AcDbEntity
  8
0
100
AcDbLine
 10
3.579644461733645
 20
-0.0404804506784643
 30
0.0
 11
3.61797952236094
 21
-0.0611066870464795
 31
0.0
  0
LINE
  5
2C6
330
1F
100
AcDbEntity
  8
0
100
AcDbLine
 10
2.757558907713362
 20
0.4493971403853248
 30
0.0
 11
2.713714055603216
 21
0.4173410168059291
 31
0.0
  0
LINE
  5
2C7
330
1F
100
AcDbEntity
  8
0
100
AcDbLine
 10
2.647528122433942
 20
2.634615883163004
 30
0.0
 11
2.713714055603216
 21
2.572862090888048
 31
0.0
  0
LINE
  5
2C8
330
1F
100
AcDbEntity
  8
0
100
AcDbLine
 10
3.61797952236094
 20
-0.0611066870464795
 30
0.0
 11
3.905215932360607
 21
-0.2697961545028221
 31
0.0
  0
LINE
  5
2C9
330
1F
100
AcDbEntity
  8
0
100
AcDbLine
 10
3.070820258069894
 20
2.298209675751951
 30
0.0
 11
2.961105712256521
 21
1.960543024313474
 31
0.0
  0
LINE
  5
2CA
330
1F
100
AcDbEntity
  8
0
100
AcDbLine
 10
2.961105712256521
 20
1.029660083380502
 30
0.0
 11
3.070820258069894
 21
0.6919934319420249
 31
0.0
  0
LINE
  5
2CB
330
1F
100
AcDbEntity
  8
0
100
AcDbLine
 10
2.892453787814731
 20
-0.4497163387609678
 30
0.0
 11
3.049774455834985
 21
-0.4073039024523196
 31
0.0
  0
LINE
  5
2CC
330
1F
100
AcDbEntity
  8
0
100
AcDbLine
 10
2.420920573445911
 20
1.05301354745107
 30
0.0
 11
2.51076408654077
 21
1.041956795459643
 31
0.0
  0
LINE
  5
2CD
330
1F
100
AcDbEntity
  8
0
100
AcDbLine
 10
3.536132207190784
 20
-0.0417851363129482
 30
0.0
 11
3.579644461733645
 21
-0.0404804506784643
 31
0.0
  0
LINE
  5
2CE
330
1F
100
AcDbEntity
  8
0
100
AcDbLine
 10
2.51076408654077
 20
1.041956795459643
 30
0.0
 11
2.565077433699368
 21
1.041794204169417
 31
0.0
  0
LINE
  5
2CF
330
1F
100
AcDbEntity
  8
0
100
AcDbLine
 10
2.420920573445911
 20
1.937189560242907
 30
0.0
 11
2.297928539546803
 21
1.906639896600264
 31
0.0
  0
LINE
  5
2D0
330
1F
100
AcDbEntity
  8
0
100
AcDbLine
 10
1.776616631858317
 20
1.620766930367154
 30
0.0
 11
1.756017547053181
 21
1.604296548903302
 31
0.0
  0
LINE
  5
2D1
330
1F
100
AcDbEntity
  8
0
100
AcDbLine
 10
2.906246765912493
 20
1.093400191078358
 30
0.0
 11
2.942215794276064
 21
1.068879842414682
 31
0.0
  0
LINE
  5
2D2
330
1F
100
AcDbEntity
  8
0
100
AcDbLine
 10
3.167233743183744
 20
-0.3597261958363043
 30
0.0
 11
3.246417667870649
 21
-0.3158626040886537
 31
0.0
  0
LINE
  5
2D3
330
1F
100
AcDbEntity
  8
0
100
AcDbLine
 10
3.905215932360607
 20
-0.2697961545028221
 30
0.0
 11
3.936678834079279
 21
-0.299881106147269
 31
0.0
  0
LINE
  5
2D4
330
1F
100
AcDbEntity
  8
0
100
AcDbLine
 10
3.078590789360109
 20
0.6491607651621557
 30
0.0
 11
3.063903933468406
 21
0.6081813219738467
 31
0.0
  0
LINE
  5
2D5
330
1F
100
AcDbEntity
  8
0
100
AcDbLine
 10
3.936678834079279
 20
-0.299881106147269
 30
0.0
 11
3.9488840304222
 21
-0.3416668894023225
 31
0.0
  0
LINE
  5
2D6
330
1F
100
AcDbEntity
  8
0
100
AcDbLine
 10
2.477030734680493
 20
0.1220644409199323
 30
0.0
 11
2.38938329206094
 21
-0.0567563894607756
 31
0.0
  0
LINE
  5
2D7
330
1F
100
AcDbEntity
  8
0
100
AcDbLine
 10
3.9488840304222
 20
-0.3416668894023225
 30
0.0
 11
3.938561148885818
 21
-0.3839570373896892
 31
0.0
  0
LINE
  5
2D8
330
1F
100
AcDbEntity
  8
0
100
AcDbLine
 10
2.942215794276064
 20
1.068879842414682
 30
0.0
 11
2.961105712256521
 21
1.029660083380502
 31
0.0
  0
LINE
  5
2D9
330
1F
100
AcDbEntity
  8
0
100
AcDbLine
 10
2.942215794276064
 20
1.921323265279294
 30
0.0
 11
2.906246765912493
 21
1.896802916615618
 31
0.0
  0
LINE
  5
2DA
330
1F
100
AcDbEntity
  8
0
100
AcDbLine
 10
2.312263839479383
 20
-0.2791164153024238
 30
0.0
 11
2.30527987712754
 21
-0.3045490720696991
 31
0.0
  0
LINE
  5
2DB
330
1F
100
AcDbEntity
  8
0
100
AcDbLine
 10
2.297928539546803
 20
1.906639896600264
 30
0.0
 11
2.145724040975981
 21
1.8484815098037
 31
0.0
  0
LINE
  5
2DC
330
1F
100
AcDbEntity
  8
0
100
AcDbLine
 10
2.312263839479384
 20
3.2693195229964
 30
0.0
 11
2.38938329206094
 21
3.046959497154752
 31
0.0
  0
LINE
  5
2DD
330
1F
100
AcDbEntity
  8
0
100
AcDbLine
 10
2.433646292564042
 20
-0.4812302854721915
 30
0.0
 11
2.459992349564051
 21
-0.4824472657211042
 31
0.0
  0
LINE
  5
2DE
330
1F
100
AcDbEntity
  8
0
100
AcDbLine
 10
3.063903933468406
 20
2.38202178572013
 30
0.0
 11
3.07859078936011
 21
2.341042342531821
 31
0.0
  0
LINE
  5
2DF
330
1F
100
AcDbEntity
  8
0
100
AcDbLine
 10
2.433646292564042
 20
3.471433393166169
 30
0.0
 11
2.30527987712754
 21
3.294752179763676
 31
0.0
  0
LINE
  5
2E0
330
1F
100
AcDbEntity
  8
0
100
AcDbLine
 10
2.565982118588465
 20
2.731623983897693
 30
0.0
 11
2.647528122433942
 21
2.634615883163004
 31
0.0
  0
LINE
  5
2E1
330
1F
100
AcDbEntity
  8
0
100
AcDbLine
 10
2.961105712256521
 20
1.960543024313474
 30
0.0
 11
2.942215794276064
 21
1.921323265279294
 31
0.0
  0
LINE
  5
2E2
330
1F
100
AcDbEntity
  8
0
100
AcDbLine
 10
2.38938329206094
 20
3.046959497154752
 30
0.0
 11
2.477030734680495
 21
2.868138666774044
 31
0.0
  0
LINE
  5
2E3
330
1F
100
AcDbEntity
  8
0
100
AcDbLine
 10
2.565077433699368
 20
1.948408903524559
 30
0.0
 11
2.51076408654077
 21
1.948246312234333
 31
0.0
  0
LINE
  5
2E4
330
1F
100
AcDbEntity
  8
0
100
AcDbLine
 10
3.063903933468406
 20
0.6081813219738467
 30
0.0
 11
3.030695021570313
 21
0.5800355110856824
 31
0.0
  0
LINE
  5
2E5
330
1F
100
AcDbEntity
  8
0
100
AcDbLine
 10
2.647528122433942
 20
0.3555872245309725
 30
0.0
 11
2.565982118588465
 21
0.258579123796284
 31
0.0
  0
LINE
  5
2E6
330
1F
100
AcDbEntity
  8
0
100
AcDbLine
 10
2.906246765912493
 20
1.896802916615618
 30
0.0
 11
2.86283649926836
 21
1.893552185945008
 31
0.0
  0
LINE
  5
2E7
330
1F
100
AcDbEntity
  8
0
100
AcDbLine
 10
3.070820258069894
 20
0.6919934319420249
 30
0.0
 11
3.078590789360109
 21
0.6491607651621557
 31
0.0
  0
LINE
  5
2E8
330
1F
100
AcDbEntity
  8
0
100
AcDbLine
 10
2.477030734680495
 20
2.868138666774044
 30
0.0
 11
2.565982118588465
 21
2.731623983897693
 31
0.0
  0
LINE
  5
2E9
330
1F
100
AcDbEntity
  8
0
100
AcDbLine
 10
2.51076408654077
 20
1.948246312234333
 30
0.0
 11
2.420920573445911
 21
1.937189560242907
 31
0.0
  0
LINE
  5
2EA
330
1F
100
AcDbEntity
  8
0
100
AcDbLine
 10
3.07859078936011
 20
2.341042342531821
 30
0.0
 11
3.070820258069894
 21
2.298209675751951
 31
0.0
  0
LINE
  5
2EB
330
1F
100
AcDbEntity
  8
0
100
AcDbLine
 10
1.756017547053181
 20
1.385906558790674
 30
0.0
 11
1.776616631858317
 21
1.369436177326823
 31
0.0
  0
LINE
  5
2EC
330
1F
100
AcDbEntity
  8
0
100
AcDbLine
 10
2.30527987712754
 20
-0.3045490720696991
 30
0.0
 11
2.433646292564042
 21
-0.4812302854721915
 31
0.0
  0
LINE
  5
2ED
330
1F
100
AcDbEntity
  8
0
100
AcDbLine
 10
3.246417667870649
 20
-0.3158626040886537
 30
0.0
 11
3.290453657505888
 21
-0.2840695587431187
 31
0.0
  0
LINE
  5
2EE
330
1F
100
AcDbEntity
  8
0
100
AcDbLine
 10
2.757558907713362
 20
2.540805967308652
 30
0.0
 11
3.030695021570313
 21
2.410167596608294
 31
0.0
  0
LINE
  5
2EF
330
1F
100
AcDbEntity
  8
0
100
AcDbLine
 10
2.459992349564051
 20
-0.4824472657211042
 30
0.0
 11
2.695300522548904
 21
-0.4778153346650216
 31
0.0
  0
LINE
  5
2F0
330
1F
100
AcDbEntity
  8
0
100
AcDbLine
 10
2.695300522548904
 20
-0.4778153346650216
 30
0.0
 11
2.892453787814731
 21
-0.4497163387609678
 31
0.0
  0
LINE
  5
2F1
330
1F
100
AcDbEntity
  8
0
100
AcDbLine
 10
2.86283649926836
 20
1.893552185945008
 30
0.0
 11
2.565077433699368
 21
1.948408903524559
 31
0.0
  0
LINE
  5
2F2
330
1F
100
AcDbEntity
  8
0
100
AcDbLine
 10
2.713714055603216
 20
0.4173410168059291
 30
0.0
 11
2.647528122433942
 21
0.3555872245309725
 31
0.0
  0
LINE
  5
2F3
330
1F
100
AcDbEntity
  8
0
100
AcDbLine
 10
1.776616631858317
 20
1.369436177326823
 30
0.0
 11
1.969707523482785
 21
1.234872814443584
 31
0.0
  0
LINE
  5
2F4
330
1F
100
AcDbEntity
  8
0
100
AcDbLine
 10
2.297928539546803
 20
1.083563211093713
 30
0.0
 11
2.420920573445911
 21
1.05301354745107
 31
0.0
  0
LINE
  5
2F5
330
1F
100
AcDbEntity
  8
0
100
AcDbLine
 10
2.713714055603216
 20
2.572862090888048
 30
0.0
 11
2.757558907713362
 21
2.540805967308652
 31
0.0
  0
LINE
  5
2F6
330
1F
100
AcDbEntity
  8
0
100
AcDbLine
 10
2.565077433699368
 20
1.041794204169417
 30
0.0
 11
2.86283649926836
 21
1.096650921748968
 31
0.0
  0
LINE
  5
2F7
330
1F
100
AcDbEntity
  8
0
100
AcDbLine
 10
2.565982118588465
 20
0.258579123796284
 30
0.0
 11
2.477030734680493
 21
0.1220644409199323
 31
0.0
  0
LINE
  5
2F8
330
1F
100
AcDbEntity
  8
0
100
AcDbLine
 10
2.38938329206094
 20
-0.0567563894607756
 30
0.0
 11
2.312263839479383
 21
-0.2791164153024238
 31
0.0
  0
LINE
  5
2F9
330
1F
100
AcDbEntity
  8
0
100
AcDbLine
 10
3.290453657505888
 20
-0.2840695587431187
 30
0.0
 11
3.499101832197973
 21
-0.0646711544877944
 31
0.0
  0
LINE
  5
2FA
330
1F
100
AcDbEntity
  8
0
100
AcDbLine
 10
3.499101832197973
 20
-0.0646711544877944
 30
0.0
 11
3.536132207190784
 21
-0.0417851363129482
 31
0.0
  0
LINE
  5
2FB
330
1F
100
AcDbEntity
  8
0
100
AcDbLine
 10
5.997559017972583
 20
-0.3839570373896901
 30
0.0
 11
5.987236136436202
 21
-0.3416668894023225
 31
0.0
  0
LINE
  5
2FC
330
1F
100
AcDbEntity
  8
0
100
AcDbLine
 10
6.356475705124757
 20
-0.0404804506784653
 30
0.0
 11
6.399987959667618
 21
-0.0417851363129492
 31
0.0
  0
LINE
  5
2FD
330
1F
100
AcDbEntity
  8
0
100
AcDbLine
 10
6.645666509352513
 20
-0.2840695587431197
 30
0.0
 11
6.689702498987753
 21
-0.3158626040886541
 31
0.0
  0
LINE
  5
2FE
330
1F
100
AcDbEntity
  8
0
100
AcDbLine
 10
6.030904234497795
 20
-0.2697961545028225
 30
0.0
 11
6.318140644497462
 21
-0.0611066870464801
 31
0.0
  0
LINE
  5
2FF
330
1F
100
AcDbEntity
  8
0
100
AcDbLine
 10
3.777747584891871
 20
-0.7018963852061305
 30
0.0
 11
3.760500008541715
 21
-0.7907593680497846
 31
0.0
  0
LINE
  5
300
330
1F
100
AcDbEntity
  8
0
100
AcDbLine
 10
5.223154739104704
 20
-0.5899319849204877
 30
0.0
 11
5.239660877815091
 21
-0.6302130708651458
 31
0.0
  0
LINE
  5
301
330
1F
100
AcDbEntity
  8
0
100
AcDbLine
 10
4.639680135470424
 20
-0.9819552477133685
 30
0.0
 11
4.65661851626988
 21
-0.9303504284481999
 31
0.0
  0
LINE
  5
302
330
1F
100
AcDbEntity
  8
0
100
AcDbLine
 10
3.794376698679201
 20
-0.6501910789973274
 30
0.0
 11
3.777747584891871
 21
-0.7018963852061305
 31
0.0
  0
LINE
  5
303
330
1F
100
AcDbEntity
  8
0
100
AcDbLine
 10
3.86233494509497
 20
-1.501308800207739
 30
0.0
 11
3.871633741438675
 21
-1.525989321817549
 31
0.0
  0
LINE
  5
304
330
1F
100
AcDbEntity
  8
0
100
AcDbLine
 10
4.60140136705926
 20
-1.063984782021143
 30
0.0
 11
4.639680135470424
 21
-0.9819552477133685
 31
0.0
  0
LINE
  5
305
330
1F
100
AcDbEntity
  8
0
100
AcDbLine
 10
4.696459289043307
 20
-0.6302130708651461
 30
0.0
 11
4.712965427753697
 21
-0.5899319849204868
 31
0.0
  0
LINE
  5
306
330
1F
100
AcDbEntity
  8
0
100
AcDbLine
 10
4.790538219242906
 20
-0.557454803024841
 30
0.0
 11
5.145581947615494
 21
-0.5574548030248413
 31
0.0
  0
LINE
  5
307
330
1F
100
AcDbEntity
  8
0
100
AcDbLine
 10
5.239660877815091
 20
-0.6302130708651458
 30
0.0
 11
5.27950165058852
 21
-0.9303504284481999
 31
0.0
  0
LINE
  5
308
330
1F
100
AcDbEntity
  8
0
100
AcDbLine
 10
5.296440031387975
 20
-0.9819552477133685
 30
0.0
 11
5.33471879979914
 21
-1.063984782021143
 31
0.0
  0
LINE
  5
309
330
1F
100
AcDbEntity
  8
0
100
AcDbLine
 10
5.33471879979914
 20
-1.063984782021143
 30
0.0
 11
5.401779885124666
 21
-1.17151679207527
 31
0.0
  0
LINE
  5
30A
330
1F
100
AcDbEntity
  8
0
100
AcDbLine
 10
5.504125574543454
 20
-1.298299942364916
 30
0.0
 11
5.647109741243391
 21
-1.436916289340727
 31
0.0
  0
LINE
  5
30B
330
1F
100
AcDbEntity
  8
0
100
AcDbLine
 10
6.176294194224903
 20
-1.079899118640727
 30
0.0
 11
6.184572330286287
 21
-0.9171721085799419
 31
0.0
  0
LINE
  5
30C
330
1F
100
AcDbEntity
  8
0
100
AcDbLine
 10
4.431994592314948
 20
-1.298299942364916
 30
0.0
 11
4.534340281733735
 21
-1.171516792075269
 31
0.0
  0
LINE
  5
30D
330
1F
100
AcDbEntity
  8
0
100
AcDbLine
 10
6.158372581966532
 20
-0.7018963852061308
 30
0.0
 11
6.141743468179199
 21
-0.6501910789973278
 31
0.0
  0
LINE
  5
30E
330
1F
100
AcDbEntity
  8
0
100
AcDbLine
 10
5.188719460690788
 20
-0.5633006105555841
 30
0.0
 11
5.223154739104704
 21
-0.5899319849204877
 31
0.0
  0
LINE
  5
30F
330
1F
100
AcDbEntity
  8
0
100
AcDbLine
 10
6.141743468179199
 20
-0.6501910789973278
 30
0.0
 11
5.997559017972583
 21
-0.3839570373896901
 31
0.0
  0
LINE
  5
310
330
1F
100
AcDbEntity
  8
0
100
AcDbLine
 10
6.318140644497462
 20
-0.0611066870464801
 30
0.0
 11
6.356475705124757
 21
-0.0404804506784653
 31
0.0
  0
LINE
  5
311
330
1F
100
AcDbEntity
  8
0
100
AcDbLine
 10
6.437018334660427
 20
-0.0646711544877947
 30
0.0
 11
6.645666509352513
 21
-0.2840695587431197
 31
0.0
  0
LINE
  5
312
330
1F
100
AcDbEntity
  8
0
100
AcDbLine
 10
3.938561148885818
 20
-0.3839570373896892
 30
0.0
 11
3.794376698679201
 21
-0.6501910789973274
 31
0.0
  0
LINE
  5
313
330
1F
100
AcDbEntity
  8
0
100
AcDbLine
 10
6.689702498987753
 20
-0.3158626040886541
 30
0.0
 11
6.768886423674656
 21
-0.3597261958363053
 31
0.0
  0
LINE
  5
314
330
1F
100
AcDbEntity
  8
0
100
AcDbLine
 10
6.886345711023417
 20
-0.4073039024523202
 30
0.0
 11
7.04366637904367
 21
-0.4497163387609685
 31
0.0
  0
LINE
  5
315
330
1F
100
AcDbEntity
  8
0
100
AcDbLine
 10
7.04366637904367
 20
-0.4497163387609685
 30
0.0
 11
7.2408196443095
 21
-0.4778153346650226
 31
0.0
  0
LINE
  5
316
330
1F
100
AcDbEntity
  8
0
100
AcDbLine
 10
3.760500008541715
 20
-0.7907593680497846
 30
0.0
 11
3.751547836572113
 21
-0.9171721085799412
 31
0.0
  0
LINE
  5
317
330
1F
100
AcDbEntity
  8
0
100
AcDbLine
 10
3.871633741438675
 20
-1.525989321817549
 30
0.0
 11
4.079334964628925
 21
-1.593475540163727
 31
0.0
  0
LINE
  5
318
330
1F
100
AcDbEntity
  8
0
100
AcDbLine
 10
5.834755471339054
 20
-1.578974274106253
 30
0.0
 11
5.856785202229476
 21
-1.593475540163727
 31
0.0
  0
LINE
  5
319
330
1F
100
AcDbEntity
  8
0
100
AcDbLine
 10
7.502473874294359
 20
-0.4812302854721928
 30
0.0
 11
7.630840289730862
 21
-0.3045490720696994
 31
0.0
  0
LINE
  5
31A
330
1F
100
AcDbEntity
  8
0
100
AcDbLine
 10
3.794025948941249
 20
-1.276086083539885
 30
0.0
 11
3.86233494509497
 21
-1.501308800207739
 31
0.0
  0
LINE
  5
31B
330
1F
100
AcDbEntity
  8
0
100
AcDbLine
 10
4.079334964628925
 20
-1.593475540163727
 30
0.0
 11
4.101364695519345
 21
-1.578974274106253
 31
0.0
  0
LINE
  5
31C
330
1F
100
AcDbEntity
  8
0
100
AcDbLine
 10
5.145581947615494
 20
-0.5574548030248413
 30
0.0
 11
5.188719460690788
 21
-0.5633006105555841
 31
0.0
  0
LINE
  5
31D
330
1F
100
AcDbEntity
  8
0
100
AcDbLine
 10
3.751547836572113
 20
-0.9171721085799412
 30
0.0
 11
3.759825972633498
 21
-1.079899118640727
 31
0.0
  0
LINE
  5
31E
330
1F
100
AcDbEntity
  8
0
100
AcDbLine
 10
5.647109741243391
 20
-1.436916289340727
 30
0.0
 11
5.834755471339054
 21
-1.578974274106253
 31
0.0
  0
LINE
  5
31F
330
1F
100
AcDbEntity
  8
0
100
AcDbLine
 10
5.856785202229476
 20
-1.593475540163727
 30
0.0
 11
6.064486425419725
 21
-1.525989321817549
 31
0.0
  0
LINE
  5
320
330
1F
100
AcDbEntity
  8
0
100
AcDbLine
 10
6.142094217917151
 20
-1.276086083539886
 30
0.0
 11
6.176294194224903
 21
-1.079899118640727
 31
0.0
  0
LINE
  5
321
330
1F
100
AcDbEntity
  8
0
100
AcDbLine
 10
6.073785221763431
 20
-1.501308800207739
 30
0.0
 11
6.142094217917151
 21
-1.276086083539886
 31
0.0
  0
LINE
  5
322
330
1F
100
AcDbEntity
  8
0
100
AcDbLine
 10
6.184572330286287
 20
-0.9171721085799419
 30
0.0
 11
6.175620158316685
 21
-0.790759368049785
 31
0.0
  0
LINE
  5
323
330
1F
100
AcDbEntity
  8
0
100
AcDbLine
 10
5.987236136436202
 20
-0.3416668894023225
 30
0.0
 11
5.999441332779123
 21
-0.2998811061472694
 31
0.0
  0
LINE
  5
324
330
1F
100
AcDbEntity
  8
0
100
AcDbLine
 10
4.101364695519345
 20
-1.578974274106253
 30
0.0
 11
4.28901042561501
 21
-1.436916289340727
 31
0.0
  0
LINE
  5
325
330
1F
100
AcDbEntity
  8
0
100
AcDbLine
 10
6.399987959667618
 20
-0.0417851363129492
 30
0.0
 11
6.437018334660427
 21
-0.0646711544877947
 31
0.0
  0
LINE
  5
326
330
1F
100
AcDbEntity
  8
0
100
AcDbLine
 10
7.2408196443095
 20
-0.4778153346650226
 30
0.0
 11
7.476127817294351
 21
-0.4824472657211055
 31
0.0
  0
LINE
  5
327
330
1F
100
AcDbEntity
  8
0
100
AcDbLine
 10
7.476127817294351
 20
-0.4824472657211055
 30
0.0
 11
7.502473874294359
 21
-0.4812302854721928
 31
0.0
  0
LINE
  5
328
330
1F
100
AcDbEntity
  8
0
100
AcDbLine
 10
6.768886423674656
 20
-0.3597261958363053
 30
0.0
 11
6.886345711023417
 21
-0.4073039024523202
 31
0.0
  0
LINE
  5
329
330
1F
100
AcDbEntity
  8
0
100
AcDbLine
 10
5.999441332779123
 20
-0.2998811061472694
 30
0.0
 11
6.030904234497795
 21
-0.2697961545028225
 31
0.0
  0
LINE
  5
32A
330
1F
100
AcDbEntity
  8
0
100
AcDbLine
 10
6.175620158316685
 20
-0.790759368049785
 30
0.0
 11
6.158372581966532
 21
-0.7018963852061308
 31
0.0
  0
LINE
  5
32B
330
1F
100
AcDbEntity
  8
0
100
AcDbLine
 10
6.064486425419725
 20
-1.525989321817549
 30
0.0
 11
6.073785221763431
 21
-1.501308800207739
 31
0.0
  0
LINE
  5
32C
330
1F
100
AcDbEntity
  8
0
100
AcDbLine
 10
5.401779885124666
 20
-1.17151679207527
 30
0.0
 11
5.504125574543454
 21
-1.298299942364916
 31
0.0
  0
LINE
  5
32D
330
1F
100
AcDbEntity
  8
0
100
AcDbLine
 10
5.27950165058852
 20
-0.9303504284481999
 30
0.0
 11
5.296440031387975
 21
-0.9819552477133685
 31
0.0
  0
LINE
  5
32E
330
1F
100
AcDbEntity
  8
0
100
AcDbLine
 10
4.747400706167612
 20
-0.5633006105555838
 30
0.0
 11
4.790538219242906
 21
-0.557454803024841
 31
0.0
  0
LINE
  5
32F
330
1F
100
AcDbEntity
  8
0
100
AcDbLine
 10
4.712965427753697
 20
-0.5899319849204868
 30
0.0
 11
4.747400706167612
 21
-0.5633006105555838
 31
0.0
  0
LINE
  5
330
330
1F
100
AcDbEntity
  8
0
100
AcDbLine
 10
4.65661851626988
 20
-0.9303504284481999
 30
0.0
 11
4.696459289043307
 21
-0.6302130708651461
 31
0.0
  0
LINE
  5
331
330
1F
100
AcDbEntity
  8
0
100
AcDbLine
 10
4.534340281733735
 20
-1.171516792075269
 30
0.0
 11
4.60140136705926
 21
-1.063984782021143
 31
0.0
  0
LINE
  5
332
330
1F
100
AcDbEntity
  8
0
100
AcDbLine
 10
4.28901042561501
 20
-1.436916289340727
 30
0.0
 11
4.431994592314948
 21
-1.298299942364916
 31
0.0
  0
LINE
  5
333
330
1F
100
AcDbEntity
  8
0
100
AcDbLine
 10
3.759825972633498
 20
-1.079899118640727
 30
0.0
 11
3.794025948941249
 21
-1.276086083539885
 31
0.0
  0
ENDSEC
  0
SECTION
  2
OBJECTS
  0
DICTIONARY
  5
C
330
0
100
AcDbDictionary
  3
ACAD_GROUP
350
D
  3
ACAD_LAYOUT
350
1A
  3
ACAD_MATERIAL
350
43
  3
ACAD_MLEADERSTYLE
350
6B
  3
ACAD_MLINESTYLE
350
17
  3
ACAD_PLOTSETTINGS
350
19
  3
ACAD_SCALELIST
350
47
  3
ACAD_VISUALSTYLE
350
2A
  3
ACDBHEADERROUNDTRIPXREC
350
334
  3
ACDBVARIABLEDICTIONARY
350
355
  0
DICTIONARY
  5
35C
330
8
100
AcDbDictionary
280
     1
  3
ACAD_XREC_ROUNDTRIP
360
35D
  0
DICTIONARY
  5
D
102
{ACAD_REACTORS
330
C
102
}
330
C
100
AcDbDictionary
  0
DICTIONARY
  5
1A
102
{ACAD_REACTORS
330
C
102
}
330
C
100
AcDbDictionary
  0
DICTIONARY
  5
43
102
{ACAD_REACTORS
330
C
102
}
330
C
100
AcDbDictionary
  3
BYBLOCK
350
45
  3
BYLAYER
350
44
  3
GLOBAL
350
46
  0
DICTIONARY
  5
6B
102
{ACAD_REACTORS
330
C
102
}
330
C
100
AcDbDictionary
  3
STANDARD
350
6C
  0
DICTIONARY
  5
17
102
{ACAD_REACTORS
330
C
102
}
330
C
100
AcDbDictionary
  3
STANDARD
350
18
  0
DICTIONARY
  5
19
102
{ACAD_REACTORS
330
C
102
}
330
C
100
AcDbDictionary
  0
DICTIONARY
  5
47
102
{ACAD_REACTORS
330
C
102
}
330
C
100
AcDbDictionary
  3
A0
350
48
  3
A1
350
49
  3
A2
350
4A
  3
A3
350
4B
  3
A4
350
4C
  3
A5
350
4D
  3
A6
350
4E
  3
A7
350
4F
  3
A8
350
50
  3
A9
350
51
  3
B0
350
52
  3
B1
350
53
  3
B2
350
54
  3
B3
350
55
  3
B4
350
56
  3
B5
350
57
  3
B6
350
58
  3
B7
350
59
  3
B8
350
5A
  3
B9
350
5B
  3
C0
350
5C
  3
C1
350
5D
  3
C2
350
5E
  3
C3
350
5F
  3
C4
350
60
  3
C5
350
61
  3
C6
350
62
  3
C7
350
63
  3
C8
350
64
  3
C9
350
65
  3
D0
350
66
  3
D1
350
67
  3
D2
350
68
  0
DICTIONARY
  5
2A
102
{ACAD_REACTORS
330
C
102
}
330
C
100
AcDbDictionary
  3
2DWIREFRAME
350
2F
  3
BASIC
350
32
  3
BRIGHTEN
350
36
  3
COLORCHANGE
350
3A
  3
CONCEPTUAL
350
34
  3
DIM
350
35
  3
EDGECOLOROFF
350
3D
  3
FACEPATTERN
350
39
  3
FLAT
350
2B
  3
FLATWITHEDGES
350
2C
  3
GOURAUD
350
2D
  3
GOURAUDWITHEDGES
350
2E
  3
HIDDEN
350
31
  3
JITTEROFF
350
3B
  3
LINEPATTERN
350
38
  3
OVERHANGOFF
350
3C
  3
REALISTIC
350
33
  3
SHADED
350
42
  3
SHADED_WITH_EDGES
350
41
  3
SHADES_OF_GRAY
350
3E
  3
SKETCHY
350
3F
  3
THICKEN
350
37
  3
WIREFRAME
350
30
  3
X-RAY
350
40
  0
DICTIONARY
  5
334
102
{ACAD_REACTORS
330
C
102
}
330
C
100
AcDbDictionary
  3
CEPSNID
350
33E
  3
CEPSNTYPE
350
33D
  3
DIMSTYLEDATA
350
354
  3
FINGERPRINTGUID
350
33F
  3
HYPERLINKBASE
350
337
  3
INSUNITS
350
33C
  3
LAYOUTDICT
350
339
  3
LWETCUNION
350
33B
  3
PLOTSETDICT
350
33A
  3
PSVPSCALE
350
341
  3
PUCSBASE
350
344
  3
PUCSORGBACK
350
34A
  3
PUCSORGBOTTOM
350
346
  3
PUCSORGFRONT
350
349
  3
PUCSORGLEFT
350
347
  3
PUCSORGRIGHT
350
348
  3
PUCSORGTOP
350
345
  3
PUCSORTHOREF
350
342
  3
PUCSORTHOVIEW
350
343
  3
STYLESHEET
350
338
  3
TSTACKALIGN
350
335
  3
TSTACKSIZE
350
336
  3
UCSBASE
350
34D
  3
UCSORGBACK
350
353
  3
UCSORGBOTTOM
350
34F
  3
UCSORGFRONT
350
352
  3
UCSORGLEFT
350
350
  3
UCSORGRIGHT
350
351
  3
UCSORGTOP
350
34E
  3
UCSORTHOREF
350
34B
  3
UCSORTHOVIEW
350
34C
  3
VERSIONGUID
350
340
  0
DICTIONARY
  5
355
102
{ACAD_REACTORS
330
C
102
}
330
C
100
AcDbDictionary
  3
CANNOSCALE
350
35E
  3
CMLEADERSTYLE
350
357
  3
CTABLESTYLE
350
356
  3
DIMASSOC
350
35A
  3
HIDETEXT
350
35B
  3
MSLTSCALE
350
35F
  0
XRECORD
  5
35D
102
{ACAD_REACTORS
330
35C
102
}
330
35C
100
AcDbXrecord
102
VTR_0.000_0.000_1.000_1.000_VISUALSTYLE
340
2F
102
VTR_0.000_0.000_1.000_1.000_GRIDDISPLAY
 70
     3
102
VTR_0.000_0.000_1.000_1.000_GRIDMAJOR
 70
     5
102
VTR_0.000_0.000_1.000_1.000_DEFAULTLIGHTING
280
     1
102
VTR_0.000_0.000_1.000_1.000_DEFAULTLIGHTINGTYPE
 70
     1
102
VTR_0.000_0.000_1.000_1.000_BRIGHTNESS
141
0.0
102
VTR_0.000_0.000_1.000_1.000_CONTRAST
142
0.0
  0
MATERIAL
  5
45
102
{ACAD_REACTORS
330
43
102
}
102
{ACAD_XDICTIONARY
360
362
102
}
330
43
100
AcDbMaterial
  1
BYBLOCK
  0
MATERIAL
  5
44
102
{ACAD_REACTORS
330
43
102
}
102
{ACAD_XDICTIONARY
360
360
102
}
330
43
100
AcDbMaterial
  1
BYLAYER
  0
MATERIAL
  5
46
102
{ACAD_REACTORS
330
43
102
}
102
{ACAD_XDICTIONARY
360
364
102
}
330
43
100
AcDbMaterial
  1
GLOBAL
  0
ACAD_PROXY_OBJECT
  5
6C
102
{ACAD_REACTORS
330
6B
102
}
330
6B
100
AcDbProxyObject
 90
      499
 91
      505
 93
      610
310
40901902A4063FBFFFFFE056BD1B81E855B9FC0AD7A3703D0AD73F4214DD185B99185C9900AD7A3703D0AC73F90141901A02B5E8DC0F42B1CFC02B5E8DC0F42B1CFE5764000000000000300FC0
340
14
340
0
340
11
340
0
 94
        0
1001
ACAD_MLEADERVER
1070
     2
  0
MLINESTYLE
  5
18
102
{ACAD_REACTORS
330
17
102
}
330
17
100
AcDbMlineStyle
  2
Standard
 70
     0
  3

 62
   256
 51
90.0
 52
90.0
 71
     2
 49
0.5
 62
   256
  6
BYLAYER
 49
-0.5
 62
   256
  6
BYLAYER
  0
ACAD_PROXY_OBJECT
  5
48
102
{ACAD_REACTORS
330
47
102
}
330
47
100
AcDbProxyObject
 90
      499
 91
      503
 93
       41
310
903313A31580
  0
ACAD_PROXY_OBJECT
  5
49
102
{ACAD_REACTORS
330
47
102
}
330
47
100
AcDbProxyObject
 90
      499
 91
      503
 93
      105
310
903313A324000000000000004000
  0
ACAD_PROXY_OBJECT
  5
4A
102
{ACAD_REACTORS
330
47
102
}
330
47
100
AcDbProxyObject
 90
      499
 91
      503
 93
      105
310
903313A344000000000000104000
  0
ACAD_PROXY_OBJECT
  5
4B
102
{ACAD_REACTORS
330
47
102
}
330
47
100
AcDbProxyObject
 90
      499
 91
      503
 93
      105
310
903313A354000000000000144000
  0
ACAD_PROXY_OBJECT
  5
4C
102
{ACAD_REACTORS
330
47
102
}
330
47
100
AcDbProxyObject
 90
      499
 91
      503
 93
      105
310
903313A384000000000000204000
  0
ACAD_PROXY_OBJECT
  5
4D
102
{ACAD_REACTORS
330
47
102
}
330
47
100
AcDbProxyObject
 90
      499
 91
      503
 93
      113
310
904313A31304000000000000244000
  0
ACAD_PROXY_OBJECT
  5
4E
102
{ACAD_REACTORS
330
47
102
}
330
47
100
AcDbProxyObject
 90
      499
 91
      503
 93
      113
310
904313A31364000000000000304000
  0
ACAD_PROXY_OBJECT
  5
4F
102
{ACAD_REACTORS
330
47
102
}
330
47
100
AcDbProxyObject
 90
      499
 91
      503
 93
      113
310
904313A32304000000000000344000
  0
ACAD_PROXY_OBJECT
  5
50
102
{ACAD_REACTORS
330
47
102
}
330
47
100
AcDbProxyObject
 90
      499
 91
      503
 93
      113
310
904313A333040000000000003E4000
  0
ACAD_PROXY_OBJECT
  5
51
102
{ACAD_REACTORS
330
47
102
}
330
47
100
AcDbProxyObject
 90
      499
 91
      503
 93
      113
310
904313A34304000000000000444000
  0
ACAD_PROXY_OBJECT
  5
52
102
{ACAD_REACTORS
330
47
102
}
330
47
100
AcDbProxyObject
 90
      499
 91
      503
 93
      113
310
904313A35304000000000000494000
  0
ACAD_PROXY_OBJECT
  5
53
102
{ACAD_REACTORS
330
47
102
}
330
47
100
AcDbProxyObject
 90
      499
 91
      503
 93
      121
310
905313A3130304000000000000594000
  0
ACAD_PROXY_OBJECT
  5
54
102
{ACAD_REACTORS
330
47
102
}
330
47
100
AcDbProxyObject
 90
      499
 91
      503
 93
      105
310
903323A310000000000000010100
  0
ACAD_PROXY_OBJECT
  5
55
102
{ACAD_REACTORS
330
47
102
}
330
47
100
AcDbProxyObject
 90
      499
 91
      503
 93
      105
310
903343A310000000000000410100
  0
ACAD_PROXY_OBJECT
  5
56
102
{ACAD_REACTORS
330
47
102
}
330
47
100
AcDbProxyObject
 90
      499
 91
      503
 93
      105
310
903383A310000000000000810100
  0
ACAD_PROXY_OBJECT
  5
57
102
{ACAD_REACTORS
330
47
102
}
330
47
100
AcDbProxyObject
 90
      499
 91
      503
 93
      113
310
90431303A310000000000000910100
  0
ACAD_PROXY_OBJECT
  5
58
102
{ACAD_REACTORS
330
47
102
}
330
47
100
AcDbProxyObject
 90
      499
 91
      503
 93
      121
310
9053130303A310000000000001650100
  0
ACAD_PROXY_OBJECT
  5
59
102
{ACAD_REACTORS
330
47
102
}
330
47
100
AcDbProxyObject
 90
      499
 91
      503
 93
      257
310
90E312F31323822203D2031272D3022000000000000200FC000000000000284000
  0
ACAD_PROXY_OBJECT
  5
5A
102
{ACAD_REACTORS
330
47
102
}
330
47
100
AcDbProxyObject
 90
      499
 91
      503
 93
      249
310
90D312F363422203D2031272D3022000000000000240FC000000000000284000
  0
ACAD_PROXY_OBJECT
  5
5B
102
{ACAD_REACTORS
330
47
102
}
330
47
100
AcDbProxyObject
 90
      499
 91
      503
 93
      249
310
90D312F333222203D2031272D3022000000000000280FC000000000000284000
  0
ACAD_PROXY_OBJECT
  5
5C
102
{ACAD_REACTORS
330
47
102
}
330
47
100
AcDbProxyObject
 90
      499
 91
      503
 93
      249
310
90D312F313622203D2031272D30220000000000002C0FC000000000000284000
  0
ACAD_PROXY_OBJECT
  5
5D
102
{ACAD_REACTORS
330
47
102
}
330
47
100
AcDbProxyObject
 90
      499
 91
      503
 93
      249
310
90D332F333222203D2031272D30220000000000002E0FC000000000000284000
  0
ACAD_PROXY_OBJECT
  5
5E
102
{ACAD_REACTORS
330
47
102
}
330
47
100
AcDbProxyObject
 90
      499
 91
      503
 93
      241
310
90C312F3822203D2031272D3022000000000000300FC000000000000284000
  0
ACAD_PROXY_OBJECT
  5
5F
102
{ACAD_REACTORS
330
47
102
}
330
47
100
AcDbProxyObject
 90
      499
 91
      503
 93
      249
310
90D332F313622203D2031272D3022000000000000320FC000000000000284000
  0
ACAD_PROXY_OBJECT
  5
60
102
{ACAD_REACTORS
330
47
102
}
330
47
100
AcDbProxyObject
 90
      499
 91
      503
 93
      241
310
90C312F3422203D2031272D3022000000000000340FC000000000000284000
  0
ACAD_PROXY_OBJECT
  5
61
102
{ACAD_REACTORS
330
47
102
}
330
47
100
AcDbProxyObject
 90
      499
 91
      503
 93
      241
310
90C332F3822203D2031272D3022000000000000360FC000000000000284000
  0
ACAD_PROXY_OBJECT
  5
62
102
{ACAD_REACTORS
330
47
102
}
330
47
100
AcDbProxyObject
 90
      499
 91
      503
 93
      241
310
90C312F3222203D2031272D3022000000000000380FC000000000000284000
  0
ACAD_PROXY_OBJECT
  5
63
102
{ACAD_REACTORS
330
47
102
}
330
47
100
AcDbProxyObject
 90
      499
 91
      503
 93
      241
310
90C332F3422203D2031272D30220000000000003A0FC000000000000284000
  0
ACAD_PROXY_OBJECT
  5
64
102
{ACAD_REACTORS
330
47
102
}
330
47
100
AcDbProxyObject
 90
      499
 91
      503
 93
      161
310
90A3122203D2031272D30224000000000000284000
  0
ACAD_PROXY_OBJECT
  5
65
102
{ACAD_REACTORS
330
47
102
}
330
47
100
AcDbProxyObject
 90
      499
 91
      503
 93
      257
310
90E312D312F3222203D2031272D30220000000000003E0FC000000000000284000
  0
ACAD_PROXY_OBJECT
  5
66
102
{ACAD_REACTORS
330
47
102
}
330
47
100
AcDbProxyObject
 90
      499
 91
      503
 93
      225
310
90A3322203D2031272D302200000000000002100000000000000284000
  0
ACAD_PROXY_OBJECT
  5
67
102
{ACAD_REACTORS
330
47
102
}
330
47
100
AcDbProxyObject
 90
      499
 91
      503
 93
      225
310
90A3622203D2031272D302200000000000006100000000000000284000
  0
ACAD_PROXY_OBJECT
  5
68
102
{ACAD_REACTORS
330
47
102
}
330
47
100
AcDbProxyObject
 90
      499
 91
      503
 93
      249
310
90D31272D3022203D2031272D30220000000000000A100000000000000284000
  0
ACAD_PROXY_OBJECT
  5
2F
102
{ACAD_REACTORS
330
2A
102
}
330
2A
100
AcDbProxyObject
 90
      499
 91
      501
 93
      436
310
42CC9915DA5C99599C985B595049028333333333333E33F0000000000000F90107901411070040501600405405064090741402480A0340
1001
ACAD
1000
AcDbSavedByObjectVersion
1070
     0
  0
ACAD_PROXY_OBJECT
  5
32
102
{ACAD_REACTORS
330
2A
102
}
330
2A
100
AcDbProxyObject
 90
      499
 91
      501
 93
      388
310
4150985CDA58D07406404333333333333E33F0000000000000F90107A41107004050150841D405064090741402480A0350
1001
ACAD
1000
AcDbSavedByObjectVersion
1070
     0
  0
ACAD_PROXY_OBJECT
  5
36
102
{ACAD_REACTORS
330
2A
102
}
330
2A
100
AcDbProxyObject
 90
      499
 91
      501
 93
      428
310
42109C9A59DA1D195B90C409028333333333333E33F0000000000000F9010790141107004050150841D405064090741402480A029950
1001
ACAD
1000
AcDbSavedByObjectVersion
1070
     0
  0
ACAD_PROXY_OBJECT
  5
3A
102
{ACAD_REACTORS
330
2A
102
}
330
2A
100
AcDbProxyObject
 90
      499
 91
      501
 93
      452
310
42D0DBDB1BDC90DA185B99D95104090240C333333333333E33F0000000000000F90108901411070040501508421405064090741402480A0350
1001
ACAD
1000
AcDbSavedByObjectVersion
1070
     0
  0
ACAD_PROXY_OBJECT
  5
34
102
{ACAD_REACTORS
330
2A
102
}
330
2A
100
AcDbProxyObject
 90
      499
 91
      501
 93
      500
310
4290DBDB98D95C1D1D585B10940D028333333333333E33F0000000000000F90107902409070040501000000000018199010841D405064090740C02480A0340
1001
ACAD
1000
AcDbSavedByObjectVersion
1070
     0
  0
ACAD_PROXY_OBJECT
  5
35
102
{ACAD_REACTORS
330
2A
102
}
330
2A
100
AcDbProxyObject
 90
      499
 91
      501
 93
      412
310
40D11A5B50B409028333333333333E33F0000000000000F9010790141107004050150841D405064090741402480A02677FFFFFD0
1001
ACAD
1000
AcDbSavedByObjectVersion
1070
     0
  0
ACAD_PROXY_OBJECT
  5
3D
102
{ACAD_REACTORS
330
2A
102
}
330
2A
100
AcDbProxyObject
 90
      499
 91
      501
 93
      452
310
43115919D950DBDB1BDC93D999916409028333333333333E33F0000000000000F9010790141107004050150841D405064090741402480A0350
1001
ACAD
1000
AcDbSavedByObjectVersion
1070
     0
  0
ACAD_PROXY_OBJECT
  5
39
102
{ACAD_REACTORS
330
2A
102
}
330
2A
100
AcDbProxyObject
 90
      499
 91
      501
 93
      444
310
42D19858D95C185D1D195C9B90F409028333333333333E33F0000000000000F9010790141107004050150841D405064090741402480A0350
1001
ACAD
1000
AcDbSavedByObjectVersion
1070
     0
  0
ACAD_PROXY_OBJECT
  5
2B
102
{ACAD_REACTORS
330
2A
102
}
330
2A
100
AcDbProxyObject
 90
      499
 91
      501
 93
      380
310
41119B185D240901404333333333333E33F0000000000000F9010740A907004050150841D405064090741402480A1B50
1001
ACAD
1000
AcDbSavedByObjectVersion
1070
     0
  0
ACAD_PROXY_OBJECT
  5
2C
102
{ACAD_REACTORS
330
2A
102
}
330
2A
100
AcDbProxyObject
 90
      499
 91
      501
 93
      468
310
43519B185D15DA5D1A115919D95CD0140901404333333333333E33F0000000000000F90107409019070040501600405405064090741402480A1B50
1001
ACAD
1000
AcDbSavedByObjectVersion
1070
     0
  0
ACAD_PROXY_OBJECT
  5
2D
102
{ACAD_REACTORS
330
2A
102
}
330
2A
100
AcDbProxyObject
 90
      499
 91
      501
 93
      404
310
41D1DBDD5C985D5910240902404333333333333E33F0000000000000F9010740A9070040501641D405064090741402480A1B50
1001
ACAD
1000
AcDbSavedByObjectVersion
1070
     0
  0
ACAD_PROXY_OBJECT
  5
2E
102
{ACAD_REACTORS
330
2A
102
}
330
2A
100
AcDbProxyObject
 90
      499
 91
      501
 93
      492
310
4411DBDD5C985D5915DA5D1A115919D95CD0340902404333333333333E33F0000000000000F90107409019070040501600405405064090741402480A1B50
1001
ACAD
1000
AcDbSavedByObjectVersion
1070
     0
  0
ACAD_PROXY_OBJECT
  5
31
102
{ACAD_REACTORS
330
2A
102
}
330
2A
100
AcDbProxyObject
 90
      499
 91
      501
 93
      476
310
41921A5919195B90640502408333333333333E33F0000000000000F901079024090700405020000000000001110200405405064090740C02480A0340
1001
ACAD
1000
AcDbSavedByObjectVersion
1070
     0
  0
ACAD_PROXY_OBJECT
  5
3B
102
{ACAD_REACTORS
330
2A
102
}
330
2A
100
AcDbProxyObject
 90
      499
 91
      501
 93
      428
310
42529A5D1D195C93D999914409028333333333333E33F0000000000000F9010790141107004050150A41D405064090741402480A0350
1001
ACAD
1000
AcDbSavedByObjectVersion
1070
     0
  0
ACAD_PROXY_OBJECT
  5
38
102
{ACAD_REACTORS
330
2A
102
}
330
2A
100
AcDbProxyObject
 90
      499
 91
      501
 93
      444
310
42D31A5B995C185D1D195C9B90E409028333333333333E33F0000000000000F9010790141107004050750841D405064090741402483A0350
1001
ACAD
1000
AcDbSavedByObjectVersion
1070
     0
  0
ACAD_PROXY_OBJECT
  5
3C
102
{ACAD_REACTORS
330
2A
102
}
330
2A
100
AcDbProxyObject
 90
      499
 91
      501
 93
      444
310
42D3DD995C9A185B99D3D999915409028333333333333E33F0000000000000F9010790141107004050150941D405064090741402480A0350
1001
ACAD
1000
AcDbSavedByObjectVersion
1070
     0
  0
ACAD_PROXY_OBJECT
  5
33
102
{ACAD_REACTORS
330
2A
102
}
330
2A
100
AcDbProxyObject
 90
      499
 91
      501
 93
      428
310
425499585B1A5CDD1A58D08409038333333333333E33F0000000000000F9010740A907004050150800405405064090740C02480A1B40
1001
ACAD
1000
AcDbSavedByObjectVersion
1070
     0
  0
ACAD_PROXY_OBJECT
  5
42
102
{ACAD_REACTORS
330
2A
102
}
330
2A
100
AcDbProxyObject
 90
      499
 91
      501
 93
      420
310
4194DA1859195911B40902404333333333333E33F0000000000000F9010740A41107004050150800405405064090840C02480A0B40
1001
ACAD
1000
AcDbSavedByObjectVersion
1070
     0
  0
ACAD_PROXY_OBJECT
  5
41
102
{ACAD_REACTORS
330
2A
102
}
330
2A
100
AcDbProxyObject
 90
      499
 91
      501
 93
      516
310
4454DA18591959081DDA5D1A08195919D95CD1A40902404333333333333E33F0000000000000F901074090142907004050250800405405064090740C02480A0B40
1001
ACAD
1000
AcDbSavedByObjectVersion
1070
     0
  0
ACAD_PROXY_OBJECT
  5
3E
102
{ACAD_REACTORS
330
2A
102
}
330
2A
100
AcDbProxyObject
 90
      499
 91
      501
 93
      532
310
4394DA1859195CC81BD98811DC985E5174090240C333333333333E33F0000000000000F901079024090741D01000000000000111010841D405064090740C02480A0340
1001
ACAD
1000
AcDbSavedByObjectVersion
1070
     0
  0
ACAD_PROXY_OBJECT
  5
3F
102
{ACAD_REACTORS
330
2A
102
}
330
2A
100
AcDbProxyObject
 90
      499
 91
      501
 93
      476
310
41D4DAD95D18DA1E51840502408333333333333E33F0000000000000F901079024090741D01000000000000111010B41D405064090741802480A0340
1001
ACAD
1000
AcDbSavedByObjectVersion
1070
     0
  0
ACAD_PROXY_OBJECT
  5
37
102
{ACAD_REACTORS
330
2A
102
}
330
2A
100
AcDbProxyObject
 90
      499
 91
      501
 93
      412
310
41D51A1A58DAD95B90D409028333333333333E33F0000000000000F9010790141107004050150C41D405064090741402480A0350
1001
ACAD
1000
AcDbSavedByObjectVersion
1070
     0
  0
ACAD_PROXY_OBJECT
  5
30
102
{ACAD_REACTORS
330
2A
102
}
330
2A
100
AcDbProxyObject
 90
      499
 91
      501
 93
      420
310
4255DA5C99599C985B595059028333333333333E33F0000000000000F90107901411070040501600405405064090740C02480A0340
1001
ACAD
1000
AcDbSavedByObjectVersion
1070
     0
  0
ACAD_PROXY_OBJECT
  5
40
102
{ACAD_REACTORS
330
2A
102
}
330
2A
100
AcDbProxyObject
 90
      499
 91
      501
 93
      404
310
41560B54985E51940902404000000000000E03F0000000000000F9010740501907004050150841D405064090740C02480A1B40
1001
ACAD
1000
AcDbSavedByObjectVersion
1070
     0
  0
XRECORD
  5
33E
102
{ACAD_REACTORS
330
334
102
}
330
334
100
AcDbXrecord
340
0
  0
XRECORD
  5
33D
102
{ACAD_REACTORS
330
334
102
}
330
334
100
AcDbXrecord
 90
        0
  0
XRECORD
  5
354
102
{ACAD_REACTORS
330
334
102
}
330
334
100
AcDbXrecord
1000
DSTYLE
1002
{
1070
   171
 70
     2
1070
   143
 40
25.4
1070
   274
 70
     2
1070
    41
 40
0.18
1070
   141
 40
0.09
1070
   271
 70
     4
1070
    43
 40
0.38
1070
   278
 70
    46
1070
    44
 40
0.18
1070
    42
 40
0.0625
1070
   147
 40
0.09
1070
    77
 70
     0
1070
   272
 70
     4
1070
    73
 70
     1
1070
   172
 70
     0
1070
    74
 70
     1
1070
   283
 70
     1
1070
   340
340
11
1070
   140
 40
0.18
1070
   284
 70
     0
1070
    78
 70
     0
1002
}
  0
XRECORD
  5
33F
102
{ACAD_REACTORS
330
334
102
}
330
334
100
AcDbXrecord
  1
{79FE55F4-9A13-4B6D-BB2F-7C895140F630}
  0
XRECORD
  5
337
102
{ACAD_REACTORS
330
334
102
}
330
334
100
AcDbXrecord
  1

  0
XRECORD
  5
33C
102
{ACAD_REACTORS
330
334
102
}
330
334
100
AcDbXrecord
 90
        5
  0
XRECORD
  5
339
102
{ACAD_REACTORS
330
334
102
}
330
334
100
AcDbXrecord
340
1A
  0
XRECORD
  5
33B
102
{ACAD_REACTORS
330
334
102
}
330
334
100
AcDbXrecord
 90
    10781
  0
XRECORD
  5
33A
102
{ACAD_REACTORS
330
334
102
}
330
334
100
AcDbXrecord
340
19
  0
XRECORD
  5
341
102
{ACAD_REACTORS
330
334
102
}
330
334
100
AcDbXrecord
 40
0.0
  0
XRECORD
  5
344
102
{ACAD_REACTORS
330
334
102
}
330
334
100
AcDbXrecord
340
0
  0
XRECORD
  5
34A
102
{ACAD_REACTORS
330
334
102
}
330
334
100
AcDbXrecord
 10
0.0
 20
0.0
 30
0.0
  0
XRECORD
  5
346
102
{ACAD_REACTORS
330
334
102
}
330
334
100
AcDbXrecord
 10
0.0
 20
0.0
 30
0.0
  0
XRECORD
  5
349
102
{ACAD_REACTORS
330
334
102
}
330
334
100
AcDbXrecord
 10
0.0
 20
0.0
 30
0.0
  0
XRECORD
  5
347
102
{ACAD_REACTORS
330
334
102
}
330
334
100
AcDbXrecord
 10
0.0
 20
0.0
 30
0.0
  0
XRECORD
  5
348
102
{ACAD_REACTORS
330
334
102
}
330
334
100
AcDbXrecord
 10
0.0
 20
0.0
 30
0.0
  0
XRECORD
  5
345
102
{ACAD_REACTORS
330
334
102
}
330
334
100
AcDbXrecord
 10
0.0
 20
0.0
 30
0.0
  0
XRECORD
  5
342
102
{ACAD_REACTORS
330
334
102
}
330
334
100
AcDbXrecord
340
0
  0
XRECORD
  5
343
102
{ACAD_REACTORS
330
334
102
}
330
334
100
AcDbXrecord
 70
     0
  0
XRECORD
  5
338
102
{ACAD_REACTORS
330
334
102
}
330
334
100
AcDbXrecord
  1

  0
XRECORD
  5
335
102
{ACAD_REACTORS
330
334
102
}
330
334
100
AcDbXrecord
 90
        1
  0
XRECORD
  5
336
102
{ACAD_REACTORS
330
334
102
}
330
334
100
AcDbXrecord
 90
       70
  0
XRECORD
  5
34D
102
{ACAD_REACTORS
330
334
102
}
330
334
100
AcDbXrecord
340
0
  0
XRECORD
  5
353
102
{ACAD_REACTORS
330
334
102
}
330
334
100
AcDbXrecord
 10
0.0
 20
0.0
 30
0.0
  0
XRECORD
  5
34F
102
{ACAD_REACTORS
330
334
102
}
330
334
100
AcDbXrecord
 10
0.0
 20
0.0
 30
0.0
  0
XRECORD
  5
352
102
{ACAD_REACTORS
330
334
102
}
330
334
100
AcDbXrecord
 10
0.0
 20
0.0
 30
0.0
  0
XRECORD
  5
350
102
{ACAD_REACTORS
330
334
102
}
330
334
100
AcDbXrecord
 10
0.0
 20
0.0
 30
0.0
  0
XRECORD
  5
351
102
{ACAD_REACTORS
330
334
102
}
330
334
100
AcDbXrecord
 10
0.0
 20
0.0
 30
0.0
  0
XRECORD
  5
34E
102
{ACAD_REACTORS
330
334
102
}
330
334
100
AcDbXrecord
 10
0.0
 20
0.0
 30
0.0
  0
XRECORD
  5
34B
102
{ACAD_REACTORS
330
334
102
}
330
334
100
AcDbXrecord
340
0
  0
XRECORD
  5
34C
102
{ACAD_REACTORS
330
334
102
}
330
334
100
AcDbXrecord
 70
     0
  0
XRECORD
  5
340
102
{ACAD_REACTORS
330
334
102
}
330
334
100
AcDbXrecord
  1
{FAEB1C32-E019-11D5-929B-00C0DF256EC4}
  0
DICTIONARYVAR
  5
35E
102
{ACAD_REACTORS
330
355
102
}
330
355
100
DictionaryVariables
280
     0
  1
1:1
  0
DICTIONARYVAR
  5
357
102
{ACAD_REACTORS
330
355
102
}
330
355
100
DictionaryVariables
280
     0
  1
Standard
  0
DICTIONARYVAR
  5
356
102
{ACAD_REACTORS
330
355
102
}
330
355
100
DictionaryVariables
280
     0
  1
Standard
  0
DICTIONARYVAR
  5
35A
102
{ACAD_REACTORS
330
355
102
}
330
355
100
DictionaryVariables
280
     0
  1
2
  0
DICTIONARYVAR
  5
35B
102
{ACAD_REACTORS
330
355
102
}
330
355
100
DictionaryVariables
280
     0
  1
1
  0
DICTIONARYVAR
  5
35F
102
{ACAD_REACTORS
330
355
102
}
330
355
100
DictionaryVariables
280
     0
  1
1
  0
DICTIONARY
  5
362
330
45
100
AcDbDictionary
280
     1
  3
ACAD_XREC_ROUNDTRIP
360
363
  0
DICTIONARY
  5
360
330
44
100
AcDbDictionary
280
     1
  3
ACAD_XREC_ROUNDTRIP
360
361
  0
DICTIONARY
  5
364
330
46
100
AcDbDictionary
280
     1
  3
ACAD_XREC_ROUNDTRIP
360
365
  0
XRECORD
  5
363
102
{ACAD_REACTORS
330
362
102
}
330
362
100
AcDbXrecord
102
MATERIAL
148
0.0
149
0.0
149
0.0
 93
        0
 94
      127
282
     0
 72
     1
 77
     1
171
     1
175
     1
179
     1
273
     0
  0
XRECORD
  5
361
102
{ACAD_REACTORS
330
360
102
}
330
360
100
AcDbXrecord
102
MATERIAL
148
0.0
149
0.0
149
0.0
 93
        0
 94
      127
282
     0
 72
     1
 77
     1
171
     1
175
     1
179
     1
273
     0
  0
XRECORD
  5
365
102
{ACAD_REACTORS
330
364
102
}
330
364
100
AcDbXrecord
102
MATERIAL
148
0.0
149
0.0
149
0.0
 93
        0
 94
      127
282
     0
 72
     1
 77
     1
171
     1
175
     1
179
     1
273
     0
  0
ENDSEC
  0
EOF
