  0
SECTION
  2
HEADER
  9
$ACADVER
  1
AC1014
  9
$ACADMAINTVER
 70
     9
  9
$DWGCODEPAGE
  3
ANSI_1252
  9
$INSBASE
 10
0.0
 20
0.0
 30
0.0
  9
$EXTMIN
 10
1.000000000000000E+20
 20
1.000000000000000E+20
 30
1.000000000000000E+20
  9
$EXTMAX
 10
-1.000000000000000E+20
 20
-1.000000000000000E+20
 30
-1.000000000000000E+20
  9
$LIMMIN
 10
0.0
 20
0.0
  9
$LIMMAX
 10
12.0
 20
9.0
  9
$ORTHOMODE
 70
     0
  9
$REGENMODE
 70
     1
  9
$FILLMODE
 70
     1
  9
$QTEXTMODE
 70
     0
  9
$MIRRTEXT
 70
     1
  9
$DRAGMODE
 70
     2
  9
$LTSCALE
 40
1.0
  9
$OSMODE
 70
    37
  9
$ATTMODE
 70
     1
  9
$TEXTSIZE
 40
0.2
  9
$TRACEWID
 40
0.05
  9
$TEXTSTYLE
  7
STANDARD
  9
$CLAYER
  8
0
  9
$CELTYPE
  6
BYLAYER
  9
$CECOLOR
 62
   256
  9
$CELTSCALE
 40
1.0
  9
$DELOBJ
 70
     1
  9
$DISPSILH
 70
     0
  9
$DIMSCALE
 40
1.0
  9
$DIMASZ
 40
0.18
  9
$DIMEXO
 40
0.0625
  9
$DIMDLI
 40
0.38
  9
$DIMRND
 40
0.0
  9
$DIMDLE
 40
0.0
  9
$DIMEXE
 40
0.18
  9
$DIMTP
 40
0.0
  9
$DIMTM
 40
0.0
  9
$DIMTXT
 40
0.18
  9
$DIMCEN
 40
0.09
  9
$DIMTSZ
 40
0.0
  9
$DIMTOL
 70
     0
  9
$DIMLIM
 70
     0
  9
$DIMTIH
 70
     1
  9
$DIMTOH
 70
     1
  9
$DIMSE1
 70
     0
  9
$DIMSE2
 70
     0
  9
$DIMTAD
 70
     0
  9
$DIMZIN
 70
     0
  9
$DIMBLK
  1

  9
$DIMASO
 70
     1
  9
$DIMSHO
 70
     1
  9
$DIMPOST
  1

  9
$DIMAPOST
  1

  9
$DIMALT
 70
     0
  9
$DIMALTD
 70
     2
  9
$DIMALTF
 40
25.4
  9
$DIMLFAC
 40
1.0
  9
$DIMTOFL
 70
     0
  9
$DIMTVP
 40
0.0
  9
$DIMTIX
 70
     0
  9
$DIMSOXD
 70
     0
  9
$DIMSAH
 70
     0
  9
$DIMBLK1
  1

  9
$DIMBLK2
  1

  9
$DIMSTYLE
  2
STANDARD
  9
$DIMCLRD
 70
     0
  9
$DIMCLRE
 70
     0
  9
$DIMCLRT
 70
     0
  9
$DIMTFAC
 40
1.0
  9
$DIMGAP
 40
0.09
  9
$DIMJUST
 70
     0
  9
$DIMSD1
 70
     0
  9
$DIMSD2
 70
     0
  9
$DIMTOLJ
 70
     1
  9
$DIMTZIN
 70
     0
  9
$DIMALTZ
 70
     0
  9
$DIMALTTZ
 70
     0
  9
$DIMFIT
 70
     3
  9
$DIMUPT
 70
     0
  9
$DIMUNIT
 70
     2
  9
$DIMDEC
 70
     4
  9
$DIMTDEC
 70
     4
  9
$DIMALTU
 70
     2
  9
$DIMALTTD
 70
     2
  9
$DIMTXSTY
  7
STANDARD
  9
$DIMAUNIT
 70
     0
  9
$LUNITS
 70
     2
  9
$LUPREC
 70
     4
  9
$SKETCHINC
 40
0.1
  9
$FILLETRAD
 40
0.5
  9
$AUNITS
 70
     0
  9
$AUPREC
 70
     0
  9
$MENU
  1
.
  9
$ELEVATION
 40
0.0
  9
$PELEVATION
 40
0.0
  9
$THICKNESS
 40
0.0
  9
$LIMCHECK
 70
     0
  9
$CHAMFERA
 40
0.0
  9
$CHAMFERB
 40
0.0
  9
$CHAMFERC
 40
0.0
  9
$CHAMFERD
 40
0.0
  9
$SKPOLY
 70
     0
  9
$TDCREATE
 40
2458576.701466817
  9
$TDUPDATE
 40
2458576.701467176
  9
$TDINDWG
 40
0.0000000116
  9
$TDUSRTIMER
 40
0.0000000116
  9
$USRTIMER
 70
     1
  9
$ANGBASE
 50
0.0
  9
$ANGDIR
 70
     0
  9
$PDMODE
 70
     0
  9
$PDSIZE
 40
0.0
  9
$PLINEWID
 40
0.0
  9
$COORDS
 70
     1
  9
$SPLFRAME
 70
     0
  9
$SPLINETYPE
 70
     6
  9
$SPLINESEGS
 70
     8
  9
$ATTDIA
 70
     0
  9
$ATTREQ
 70
     1
  9
$HANDLING
 70
     1
  9
$HANDSEED
  5
367
  9
$SURFTAB1
 70
     6
  9
$SURFTAB2
 70
     6
  9
$SURFTYPE
 70
     6
  9
$SURFU
 70
     6
  9
$SURFV
 70
     6
  9
$UCSNAME
  2

  9
$UCSORG
 10
0.0
 20
0.0
 30
0.0
  9
$UCSXDIR
 10
1.0
 20
0.0
 30
0.0
  9
$UCSYDIR
 10
0.0
 20
1.0
 30
0.0
  9
$PUCSNAME
  2

  9
$PUCSORG
 10
0.0
 20
0.0
 30
0.0
  9
$PUCSXDIR
 10
1.0
 20
0.0
 30
0.0
  9
$PUCSYDIR
 10
0.0
 20
1.0
 30
0.0
  9
$USERI1
 70
     0
  9
$USERI2
 70
     0
  9
$USERI3
 70
     0
  9
$USERI4
 70
     0
  9
$USERI5
 70
     0
  9
$USERR1
 40
0.0
  9
$USERR2
 40
0.0
  9
$USERR3
 40
0.0
  9
$USERR4
 40
0.0
  9
$USERR5
 40
0.0
  9
$WORLDVIEW
 70
     1
  9
$SHADEDGE
 70
     3
  9
$SHADEDIF
 70
    70
  9
$TILEMODE
 70
     1
  9
$MAXACTVP
 70
    64
  9
$PINSBASE
 10
0.0
 20
0.0
 30
0.0
  9
$PLIMCHECK
 70
     0
  9
$PEXTMIN
 10
1.000000000000000E+20
 20
1.000000000000000E+20
 30
1.000000000000000E+20
  9
$PEXTMAX
 10
-1.000000000000000E+20
 20
-1.000000000000000E+20
 30
-1.000000000000000E+20
  9
$PLIMMIN
 10
0.0
 20
0.0
  9
$PLIMMAX
 10
12.0
 20
9.0
  9
$UNITMODE
 70
     0
  9
$VISRETAIN
 70
     1
  9
$PLINEGEN
 70
     0
  9
$PSLTSCALE
 70
     1
  9
$TREEDEPTH
 70
  3020
  9
$PICKSTYLE
 70
     1
  9
$CMLSTYLE
  2
STANDARD
  9
$CMLJUST
 70
     0
  9
$CMLSCALE
 40
1.0
  9
$PROXYGRAPHICS
 70
     1
  9
$MEASUREMENT
 70
     1
  0
ENDSEC
  0
SECTION
  2
CLASSES
  0
CLASS
  1
ACDBDICTIONARYWDFLT
  2
AcDbDictionaryWithDefault
  3
ObjectDBX Classes
 90
        0
280
     0
281
     0
  0
CLASS
  1
VISUALSTYLE
  2
AcDbVisualStyle
  3
ObjectDBX Classes
 90
     4095
280
     0
281
     0
  0
CLASS
  1
MATERIAL
  2
AcDbMaterial
  3
ObjectDBX Classes
 90
     1153
280
     0
281
     0
  0
CLASS
  1
SCALE
  2
AcDbScale
  3
ObjectDBX Classes
 90
     1153
280
     0
281
     0
  0
CLASS
  1
TABLESTYLE
  2
AcDbTableStyle
  3
ObjectDBX Classes
 90
     4095
280
     0
281
     0
  0
CLASS
  1
MLEADERSTYLE
  2
AcDbMLeaderStyle
  3
ACDB_MLEADERSTYLE_CLASS
 90
     4095
280
     0
281
     0
  0
CLASS
  1
SUN
  2
AcDbSun
  3
SCENEOE
 90
     1153
280
     0
281
     0
  0
CLASS
  1
DICTIONARYVAR
  2
AcDbDictionaryVar
  3
ObjectDBX Classes
 90
        0
280
     0
281
     0
  0
CLASS
  1
XRECORD
  2
AcDbXrecord
  3
ObjectDBX Classes
 90
        0
280
     0
281
     0
  0
CLASS
  1
LWPOLYLINE
  2
AcDbPolyline
  3
ObjectDBX Classes
 90
        0
280
     0
281
     1
  0
CLASS
  1
HATCH
  2
AcDbHatch
  3
ObjectDBX Classes
 90
        0
280
     0
281
     1
  0
CLASS
  1
ACDBPLACEHOLDER
  2
AcDbPlaceHolder
  3
ObjectDBX Classes
 90
        0
280
     0
281
     0
  0
CLASS
  1
LAYOUT
  2
AcDbLayout
  3
ObjectDBX Classes
 90
        0
280
     0
281
     0
  0
ENDSEC
  0
SECTION
  2
TABLES
  0
TABLE
  2
VPORT
  5
8
102
{ACAD_XDICTIONARY
360
35C
102
}
330
0
100
AcDbSymbolTable
 70
     1
  0
VPORT
  5
29
330
8
100
AcDbSymbolTableRecord
100
AcDbViewportTableRecord
  2
*ACTIVE
 70
     0
 10
0.0
 20
0.0
 11
1.0
 21
1.0
 12
0.0
 22
0.0
 13
0.0
 23
0.0
 14
0.5
 24
0.5
 15
0.5
 25
0.5
 16
0.0
 26
0.0
 36
1.0
 17
0.0
 27
0.0
 37
-1000.0
 40
15.43758169881462
 41
1.905236907730673
 42
50.0
 43
24.48087693850895
 44
33.77591337919272
 50
0.0
 51
0.0
 71
     0
 72
   100
 73
     1
 74
     3
 75
     0
 76
     0
 77
     0
 78
     0
  0
ENDTAB
  0
TABLE
  2
LTYPE
  5
5
330
0
100
AcDbSymbolTable
 70
     1
  0
LTYPE
  5
14
330
5
100
AcDbSymbolTableRecord
100
AcDbLinetypeTableRecord
  2
BYBLOCK
 70
     0
  3

 72
    65
 73
     0
 40
0.0
  0
LTYPE
  5
15
330
5
100
AcDbSymbolTableRecord
100
AcDbLinetypeTableRecord
  2
BYLAYER
 70
     0
  3

 72
    65
 73
     0
 40
0.0
  0
LTYPE
  5
16
330
5
100
AcDbSymbolTableRecord
100
AcDbLinetypeTableRecord
  2
CONTINUOUS
 70
     0
  3
Solid line
 72
    65
 73
     0
 40
0.0
  0
ENDTAB
  0
TABLE
  2
LAYER
  5
2
330
0
100
AcDbSymbolTable
 70
     3
  0
LAYER
  5
10
330
2
100
AcDbSymbolTableRecord
100
AcDbLayerTableRecord
  2
0
 70
     0
 62
     7
  6
CONTINUOUS
  0
LAYER
  5
6E
330
2
100
AcDbSymbolTableRecord
100
AcDbLayerTableRecord
  2
PROFILEEDGES
 70
     0
 62
     7
  6
CONTINUOUS
  0
LAYER
  5
6F
330
2
100
AcDbSymbolTableRecord
100
AcDbLayerTableRecord
  2
SECTIONCUTEDGES
 70
     0
 62
     7
  6
CONTINUOUS
  0
ENDTAB
  0
TABLE
  2
STYLE
  5
3
330
0
100
AcDbSymbolTable
 70
     1
  0
STYLE
  5
11
330
3
100
AcDbSymbolTableRecord
100
AcDbTextStyleTableRecord
  2
STANDARD
 70
     0
 40
0.0
 41
1.0
 50
0.0
 71
     0
 42
0.2
  3
txt
  4

  0
ENDTAB
  0
TABLE
  2
VIEW
  5
6
330
0
100
AcDbSymbolTable
 70
     0
  0
ENDTAB
  0
TABLE
  2
UCS
  5
7
330
0
100
AcDbSymbolTable
 70
     0
  0
ENDTAB
  0
TABLE
  2
APPID
  5
9
330
0
100
AcDbSymbolTable
 70
     2
  0
APPID
  5
12
330
9
100
AcDbSymbolTableRecord
100
AcDbRegAppTableRecord
  2
ACAD
 70
     0
  0
APPID
  5
366
330
9
100
AcDbSymbolTableRecord
100
AcDbRegAppTableRecord
  2
ACAD_MLEADERVER
 70
     0
  0
ENDTAB
  0
TABLE
  2
DIMSTYLE
  5
A
330
0
100
AcDbSymbolTable
 70
     1
  0
DIMSTYLE
105
27
330
A
100
AcDbSymbolTableRecord
100
AcDbDimStyleTableRecord
  2
STANDARD
 70
     0
  3

  4

  5

  6

  7

 40
1.0
 41
0.18
 42
0.0625
 43
0.38
 44
0.18
 45
0.0
 46
0.0
 47
0.0
 48
0.0
140
0.18
141
0.09
142
0.0
143
25.4
144
1.0
145
0.0
146
1.0
147
0.09
 71
     0
 72
     0
 73
     1
 74
     1
 75
     0
 76
     0
 77
     0
 78
     0
170
     0
171
     2
172
     0
173
     0
174
     0
175
     0
176
     0
177
     0
178
     0
270
     2
271
     4
272
     4
273
     2
274
     2
340
11
275
     0
280
     0
281
     0
282
     0
283
     1
284
     0
285
     0
286
     0
287
     3
288
     0
  0
ENDTAB
  0
TABLE
  2
BLOCK_RECORD
  5
1
330
0
100
AcDbSymbolTable
 70
     1
  0
BLOCK_RECORD
  5
1F
330
1
100
AcDbSymbolTableRecord
100
AcDbBlockTableRecord
  2
*MODEL_SPACE
  0
BLOCK_RECORD
  5
1B
330
1
100
AcDbSymbolTableRecord
100
AcDbBlockTableRecord
  2
*PAPER_SPACE
  0
ENDTAB
  0
ENDSEC
  0
SECTION
  2
BLOCKS
  0
BLOCK
  5
20
330
1F
100
AcDbEntity
  8
0
100
AcDbBlockBegin
  2
*MODEL_SPACE
 70
     0
 10
0.0
 20
0.0
 30
0.0
  3
*MODEL_SPACE
  1

  0
ENDBLK
  5
21
330
1F
100
AcDbEntity
  8
0
100
AcDbBlockEnd
  0
BLOCK
  5
1C
330
1B
100
AcDbEntity
 67
     1
  8
0
100
AcDbBlockBegin
  2
*PAPER_SPACE
 70
     0
 10
0.0
 20
0.0
 30
0.0
  3
*PAPER_SPACE
  1

  0
ENDBLK
  5
1D
330
1B
100
AcDbEntity
 67
     1
  8
0
100
AcDbBlockEnd
  0
ENDSEC
  0
SECTION
  2
ENTITIES
  0
LINE
  5
70
330
1F
100
AcDbEntity
  8
0
100
AcDbLine
 10
-1.285355443515863
 20
3.292064227084129
 30
0.0
 11
-0.7020703067926551
 21
3.292064227084129
 31
0.0
  0
LINE
  5
71
330
1F
100
AcDbEntity
  8
0
100
AcDbLine
 10
-0.5270847657756902
 20
-1.957502003424749
 30
0.0
 11
-0.1187851700694448
 21
-0.2076465932551236
 31
0.0
  0
LINE
  5
72
330
1F
100
AcDbEntity
  8
0
100
AcDbLine
 10
-1.285355443515863
 20
3.292064227084129
 30
0.0
 11
-1.868640580239073
 21
-0.2076465932551234
 31
0.0
  0
LINE
  5
73
330
1F
100
AcDbEntity
  8
0
100
AcDbLine
 10
-0.7020703067926551
 20
3.292064227084129
 30
0.0
 11
-0.1187851700694448
 21
-0.2076465932551236
 31
0.0
  0
LINE
  5
74
330
1F
100
AcDbEntity
  8
0
100
AcDbLine
 10
-1.460340984532825
 20
-1.957502003424749
 30
0.0
 11
-0.5270847657756902
 21
-1.957502003424749
 31
0.0
  0
LINE
  5
75
330
1F
100
AcDbEntity
  8
0
100
AcDbLine
 10
-1.868640580239073
 20
-0.2076465932551234
 30
0.0
 11
-1.460340984532825
 21
-1.957502003424749
 31
0.0
  0
LINE
  5
76
330
1F
100
AcDbEntity
  8
0
100
AcDbLine
 10
-1.038196054245283
 20
3.308292502740062
 30
0.0
 11
-1.285355443515863
 21
3.292064227084129
 31
0.0
  0
LINE
  5
77
330
1F
100
AcDbEntity
  8
0
100
AcDbLine
 10
-0.7020703067926551
 20
3.292064227084129
 30
0.0
 11
-1.038196054245283
 21
3.308292502740062
 31
0.0
  0
LINE
  5
78
330
1F
100
AcDbEntity
  8
0
100
AcDbLine
 10
9.299617614722901
 20
-0.1733364237709074
 30
0.0
 11
9.360587513711442
 21
-0.1701411267618067
 31
0.0
  0
LINE
  5
79
330
1F
100
AcDbEntity
  8
0
100
AcDbLine
 10
9.360587513711442
 20
-0.1701411267618067
 30
0.0
 11
9.42088941372789
 21
-0.1605902440771951
 31
0.0
  0
LINE
  5
7A
330
1F
100
AcDbEntity
  8
0
100
AcDbLine
 10
9.42088941372789
 20
-0.1605902440771951
 30
0.0
 11
9.479862634536689
 21
-0.1447884171864159
 31
0.0
  0
LINE
  5
7B
330
1F
100
AcDbEntity
  8
0
100
AcDbLine
 10
9.479862634536689
 20
-0.1447884171864159
 30
0.0
 11
9.536861053189709
 21
-0.1229087742116295
 31
0.0
  0
LINE
  5
7C
330
1F
100
AcDbEntity
  8
0
100
AcDbLine
 10
9.536861053189709
 20
-0.1229087742116295
 30
0.0
 11
9.591260183084506
 21
-0.0951910330998771
 31
0.0
  0
LINE
  5
7D
330
1F
100
AcDbEntity
  8
0
100
AcDbLine
 10
9.591260183084506
 20
-0.0951910330998771
 30
0.0
 11
9.642464015970202
 21
-0.0619388752230894
 31
0.0
  0
LINE
  5
7E
330
1F
100
AcDbEntity
  8
0
100
AcDbLine
 10
9.642464015970202
 20
-0.0619388752230894
 30
0.0
 11
9.68991155193861
 21
-0.0235166181814258
 31
0.0
  0
LINE
  5
7F
330
1F
100
AcDbEntity
  8
0
100
AcDbLine
 10
9.68991155193861
 20
-0.0235166181814258
 30
0.0
 11
9.73308294585663
 21
0.019654775736591
 31
0.0
  0
LINE
  5
80
330
1F
100
AcDbEntity
  8
0
100
AcDbLine
 10
9.73308294585663
 20
0.019654775736591
 30
0.0
 11
9.771505202898291
 21
0.0671023117050003
 31
0.0
  0
LINE
  5
81
330
1F
100
AcDbEntity
  8
0
100
AcDbLine
 10
9.771505202898291
 20
0.0671023117050003
 30
0.0
 11
9.80475736077508
 21
0.1183061445906968
 31
0.0
  0
LINE
  5
82
330
1F
100
AcDbEntity
  8
0
100
AcDbLine
 10
9.80475736077508
 20
0.1183061445906968
 30
0.0
 11
9.832475101886832
 21
0.172705274485494
 31
0.0
  0
LINE
  5
83
330
1F
100
AcDbEntity
  8
0
100
AcDbLine
 10
9.832475101886832
 20
0.172705274485494
 30
0.0
 11
9.854354744861618
 21
0.2297036931385149
 31
0.0
  0
LINE
  5
84
330
1F
100
AcDbEntity
  8
0
100
AcDbLine
 10
9.854354744861618
 20
0.2297036931385149
 30
0.0
 11
9.870156571752398
 21
0.2886769139473108
 31
0.0
  0
LINE
  5
85
330
1F
100
AcDbEntity
  8
0
100
AcDbLine
 10
9.870156571752398
 20
0.2886769139473108
 30
0.0
 11
9.879707454437009
 21
0.3489788139637608
 31
0.0
  0
LINE
  5
86
330
1F
100
AcDbEntity
  8
0
100
AcDbLine
 10
9.879707454437009
 20
0.3489788139637608
 30
0.0
 11
9.88290275144611
 21
0.4099487129523011
 31
0.0
  0
LINE
  5
87
330
1F
100
AcDbEntity
  8
0
100
AcDbLine
 10
9.88290275144611
 20
0.4099487129523011
 30
0.0
 11
9.879707454437009
 21
0.4709186119408412
 31
0.0
  0
LINE
  5
88
330
1F
100
AcDbEntity
  8
0
100
AcDbLine
 10
9.879707454437009
 20
0.4709186119408412
 30
0.0
 11
9.870156571752398
 21
0.5312205119572913
 31
0.0
  0
LINE
  5
89
330
1F
100
AcDbEntity
  8
0
100
AcDbLine
 10
9.870156571752398
 20
0.5312205119572913
 30
0.0
 11
9.854354744861618
 21
0.5901937327660872
 31
0.0
  0
LINE
  5
8A
330
1F
100
AcDbEntity
  8
0
100
AcDbLine
 10
9.854354744861618
 20
0.5901937327660872
 30
0.0
 11
9.832475101886832
 21
0.647192151419108
 31
0.0
  0
LINE
  5
8B
330
1F
100
AcDbEntity
  8
0
100
AcDbLine
 10
9.832475101886832
 20
0.647192151419108
 30
0.0
 11
9.80475736077508
 21
0.7015912813139054
 31
0.0
  0
LINE
  5
8C
330
1F
100
AcDbEntity
  8
0
100
AcDbLine
 10
9.80475736077508
 20
0.7015912813139054
 30
0.0
 11
9.771505202898291
 21
0.752795114199602
 31
0.0
  0
LINE
  5
8D
330
1F
100
AcDbEntity
  8
0
100
AcDbLine
 10
9.771505202898291
 20
0.752795114199602
 30
0.0
 11
9.73308294585663
 21
0.8002426501680111
 31
0.0
  0
LINE
  5
8E
330
1F
100
AcDbEntity
  8
0
100
AcDbLine
 10
9.73308294585663
 20
0.8002426501680111
 30
0.0
 11
9.68991155193861
 21
0.843414044086028
 31
0.0
  0
LINE
  5
8F
330
1F
100
AcDbEntity
  8
0
100
AcDbLine
 10
9.68991155193861
 20
0.843414044086028
 30
0.0
 11
9.642464015970202
 21
0.8818363011276915
 31
0.0
  0
LINE
  5
90
330
1F
100
AcDbEntity
  8
0
100
AcDbLine
 10
9.642464015970202
 20
0.8818363011276915
 30
0.0
 11
9.591260183084506
 21
0.9150884590044791
 31
0.0
  0
LINE
  5
91
330
1F
100
AcDbEntity
  8
0
100
AcDbLine
 10
9.591260183084506
 20
0.9150884590044791
 30
0.0
 11
9.536861053189709
 21
0.9428062001162317
 31
0.0
  0
LINE
  5
92
330
1F
100
AcDbEntity
  8
0
100
AcDbLine
 10
9.536861053189709
 20
0.9428062001162317
 30
0.0
 11
9.479862634536689
 21
0.9646858430910182
 31
0.0
  0
LINE
  5
93
330
1F
100
AcDbEntity
  8
0
100
AcDbLine
 10
9.479862634536689
 20
0.9646858430910182
 30
0.0
 11
9.420889413727892
 21
0.9804876699817974
 31
0.0
  0
LINE
  5
94
330
1F
100
AcDbEntity
  8
0
100
AcDbLine
 10
9.420889413727892
 20
0.9804876699817974
 30
0.0
 11
9.360587513711442
 21
0.990038552666409
 31
0.0
  0
LINE
  5
95
330
1F
100
AcDbEntity
  8
0
100
AcDbLine
 10
9.360587513711442
 20
0.990038552666409
 30
0.0
 11
9.299617614722901
 21
0.9932338496755098
 31
0.0
  0
LINE
  5
96
330
1F
100
AcDbEntity
  8
0
100
AcDbLine
 10
9.299617614722901
 20
0.9932338496755098
 30
0.0
 11
9.238647715734361
 21
0.990038552666409
 31
0.0
  0
LINE
  5
97
330
1F
100
AcDbEntity
  8
0
100
AcDbLine
 10
9.238647715734361
 20
0.990038552666409
 30
0.0
 11
9.178345815717911
 21
0.9804876699817974
 31
0.0
  0
LINE
  5
98
330
1F
100
AcDbEntity
  8
0
100
AcDbLine
 10
9.178345815717911
 20
0.9804876699817974
 30
0.0
 11
9.119372594909116
 21
0.9646858430910183
 31
0.0
  0
LINE
  5
99
330
1F
100
AcDbEntity
  8
0
100
AcDbLine
 10
9.119372594909116
 20
0.9646858430910183
 30
0.0
 11
9.062374176256094
 21
0.9428062001162317
 31
0.0
  0
LINE
  5
9A
330
1F
100
AcDbEntity
  8
0
100
AcDbLine
 10
9.062374176256094
 20
0.9428062001162317
 30
0.0
 11
9.007975046361297
 21
0.9150884590044794
 31
0.0
  0
LINE
  5
9B
330
1F
100
AcDbEntity
  8
0
100
AcDbLine
 10
9.007975046361297
 20
0.9150884590044794
 30
0.0
 11
8.956771213475601
 21
0.8818363011276916
 31
0.0
  0
LINE
  5
9C
330
1F
100
AcDbEntity
  8
0
100
AcDbLine
 10
8.956771213475601
 20
0.8818363011276916
 30
0.0
 11
8.90932367750719
 21
0.843414044086028
 31
0.0
  0
LINE
  5
9D
330
1F
100
AcDbEntity
  8
0
100
AcDbLine
 10
8.90932367750719
 20
0.843414044086028
 30
0.0
 11
8.866152283589175
 21
0.8002426501680114
 31
0.0
  0
LINE
  5
9E
330
1F
100
AcDbEntity
  8
0
100
AcDbLine
 10
8.866152283589175
 20
0.8002426501680114
 30
0.0
 11
8.82773002654751
 21
0.752795114199602
 31
0.0
  0
LINE
  5
9F
330
1F
100
AcDbEntity
  8
0
100
AcDbLine
 10
8.82773002654751
 20
0.752795114199602
 30
0.0
 11
8.794477868670723
 21
0.7015912813139056
 31
0.0
  0
LINE
  5
A0
330
1F
100
AcDbEntity
  8
0
100
AcDbLine
 10
8.794477868670723
 20
0.7015912813139056
 30
0.0
 11
8.766760127558971
 21
0.6471921514191085
 31
0.0
  0
LINE
  5
A1
330
1F
100
AcDbEntity
  8
0
100
AcDbLine
 10
8.766760127558971
 20
0.6471921514191085
 30
0.0
 11
8.744880484584183
 21
0.5901937327660874
 31
0.0
  0
LINE
  5
A2
330
1F
100
AcDbEntity
  8
0
100
AcDbLine
 10
8.744880484584183
 20
0.5901937327660874
 30
0.0
 11
8.729078657693405
 21
0.5312205119572916
 31
0.0
  0
LINE
  5
A3
330
1F
100
AcDbEntity
  8
0
100
AcDbLine
 10
8.729078657693405
 20
0.5312205119572916
 30
0.0
 11
8.719527775008793
 21
0.4709186119408418
 31
0.0
  0
LINE
  5
A4
330
1F
100
AcDbEntity
  8
0
100
AcDbLine
 10
8.719527775008793
 20
0.4709186119408418
 30
0.0
 11
8.716332477999693
 21
0.4099487129523012
 31
0.0
  0
LINE
  5
A5
330
1F
100
AcDbEntity
  8
0
100
AcDbLine
 10
8.716332477999693
 20
0.4099487129523012
 30
0.0
 11
8.719527775008793
 21
0.3489788139637612
 31
0.0
  0
LINE
  5
A6
330
1F
100
AcDbEntity
  8
0
100
AcDbLine
 10
8.719527775008793
 20
0.3489788139637612
 30
0.0
 11
8.729078657693405
 21
0.2886769139473113
 31
0.0
  0
LINE
  5
A7
330
1F
100
AcDbEntity
  8
0
100
AcDbLine
 10
8.729078657693405
 20
0.2886769139473113
 30
0.0
 11
8.744880484584183
 21
0.229703693138515
 31
0.0
  0
LINE
  5
A8
330
1F
100
AcDbEntity
  8
0
100
AcDbLine
 10
8.744880484584183
 20
0.229703693138515
 30
0.0
 11
8.766760127558971
 21
0.1727052744854944
 31
0.0
  0
LINE
  5
A9
330
1F
100
AcDbEntity
  8
0
100
AcDbLine
 10
8.766760127558971
 20
0.1727052744854944
 30
0.0
 11
8.794477868670723
 21
0.1183061445906972
 31
0.0
  0
LINE
  5
AA
330
1F
100
AcDbEntity
  8
0
100
AcDbLine
 10
8.794477868670723
 20
0.1183061445906972
 30
0.0
 11
8.82773002654751
 21
0.0671023117050004
 31
0.0
  0
LINE
  5
AB
330
1F
100
AcDbEntity
  8
0
100
AcDbLine
 10
8.82773002654751
 20
0.0671023117050004
 30
0.0
 11
8.866152283589173
 21
0.0196547757365914
 31
0.0
  0
LINE
  5
AC
330
1F
100
AcDbEntity
  8
0
100
AcDbLine
 10
8.866152283589173
 20
0.0196547757365914
 30
0.0
 11
8.90932367750719
 21
-0.0235166181814254
 31
0.0
  0
LINE
  5
AD
330
1F
100
AcDbEntity
  8
0
100
AcDbLine
 10
8.90932367750719
 20
-0.0235166181814254
 30
0.0
 11
8.956771213475601
 21
-0.0619388752230893
 31
0.0
  0
LINE
  5
AE
330
1F
100
AcDbEntity
  8
0
100
AcDbLine
 10
8.956771213475601
 20
-0.0619388752230893
 30
0.0
 11
9.007975046361295
 21
-0.0951910330998769
 31
0.0
  0
LINE
  5
AF
330
1F
100
AcDbEntity
  8
0
100
AcDbLine
 10
9.007975046361295
 20
-0.0951910330998769
 30
0.0
 11
9.062374176256093
 21
-0.1229087742116292
 31
0.0
  0
LINE
  5
B0
330
1F
100
AcDbEntity
  8
0
100
AcDbLine
 10
9.062374176256093
 20
-0.1229087742116292
 30
0.0
 11
9.119372594909114
 21
-0.1447884171864159
 31
0.0
  0
LINE
  5
B1
330
1F
100
AcDbEntity
  8
0
100
AcDbLine
 10
9.119372594909114
 20
-0.1447884171864159
 30
0.0
 11
9.17834581571791
 21
-0.1605902440771951
 31
0.0
  0
LINE
  5
B2
330
1F
100
AcDbEntity
  8
0
100
AcDbLine
 10
9.17834581571791
 20
-0.1605902440771951
 30
0.0
 11
9.238647715734361
 21
-0.1701411267618067
 31
0.0
  0
LINE
  5
B3
330
1F
100
AcDbEntity
  8
0
100
AcDbLine
 10
9.238647715734361
 20
-0.1701411267618067
 30
0.0
 11
9.299617614722901
 21
-0.1733364237709074
 31
0.0
  0
LINE
  5
B4
330
1F
100
AcDbEntity
  8
0
100
AcDbLine
 10
-1.815345383296803
 20
3.778271732286819
 30
0.0
 11
-1.83205043672072
 21
3.811367174371159
 31
0.0
  0
LINE
  5
B5
330
1F
100
AcDbEntity
  8
0
100
AcDbLine
 10
-0.6517481954880054
 20
4.381191740372615
 30
0.0
 11
-0.7708399920740173
 21
4.631860705590508
 31
0.0
  0
LINE
  5
B6
330
1F
100
AcDbEntity
  8
0
100
AcDbLine
 10
-1.83205043672072
 20
3.811367174371159
 30
0.0
 11
-1.846659489716962
 21
3.869114657404527
 31
0.0
  0
LINE
  5
B7
330
1F
100
AcDbEntity
  8
0
100
AcDbLine
 10
-0.2030950886905758
 20
3.757962765404262
 30
0.0
 11
-0.2401091089970497
 21
3.755882044998783
 31
0.0
  0
LINE
  5
B8
330
1F
100
AcDbEntity
  8
0
100
AcDbLine
 10
-1.846659489716962
 20
3.869114657404527
 30
0.0
 11
-1.882316776219711
 21
3.95447530592234
 31
0.0
  0
LINE
  5
B9
330
1F
100
AcDbEntity
  8
0
100
AcDbLine
 10
0.4457777141082113
 20
4.599300898964201
 30
0.0
 11
0.2898124168316852
 21
4.463869867427106
 31
0.0
  0
LINE
  5
BA
330
1F
100
AcDbEntity
  8
0
100
AcDbLine
 10
-1.95827550135748
 20
4.088644849463682
 30
0.0
 11
-2.08651416774507
 21
4.26227090365939
 31
0.0
  0
LINE
  5
BB
330
1F
100
AcDbEntity
  8
0
100
AcDbLine
 10
-2.277238167140204
 20
4.463869867427106
 30
0.0
 11
-2.43320346441673
 21
4.599300898964203
 31
0.0
  0
LINE
  5
BC
330
1F
100
AcDbEntity
  8
0
100
AcDbLine
 10
-2.43320346441673
 20
4.599300898964203
 30
0.0
 11
-2.654593369668921
 21
4.527366958200629
 31
0.0
  0
LINE
  5
BD
330
1F
100
AcDbEntity
  8
0
100
AcDbLine
 10
-2.654593369668921
 20
4.527366958200629
 30
0.0
 11
-2.701167582658109
 21
4.326126850512835
 31
0.0
  0
LINE
  5
BE
330
1F
100
AcDbEntity
  8
0
100
AcDbLine
 10
-2.701167582658109
 20
4.326126850512835
 30
0.0
 11
-2.736969641623821
 21
4.050925108673675
 31
0.0
  0
LINE
  5
BF
330
1F
100
AcDbEntity
  8
0
100
AcDbLine
 10
-2.721251088504486
 20
3.681889024015408
 30
0.0
 11
-2.699924708933616
 21
3.591871981570548
 31
0.0
  0
LINE
  5
C0
330
1F
100
AcDbEntity
  8
0
100
AcDbLine
 10
-2.699924708933616
 20
3.591871981570548
 30
0.0
 11
-2.677800562195276
 21
3.536566300513023
 31
0.0
  0
LINE
  5
C1
330
1F
100
AcDbEntity
  8
0
100
AcDbLine
 10
-2.677800562195276
 20
3.536566300513023
 30
0.0
 11
-2.671862221531892
 21
3.499972541389105
 31
0.0
  0
LINE
  5
C2
330
1F
100
AcDbEntity
  8
0
100
AcDbLine
 10
-2.671862221531892
 20
3.499972541389105
 30
0.0
 11
-2.685016347223035
 21
3.465312246036129
 31
0.0
  0
LINE
  5
C3
330
1F
100
AcDbEntity
  8
0
100
AcDbLine
 10
-2.935230354574892
 20
3.329016774911168
 30
0.0
 11
-2.971075757747482
 21
3.319557696306548
 31
0.0
  0
LINE
  5
C4
330
1F
100
AcDbEntity
  8
0
100
AcDbLine
 10
0.6903748118867564
 20
3.536566300513023
 30
0.0
 11
0.7124989586250968
 21
3.591871981570548
 31
0.0
  0
LINE
  5
C5
330
1F
100
AcDbEntity
  8
0
100
AcDbLine
 10
-0.5490757211136248
 20
3.873723193072679
 30
0.0
 11
-0.545124802522912
 21
3.933158758758771
 31
0.0
  0
LINE
  5
C6
330
1F
100
AcDbEntity
  8
0
100
AcDbLine
 10
-0.1720803670117168
 20
3.778271732286819
 30
0.0
 11
-0.2030950886905758
 21
3.757962765404262
 31
0.0
  0
LINE
  5
C7
330
1F
100
AcDbEntity
  8
0
100
AcDbLine
 10
-0.2401091089970497
 20
3.755882044998783
 30
0.0
 11
-0.4856349407503933
 21
3.794769516446251
 31
0.0
  0
LINE
  5
C8
330
1F
100
AcDbEntity
  8
0
100
AcDbLine
 10
-0.5434153252401619
 20
3.837085411818766
 30
0.0
 11
-0.5490757211136248
 21
3.873723193072679
 31
0.0
  0
LINE
  5
C9
330
1F
100
AcDbEntity
  8
0
100
AcDbLine
 10
0.667167619360401
 20
4.527366958200629
 30
0.0
 11
0.4457777141082113
 21
4.599300898964201
 31
0.0
  0
LINE
  5
CA
330
1F
100
AcDbEntity
  8
0
100
AcDbLine
 10
-0.5526590061618843
 20
4.025360267269463
 30
0.0
 11
-0.5834393775918277
 21
4.176435622881429
 31
0.0
  0
LINE
  5
CB
330
1F
100
AcDbEntity
  8
0
100
AcDbLine
 10
0.2898124168316852
 20
4.463869867427106
 30
0.0
 11
0.0990884174365509
 21
4.26227090365939
 31
0.0
  0
LINE
  5
CC
330
1F
100
AcDbEntity
  8
0
100
AcDbLine
 10
0.9836500074389631
 20
3.319557696306548
 30
0.0
 11
0.9478046042663737
 21
3.329016774911168
 31
0.0
  0
LINE
  5
CD
330
1F
100
AcDbEntity
  8
0
100
AcDbLine
 10
-1.444010425068357
 20
3.837085411818767
 30
0.0
 11
-1.467231362317209
 21
3.808186360451312
 31
0.0
  0
LINE
  5
CE
330
1F
100
AcDbEntity
  8
0
100
AcDbLine
 10
-1.467231362317209
 20
3.808186360451312
 30
0.0
 11
-1.501790809558126
 21
3.794769516446252
 31
0.0
  0
LINE
  5
CF
330
1F
100
AcDbEntity
  8
0
100
AcDbLine
 10
-1.501790809558126
 20
3.794769516446252
 30
0.0
 11
-1.747316641311469
 21
3.755882044998783
 31
0.0
  0
LINE
  5
D0
330
1F
100
AcDbEntity
  8
0
100
AcDbLine
 10
-2.08651416774507
 20
4.26227090365939
 30
0.0
 11
-2.277238167140204
 21
4.463869867427106
 31
0.0
  0
LINE
  5
D1
330
1F
100
AcDbEntity
  8
0
100
AcDbLine
 10
0.9478046042663737
 20
3.329016774911168
 30
0.0
 11
0.7263125516041075
 21
3.441872612603353
 31
0.0
  0
LINE
  5
D2
330
1F
100
AcDbEntity
  8
0
100
AcDbLine
 10
-1.403986372716691
 20
4.176435622881429
 30
0.0
 11
-1.434766744146635
 21
4.025360267269463
 31
0.0
  0
LINE
  5
D3
330
1F
100
AcDbEntity
  8
0
100
AcDbLine
 10
-2.736969641623821
 20
4.050925108673675
 30
0.0
 11
-2.73866206799739
 21
3.835081883286802
 31
0.0
  0
LINE
  5
D4
330
1F
100
AcDbEntity
  8
0
100
AcDbLine
 10
-2.685016347223035
 20
3.465312246036129
 30
0.0
 11
-2.713738301912627
 21
3.441872612603353
 31
0.0
  0
LINE
  5
D5
330
1F
100
AcDbEntity
  8
0
100
AcDbLine
 10
-2.713738301912627
 20
3.441872612603353
 30
0.0
 11
-2.935230354574892
 21
3.329016774911168
 31
0.0
  0
LINE
  5
D6
330
1F
100
AcDbEntity
  8
0
100
AcDbLine
 10
-2.73866206799739
 20
3.835081883286802
 30
0.0
 11
-2.721251088504486
 21
3.681889024015408
 31
0.0
  0
LINE
  5
D7
330
1F
100
AcDbEntity
  8
0
100
AcDbLine
 10
-2.971075757747482
 20
3.319557696306548
 30
0.0
 11
-3.006848326806149
 21
3.32928859552485
 31
0.0
  0
LINE
  5
D8
330
1F
100
AcDbEntity
  8
0
100
AcDbLine
 10
0.0990884174365509
 20
4.26227090365939
 30
0.0
 11
-0.0291502489510385
 21
4.088644849463682
 31
0.0
  0
LINE
  5
D9
330
1F
100
AcDbEntity
  8
0
100
AcDbLine
 10
0.6975905969145161
 20
3.465312246036129
 30
0.0
 11
0.6844364712233728
 21
3.499972541389103
 31
0.0
  0
LINE
  5
DA
330
1F
100
AcDbEntity
  8
0
100
AcDbLine
 10
-1.335677554820514
 20
4.381191740372617
 30
0.0
 11
-1.403986372716691
 21
4.176435622881429
 31
0.0
  0
LINE
  5
DB
330
1F
100
AcDbEntity
  8
0
100
AcDbLine
 10
-0.1051089740888074
 20
3.95447530592234
 30
0.0
 11
-0.1407662605915566
 21
3.869114657404527
 31
0.0
  0
LINE
  5
DC
330
1F
100
AcDbEntity
  8
0
100
AcDbLine
 10
-0.4856349407503933
 20
3.794769516446251
 30
0.0
 11
-0.52019438799131
 21
3.808186360451312
 31
0.0
  0
LINE
  5
DD
330
1F
100
AcDbEntity
  8
0
100
AcDbLine
 10
-0.545124802522912
 20
3.933158758758771
 30
0.0
 11
-0.5526590061618843
 21
4.025360267269463
 31
0.0
  0
LINE
  5
DE
330
1F
100
AcDbEntity
  8
0
100
AcDbLine
 10
-0.7708399920740173
 20
4.631860705590508
 30
0.0
 11
-0.8773213140540762
 21
4.808859198033624
 31
0.0
  0
LINE
  5
DF
330
1F
100
AcDbEntity
  8
0
100
AcDbLine
 10
-0.1407662605915566
 20
3.869114657404527
 30
0.0
 11
-0.1553753135877985
 21
3.811367174371159
 31
0.0
  0
LINE
  5
E0
330
1F
100
AcDbEntity
  8
0
100
AcDbLine
 10
0.749543891315302
 20
4.050925108673675
 30
0.0
 11
0.7137418323495898
 21
4.326126850512835
 31
0.0
  0
LINE
  5
E1
330
1F
100
AcDbEntity
  8
0
100
AcDbLine
 10
0.7338253381959671
 20
3.681889024015408
 30
0.0
 11
0.7512363176888709
 21
3.835081883286802
 31
0.0
  0
LINE
  5
E2
330
1F
100
AcDbEntity
  8
0
100
AcDbLine
 10
0.7263125516041075
 20
3.441872612603353
 30
0.0
 11
0.6975905969145161
 21
3.465312246036129
 31
0.0
  0
LINE
  5
E3
330
1F
100
AcDbEntity
  8
0
100
AcDbLine
 10
-0.8773213140540762
 20
4.808859198033624
 30
0.0
 11
-1.110104436254443
 21
4.808859198033624
 31
0.0
  0
LINE
  5
E4
330
1F
100
AcDbEntity
  8
0
100
AcDbLine
 10
0.7137418323495898
 20
4.326126850512835
 30
0.0
 11
0.667167619360401
 21
4.527366958200629
 31
0.0
  0
LINE
  5
E5
330
1F
100
AcDbEntity
  8
0
100
AcDbLine
 10
-0.52019438799131
 20
3.808186360451312
 30
0.0
 11
-0.5434153252401619
 21
3.837085411818766
 31
0.0
  0
LINE
  5
E6
330
1F
100
AcDbEntity
  8
0
100
AcDbLine
 10
-0.1553753135877985
 20
3.811367174371159
 30
0.0
 11
-0.1720803670117168
 21
3.778271732286819
 31
0.0
  0
LINE
  5
E7
330
1F
100
AcDbEntity
  8
0
100
AcDbLine
 10
-1.110104436254443
 20
4.808859198033624
 30
0.0
 11
-1.216585758234502
 21
4.631860705590508
 31
0.0
  0
LINE
  5
E8
330
1F
100
AcDbEntity
  8
0
100
AcDbLine
 10
-0.0291502489510385
 20
4.088644849463682
 30
0.0
 11
-0.1051089740888074
 21
3.95447530592234
 31
0.0
  0
LINE
  5
E9
330
1F
100
AcDbEntity
  8
0
100
AcDbLine
 10
-1.216585758234502
 20
4.631860705590508
 30
0.0
 11
-1.335677554820514
 21
4.381191740372617
 31
0.0
  0
LINE
  5
EA
330
1F
100
AcDbEntity
  8
0
100
AcDbLine
 10
-1.438350029194894
 20
3.873723193072679
 30
0.0
 11
-1.444010425068357
 21
3.837085411818767
 31
0.0
  0
LINE
  5
EB
330
1F
100
AcDbEntity
  8
0
100
AcDbLine
 10
0.6844364712233728
 20
3.499972541389103
 30
0.0
 11
0.6903748118867564
 21
3.536566300513023
 31
0.0
  0
LINE
  5
EC
330
1F
100
AcDbEntity
  8
0
100
AcDbLine
 10
-0.5834393775918277
 20
4.176435622881429
 30
0.0
 11
-0.6517481954880054
 21
4.381191740372615
 31
0.0
  0
LINE
  5
ED
330
1F
100
AcDbEntity
  8
0
100
AcDbLine
 10
-1.747316641311469
 20
3.755882044998783
 30
0.0
 11
-1.784330661617943
 21
3.757962765404262
 31
0.0
  0
LINE
  5
EE
330
1F
100
AcDbEntity
  8
0
100
AcDbLine
 10
-1.784330661617943
 20
3.757962765404262
 30
0.0
 11
-1.815345383296803
 21
3.778271732286819
 31
0.0
  0
LINE
  5
EF
330
1F
100
AcDbEntity
  8
0
100
AcDbLine
 10
0.7124989586250968
 20
3.591871981570548
 30
0.0
 11
0.7338253381959671
 21
3.681889024015408
 31
0.0
  0
LINE
  5
F0
330
1F
100
AcDbEntity
  8
0
100
AcDbLine
 10
0.7512363176888709
 20
3.835081883286802
 30
0.0
 11
0.749543891315302
 21
4.050925108673675
 31
0.0
  0
LINE
  5
F1
330
1F
100
AcDbEntity
  8
0
100
AcDbLine
 10
-1.434766744146635
 20
4.025360267269463
 30
0.0
 11
-1.442300947785607
 21
3.933158758758771
 31
0.0
  0
LINE
  5
F2
330
1F
100
AcDbEntity
  8
0
100
AcDbLine
 10
-1.442300947785607
 20
3.933158758758771
 30
0.0
 11
-1.438350029194894
 21
3.873723193072679
 31
0.0
  0
LINE
  5
F3
330
1F
100
AcDbEntity
  8
0
100
AcDbLine
 10
-1.882316776219711
 20
3.95447530592234
 30
0.0
 11
-1.95827550135748
 21
4.088644849463682
 31
0.0
  0
LINE
  5
F4
330
1F
100
AcDbEntity
  8
0
100
AcDbLine
 10
-5.290004317873064
 20
0.7569160329480986
 30
0.0
 11
-5.155834774331723
 21
0.6809573078103297
 31
0.0
  0
LINE
  5
F5
330
1F
100
AcDbEntity
  8
0
100
AcDbLine
 10
-5.009545828860695
 20
0.2658718939078271
 30
0.0
 11
-5.038444880228148
 21
0.2426509566589754
 31
0.0
  0
LINE
  5
F6
330
1F
100
AcDbEntity
  8
0
100
AcDbLine
 10
-3.752400858659207
 20
2.832899762446135
 30
0.0
 11
-3.735445067617963
 21
2.799932077558969
 31
0.0
  0
LINE
  5
F7
330
1F
100
AcDbEntity
  8
0
100
AcDbLine
 10
-5.038444880228148
 20
0.2426509566589754
 30
0.0
 11
-5.075082661482061
 21
0.2369905607855125
 31
0.0
  0
LINE
  5
F8
330
1F
100
AcDbEntity
  8
0
100
AcDbLine
 10
-4.036503748245447
 20
3.78237860117183
 30
0.0
 11
-4.01861184377476
 21
3.576595662102119
 31
0.0
  0
LINE
  5
F9
330
1F
100
AcDbEntity
  8
0
100
AcDbLine
 10
-4.666671714445512
 20
1.483656878813653
 30
0.0
 11
-4.701332009798486
 21
1.47050275312251
 31
0.0
  0
LINE
  5
FA
330
1F
100
AcDbEntity
  8
0
100
AcDbLine
 10
-5.075082661482061
 20
0.2369905607855125
 30
0.0
 11
-5.134518227168154
 21
0.2409414793762252
 31
0.0
  0
LINE
  5
FB
330
1F
100
AcDbEntity
  8
0
100
AcDbLine
 10
-3.735445067617963
 20
2.799932077558969
 30
0.0
 11
-3.737244764278565
 21
2.762903329422101
 31
0.0
  0
LINE
  5
FC
330
1F
100
AcDbEntity
  8
0
100
AcDbLine
 10
-5.134518227168154
 20
0.2409414793762252
 30
0.0
 11
-5.226719735678845
 21
0.2334072757372528
 31
0.0
  0
LINE
  5
FD
330
1F
100
AcDbEntity
  8
0
100
AcDbLine
 10
-5.226719735678845
 20
0.2334072757372528
 30
0.0
 11
-5.377795091290811
 21
0.2026269043073094
 31
0.0
  0
LINE
  5
FE
330
1F
100
AcDbEntity
  8
0
100
AcDbLine
 10
-4.299357181472061
 20
2.701170510097301
 30
0.0
 11
-4.50515927598557
 21
2.766260141731615
 31
0.0
  0
LINE
  5
FF
330
1F
100
AcDbEntity
  8
0
100
AcDbLine
 10
-4.979631200696201
 20
0.6139859148874205
 30
0.0
 11
-4.959322233813644
 21
0.5829711932085614
 31
0.0
  0
LINE
  5
100
330
1F
100
AcDbEntity
  8
0
100
AcDbLine
 10
-3.124991805173819
 20
3.476172853875264
 30
0.0
 11
-3.238693514767371
 21
3.580303135609978
 31
0.0
  0
LINE
  5
101
330
1F
100
AcDbEntity
  8
0
100
AcDbLine
 10
-3.737244764278565
 20
2.762903329422101
 30
0.0
 11
-3.757317721374188
 21
2.731735341195538
 31
0.0
  0
LINE
  5
102
330
1F
100
AcDbEntity
  8
0
100
AcDbLine
 10
-4.737925768922405
 20
1.476441093785894
 30
0.0
 11
-4.793231449979931
 21
1.498565240524234
 31
0.0
  0
LINE
  5
103
330
1F
100
AcDbEntity
  8
0
100
AcDbLine
 10
-4.983738069581213
 20
2.835144279836065
 30
0.0
 11
-5.120564555793185
 21
2.646818777972308
 31
0.0
  0
LINE
  5
104
330
1F
100
AcDbEntity
  8
0
100
AcDbLine
 10
-3.84817824638169
 20
3.919205087383803
 30
0.0
 11
-4.036503748245447
 21
3.78237860117183
 31
0.0
  0
LINE
  5
105
330
1F
100
AcDbEntity
  8
0
100
AcDbLine
 10
-4.607368228779247
 20
1.863342351039724
 30
0.0
 11
-4.55696155438828
 21
1.831603362351056
 31
0.0
  0
LINE
  5
106
330
1F
100
AcDbEntity
  8
0
100
AcDbLine
 10
-3.032962830760438
 20
3.355602085978898
 30
0.0
 11
-3.064701819449105
 21
3.406008760369864
 31
0.0
  0
LINE
  5
107
330
1F
100
AcDbEntity
  8
0
100
AcDbLine
 10
-3.657995943780247
 20
3.838598449723061
 30
0.0
 11
-3.84817824638169
 21
3.919205087383803
 31
0.0
  0
LINE
  5
108
330
1F
100
AcDbEntity
  8
0
100
AcDbLine
 10
-4.50515927598557
 20
2.766260141731615
 30
0.0
 11
-4.777955130511501
 21
2.817252375365379
 31
0.0
  0
LINE
  5
109
330
1F
100
AcDbEntity
  8
0
100
AcDbLine
 10
-5.039957918132444
 20
2.456636475370865
 30
0.0
 11
-4.907162867011059
 21
2.212949667079645
 31
0.0
  0
LINE
  5
10A
330
1F
100
AcDbEntity
  8
0
100
AcDbLine
 10
-4.643232081012735
 20
1.512378833503244
 30
0.0
 11
-4.666671714445512
 21
1.483656878813653
 31
0.0
  0
LINE
  5
10B
330
1F
100
AcDbEntity
  8
0
100
AcDbLine
 10
-3.064701819449105
 20
3.406008760369864
 30
0.0
 11
-3.124991805173819
 21
3.476172853875264
 31
0.0
  0
LINE
  5
10C
330
1F
100
AcDbEntity
  8
0
100
AcDbLine
 10
-3.790532567914432
 20
2.878661853475843
 30
0.0
 11
-3.752400858659207
 21
2.832899762446135
 31
0.0
  0
LINE
  5
10D
330
1F
100
AcDbEntity
  8
0
100
AcDbLine
 10
-4.520917164715931
 20
1.7697162893381
 30
0.0
 11
-4.530376243320551
 21
1.733870886165511
 31
0.0
  0
LINE
  5
10E
330
1F
100
AcDbEntity
  8
0
100
AcDbLine
 10
-4.883248492424791
 20
1.519891620095104
 30
0.0
 11
-5.036441351696184
 21
1.537302599588008
 31
0.0
  0
LINE
  5
10F
330
1F
100
AcDbEntity
  8
0
100
AcDbLine
 10
-4.01861184377476
 20
3.576595662102119
 30
0.0
 11
-3.967619610140998
 21
3.303799807576191
 31
0.0
  0
LINE
  5
110
330
1F
100
AcDbEntity
  8
0
100
AcDbLine
 10
-5.036441351696184
 20
1.537302599588008
 30
0.0
 11
-5.252284577083057
 21
1.53561017321444
 31
0.0
  0
LINE
  5
111
330
1F
100
AcDbEntity
  8
0
100
AcDbLine
 10
-4.78166260401936
 20
2.037334046357989
 30
0.0
 11
-4.677532322284646
 21
1.923632336764437
 31
0.0
  0
LINE
  5
112
330
1F
100
AcDbEntity
  8
0
100
AcDbLine
 10
-4.701332009798486
 20
1.47050275312251
 30
0.0
 11
-4.737925768922405
 21
1.476441093785894
 31
0.0
  0
LINE
  5
113
330
1F
100
AcDbEntity
  8
0
100
AcDbLine
 10
-4.080021321885225
 20
2.589173099505051
 30
0.0
 11
-4.159042402964136
 21
2.637272487663743
 31
0.0
  0
LINE
  5
114
330
1F
100
AcDbEntity
  8
0
100
AcDbLine
 10
-4.55696155438828
 20
1.831603362351056
 30
0.0
 11
-4.530648063934232
 21
1.805488858396767
 31
0.0
  0
LINE
  5
115
330
1F
100
AcDbEntity
  8
0
100
AcDbLine
 10
-5.527486318922217
 20
1.499808114248727
 30
0.0
 11
-5.728726426610012
 21
1.453233901259538
 31
0.0
  0
LINE
  5
116
330
1F
100
AcDbEntity
  8
0
100
AcDbLine
 10
-5.728726426610012
 20
1.453233901259538
 30
0.0
 11
-5.800660367373585
 21
1.231843996007348
 31
0.0
  0
LINE
  5
117
330
1F
100
AcDbEntity
  8
0
100
AcDbLine
 10
-5.800660367373585
 20
1.231843996007348
 30
0.0
 11
-5.665229335836489
 21
1.075878698730822
 31
0.0
  0
LINE
  5
118
330
1F
100
AcDbEntity
  8
0
100
AcDbLine
 10
-4.034259230855517
 20
2.551041390249827
 30
0.0
 11
-4.080021321885225
 21
2.589173099505051
 31
0.0
  0
LINE
  5
119
330
1F
100
AcDbEntity
  8
0
100
AcDbLine
 10
-4.159042402964136
 20
2.637272487663743
 30
0.0
 11
-4.299357181472061
 21
2.701170510097301
 31
0.0
  0
LINE
  5
11A
330
1F
100
AcDbEntity
  8
0
100
AcDbLine
 10
-4.677532322284646
 20
1.923632336764437
 30
0.0
 11
-4.607368228779247
 21
1.863342351039724
 31
0.0
  0
LINE
  5
11B
330
1F
100
AcDbEntity
  8
0
100
AcDbLine
 10
-4.530648063934232
 20
1.805488858396767
 30
0.0
 11
-4.520917164715931
 21
1.7697162893381
 31
0.0
  0
LINE
  5
11C
330
1F
100
AcDbEntity
  8
0
100
AcDbLine
 10
-3.238693514767371
 20
3.580303135609978
 30
0.0
 11
-3.414309135489027
 21
3.705803398601677
 31
0.0
  0
LINE
  5
11D
330
1F
100
AcDbEntity
  8
0
100
AcDbLine
 10
-3.902529978506683
 20
3.097997713062679
 30
0.0
 11
-3.838631956073125
 21
2.957682934554755
 31
0.0
  0
LINE
  5
11E
330
1F
100
AcDbEntity
  8
0
100
AcDbLine
 10
-4.530376243320551
 20
1.733870886165511
 30
0.0
 11
-4.643232081012735
 21
1.512378833503244
 31
0.0
  0
LINE
  5
11F
330
1F
100
AcDbEntity
  8
0
100
AcDbLine
 10
-4.793231449979931
 20
1.498565240524234
 30
0.0
 11
-4.883248492424791
 21
1.519891620095104
 31
0.0
  0
LINE
  5
120
330
1F
100
AcDbEntity
  8
0
100
AcDbLine
 10
-5.665229335836489
 20
1.075878698730822
 30
0.0
 11
-5.463630372068772
 21
0.885154699335688
 31
0.0
  0
LINE
  5
121
330
1F
100
AcDbEntity
  8
0
100
AcDbLine
 10
-5.120564555793185
 20
2.646818777972308
 30
0.0
 11
-5.039957918132444
 21
2.456636475370865
 31
0.0
  0
LINE
  5
122
330
1F
100
AcDbEntity
  8
0
100
AcDbLine
 10
-5.463630372068772
 20
0.885154699335688
 30
0.0
 11
-5.290004317873064
 21
0.7569160329480986
 31
0.0
  0
LINE
  5
123
330
1F
100
AcDbEntity
  8
0
100
AcDbLine
 10
-5.155834774331723
 20
0.6809573078103297
 30
0.0
 11
-5.07047412581391
 21
0.6453000213075807
 31
0.0
  0
LINE
  5
124
330
1F
100
AcDbEntity
  8
0
100
AcDbLine
 10
-5.07047412581391
 20
0.6453000213075807
 30
0.0
 11
-5.012726642780541
 21
0.6306909683113386
 31
0.0
  0
LINE
  5
125
330
1F
100
AcDbEntity
  8
0
100
AcDbLine
 10
-3.414309135489027
 20
3.705803398601677
 30
0.0
 11
-3.657995943780247
 21
3.838598449723061
 31
0.0
  0
LINE
  5
126
330
1F
100
AcDbEntity
  8
0
100
AcDbLine
 10
-3.93309480960492
 20
2.555958252964806
 30
0.0
 11
-3.964262797831481
 21
2.535885295869183
 31
0.0
  0
LINE
  5
127
330
1F
100
AcDbEntity
  8
0
100
AcDbLine
 10
-3.838631956073125
 20
2.957682934554755
 30
0.0
 11
-3.790532567914432
 21
2.878661853475843
 31
0.0
  0
LINE
  5
128
330
1F
100
AcDbEntity
  8
0
100
AcDbLine
 10
-4.001291545968351
 20
2.534085599208581
 30
0.0
 11
-4.034259230855517
 21
2.551041390249827
 31
0.0
  0
LINE
  5
129
330
1F
100
AcDbEntity
  8
0
100
AcDbLine
 10
-3.006848326806149
 20
3.32928859552485
 30
0.0
 11
-3.032962830760438
 21
3.355602085978898
 31
0.0
  0
LINE
  5
12A
330
1F
100
AcDbEntity
  8
0
100
AcDbLine
 10
-4.907162867011059
 20
2.212949667079645
 30
0.0
 11
-4.78166260401936
 21
2.037334046357989
 31
0.0
  0
LINE
  5
12B
330
1F
100
AcDbEntity
  8
0
100
AcDbLine
 10
-5.012726642780541
 20
0.6306909683113386
 30
0.0
 11
-4.979631200696201
 21
0.6139859148874205
 31
0.0
  0
LINE
  5
12C
330
1F
100
AcDbEntity
  8
0
100
AcDbLine
 10
-4.957241513408166
 20
0.5459571729020876
 30
0.0
 11
-4.996128984855633
 21
0.3004313411487439
 31
0.0
  0
LINE
  5
12D
330
1F
100
AcDbEntity
  8
0
100
AcDbLine
 10
-3.757317721374188
 20
2.731735341195538
 30
0.0
 11
-3.93309480960492
 21
2.555958252964806
 31
0.0
  0
LINE
  5
12E
330
1F
100
AcDbEntity
  8
0
100
AcDbLine
 10
-4.996128984855633
 20
0.3004313411487439
 30
0.0
 11
-5.009545828860695
 21
0.2658718939078271
 31
0.0
  0
LINE
  5
12F
330
1F
100
AcDbEntity
  8
0
100
AcDbLine
 10
-3.967619610140998
 20
3.303799807576191
 30
0.0
 11
-3.902529978506683
 21
3.097997713062679
 31
0.0
  0
LINE
  5
130
330
1F
100
AcDbEntity
  8
0
100
AcDbLine
 10
-3.964262797831481
 20
2.535885295869183
 30
0.0
 11
-4.001291545968351
 21
2.534085599208581
 31
0.0
  0
LINE
  5
131
330
1F
100
AcDbEntity
  8
0
100
AcDbLine
 10
-4.777955130511501
 20
2.817252375365379
 30
0.0
 11
-4.983738069581213
 21
2.835144279836065
 31
0.0
  0
LINE
  5
132
330
1F
100
AcDbEntity
  8
0
100
AcDbLine
 10
-5.252284577083057
 20
1.53561017321444
 30
0.0
 11
-5.527486318922217
 21
1.499808114248727
 31
0.0
  0
LINE
  5
133
330
1F
100
AcDbEntity
  8
0
100
AcDbLine
 10
-4.959322233813644
 20
0.5829711932085614
 30
0.0
 11
-4.957241513408166
 21
0.5459571729020876
 31
0.0
  0
LINE
  5
134
330
1F
100
AcDbEntity
  8
0
100
AcDbLine
 10
-4.78166260401936
 20
-2.452627232868234
 30
0.0
 11
-4.907162867011059
 21
-2.62824285358989
 31
0.0
  0
LINE
  5
135
330
1F
100
AcDbEntity
  8
0
100
AcDbLine
 10
-5.120564555793186
 20
-3.062111964482553
 30
0.0
 11
-4.983738069581213
 21
-3.250437466346309
 31
0.0
  0
LINE
  5
136
330
1F
100
AcDbEntity
  8
0
100
AcDbLine
 10
-6.010218666443007
 20
-0.3240381543553056
 30
0.0
 11
-5.833220173999891
 21
-0.4305194763353627
 31
0.0
  0
LINE
  5
137
330
1F
100
AcDbEntity
  8
0
100
AcDbLine
 10
-4.777955130511501
 20
-3.232545561875623
 30
0.0
 11
-4.505159275985573
 21
-3.18155332824186
 31
0.0
  0
LINE
  5
138
330
1F
100
AcDbEntity
  8
0
100
AcDbLine
 10
-5.252284577083057
 20
-1.950903359724685
 30
0.0
 11
-5.036441351696184
 21
-1.952595786098253
 31
0.0
  0
LINE
  5
139
330
1F
100
AcDbEntity
  8
0
100
AcDbLine
 10
-4.883248492424791
 20
-1.93518480660535
 30
0.0
 11
-4.793231449979931
 21
-1.913858427034478
 31
0.0
  0
LINE
  5
13A
330
1F
100
AcDbEntity
  8
0
100
AcDbLine
 10
-4.299357181472062
 20
-3.116463696607546
 30
0.0
 11
-4.159042402964137
 21
-3.052565674173989
 31
0.0
  0
LINE
  5
13B
330
1F
100
AcDbEntity
  8
0
100
AcDbLine
 10
-4.080021321885225
 20
-3.004466286015296
 30
0.0
 11
-4.034259230855517
 21
-2.966334576760071
 31
0.0
  0
LINE
  5
13C
330
1F
100
AcDbEntity
  8
0
100
AcDbLine
 10
-4.607368228779247
 20
-2.278635537549969
 30
0.0
 11
-4.677532322284646
 21
-2.338925523274682
 31
0.0
  0
LINE
  5
13D
330
1F
100
AcDbEntity
  8
0
100
AcDbLine
 10
-4.793231449979931
 20
-1.913858427034478
 30
0.0
 11
-4.737925768922405
 21
-1.891734280296139
 31
0.0
  0
LINE
  5
13E
330
1F
100
AcDbEntity
  8
0
100
AcDbLine
 10
-3.735445067617963
 20
-3.215225264069215
 30
0.0
 11
-3.752400858659209
 21
-3.24819294895638
 31
0.0
  0
LINE
  5
13F
330
1F
100
AcDbEntity
  8
0
100
AcDbLine
 10
-3.967619610140998
 20
-3.719092994086434
 30
0.0
 11
-4.01861184377476
 21
-3.991888848612364
 31
0.0
  0
LINE
  5
140
330
1F
100
AcDbEntity
  8
0
100
AcDbLine
 10
-4.036503748245447
 20
-4.197671787682075
 30
0.0
 11
-3.84817824638169
 21
-4.334498273894048
 31
0.0
  0
LINE
  5
141
330
1F
100
AcDbEntity
  8
0
100
AcDbLine
 10
-4.957241513408166
 20
-0.9612503594123304
 30
0.0
 11
-4.959322233813646
 21
-0.9982643797188043
 31
0.0
  0
LINE
  5
142
330
1F
100
AcDbEntity
  8
0
100
AcDbLine
 10
-4.643232081012735
 20
-1.92767202001349
 30
0.0
 11
-4.530376243320551
 21
-2.149164072675755
 31
0.0
  0
LINE
  5
143
330
1F
100
AcDbEntity
  8
0
100
AcDbLine
 10
-5.800660367373585
 20
-1.647137182517591
 30
0.0
 11
-5.728726426610012
 21
-1.868527087769781
 31
0.0
  0
LINE
  5
144
330
1F
100
AcDbEntity
  8
0
100
AcDbLine
 10
-4.520917164715931
 20
-2.185009475848346
 30
0.0
 11
-4.530648063934232
 21
-2.220782044907013
 31
0.0
  0
LINE
  5
145
330
1F
100
AcDbEntity
  8
0
100
AcDbLine
 10
-4.737925768922405
 20
-1.891734280296139
 30
0.0
 11
-4.701332009798487
 21
-1.885795939632755
 31
0.0
  0
LINE
  5
146
330
1F
100
AcDbEntity
  8
0
100
AcDbLine
 10
-5.582551208781998
 20
0.1343180864111318
 30
0.0
 11
-5.833220173999891
 21
0.0152262898251198
 31
0.0
  0
LINE
  5
147
330
1F
100
AcDbEntity
  8
0
100
AcDbLine
 10
-5.039957918132444
 20
-2.87192966188111
 30
0.0
 11
-5.120564555793186
 21
-3.062111964482553
 31
0.0
  0
LINE
  5
148
330
1F
100
AcDbEntity
  8
0
100
AcDbLine
 10
-5.075082661482061
 20
-0.6522837472957553
 30
0.0
 11
-5.038444880228148
 21
-0.6579441431692185
 31
0.0
  0
LINE
  5
149
330
1F
100
AcDbEntity
  8
0
100
AcDbLine
 10
-4.983738069581213
 20
-3.250437466346309
 30
0.0
 11
-4.777955130511501
 21
-3.232545561875623
 31
0.0
  0
LINE
  5
14A
330
1F
100
AcDbEntity
  8
0
100
AcDbLine
 10
-4.996128984855634
 20
-0.715724527658987
 30
0.0
 11
-4.957241513408166
 21
-0.9612503594123304
 31
0.0
  0
LINE
  5
14B
330
1F
100
AcDbEntity
  8
0
100
AcDbLine
 10
-4.55696155438828
 20
-2.246896548861301
 30
0.0
 11
-4.607368228779247
 21
-2.278635537549969
 31
0.0
  0
LINE
  5
14C
330
1F
100
AcDbEntity
  8
0
100
AcDbLine
 10
-6.010218666443007
 20
-0.091255032154939
 30
0.0
 11
-6.010218666443007
 21
-0.3240381543553056
 31
0.0
  0
LINE
  5
14D
330
1F
100
AcDbEntity
  8
0
100
AcDbLine
 10
-4.677532322284646
 20
-2.338925523274682
 30
0.0
 11
-4.78166260401936
 21
-2.452627232868234
 31
0.0
  0
LINE
  5
14E
330
1F
100
AcDbEntity
  8
0
100
AcDbLine
 10
-4.034259230855517
 20
-2.966334576760071
 30
0.0
 11
-4.001291545968352
 21
-2.949378785718825
 31
0.0
  0
LINE
  5
14F
330
1F
100
AcDbEntity
  8
0
100
AcDbLine
 10
-5.070474125813912
 20
-1.060593207817824
 30
0.0
 11
-5.155834774331723
 21
-1.096250494320573
 31
0.0
  0
LINE
  5
150
330
1F
100
AcDbEntity
  8
0
100
AcDbLine
 10
-5.155834774331723
 20
-1.096250494320573
 30
0.0
 11
-5.290004317873064
 21
-1.172209219458342
 31
0.0
  0
LINE
  5
151
330
1F
100
AcDbEntity
  8
0
100
AcDbLine
 10
-5.582551208781999
 20
-0.5496112729213745
 30
0.0
 11
-5.377795091290811
 21
-0.6179200908175523
 31
0.0
  0
LINE
  5
152
330
1F
100
AcDbEntity
  8
0
100
AcDbLine
 10
-5.527486318922217
 20
-1.915101300758972
 30
0.0
 11
-5.252284577083057
 21
-1.950903359724685
 31
0.0
  0
LINE
  5
153
330
1F
100
AcDbEntity
  8
0
100
AcDbLine
 10
-5.728726426610012
 20
-1.868527087769781
 30
0.0
 11
-5.527486318922217
 21
-1.915101300758972
 31
0.0
  0
LINE
  5
154
330
1F
100
AcDbEntity
  8
0
100
AcDbLine
 10
-5.463630372068772
 20
-1.300447885845931
 30
0.0
 11
-5.66522933583649
 21
-1.491171885241065
 31
0.0
  0
LINE
  5
155
330
1F
100
AcDbEntity
  8
0
100
AcDbLine
 10
-4.907162867011059
 20
-2.62824285358989
 30
0.0
 11
-5.039957918132444
 21
-2.87192966188111
 31
0.0
  0
LINE
  5
156
330
1F
100
AcDbEntity
  8
0
100
AcDbLine
 10
-4.001291545968352
 20
-2.949378785718825
 30
0.0
 11
-3.964262797831484
 21
-2.951178482379429
 31
0.0
  0
LINE
  5
157
330
1F
100
AcDbEntity
  8
0
100
AcDbLine
 10
-4.159042402964137
 20
-3.052565674173989
 30
0.0
 11
-4.080021321885225
 21
-3.004466286015296
 31
0.0
  0
LINE
  5
158
330
1F
100
AcDbEntity
  8
0
100
AcDbLine
 10
-5.290004317873064
 20
-1.172209219458342
 30
0.0
 11
-5.463630372068772
 21
-1.300447885845931
 31
0.0
  0
LINE
  5
159
330
1F
100
AcDbEntity
  8
0
100
AcDbLine
 10
-5.833220173999891
 20
-0.4305194763353627
 30
0.0
 11
-5.582551208781999
 21
-0.5496112729213745
 31
0.0
  0
LINE
  5
15A
330
1F
100
AcDbEntity
  8
0
100
AcDbLine
 10
-3.933094809604921
 20
-2.971251439475051
 30
0.0
 11
-3.757317721374188
 21
-3.147028527705782
 31
0.0
  0
LINE
  5
15B
330
1F
100
AcDbEntity
  8
0
100
AcDbLine
 10
-3.964262797831484
 20
-2.951178482379429
 30
0.0
 11
-3.933094809604921
 21
-2.971251439475051
 31
0.0
  0
LINE
  5
15C
330
1F
100
AcDbEntity
  8
0
100
AcDbLine
 10
-4.505159275985573
 20
-3.18155332824186
 30
0.0
 11
-4.299357181472062
 21
-3.116463696607546
 31
0.0
  0
LINE
  5
15D
330
1F
100
AcDbEntity
  8
0
100
AcDbLine
 10
-3.737244764278566
 20
-3.178196515932345
 30
0.0
 11
-3.735445067617963
 21
-3.215225264069215
 31
0.0
  0
LINE
  5
15E
330
1F
100
AcDbEntity
  8
0
100
AcDbLine
 10
-3.752400858659209
 20
-3.24819294895638
 30
0.0
 11
-3.790532567914433
 21
-3.293955039986088
 31
0.0
  0
LINE
  5
15F
330
1F
100
AcDbEntity
  8
0
100
AcDbLine
 10
-3.790532567914433
 20
-3.293955039986088
 30
0.0
 11
-3.838631956073126
 21
-3.372976121065
 31
0.0
  0
LINE
  5
160
330
1F
100
AcDbEntity
  8
0
100
AcDbLine
 10
-3.838631956073126
 20
-3.372976121065
 30
0.0
 11
-3.902529978506684
 21
-3.513290899572925
 31
0.0
  0
LINE
  5
161
330
1F
100
AcDbEntity
  8
0
100
AcDbLine
 10
-5.377795091290811
 20
0.2026269043073094
 30
0.0
 11
-5.582551208781998
 21
0.1343180864111318
 31
0.0
  0
LINE
  5
162
330
1F
100
AcDbEntity
  8
0
100
AcDbLine
 10
-3.902529978506684
 20
-3.513290899572925
 30
0.0
 11
-3.967619610140998
 21
-3.719092994086434
 31
0.0
  0
LINE
  5
163
330
1F
100
AcDbEntity
  8
0
100
AcDbLine
 10
-4.701332009798487
 20
-1.885795939632755
 30
0.0
 11
-4.666671714445512
 21
-1.898950065323898
 31
0.0
  0
LINE
  5
164
330
1F
100
AcDbEntity
  8
0
100
AcDbLine
 10
-3.757317721374188
 20
-3.147028527705782
 30
0.0
 11
-3.737244764278566
 21
-3.178196515932345
 31
0.0
  0
LINE
  5
165
330
1F
100
AcDbEntity
  8
0
100
AcDbLine
 10
-4.01861184377476
 20
-3.991888848612364
 30
0.0
 11
-4.036503748245447
 21
-4.197671787682075
 31
0.0
  0
LINE
  5
166
330
1F
100
AcDbEntity
  8
0
100
AcDbLine
 10
-5.012726642780541
 20
-1.045984154821581
 30
0.0
 11
-5.070474125813912
 21
-1.060593207817824
 31
0.0
  0
LINE
  5
167
330
1F
100
AcDbEntity
  8
0
100
AcDbLine
 10
-5.833220173999891
 20
0.0152262898251198
 30
0.0
 11
-6.010218666443007
 21
-0.091255032154939
 31
0.0
  0
LINE
  5
168
330
1F
100
AcDbEntity
  8
0
100
AcDbLine
 10
-4.979631200696201
 20
-1.029279101397664
 30
0.0
 11
-5.012726642780541
 21
-1.045984154821581
 31
0.0
  0
LINE
  5
169
330
1F
100
AcDbEntity
  8
0
100
AcDbLine
 10
-5.036441351696184
 20
-1.952595786098253
 30
0.0
 11
-4.883248492424791
 21
-1.93518480660535
 31
0.0
  0
LINE
  5
16A
330
1F
100
AcDbEntity
  8
0
100
AcDbLine
 10
-5.134518227168154
 20
-0.6562346658864682
 30
0.0
 11
-5.075082661482061
 21
-0.6522837472957553
 31
0.0
  0
LINE
  5
16B
330
1F
100
AcDbEntity
  8
0
100
AcDbLine
 10
-4.666671714445512
 20
-1.898950065323898
 30
0.0
 11
-4.643232081012735
 21
-1.92767202001349
 31
0.0
  0
LINE
  5
16C
330
1F
100
AcDbEntity
  8
0
100
AcDbLine
 10
-5.66522933583649
 20
-1.491171885241065
 30
0.0
 11
-5.800660367373585
 21
-1.647137182517591
 31
0.0
  0
LINE
  5
16D
330
1F
100
AcDbEntity
  8
0
100
AcDbLine
 10
-5.038444880228148
 20
-0.6579441431692185
 30
0.0
 11
-5.009545828860695
 21
-0.6811650804180702
 31
0.0
  0
LINE
  5
16E
330
1F
100
AcDbEntity
  8
0
100
AcDbLine
 10
-5.009545828860695
 20
-0.6811650804180702
 30
0.0
 11
-4.996128984855634
 21
-0.715724527658987
 31
0.0
  0
LINE
  5
16F
330
1F
100
AcDbEntity
  8
0
100
AcDbLine
 10
-4.959322233813646
 20
-0.9982643797188043
 30
0.0
 11
-4.979631200696201
 21
-1.029279101397664
 31
0.0
  0
LINE
  5
170
330
1F
100
AcDbEntity
  8
0
100
AcDbLine
 10
-5.377795091290811
 20
-0.6179200908175523
 30
0.0
 11
-5.226719735678846
 21
-0.6487004622474959
 31
0.0
  0
LINE
  5
171
330
1F
100
AcDbEntity
  8
0
100
AcDbLine
 10
-5.226719735678846
 20
-0.6487004622474959
 30
0.0
 11
-5.134518227168154
 21
-0.6562346658864682
 31
0.0
  0
LINE
  5
172
330
1F
100
AcDbEntity
  8
0
100
AcDbLine
 10
-4.530376243320551
 20
-2.149164072675755
 30
0.0
 11
-4.520917164715931
 21
-2.185009475848346
 31
0.0
  0
LINE
  5
173
330
1F
100
AcDbEntity
  8
0
100
AcDbLine
 10
-4.530648063934232
 20
-2.220782044907013
 30
0.0
 11
-4.55696155438828
 21
-2.246896548861301
 31
0.0
  0
LINE
  5
174
330
1F
100
AcDbEntity
  8
0
100
AcDbLine
 10
-3.124991805173819
 20
-3.89146604038551
 30
0.0
 11
-3.064701819449107
 21
-3.821301946880109
 31
0.0
  0
LINE
  5
175
330
1F
100
AcDbEntity
  8
0
100
AcDbLine
 10
-2.699924708933617
 20
-4.007165168080795
 30
0.0
 11
-2.721251088504487
 21
-4.097182210525653
 31
0.0
  0
LINE
  5
176
330
1F
100
AcDbEntity
  8
0
100
AcDbLine
 10
-0.1051089740888086
 20
-4.369768492432585
 30
0.0
 11
-0.0291502489510395
 21
-4.503938035973928
 31
0.0
  0
LINE
  5
177
330
1F
100
AcDbEntity
  8
0
100
AcDbLine
 10
-3.657995943780248
 20
-4.253891636233306
 30
0.0
 11
-3.414309135489029
 21
-4.121096585111923
 31
0.0
  0
LINE
  5
178
330
1F
100
AcDbEntity
  8
0
100
AcDbLine
 10
0.2898124168316845
 20
-4.879163053937353
 30
0.0
 11
0.4457777141082103
 21
-5.014594085474449
 31
0.0
  0
LINE
  5
179
330
1F
100
AcDbEntity
  8
0
100
AcDbLine
 10
-1.216585758234503
 20
-5.047153892100754
 30
0.0
 11
-1.110104436254444
 21
-5.224152384543869
 31
0.0
  0
LINE
  5
17A
330
1F
100
AcDbEntity
  8
0
100
AcDbLine
 10
-1.442300947785608
 20
-4.348451945269016
 30
0.0
 11
-1.434766744146636
 21
-4.440653453779707
 31
0.0
  0
LINE
  5
17B
330
1F
100
AcDbEntity
  8
0
100
AcDbLine
 10
0.6671676193604
 20
-4.942660144710875
 30
0.0
 11
0.7137418323495885
 21
-4.741420037023081
 31
0.0
  0
LINE
  5
17C
330
1F
100
AcDbEntity
  8
0
100
AcDbLine
 10
-0.5434153252401628
 20
-4.252378598329012
 30
0.0
 11
-0.5201943879913111
 21
-4.223479546961558
 31
0.0
  0
LINE
  5
17D
330
1F
100
AcDbEntity
  8
0
100
AcDbLine
 10
0.7495438913153013
 20
-4.466218295183921
 30
0.0
 11
0.7512363176888693
 21
-4.250375069797048
 31
0.0
  0
LINE
  5
17E
330
1F
100
AcDbEntity
  8
0
100
AcDbLine
 10
-0.1407662605915578
 20
-4.284407843914774
 30
0.0
 11
-0.1051089740888086
 21
-4.369768492432585
 31
0.0
  0
LINE
  5
17F
330
1F
100
AcDbEntity
  8
0
100
AcDbLine
 10
0.7512363176888693
 20
-4.250375069797048
 30
0.0
 11
0.7338253381959661
 21
-4.097182210525655
 31
0.0
  0
LINE
  5
180
330
1F
100
AcDbEntity
  8
0
100
AcDbLine
 10
-3.414309135489029
 20
-4.121096585111923
 30
0.0
 11
-3.238693514767372
 21
-3.995596322120224
 31
0.0
  0
LINE
  5
181
330
1F
100
AcDbEntity
  8
0
100
AcDbLine
 10
-2.677800562195277
 20
-3.95185948702327
 30
0.0
 11
-2.699924708933617
 21
-4.007165168080795
 31
0.0
  0
LINE
  5
182
330
1F
100
AcDbEntity
  8
0
100
AcDbLine
 10
-1.444010425068358
 20
-4.252378598329012
 30
0.0
 11
-1.438350029194895
 21
-4.289016379582923
 31
0.0
  0
LINE
  5
183
330
1F
100
AcDbEntity
  8
0
100
AcDbLine
 10
-0.8773213140540774
 20
-5.224152384543869
 30
0.0
 11
-0.7708399920740181
 21
-5.047153892100754
 31
0.0
  0
LINE
  5
184
330
1F
100
AcDbEntity
  8
0
100
AcDbLine
 10
0.7137418323495885
 20
-4.741420037023081
 30
0.0
 11
0.7495438913153013
 21
-4.466218295183921
 31
0.0
  0
LINE
  5
185
330
1F
100
AcDbEntity
  8
0
100
AcDbLine
 10
-0.2401091089970506
 20
-4.171175231509027
 30
0.0
 11
-0.203095088690577
 21
-4.173255951914508
 31
0.0
  0
LINE
  5
186
330
1F
100
AcDbEntity
  8
0
100
AcDbLine
 10
-1.958275501357482
 20
-4.503938035973928
 30
0.0
 11
-1.882316776219712
 21
-4.369768492432585
 31
0.0
  0
LINE
  5
187
330
1F
100
AcDbEntity
  8
0
100
AcDbLine
 10
-0.583439377591829
 20
-4.591728809391673
 30
0.0
 11
-0.5526590061618852
 21
-4.440653453779709
 31
0.0
  0
LINE
  5
188
330
1F
100
AcDbEntity
  8
0
100
AcDbLine
 10
-2.721251088504487
 20
-4.097182210525653
 30
0.0
 11
-2.738662067997391
 21
-4.250375069797046
 31
0.0
  0
LINE
  5
189
330
1F
100
AcDbEntity
  8
0
100
AcDbLine
 10
-3.84817824638169
 20
-4.334498273894048
 30
0.0
 11
-3.657995943780248
 21
-4.253891636233306
 31
0.0
  0
LINE
  5
18A
330
1F
100
AcDbEntity
  8
0
100
AcDbLine
 10
-3.00684832680615
 20
-3.744581782035095
 30
0.0
 11
-2.971075757747483
 21
-3.734850882816795
 31
0.0
  0
LINE
  5
18B
330
1F
100
AcDbEntity
  8
0
100
AcDbLine
 10
-2.277238167140205
 20
-4.879163053937353
 30
0.0
 11
-2.086514167745071
 21
-4.677564090169636
 31
0.0
  0
LINE
  5
18C
330
1F
100
AcDbEntity
  8
0
100
AcDbLine
 10
-3.238693514767372
 20
-3.995596322120224
 30
0.0
 11
-3.124991805173819
 21
-3.89146604038551
 31
0.0
  0
LINE
  5
18D
330
1F
100
AcDbEntity
  8
0
100
AcDbLine
 10
-2.736969641623822
 20
-4.46621829518392
 30
0.0
 11
-2.70116758265811
 21
-4.741420037023081
 31
0.0
  0
LINE
  5
18E
330
1F
100
AcDbEntity
  8
0
100
AcDbLine
 10
-1.882316776219712
 20
-4.369768492432585
 30
0.0
 11
-1.846659489716963
 21
-4.284407843914774
 31
0.0
  0
LINE
  5
18F
330
1F
100
AcDbEntity
  8
0
100
AcDbLine
 10
-2.971075757747483
 20
-3.734850882816795
 30
0.0
 11
-2.935230354574894
 21
-3.744309961421413
 31
0.0
  0
LINE
  5
190
330
1F
100
AcDbEntity
  8
0
100
AcDbLine
 10
-1.815345383296803
 20
-4.193564918797065
 30
0.0
 11
-1.784330661617944
 21
-4.173255951914508
 31
0.0
  0
LINE
  5
191
330
1F
100
AcDbEntity
  8
0
100
AcDbLine
 10
-2.738662067997391
 20
-4.250375069797046
 30
0.0
 11
-2.736969641623822
 21
-4.46621829518392
 31
0.0
  0
LINE
  5
192
330
1F
100
AcDbEntity
  8
0
100
AcDbLine
 10
-1.784330661617944
 20
-4.173255951914508
 30
0.0
 11
-1.74731664131147
 21
-4.171175231509027
 31
0.0
  0
LINE
  5
193
330
1F
100
AcDbEntity
  8
0
100
AcDbLine
 10
-1.434766744146636
 20
-4.440653453779707
 30
0.0
 11
-1.403986372716692
 21
-4.591728809391673
 31
0.0
  0
LINE
  5
194
330
1F
100
AcDbEntity
  8
0
100
AcDbLine
 10
-1.335677554820515
 20
-4.796484926882862
 30
0.0
 11
-1.216585758234503
 21
-5.047153892100754
 31
0.0
  0
LINE
  5
195
330
1F
100
AcDbEntity
  8
0
100
AcDbLine
 10
-3.064701819449107
 20
-3.821301946880109
 30
0.0
 11
-3.032962830760439
 21
-3.770895272489143
 31
0.0
  0
LINE
  5
196
330
1F
100
AcDbEntity
  8
0
100
AcDbLine
 10
-1.438350029194895
 20
-4.289016379582923
 30
0.0
 11
-1.442300947785608
 21
-4.348451945269016
 31
0.0
  0
LINE
  5
197
330
1F
100
AcDbEntity
  8
0
100
AcDbLine
 10
-1.110104436254444
 20
-5.224152384543869
 30
0.0
 11
-0.8773213140540774
 21
-5.224152384543869
 31
0.0
  0
LINE
  5
198
330
1F
100
AcDbEntity
  8
0
100
AcDbLine
 10
-2.433203464416732
 20
-5.014594085474447
 30
0.0
 11
-2.277238167140205
 21
-4.879163053937353
 31
0.0
  0
LINE
  5
199
330
1F
100
AcDbEntity
  8
0
100
AcDbLine
 10
-1.74731664131147
 20
-4.171175231509027
 30
0.0
 11
-1.501790809558127
 21
-4.210062702956497
 31
0.0
  0
LINE
  5
19A
330
1F
100
AcDbEntity
  8
0
100
AcDbLine
 10
-0.7708399920740181
 20
-5.047153892100754
 30
0.0
 11
-0.6517481954880064
 21
-4.796484926882862
 31
0.0
  0
LINE
  5
19B
330
1F
100
AcDbEntity
  8
0
100
AcDbLine
 10
-0.6517481954880064
 20
-4.796484926882862
 30
0.0
 11
-0.583439377591829
 21
-4.591728809391673
 31
0.0
  0
LINE
  5
19C
330
1F
100
AcDbEntity
  8
0
100
AcDbLine
 10
-2.713738301912627
 20
-3.857165799113598
 30
0.0
 11
-2.685016347223036
 21
-3.880605432546375
 31
0.0
  0
LINE
  5
19D
330
1F
100
AcDbEntity
  8
0
100
AcDbLine
 10
-0.5526590061618852
 20
-4.440653453779709
 30
0.0
 11
-0.5451248025229132
 21
-4.348451945269016
 31
0.0
  0
LINE
  5
19E
330
1F
100
AcDbEntity
  8
0
100
AcDbLine
 10
-0.5490757211136259
 20
-4.289016379582923
 30
0.0
 11
-0.5434153252401628
 21
-4.252378598329012
 31
0.0
  0
LINE
  5
19F
330
1F
100
AcDbEntity
  8
0
100
AcDbLine
 10
-0.5201943879913111
 20
-4.223479546961558
 30
0.0
 11
-0.4856349407503943
 21
-4.210062702956497
 31
0.0
  0
LINE
  5
1A0
330
1F
100
AcDbEntity
  8
0
100
AcDbLine
 10
-0.203095088690577
 20
-4.173255951914508
 30
0.0
 11
-0.1720803670117176
 21
-4.193564918797065
 31
0.0
  0
LINE
  5
1A1
330
1F
100
AcDbEntity
  8
0
100
AcDbLine
 10
-0.1553753135877999
 20
-4.226660360881405
 30
0.0
 11
-0.1407662605915578
 21
-4.284407843914774
 31
0.0
  0
LINE
  5
1A2
330
1F
100
AcDbEntity
  8
0
100
AcDbLine
 10
-2.671862221531893
 20
-3.91526572789935
 30
0.0
 11
-2.677800562195277
 21
-3.95185948702327
 31
0.0
  0
LINE
  5
1A3
330
1F
100
AcDbEntity
  8
0
100
AcDbLine
 10
-2.685016347223036
 20
-3.880605432546375
 30
0.0
 11
-2.671862221531893
 21
-3.91526572789935
 31
0.0
  0
LINE
  5
1A4
330
1F
100
AcDbEntity
  8
0
100
AcDbLine
 10
-1.46723136231721
 20
-4.223479546961557
 30
0.0
 11
-1.444010425068358
 21
-4.252378598329012
 31
0.0
  0
LINE
  5
1A5
330
1F
100
AcDbEntity
  8
0
100
AcDbLine
 10
-1.403986372716692
 20
-4.591728809391673
 30
0.0
 11
-1.335677554820515
 21
-4.796484926882862
 31
0.0
  0
LINE
  5
1A6
330
1F
100
AcDbEntity
  8
0
100
AcDbLine
 10
-1.832050436720722
 20
-4.226660360881404
 30
0.0
 11
-1.815345383296803
 21
-4.193564918797065
 31
0.0
  0
LINE
  5
1A7
330
1F
100
AcDbEntity
  8
0
100
AcDbLine
 10
-2.654593369668921
 20
-4.942660144710874
 30
0.0
 11
-2.433203464416732
 21
-5.014594085474447
 31
0.0
  0
LINE
  5
1A8
330
1F
100
AcDbEntity
  8
0
100
AcDbLine
 10
-1.846659489716963
 20
-4.284407843914774
 30
0.0
 11
-1.832050436720722
 21
-4.226660360881404
 31
0.0
  0
LINE
  5
1A9
330
1F
100
AcDbEntity
  8
0
100
AcDbLine
 10
-1.501790809558127
 20
-4.210062702956497
 30
0.0
 11
-1.46723136231721
 21
-4.223479546961557
 31
0.0
  0
LINE
  5
1AA
330
1F
100
AcDbEntity
  8
0
100
AcDbLine
 10
-0.4856349407503943
 20
-4.210062702956497
 30
0.0
 11
-0.2401091089970506
 21
-4.171175231509027
 31
0.0
  0
LINE
  5
1AB
330
1F
100
AcDbEntity
  8
0
100
AcDbLine
 10
-0.1720803670117176
 20
-4.193564918797065
 30
0.0
 11
-0.1553753135877999
 21
-4.226660360881405
 31
0.0
  0
LINE
  5
1AC
330
1F
100
AcDbEntity
  8
0
100
AcDbLine
 10
-0.0291502489510395
 20
-4.503938035973928
 30
0.0
 11
0.0990884174365494
 21
-4.677564090169635
 31
0.0
  0
LINE
  5
1AD
330
1F
100
AcDbEntity
  8
0
100
AcDbLine
 10
0.0990884174365494
 20
-4.677564090169635
 30
0.0
 11
0.2898124168316845
 21
-4.879163053937353
 31
0.0
  0
LINE
  5
1AE
330
1F
100
AcDbEntity
  8
0
100
AcDbLine
 10
0.4457777141082103
 20
-5.014594085474449
 30
0.0
 11
0.6671676193604
 21
-4.942660144710875
 31
0.0
  0
LINE
  5
1AF
330
1F
100
AcDbEntity
  8
0
100
AcDbLine
 10
-2.935230354574894
 20
-3.744309961421413
 30
0.0
 11
-2.713738301912627
 21
-3.857165799113598
 31
0.0
  0
LINE
  5
1B0
330
1F
100
AcDbEntity
  8
0
100
AcDbLine
 10
-2.70116758265811
 20
-4.741420037023081
 30
0.0
 11
-2.654593369668921
 21
-4.942660144710874
 31
0.0
  0
LINE
  5
1B1
330
1F
100
AcDbEntity
  8
0
100
AcDbLine
 10
-2.086514167745071
 20
-4.677564090169636
 30
0.0
 11
-1.958275501357482
 21
-4.503938035973928
 31
0.0
  0
LINE
  5
1B2
330
1F
100
AcDbEntity
  8
0
100
AcDbLine
 10
-3.032962830760439
 20
-3.770895272489143
 30
0.0
 11
-3.00684832680615
 21
-3.744581782035095
 31
0.0
  0
LINE
  5
1B3
330
1F
100
AcDbEntity
  8
0
100
AcDbLine
 10
-0.5451248025229132
 20
-4.348451945269016
 30
0.0
 11
-0.5490757211136259
 21
-4.289016379582923
 31
0.0
  0
LINE
  5
1B4
330
1F
100
AcDbEntity
  8
0
100
AcDbLine
 10
2.895822742116271
 20
-1.935184806605351
 30
0.0
 11
3.049015601387664
 21
-1.952595786098254
 31
0.0
  0
LINE
  5
1B5
330
1F
100
AcDbEntity
  8
0
100
AcDbLine
 10
2.79423685371084
 20
-2.452627232868235
 30
0.0
 11
2.690106571976127
 21
-2.338925523274683
 31
0.0
  0
LINE
  5
1B6
330
1F
100
AcDbEntity
  8
0
100
AcDbLine
 10
3.049015601387664
 20
-1.952595786098254
 30
0.0
 11
3.264858826774538
 21
-1.950903359724686
 31
0.0
  0
LINE
  5
1B7
330
1F
100
AcDbEntity
  8
0
100
AcDbLine
 10
2.092595571576706
 20
-3.004466286015298
 30
0.0
 11
2.171616652655617
 21
-3.05256567417399
 31
0.0
  0
LINE
  5
1B8
330
1F
100
AcDbEntity
  8
0
100
AcDbLine
 10
2.805805699671411
 20
-1.91385842703448
 30
0.0
 11
2.895822742116271
 21
-1.935184806605351
 31
0.0
  0
LINE
  5
1B9
330
1F
100
AcDbEntity
  8
0
100
AcDbLine
 10
3.264858826774538
 20
-1.950903359724686
 30
0.0
 11
3.540060568613699
 21
-1.915101300758973
 31
0.0
  0
LINE
  5
1BA
330
1F
100
AcDbEntity
  8
0
100
AcDbLine
 10
0.6903748118867552
 20
-3.95185948702327
 30
0.0
 11
0.6844364712233718
 21
-3.91526572789935
 31
0.0
  0
LINE
  5
1BB
330
1F
100
AcDbEntity
  8
0
100
AcDbLine
 10
3.813234617065064
 20
-1.647137182517594
 30
0.0
 11
3.67780358552797
 21
-1.491171885241068
 31
0.0
  0
LINE
  5
1BC
330
1F
100
AcDbEntity
  8
0
100
AcDbLine
 10
3.741300676301492
 20
-1.868527087769785
 30
0.0
 11
3.813234617065064
 21
-1.647137182517594
 31
0.0
  0
LINE
  5
1BD
330
1F
100
AcDbEntity
  8
0
100
AcDbLine
 10
3.540060568613699
 20
-1.915101300758973
 30
0.0
 11
3.741300676301492
 21
-1.868527087769785
 31
0.0
  0
LINE
  5
1BE
330
1F
100
AcDbEntity
  8
0
100
AcDbLine
 10
2.750500018613887
 20
-1.89173428029614
 30
0.0
 11
2.805805699671411
 21
-1.91385842703448
 31
0.0
  0
LINE
  5
1BF
330
1F
100
AcDbEntity
  8
0
100
AcDbLine
 10
2.713906259489967
 20
-1.885795939632756
 30
0.0
 11
2.750500018613887
 21
-1.89173428029614
 31
0.0
  0
LINE
  5
1C0
330
1F
100
AcDbEntity
  8
0
100
AcDbLine
 10
2.679245964136991
 20
-1.8989500653239
 30
0.0
 11
2.713906259489967
 21
-1.885795939632756
 31
0.0
  0
LINE
  5
1C1
330
1F
100
AcDbEntity
  8
0
100
AcDbLine
 10
2.655806330704215
 20
-1.927672020013491
 30
0.0
 11
2.679245964136991
 21
-1.8989500653239
 31
0.0
  0
LINE
  5
1C2
330
1F
100
AcDbEntity
  8
0
100
AcDbLine
 10
2.542950493012031
 20
-2.149164072675757
 30
0.0
 11
2.655806330704215
 21
-1.927672020013491
 31
0.0
  0
LINE
  5
1C3
330
1F
100
AcDbEntity
  8
0
100
AcDbLine
 10
2.533491414407412
 20
-2.185009475848347
 30
0.0
 11
2.542950493012031
 21
-2.149164072675757
 31
0.0
  0
LINE
  5
1C4
330
1F
100
AcDbEntity
  8
0
100
AcDbLine
 10
2.543222313625712
 20
-2.220782044907014
 30
0.0
 11
2.533491414407412
 21
-2.185009475848347
 31
0.0
  0
LINE
  5
1C5
330
1F
100
AcDbEntity
  8
0
100
AcDbLine
 10
2.56953580407976
 20
-2.246896548861303
 30
0.0
 11
2.543222313625712
 21
-2.220782044907014
 31
0.0
  0
LINE
  5
1C6
330
1F
100
AcDbEntity
  8
0
100
AcDbLine
 10
2.619942478470727
 20
-2.27863553754997
 30
0.0
 11
2.56953580407976
 21
-2.246896548861303
 31
0.0
  0
LINE
  5
1C7
330
1F
100
AcDbEntity
  8
0
100
AcDbLine
 10
2.690106571976127
 20
-2.338925523274683
 30
0.0
 11
2.619942478470727
 21
-2.27863553754997
 31
0.0
  0
LINE
  5
1C8
330
1F
100
AcDbEntity
  8
0
100
AcDbLine
 10
2.91973711670254
 20
-2.628242853589892
 30
0.0
 11
2.79423685371084
 21
-2.452627232868235
 31
0.0
  0
LINE
  5
1C9
330
1F
100
AcDbEntity
  8
0
100
AcDbLine
 10
3.052532167823923
 20
-2.871929661881111
 30
0.0
 11
2.91973711670254
 21
-2.628242853589892
 31
0.0
  0
LINE
  5
1CA
330
1F
100
AcDbEntity
  8
0
100
AcDbLine
 10
3.133138805484665
 20
-3.062111964482555
 30
0.0
 11
3.052532167823923
 21
-2.871929661881111
 31
0.0
  0
LINE
  5
1CB
330
1F
100
AcDbEntity
  8
0
100
AcDbLine
 10
2.996312319272692
 20
-3.250437466346311
 30
0.0
 11
3.133138805484665
 21
-3.062111964482555
 31
0.0
  0
LINE
  5
1CC
330
1F
100
AcDbEntity
  8
0
100
AcDbLine
 10
2.790529380202981
 20
-3.232545561875624
 30
0.0
 11
2.996312319272692
 21
-3.250437466346311
 31
0.0
  0
LINE
  5
1CD
330
1F
100
AcDbEntity
  8
0
100
AcDbLine
 10
2.517733525677051
 20
-3.181553328241861
 30
0.0
 11
2.790529380202981
 21
-3.232545561875624
 31
0.0
  0
LINE
  5
1CE
330
1F
100
AcDbEntity
  8
0
100
AcDbLine
 10
2.311931431163541
 20
-3.116463696607547
 30
0.0
 11
2.517733525677051
 21
-3.181553328241861
 31
0.0
  0
LINE
  5
1CF
330
1F
100
AcDbEntity
  8
0
100
AcDbLine
 10
2.171616652655617
 20
-3.05256567417399
 30
0.0
 11
2.311931431163541
 21
-3.116463696607547
 31
0.0
  0
LINE
  5
1D0
330
1F
100
AcDbEntity
  8
0
100
AcDbLine
 10
2.046833480546997
 20
-2.966334576760072
 30
0.0
 11
2.092595571576706
 21
-3.004466286015298
 31
0.0
  0
LINE
  5
1D1
330
1F
100
AcDbEntity
  8
0
100
AcDbLine
 10
2.013865795659831
 20
-2.949378785718827
 30
0.0
 11
2.046833480546997
 21
-2.966334576760072
 31
0.0
  0
LINE
  5
1D2
330
1F
100
AcDbEntity
  8
0
100
AcDbLine
 10
1.976837047522962
 20
-2.951178482379429
 30
0.0
 11
2.013865795659831
 21
-2.949378785718827
 31
0.0
  0
LINE
  5
1D3
330
1F
100
AcDbEntity
  8
0
100
AcDbLine
 10
1.9456690592964
 20
-2.971251439475052
 30
0.0
 11
1.976837047522962
 21
-2.951178482379429
 31
0.0
  0
LINE
  5
1D4
330
1F
100
AcDbEntity
  8
0
100
AcDbLine
 10
1.769891971065668
 20
-3.147028527705784
 30
0.0
 11
1.9456690592964
 21
-2.971251439475052
 31
0.0
  0
LINE
  5
1D5
330
1F
100
AcDbEntity
  8
0
100
AcDbLine
 10
1.749819013970046
 20
-3.178196515932346
 30
0.0
 11
1.769891971065668
 21
-3.147028527705784
 31
0.0
  0
LINE
  5
1D6
330
1F
100
AcDbEntity
  8
0
100
AcDbLine
 10
1.748019317309442
 20
-3.215225264069215
 30
0.0
 11
1.749819013970046
 21
-3.178196515932346
 31
0.0
  0
LINE
  5
1D7
330
1F
100
AcDbEntity
  8
0
100
AcDbLine
 10
1.764975108350688
 20
-3.248192948956381
 30
0.0
 11
1.748019317309442
 21
-3.215225264069215
 31
0.0
  0
LINE
  5
1D8
330
1F
100
AcDbEntity
  8
0
100
AcDbLine
 10
1.803106817605913
 20
-3.29395503998609
 30
0.0
 11
1.764975108350688
 21
-3.248192948956381
 31
0.0
  0
LINE
  5
1D9
330
1F
100
AcDbEntity
  8
0
100
AcDbLine
 10
1.851206205764606
 20
-3.372976121065001
 30
0.0
 11
1.803106817605913
 21
-3.29395503998609
 31
0.0
  0
LINE
  5
1DA
330
1F
100
AcDbEntity
  8
0
100
AcDbLine
 10
1.915104228198163
 20
-3.513290899572926
 30
0.0
 11
1.851206205764606
 21
-3.372976121065001
 31
0.0
  0
LINE
  5
1DB
330
1F
100
AcDbEntity
  8
0
100
AcDbLine
 10
1.980193859832477
 20
-3.719092994086436
 30
0.0
 11
1.915104228198163
 21
-3.513290899572926
 31
0.0
  0
LINE
  5
1DC
330
1F
100
AcDbEntity
  8
0
100
AcDbLine
 10
2.03118609346624
 20
-3.991888848612365
 30
0.0
 11
1.980193859832477
 21
-3.719092994086436
 31
0.0
  0
LINE
  5
1DD
330
1F
100
AcDbEntity
  8
0
100
AcDbLine
 10
2.049077997936926
 20
-4.197671787682077
 30
0.0
 11
2.03118609346624
 21
-3.991888848612365
 31
0.0
  0
LINE
  5
1DE
330
1F
100
AcDbEntity
  8
0
100
AcDbLine
 10
1.860752496073169
 20
-4.33449827389405
 30
0.0
 11
2.049077997936926
 21
-4.197671787682077
 31
0.0
  0
LINE
  5
1DF
330
1F
100
AcDbEntity
  8
0
100
AcDbLine
 10
1.670570193471727
 20
-4.253891636233306
 30
0.0
 11
1.860752496073169
 21
-4.33449827389405
 31
0.0
  0
LINE
  5
1E0
330
1F
100
AcDbEntity
  8
0
100
AcDbLine
 10
1.426883385180507
 20
-4.121096585111923
 30
0.0
 11
1.670570193471727
 21
-4.253891636233306
 31
0.0
  0
LINE
  5
1E1
330
1F
100
AcDbEntity
  8
0
100
AcDbLine
 10
1.251267764458851
 20
-3.995596322120224
 30
0.0
 11
1.426883385180507
 21
-4.121096585111923
 31
0.0
  0
LINE
  5
1E2
330
1F
100
AcDbEntity
  8
0
100
AcDbLine
 10
1.137566054865298
 20
-3.89146604038551
 30
0.0
 11
1.251267764458851
 21
-3.995596322120224
 31
0.0
  0
LINE
  5
1E3
330
1F
100
AcDbEntity
  8
0
100
AcDbLine
 10
1.077276069140585
 20
-3.821301946880111
 30
0.0
 11
1.137566054865298
 21
-3.89146604038551
 31
0.0
  0
LINE
  5
1E4
330
1F
100
AcDbEntity
  8
0
100
AcDbLine
 10
1.045537080451918
 20
-3.770895272489144
 30
0.0
 11
1.077276069140585
 21
-3.821301946880111
 31
0.0
  0
LINE
  5
1E5
330
1F
100
AcDbEntity
  8
0
100
AcDbLine
 10
1.019422576497629
 20
-3.744581782035096
 30
0.0
 11
1.045537080451918
 21
-3.770895272489144
 31
0.0
  0
LINE
  5
1E6
330
1F
100
AcDbEntity
  8
0
100
AcDbLine
 10
0.9836500074389621
 20
-3.734850882816795
 30
0.0
 11
1.019422576497629
 21
-3.744581782035096
 31
0.0
  0
LINE
  5
1E7
330
1F
100
AcDbEntity
  8
0
100
AcDbLine
 10
0.9478046042663729
 20
-3.744309961421413
 30
0.0
 11
0.9836500074389621
 21
-3.734850882816795
 31
0.0
  0
LINE
  5
1E8
330
1F
100
AcDbEntity
  8
0
100
AcDbLine
 10
0.7263125516041065
 20
-3.857165799113599
 30
0.0
 11
0.9478046042663729
 21
-3.744309961421413
 31
0.0
  0
LINE
  5
1E9
330
1F
100
AcDbEntity
  8
0
100
AcDbLine
 10
0.6975905969145151
 20
-3.880605432546375
 30
0.0
 11
0.7263125516041065
 21
-3.857165799113599
 31
0.0
  0
LINE
  5
1EA
330
1F
100
AcDbEntity
  8
0
100
AcDbLine
 10
0.6844364712233718
 20
-3.91526572789935
 30
0.0
 11
0.6975905969145151
 21
-3.880605432546375
 31
0.0
  0
LINE
  5
1EB
330
1F
100
AcDbEntity
  8
0
100
AcDbLine
 10
0.7124989586250958
 20
-4.007165168080795
 30
0.0
 11
0.6903748118867552
 21
-3.95185948702327
 31
0.0
  0
LINE
  5
1EC
330
1F
100
AcDbEntity
  8
0
100
AcDbLine
 10
0.7338253381959661
 20
-4.097182210525655
 30
0.0
 11
0.7124989586250958
 21
-4.007165168080795
 31
0.0
  0
LINE
  5
1ED
330
1F
100
AcDbEntity
  8
0
100
AcDbLine
 10
1.019422576497631
 20
3.32928859552485
 30
0.0
 11
0.9836500074389631
 21
3.319557696306548
 31
0.0
  0
LINE
  5
1EE
330
1F
100
AcDbEntity
  8
0
100
AcDbLine
 10
1.045537080451919
 20
3.355602085978898
 30
0.0
 11
1.019422576497631
 21
3.32928859552485
 31
0.0
  0
LINE
  5
1EF
330
1F
100
AcDbEntity
  8
0
100
AcDbLine
 10
1.077276069140586
 20
3.406008760369864
 30
0.0
 11
1.045537080451919
 21
3.355602085978898
 31
0.0
  0
LINE
  5
1F0
330
1F
100
AcDbEntity
  8
0
100
AcDbLine
 10
1.1375660548653
 20
3.476172853875264
 30
0.0
 11
1.077276069140586
 21
3.406008760369864
 31
0.0
  0
LINE
  5
1F1
330
1F
100
AcDbEntity
  8
0
100
AcDbLine
 10
1.251267764458852
 20
3.580303135609978
 30
0.0
 11
1.1375660548653
 21
3.476172853875264
 31
0.0
  0
LINE
  5
1F2
330
1F
100
AcDbEntity
  8
0
100
AcDbLine
 10
1.426883385180509
 20
3.705803398601677
 30
0.0
 11
1.251267764458852
 21
3.580303135609978
 31
0.0
  0
LINE
  5
1F3
330
1F
100
AcDbEntity
  8
0
100
AcDbLine
 10
1.670570193471727
 20
3.838598449723061
 30
0.0
 11
1.426883385180509
 21
3.705803398601677
 31
0.0
  0
LINE
  5
1F4
330
1F
100
AcDbEntity
  8
0
100
AcDbLine
 10
1.860752496073171
 20
3.919205087383803
 30
0.0
 11
1.670570193471727
 21
3.838598449723061
 31
0.0
  0
LINE
  5
1F5
330
1F
100
AcDbEntity
  8
0
100
AcDbLine
 10
2.049077997936927
 20
3.78237860117183
 30
0.0
 11
1.860752496073171
 21
3.919205087383803
 31
0.0
  0
LINE
  5
1F6
330
1F
100
AcDbEntity
  8
0
100
AcDbLine
 10
2.031186093466241
 20
3.576595662102119
 30
0.0
 11
2.049077997936927
 21
3.78237860117183
 31
0.0
  0
LINE
  5
1F7
330
1F
100
AcDbEntity
  8
0
100
AcDbLine
 10
1.980193859832477
 20
3.303799807576189
 30
0.0
 11
2.031186093466241
 21
3.576595662102119
 31
0.0
  0
LINE
  5
1F8
330
1F
100
AcDbEntity
  8
0
100
AcDbLine
 10
1.915104228198164
 20
3.097997713062679
 30
0.0
 11
1.980193859832477
 21
3.303799807576189
 31
0.0
  0
LINE
  5
1F9
330
1F
100
AcDbEntity
  8
0
100
AcDbLine
 10
1.851206205764606
 20
2.957682934554754
 30
0.0
 11
1.915104228198164
 21
3.097997713062679
 31
0.0
  0
LINE
  5
1FA
330
1F
100
AcDbEntity
  8
0
100
AcDbLine
 10
1.803106817605913
 20
2.878661853475843
 30
0.0
 11
1.851206205764606
 21
2.957682934554754
 31
0.0
  0
LINE
  5
1FB
330
1F
100
AcDbEntity
  8
0
100
AcDbLine
 10
1.764975108350689
 20
2.832899762446135
 30
0.0
 11
1.803106817605913
 21
2.878661853475843
 31
0.0
  0
LINE
  5
1FC
330
1F
100
AcDbEntity
  8
0
100
AcDbLine
 10
1.748019317309443
 20
2.799932077558969
 30
0.0
 11
1.764975108350689
 21
2.832899762446135
 31
0.0
  0
LINE
  5
1FD
330
1F
100
AcDbEntity
  8
0
100
AcDbLine
 10
1.749819013970046
 20
2.762903329422099
 30
0.0
 11
1.748019317309443
 21
2.799932077558969
 31
0.0
  0
LINE
  5
1FE
330
1F
100
AcDbEntity
  8
0
100
AcDbLine
 10
1.769891971065668
 20
2.731735341195537
 30
0.0
 11
1.749819013970046
 21
2.762903329422099
 31
0.0
  0
LINE
  5
1FF
330
1F
100
AcDbEntity
  8
0
100
AcDbLine
 10
1.945669059296401
 20
2.555958252964806
 30
0.0
 11
1.769891971065668
 21
2.731735341195537
 31
0.0
  0
LINE
  5
200
330
1F
100
AcDbEntity
  8
0
100
AcDbLine
 10
1.976837047522963
 20
2.535885295869183
 30
0.0
 11
1.945669059296401
 21
2.555958252964806
 31
0.0
  0
LINE
  5
201
330
1F
100
AcDbEntity
  8
0
100
AcDbLine
 10
2.013865795659832
 20
2.53408559920858
 30
0.0
 11
1.976837047522963
 21
2.535885295869183
 31
0.0
  0
LINE
  5
202
330
1F
100
AcDbEntity
  8
0
100
AcDbLine
 10
2.046833480546998
 20
2.551041390249826
 30
0.0
 11
2.013865795659832
 21
2.53408559920858
 31
0.0
  0
LINE
  5
203
330
1F
100
AcDbEntity
  8
0
100
AcDbLine
 10
2.092595571576706
 20
2.58917309950505
 30
0.0
 11
2.046833480546998
 21
2.551041390249826
 31
0.0
  0
LINE
  5
204
330
1F
100
AcDbEntity
  8
0
100
AcDbLine
 10
2.171616652655618
 20
2.637272487663743
 30
0.0
 11
2.092595571576706
 21
2.58917309950505
 31
0.0
  0
LINE
  5
205
330
1F
100
AcDbEntity
  8
0
100
AcDbLine
 10
2.311931431163542
 20
2.7011705100973
 30
0.0
 11
2.171616652655618
 21
2.637272487663743
 31
0.0
  0
LINE
  5
206
330
1F
100
AcDbEntity
  8
0
100
AcDbLine
 10
2.517733525677053
 20
2.766260141731615
 30
0.0
 11
2.311931431163542
 21
2.7011705100973
 31
0.0
  0
LINE
  5
207
330
1F
100
AcDbEntity
  8
0
100
AcDbLine
 10
2.790529380202981
 20
2.817252375365378
 30
0.0
 11
2.517733525677053
 21
2.766260141731615
 31
0.0
  0
LINE
  5
208
330
1F
100
AcDbEntity
  8
0
100
AcDbLine
 10
2.996312319272694
 20
2.835144279836064
 30
0.0
 11
2.790529380202981
 21
2.817252375365378
 31
0.0
  0
LINE
  5
209
330
1F
100
AcDbEntity
  8
0
100
AcDbLine
 10
3.133138805484665
 20
2.646818777972308
 30
0.0
 11
2.996312319272694
 21
2.835144279836064
 31
0.0
  0
LINE
  5
20A
330
1F
100
AcDbEntity
  8
0
100
AcDbLine
 10
3.052532167823923
 20
2.456636475370865
 30
0.0
 11
3.133138805484665
 21
2.646818777972308
 31
0.0
  0
LINE
  5
20B
330
1F
100
AcDbEntity
  8
0
100
AcDbLine
 10
2.91973711670254
 20
2.212949667079645
 30
0.0
 11
3.052532167823923
 21
2.456636475370865
 31
0.0
  0
LINE
  5
20C
330
1F
100
AcDbEntity
  8
0
100
AcDbLine
 10
2.79423685371084
 20
2.037334046357989
 30
0.0
 11
2.91973711670254
 21
2.212949667079645
 31
0.0
  0
LINE
  5
20D
330
1F
100
AcDbEntity
  8
0
100
AcDbLine
 10
2.690106571976127
 20
1.923632336764436
 30
0.0
 11
2.79423685371084
 21
2.037334046357989
 31
0.0
  0
LINE
  5
20E
330
1F
100
AcDbEntity
  8
0
100
AcDbLine
 10
2.619942478470728
 20
1.863342351039724
 30
0.0
 11
2.690106571976127
 21
1.923632336764436
 31
0.0
  0
LINE
  5
20F
330
1F
100
AcDbEntity
  8
0
100
AcDbLine
 10
2.569535804079761
 20
1.831603362351056
 30
0.0
 11
2.619942478470728
 21
1.863342351039724
 31
0.0
  0
LINE
  5
210
330
1F
100
AcDbEntity
  8
0
100
AcDbLine
 10
2.543222313625712
 20
1.805488858396767
 30
0.0
 11
2.569535804079761
 21
1.831603362351056
 31
0.0
  0
LINE
  5
211
330
1F
100
AcDbEntity
  8
0
100
AcDbLine
 10
2.533491414407413
 20
1.7697162893381
 30
0.0
 11
2.543222313625712
 21
1.805488858396767
 31
0.0
  0
LINE
  5
212
330
1F
100
AcDbEntity
  8
0
100
AcDbLine
 10
2.542950493012031
 20
1.73387088616551
 30
0.0
 11
2.533491414407413
 21
1.7697162893381
 31
0.0
  0
LINE
  5
213
330
1F
100
AcDbEntity
  8
0
100
AcDbLine
 10
2.655806330704216
 20
1.512378833503244
 30
0.0
 11
2.542950493012031
 21
1.73387088616551
 31
0.0
  0
LINE
  5
214
330
1F
100
AcDbEntity
  8
0
100
AcDbLine
 10
2.679245964136992
 20
1.483656878813653
 30
0.0
 11
2.655806330704216
 21
1.512378833503244
 31
0.0
  0
LINE
  5
215
330
1F
100
AcDbEntity
  8
0
100
AcDbLine
 10
2.713906259489968
 20
1.47050275312251
 30
0.0
 11
2.679245964136992
 21
1.483656878813653
 31
0.0
  0
LINE
  5
216
330
1F
100
AcDbEntity
  8
0
100
AcDbLine
 10
2.750500018613887
 20
1.476441093785893
 30
0.0
 11
2.713906259489968
 21
1.47050275312251
 31
0.0
  0
LINE
  5
217
330
1F
100
AcDbEntity
  8
0
100
AcDbLine
 10
2.805805699671412
 20
1.498565240524233
 30
0.0
 11
2.750500018613887
 21
1.476441093785893
 31
0.0
  0
LINE
  5
218
330
1F
100
AcDbEntity
  8
0
100
AcDbLine
 10
2.895822742116271
 20
1.519891620095104
 30
0.0
 11
2.805805699671412
 21
1.498565240524233
 31
0.0
  0
LINE
  5
219
330
1F
100
AcDbEntity
  8
0
100
AcDbLine
 10
3.049015601387665
 20
1.537302599588007
 30
0.0
 11
2.895822742116271
 21
1.519891620095104
 31
0.0
  0
LINE
  5
21A
330
1F
100
AcDbEntity
  8
0
100
AcDbLine
 10
3.264858826774538
 20
1.53561017321444
 30
0.0
 11
3.049015601387665
 21
1.537302599588007
 31
0.0
  0
LINE
  5
21B
330
1F
100
AcDbEntity
  8
0
100
AcDbLine
 10
3.540060568613699
 20
1.499808114248727
 30
0.0
 11
3.264858826774538
 21
1.53561017321444
 31
0.0
  0
LINE
  5
21C
330
1F
100
AcDbEntity
  8
0
100
AcDbLine
 10
3.741300676301492
 20
1.453233901259538
 30
0.0
 11
3.540060568613699
 21
1.499808114248727
 31
0.0
  0
LINE
  5
21D
330
1F
100
AcDbEntity
  8
0
100
AcDbLine
 10
3.813234617065064
 20
1.231843996007348
 30
0.0
 11
3.741300676301492
 21
1.453233901259538
 31
0.0
  0
LINE
  5
21E
330
1F
100
AcDbEntity
  8
0
100
AcDbLine
 10
3.67780358552797
 20
1.075878698730822
 30
0.0
 11
3.813234617065064
 21
1.231843996007348
 31
0.0
  0
LINE
  5
21F
330
1F
100
AcDbEntity
  8
0
100
AcDbLine
 10
3.476204621760252
 20
0.8851546993356871
 30
0.0
 11
3.67780358552797
 21
1.075878698730822
 31
0.0
  0
LINE
  5
220
330
1F
100
AcDbEntity
  8
0
100
AcDbLine
 10
3.302578567564545
 20
0.7569160329480982
 30
0.0
 11
3.476204621760252
 21
0.8851546993356871
 31
0.0
  0
LINE
  5
221
330
1F
100
AcDbEntity
  8
0
100
AcDbLine
 10
3.168409024023203
 20
0.680957307810329
 30
0.0
 11
3.302578567564545
 21
0.7569160329480982
 31
0.0
  0
LINE
  5
222
330
1F
100
AcDbEntity
  8
0
100
AcDbLine
 10
3.08304837550539
 20
0.6453000213075799
 30
0.0
 11
3.168409024023203
 21
0.680957307810329
 31
0.0
  0
LINE
  5
223
330
1F
100
AcDbEntity
  8
0
100
AcDbLine
 10
3.025300892472021
 20
0.6306909683113378
 30
0.0
 11
3.08304837550539
 21
0.6453000213075799
 31
0.0
  0
LINE
  5
224
330
1F
100
AcDbEntity
  8
0
100
AcDbLine
 10
2.992205450387682
 20
0.6139859148874198
 30
0.0
 11
3.025300892472021
 21
0.6306909683113378
 31
0.0
  0
LINE
  5
225
330
1F
100
AcDbEntity
  8
0
100
AcDbLine
 10
2.971896483505125
 20
0.5829711932085607
 30
0.0
 11
2.992205450387682
 21
0.6139859148874198
 31
0.0
  0
LINE
  5
226
330
1F
100
AcDbEntity
  8
0
100
AcDbLine
 10
2.969815763099644
 20
0.5459571729020868
 30
0.0
 11
2.971896483505125
 21
0.5829711932085607
 31
0.0
  0
LINE
  5
227
330
1F
100
AcDbEntity
  8
0
100
AcDbLine
 10
3.008703234547114
 20
0.3004313411487433
 30
0.0
 11
2.969815763099644
 21
0.5459571729020868
 31
0.0
  0
LINE
  5
228
330
1F
100
AcDbEntity
  8
0
100
AcDbLine
 10
3.022120078552175
 20
0.2658718939078263
 30
0.0
 11
3.008703234547114
 21
0.3004313411487433
 31
0.0
  0
LINE
  5
229
330
1F
100
AcDbEntity
  8
0
100
AcDbLine
 10
3.051019129919629
 20
0.242650956658975
 30
0.0
 11
3.022120078552175
 21
0.2658718939078263
 31
0.0
  0
LINE
  5
22A
330
1F
100
AcDbEntity
  8
0
100
AcDbLine
 10
3.087656911173541
 20
0.2369905607855116
 30
0.0
 11
3.051019129919629
 21
0.242650956658975
 31
0.0
  0
LINE
  5
22B
330
1F
100
AcDbEntity
  8
0
100
AcDbLine
 10
3.147092476859633
 20
0.2409414793762246
 30
0.0
 11
3.087656911173541
 21
0.2369905607855116
 31
0.0
  0
LINE
  5
22C
330
1F
100
AcDbEntity
  8
0
100
AcDbLine
 10
3.239293985370326
 20
0.2334072757372523
 30
0.0
 11
3.147092476859633
 21
0.2409414793762246
 31
0.0
  0
LINE
  5
22D
330
1F
100
AcDbEntity
  8
0
100
AcDbLine
 10
3.390369340982291
 20
0.2026269043073088
 30
0.0
 11
3.239293985370326
 21
0.2334072757372523
 31
0.0
  0
LINE
  5
22E
330
1F
100
AcDbEntity
  8
0
100
AcDbLine
 10
3.595125458473479
 20
0.1343180864111313
 30
0.0
 11
3.390369340982291
 21
0.2026269043073088
 31
0.0
  0
LINE
  5
22F
330
1F
100
AcDbEntity
  8
0
100
AcDbLine
 10
3.845794423691371
 20
0.0152262898251196
 30
0.0
 11
3.595125458473479
 21
0.1343180864111313
 31
0.0
  0
LINE
  5
230
330
1F
100
AcDbEntity
  8
0
100
AcDbLine
 10
4.022792916134486
 20
-0.0912550321549396
 30
0.0
 11
3.845794423691371
 21
0.0152262898251196
 31
0.0
  0
LINE
  5
231
330
1F
100
AcDbEntity
  8
0
100
AcDbLine
 10
4.022792916134486
 20
-0.3240381543553062
 30
0.0
 11
4.022792916134486
 21
-0.0912550321549396
 31
0.0
  0
LINE
  5
232
330
1F
100
AcDbEntity
  8
0
100
AcDbLine
 10
3.845794423691371
 20
-0.430519476335365
 30
0.0
 11
4.022792916134486
 21
-0.3240381543553062
 31
0.0
  0
LINE
  5
233
330
1F
100
AcDbEntity
  8
0
100
AcDbLine
 10
3.595125458473479
 20
-0.549611272921377
 30
0.0
 11
3.845794423691371
 21
-0.430519476335365
 31
0.0
  0
LINE
  5
234
330
1F
100
AcDbEntity
  8
0
100
AcDbLine
 10
3.390369340982291
 20
-0.6179200908175546
 30
0.0
 11
3.595125458473479
 21
-0.549611272921377
 31
0.0
  0
LINE
  5
235
330
1F
100
AcDbEntity
  8
0
100
AcDbLine
 10
3.239293985370324
 20
-0.6487004622474981
 30
0.0
 11
3.390369340982291
 21
-0.6179200908175546
 31
0.0
  0
LINE
  5
236
330
1F
100
AcDbEntity
  8
0
100
AcDbLine
 10
3.147092476859633
 20
-0.6562346658864704
 30
0.0
 11
3.239293985370324
 21
-0.6487004622474981
 31
0.0
  0
LINE
  5
237
330
1F
100
AcDbEntity
  8
0
100
AcDbLine
 10
3.087656911173541
 20
-0.6522837472957577
 30
0.0
 11
3.147092476859633
 21
-0.6562346658864704
 31
0.0
  0
LINE
  5
238
330
1F
100
AcDbEntity
  8
0
100
AcDbLine
 10
3.051019129919629
 20
-0.6579441431692206
 30
0.0
 11
3.087656911173541
 21
-0.6522837472957577
 31
0.0
  0
LINE
  5
239
330
1F
100
AcDbEntity
  8
0
100
AcDbLine
 10
3.022120078552175
 20
-0.6811650804180723
 30
0.0
 11
3.051019129919629
 21
-0.6579441431692206
 31
0.0
  0
LINE
  5
23A
330
1F
100
AcDbEntity
  8
0
100
AcDbLine
 10
3.008703234547114
 20
-0.7157245276589891
 30
0.0
 11
3.022120078552175
 21
-0.6811650804180723
 31
0.0
  0
LINE
  5
23B
330
1F
100
AcDbEntity
  8
0
100
AcDbLine
 10
2.969815763099644
 20
-0.9612503594123328
 30
0.0
 11
3.008703234547114
 21
-0.7157245276589891
 31
0.0
  0
LINE
  5
23C
330
1F
100
AcDbEntity
  8
0
100
AcDbLine
 10
2.971896483505125
 20
-0.9982643797188065
 30
0.0
 11
2.969815763099644
 21
-0.9612503594123328
 31
0.0
  0
LINE
  5
23D
330
1F
100
AcDbEntity
  8
0
100
AcDbLine
 10
2.992205450387682
 20
-1.029279101397665
 30
0.0
 11
2.971896483505125
 21
-0.9982643797188065
 31
0.0
  0
LINE
  5
23E
330
1F
100
AcDbEntity
  8
0
100
AcDbLine
 10
3.025300892472021
 20
-1.045984154821584
 30
0.0
 11
2.992205450387682
 21
-1.029279101397665
 31
0.0
  0
LINE
  5
23F
330
1F
100
AcDbEntity
  8
0
100
AcDbLine
 10
3.083048375505391
 20
-1.060593207817826
 30
0.0
 11
3.025300892472021
 21
-1.045984154821584
 31
0.0
  0
LINE
  5
240
330
1F
100
AcDbEntity
  8
0
100
AcDbLine
 10
3.168409024023203
 20
-1.096250494320575
 30
0.0
 11
3.083048375505391
 21
-1.060593207817826
 31
0.0
  0
LINE
  5
241
330
1F
100
AcDbEntity
  8
0
100
AcDbLine
 10
3.302578567564545
 20
-1.172209219458344
 30
0.0
 11
3.168409024023203
 21
-1.096250494320575
 31
0.0
  0
LINE
  5
242
330
1F
100
AcDbEntity
  8
0
100
AcDbLine
 10
3.476204621760254
 20
-1.300447885845933
 30
0.0
 11
3.302578567564545
 21
-1.172209219458344
 31
0.0
  0
LINE
  5
243
330
1F
100
AcDbEntity
  8
0
100
AcDbLine
 10
3.67780358552797
 20
-1.491171885241068
 30
0.0
 11
3.476204621760254
 21
-1.300447885845933
 31
0.0
  0
LINE
  5
244
330
1F
100
AcDbEntity
  8
0
100
AcDbLine
 10
11.42129919364267
 20
0.0083831155536358
 30
0.0
 11
11.7213860486101
 21
-0.0469024550832383
 31
0.0
  0
LINE
  5
245
330
1F
100
AcDbEntity
  8
0
100
AcDbLine
 10
11.7213860486101
 20
0.8667998809878406
 30
0.0
 11
11.42129919364267
 21
0.8115143103509667
 31
0.0
  0
LINE
  5
246
330
1F
100
AcDbEntity
  8
0
100
AcDbLine
 10
11.2116894813614
 20
1.219335288775703
 30
0.0
 11
11.20385820243173
 21
1.262502808257527
 31
0.0
  0
LINE
  5
247
330
1F
100
AcDbEntity
  8
0
100
AcDbLine
 10
11.7213860486101
 20
-0.0469024550832383
 30
0.0
 11
11.77612400092209
 21
-0.0467385927039826
 31
0.0
  0
LINE
  5
248
330
1F
100
AcDbEntity
  8
0
100
AcDbLine
 10
11.89845371336694
 20
-1.154041181607444
 30
0.0
 11
11.81012106982045
 21
-0.9738223846110585
 31
0.0
  0
LINE
  5
249
330
1F
100
AcDbEntity
  8
0
100
AcDbLine
 10
11.86666988315188
 20
-0.0355954024037253
 30
0.0
 11
11.99062343119349
 21
-0.0048069108247527
 31
0.0
  0
LINE
  5
24A
330
1F
100
AcDbEntity
  8
0
100
AcDbLine
 10
11.86666988315188
 20
0.8554928283083275
 30
0.0
 11
11.77612400092209
 21
0.8666360186085851
 31
0.0
  0
LINE
  5
24B
330
1F
100
AcDbEntity
  8
0
100
AcDbLine
 10
11.37754955879732
 20
0.005106971663859
 30
0.0
 11
11.42129919364267
 21
0.0083831155536358
 31
0.0
  0
LINE
  5
24C
330
1F
100
AcDbEntity
  8
0
100
AcDbLine
 10
11.98321462310165
 20
-1.403771031699366
 30
0.0
 11
11.97617606226599
 21
-1.378139550192082
 31
0.0
  0
LINE
  5
24D
330
1F
100
AcDbEntity
  8
0
100
AcDbLine
 10
11.25212840470022
 20
-0.5122710365454995
 30
0.0
 11
11.21865987567543
 21
-0.4839051903073758
 31
0.0
  0
LINE
  5
24E
330
1F
100
AcDbEntity
  8
0
100
AcDbLine
 10
12.14401781803016
 20
0.766091285434309
 30
0.0
 11
11.99062343119349
 21
0.8247043367293551
 31
0.0
  0
LINE
  5
24F
330
1F
100
AcDbEntity
  8
0
100
AcDbLine
 10
11.77612400092209
 20
0.8666360186085851
 30
0.0
 11
11.7213860486101
 21
0.8667998809878406
 31
0.0
  0
LINE
  5
250
330
1F
100
AcDbEntity
  8
0
100
AcDbLine
 10
11.52739981324233
 20
-0.6439306981132393
 30
0.0
 11
11.25212840470022
 21
-0.5122710365454995
 31
0.0
  0
LINE
  5
251
330
1F
100
AcDbEntity
  8
0
100
AcDbLine
 10
12.32141037887769
 20
0.1476855847735452
 30
0.0
 11
12.51601079609662
 21
0.2833009229138245
 31
0.0
  0
LINE
  5
252
330
1F
100
AcDbEntity
  8
0
100
AcDbLine
 10
11.34129933555985
 20
0.8395024954984174
 30
0.0
 11
11.32226174197217
 21
0.87902886262567
 31
0.0
  0
LINE
  5
253
330
1F
100
AcDbEntity
  8
0
100
AcDbLine
 10
11.21865987567543
 20
1.303802616211978
 30
0.0
 11
11.25212840470022
 21
1.332168462450102
 31
0.0
  0
LINE
  5
254
330
1F
100
AcDbEntity
  8
0
100
AcDbLine
 10
11.25212840470022
 20
1.332168462450102
 30
0.0
 11
11.52739981324233
 21
1.463828124017841
 31
0.0
  0
LINE
  5
255
330
1F
100
AcDbEntity
  8
0
100
AcDbLine
 10
11.52739981324233
 20
1.463828124017841
 30
0.0
 11
11.57158743101008
 21
1.496134852577075
 31
0.0
  0
LINE
  5
256
330
1F
100
AcDbEntity
  8
0
100
AcDbLine
 10
11.77612400092209
 20
-0.0467385927039826
 30
0.0
 11
11.86666988315188
 21
-0.0355954024037253
 31
0.0
  0
LINE
  5
257
330
1F
100
AcDbEntity
  8
0
100
AcDbLine
 10
11.57158743101008
 20
1.496134852577075
 30
0.0
 11
11.63829078558267
 21
1.558371417132017
 31
0.0
  0
LINE
  5
258
330
1F
100
AcDbEntity
  8
0
100
AcDbLine
 10
11.63829078558267
 20
1.558371417132017
 30
0.0
 11
11.72047429117096
 21
1.656137897558762
 31
0.0
  0
LINE
  5
259
330
1F
100
AcDbEntity
  8
0
100
AcDbLine
 10
11.32226174197217
 20
-0.0591314367210676
 30
0.0
 11
11.34129933555985
 21
-0.0196050695938149
 31
0.0
  0
LINE
  5
25A
330
1F
100
AcDbEntity
  8
0
100
AcDbLine
 10
11.21865987567543
 20
-0.4839051903073758
 30
0.0
 11
11.20385820243173
 21
-0.4426053823529244
 31
0.0
  0
LINE
  5
25B
330
1F
100
AcDbEntity
  8
0
100
AcDbLine
 10
11.97617606226599
 20
-1.378139550192082
 30
0.0
 11
11.89845371336694
 21
-1.154041181607444
 31
0.0
  0
LINE
  5
25C
330
1F
100
AcDbEntity
  8
0
100
AcDbLine
 10
11.81012106982045
 20
1.793719810515662
 30
0.0
 11
11.89845371336694
 21
1.973938607512046
 31
0.0
  0
LINE
  5
25D
330
1F
100
AcDbEntity
  8
0
100
AcDbLine
 10
11.89845371336694
 20
1.973938607512046
 30
0.0
 11
11.97617606226599
 21
2.198036976096684
 31
0.0
  0
LINE
  5
25E
330
1F
100
AcDbEntity
  8
0
100
AcDbLine
 10
11.81012106982045
 20
-0.9738223846110585
 30
0.0
 11
11.72047429117096
 21
-0.8362404716541593
 31
0.0
  0
LINE
  5
25F
330
1F
100
AcDbEntity
  8
0
100
AcDbLine
 10
11.97617606226599
 20
2.198036976096684
 30
0.0
 11
11.98321462310165
 21
2.223668457603969
 31
0.0
  0
LINE
  5
260
330
1F
100
AcDbEntity
  8
0
100
AcDbLine
 10
11.42129919364267
 20
0.8115143103509667
 30
0.0
 11
11.37754955879732
 21
0.8147904542407433
 31
0.0
  0
LINE
  5
261
330
1F
100
AcDbEntity
  8
0
100
AcDbLine
 10
11.72047429117096
 20
1.656137897558762
 30
0.0
 11
11.81012106982045
 21
1.793719810515662
 31
0.0
  0
LINE
  5
262
330
1F
100
AcDbEntity
  8
0
100
AcDbLine
 10
11.98321462310165
 20
2.223668457603969
 30
0.0
 11
11.85384467824985
 21
2.401730910750333
 31
0.0
  0
LINE
  5
263
330
1F
100
AcDbEntity
  8
0
100
AcDbLine
 10
11.85384467824985
 20
2.401730910750333
 30
0.0
 11
11.82729265582589
 21
2.402957404979
 31
0.0
  0
LINE
  5
264
330
1F
100
AcDbEntity
  8
0
100
AcDbLine
 10
11.20385820243173
 20
1.262502808257527
 30
0.0
 11
11.21865987567543
 21
1.303802616211978
 31
0.0
  0
LINE
  5
265
330
1F
100
AcDbEntity
  8
0
100
AcDbLine
 10
11.72047429117096
 20
-0.8362404716541593
 30
0.0
 11
11.63829078558267
 21
-0.7384739912274146
 31
0.0
  0
LINE
  5
266
330
1F
100
AcDbEntity
  8
0
100
AcDbLine
 10
11.20385820243173
 20
-0.4426053823529244
 30
0.0
 11
11.2116894813614
 21
-0.3994378628711008
 31
0.0
  0
LINE
  5
267
330
1F
100
AcDbEntity
  8
0
100
AcDbLine
 10
11.82729265582589
 20
2.402957404979
 30
0.0
 11
11.59014491543981
 21
2.398289262901144
 31
0.0
  0
LINE
  5
268
330
1F
100
AcDbEntity
  8
0
100
AcDbLine
 10
12.51601079609662
 20
0.2833009229138245
 30
0.0
 11
12.536770918253
 21
0.2999000647876623
 31
0.0
  0
LINE
  5
269
330
1F
100
AcDbEntity
  8
0
100
AcDbLine
 10
11.59014491543981
 20
2.398289262901144
 30
0.0
 11
11.3914503661836
 21
2.369970597632372
 31
0.0
  0
LINE
  5
26A
330
1F
100
AcDbEntity
  8
0
100
AcDbLine
 10
11.3914503661836
 20
2.369970597632372
 30
0.0
 11
11.23289981324792
 21
2.327226593855198
 31
0.0
  0
LINE
  5
26B
330
1F
100
AcDbEntity
  8
0
100
AcDbLine
 10
11.23289981324792
 20
2.327226593855198
 30
0.0
 11
11.11452226507873
 21
2.279276939265571
 31
0.0
  0
LINE
  5
26C
330
1F
100
AcDbEntity
  8
0
100
AcDbLine
 10
11.11452226507873
 20
2.279276939265571
 30
0.0
 11
11.03471930466219
 21
2.235070435359554
 31
0.0
  0
LINE
  5
26D
330
1F
100
AcDbEntity
  8
0
100
AcDbLine
 10
11.03471930466219
 20
2.235070435359554
 30
0.0
 11
10.99033905511457
 21
2.203028841699434
 31
0.0
  0
LINE
  5
26E
330
1F
100
AcDbEntity
  8
0
100
AcDbLine
 10
11.99062343119349
 20
-0.0048069108247527
 30
0.0
 11
12.14401781803016
 21
0.0538061404702934
 31
0.0
  0
LINE
  5
26F
330
1F
100
AcDbEntity
  8
0
100
AcDbLine
 10
12.536770918253
 20
0.2999000647876623
 30
0.0
 11
12.536770918253
 21
0.51999736111694
 31
0.0
  0
LINE
  5
270
330
1F
100
AcDbEntity
  8
0
100
AcDbLine
 10
11.2116894813614
 20
-0.3994378628711008
 30
0.0
 11
11.32226174197217
 21
-0.0591314367210676
 31
0.0
  0
LINE
  5
271
330
1F
100
AcDbEntity
  8
0
100
AcDbLine
 10
11.34129933555985
 20
-0.0196050695938149
 30
0.0
 11
11.37754955879732
 21
0.005106971663859
 31
0.0
  0
LINE
  5
272
330
1F
100
AcDbEntity
  8
0
100
AcDbLine
 10
12.32141037887769
 20
0.6722118411310574
 30
0.0
 11
12.14401781803016
 21
0.766091285434309
 31
0.0
  0
LINE
  5
273
330
1F
100
AcDbEntity
  8
0
100
AcDbLine
 10
11.37754955879732
 20
0.8147904542407433
 30
0.0
 11
11.34129933555985
 21
0.8395024954984174
 31
0.0
  0
LINE
  5
274
330
1F
100
AcDbEntity
  8
0
100
AcDbLine
 10
11.32226174197217
 20
0.87902886262567
 30
0.0
 11
11.2116894813614
 21
1.219335288775703
 31
0.0
  0
LINE
  5
275
330
1F
100
AcDbEntity
  8
0
100
AcDbLine
 10
12.536770918253
 20
0.51999736111694
 30
0.0
 11
12.51601079609662
 21
0.5365965029907778
 31
0.0
  0
LINE
  5
276
330
1F
100
AcDbEntity
  8
0
100
AcDbLine
 10
12.51601079609662
 20
0.5365965029907778
 30
0.0
 11
12.32141037887769
 21
0.6722118411310574
 31
0.0
  0
LINE
  5
277
330
1F
100
AcDbEntity
  8
0
100
AcDbLine
 10
11.99062343119349
 20
0.8247043367293551
 30
0.0
 11
11.86666988315188
 21
0.8554928283083275
 31
0.0
  0
LINE
  5
278
330
1F
100
AcDbEntity
  8
0
100
AcDbLine
 10
12.14401781803016
 20
0.0538061404702934
 30
0.0
 11
12.32141037887769
 21
0.1476855847735452
 31
0.0
  0
LINE
  5
279
330
1F
100
AcDbEntity
  8
0
100
AcDbLine
 10
11.57158743101008
 20
-0.6762374266724721
 30
0.0
 11
11.52739981324233
 21
-0.6439306981132393
 31
0.0
  0
LINE
  5
27A
330
1F
100
AcDbEntity
  8
0
100
AcDbLine
 10
11.63829078558267
 20
-0.7384739912274146
 30
0.0
 11
11.57158743101008
 21
-0.6762374266724721
 31
0.0
  0
LINE
  5
27B
330
1F
100
AcDbEntity
  8
0
100
AcDbLine
 10
9.042528706969984
 20
2.51128240687261
 30
0.0
 11
9.025893528310378
 21
2.551878398039853
 31
0.0
  0
LINE
  5
27C
330
1F
100
AcDbEntity
  8
0
100
AcDbLine
 10
8.082617204123279
 20
2.713679797123174
 30
0.0
 11
8.099999616755579
 21
2.624122110630508
 31
0.0
  0
LINE
  5
27D
330
1F
100
AcDbEntity
  8
0
100
AcDbLine
 10
8.260173341889882
 20
2.21896399895019
 30
0.0
 11
8.22846447281863
 21
2.188643852345828
 31
0.0
  0
LINE
  5
27E
330
1F
100
AcDbEntity
  8
0
100
AcDbLine
 10
7.009090314005991
 20
2.398289262901144
 30
0.0
 11
6.771942573619911
 21
2.402957404979
 31
0.0
  0
LINE
  5
27F
330
1F
100
AcDbEntity
  8
0
100
AcDbLine
 10
7.81917549670349
 20
1.981915247753799
 30
0.0
 11
7.608896174331234
 21
2.203028841699434
 31
0.0
  0
LINE
  5
280
330
1F
100
AcDbEntity
  8
0
100
AcDbLine
 10
6.771942573619911
 20
2.402957404979
 30
0.0
 11
6.745390551195949
 21
2.401730910750334
 31
0.0
  0
LINE
  5
281
330
1F
100
AcDbEntity
  8
0
100
AcDbLine
 10
10.17308856236861
 20
3.508056726486994
 30
0.0
 11
9.983975875287623
 21
3.36488817580043
 31
0.0
  0
LINE
  5
282
330
1F
100
AcDbEntity
  8
0
100
AcDbLine
 10
9.669142756909906
 20
2.989041203900702
 30
0.0
 11
9.630564736782853
 21
2.906370387756703
 31
0.0
  0
LINE
  5
283
330
1F
100
AcDbEntity
  8
0
100
AcDbLine
 10
9.630564736782853
 20
2.906370387756703
 30
0.0
 11
9.613493936897596
 21
2.85436213778166
 31
0.0
  0
LINE
  5
284
330
1F
100
AcDbEntity
  8
0
100
AcDbLine
 10
9.573341701135424
 20
2.551878398039853
 30
0.0
 11
9.556706522475821
 21
2.51128240687261
 31
0.0
  0
LINE
  5
285
330
1F
100
AcDbEntity
  8
0
100
AcDbLine
 10
9.478527290604045
 20
2.478551328291858
 30
0.0
 11
9.120707938841756
 21
2.478551328291859
 31
0.0
  0
LINE
  5
286
330
1F
100
AcDbEntity
  8
0
100
AcDbLine
 10
10.78005973274231
 20
1.981915247753799
 30
0.0
 11
10.74273986559193
 21
1.958850313681369
 31
0.0
  0
LINE
  5
287
330
1F
100
AcDbEntity
  8
0
100
AcDbLine
 10
10.74273986559193
 20
1.958850313681369
 30
0.0
 11
10.69888744553762
 21
1.957535428413223
 31
0.0
  0
LINE
  5
288
330
1F
100
AcDbEntity
  8
0
100
AcDbLine
 10
9.025893528310378
 20
2.551878398039853
 30
0.0
 11
8.985741292548205
 21
2.85436213778166
 31
0.0
  0
LINE
  5
289
330
1F
100
AcDbEntity
  8
0
100
AcDbLine
 10
8.968670492662948
 20
2.906370387756703
 30
0.0
 11
8.930092472535895
 21
2.989041203900702
 31
0.0
  0
LINE
  5
28A
330
1F
100
AcDbEntity
  8
0
100
AcDbLine
 10
8.930092472535895
 20
2.989041203900702
 30
0.0
 11
8.862507124134886
 21
3.097413866354508
 31
0.0
  0
LINE
  5
28B
330
1F
100
AcDbEntity
  8
0
100
AcDbLine
 10
8.759361327386538
 20
3.225188168576276
 30
0.0
 11
8.615259354158182
 21
3.36488817580043
 31
0.0
  0
LINE
  5
28C
330
1F
100
AcDbEntity
  8
0
100
AcDbLine
 10
8.081937898808272
 20
3.005079953941572
 30
0.0
 11
8.07359504680843
 21
2.841080793835125
 31
0.0
  0
LINE
  5
28D
330
1F
100
AcDbEntity
  8
0
100
AcDbLine
 10
8.099999616755579
 20
2.624122110630508
 30
0.0
 11
8.116758731873702
 21
2.572012588135607
 31
0.0
  0
LINE
  5
28E
330
1F
100
AcDbEntity
  8
0
100
AcDbLine
 10
9.077233189869313
 20
2.484442836559771
 30
0.0
 11
9.042528706969984
 21
2.51128240687261
 31
0.0
  0
LINE
  5
28F
330
1F
100
AcDbEntity
  8
0
100
AcDbLine
 10
8.262070372058464
 20
2.303697210134822
 30
0.0
 11
8.272473954728682
 21
2.261076450691661
 31
0.0
  0
LINE
  5
290
330
1F
100
AcDbEntity
  8
0
100
AcDbLine
 10
10.41398697434956
 20
3.429784087643156
 30
0.0
 11
10.40461548285716
 21
3.454657554030118
 31
0.0
  0
LINE
  5
291
330
1F
100
AcDbEntity
  8
0
100
AcDbLine
 10
8.116758731873702
 20
2.572012588135607
 30
0.0
 11
8.262070372058464
 21
2.303697210134822
 31
0.0
  0
LINE
  5
292
330
1F
100
AcDbEntity
  8
0
100
AcDbLine
 10
9.839873902059265
 20
3.225188168576276
 30
0.0
 11
9.736728105310917
 21
3.097413866354508
 31
0.0
  0
LINE
  5
293
330
1F
100
AcDbEntity
  8
0
100
AcDbLine
 10
10.51729733063753
 20
3.005079953941572
 30
0.0
 11
10.48282998936434
 21
3.202800648590089
 31
0.0
  0
LINE
  5
294
330
1F
100
AcDbEntity
  8
0
100
AcDbLine
 10
10.49923561269022
 20
2.624122110630507
 30
0.0
 11
10.51661802532253
 21
2.713679797123174
 31
0.0
  0
LINE
  5
295
330
1F
100
AcDbEntity
  8
0
100
AcDbLine
 10
7.93898253632671
 20
1.978322914395102
 30
0.0
 11
7.90034778390818
 21
1.957535428413224
 31
0.0
  0
LINE
  5
296
330
1F
100
AcDbEntity
  8
0
100
AcDbLine
 10
9.736728105310917
 20
3.097413866354508
 30
0.0
 11
9.669142756909906
 21
2.989041203900702
 31
0.0
  0
LINE
  5
297
330
1F
100
AcDbEntity
  8
0
100
AcDbLine
 10
10.69888744553762
 20
1.957535428413223
 30
0.0
 11
10.66025269311909
 21
1.978322914395102
 31
0.0
  0
LINE
  5
298
330
1F
100
AcDbEntity
  8
0
100
AcDbLine
 10
8.426146667077193
 20
3.508056726486994
 30
0.0
 11
8.403944714481552
 21
3.522671359011844
 31
0.0
  0
LINE
  5
299
330
1F
100
AcDbEntity
  8
0
100
AcDbLine
 10
10.4824764975721
 20
2.572012588135607
 30
0.0
 11
10.49923561269022
 21
2.624122110630507
 31
0.0
  0
LINE
  5
29A
330
1F
100
AcDbEntity
  8
0
100
AcDbLine
 10
7.90034778390818
 20
1.957535428413224
 30
0.0
 11
7.856495363853873
 21
1.95885031368137
 31
0.0
  0
LINE
  5
29B
330
1F
100
AcDbEntity
  8
0
100
AcDbLine
 10
8.615259354158182
 20
3.36488817580043
 30
0.0
 11
8.426146667077193
 21
3.508056726486994
 31
0.0
  0
LINE
  5
29C
330
1F
100
AcDbEntity
  8
0
100
AcDbLine
 10
9.120707938841756
 20
2.478551328291859
 30
0.0
 11
9.077233189869313
 21
2.484442836559771
 31
0.0
  0
LINE
  5
29D
330
1F
100
AcDbEntity
  8
0
100
AcDbLine
 10
8.116405240081466
 20
3.202800648590089
 30
0.0
 11
8.081937898808272
 21
3.005079953941572
 31
0.0
  0
LINE
  5
29E
330
1F
100
AcDbEntity
  8
0
100
AcDbLine
 10
10.99033905511457
 20
2.203028841699434
 30
0.0
 11
10.78005973274231
 21
1.981915247753799
 31
0.0
  0
LINE
  5
29F
330
1F
100
AcDbEntity
  8
0
100
AcDbLine
 10
10.33716485738734
 20
2.303697210134821
 30
0.0
 11
10.4824764975721
 21
2.572012588135607
 31
0.0
  0
LINE
  5
2A0
330
1F
100
AcDbEntity
  8
0
100
AcDbLine
 10
10.52564018263737
 20
2.841080793835125
 30
0.0
 11
10.51729733063753
 21
3.005079953941572
 31
0.0
  0
LINE
  5
2A1
330
1F
100
AcDbEntity
  8
0
100
AcDbLine
 10
8.403944714481552
 20
3.522671359011844
 30
0.0
 11
8.194619746588648
 21
3.454657554030118
 31
0.0
  0
LINE
  5
2A2
330
1F
100
AcDbEntity
  8
0
100
AcDbLine
 10
8.185248255096246
 20
3.429784087643156
 30
0.0
 11
8.116405240081466
 21
3.202800648590089
 31
0.0
  0
LINE
  5
2A3
330
1F
100
AcDbEntity
  8
0
100
AcDbLine
 10
8.07359504680843
 20
2.841080793835125
 30
0.0
 11
8.082617204123279
 21
2.713679797123174
 31
0.0
  0
LINE
  5
2A4
330
1F
100
AcDbEntity
  8
0
100
AcDbLine
 10
10.40461548285716
 20
3.454657554030118
 30
0.0
 11
10.19529051496425
 21
3.522671359011844
 31
0.0
  0
LINE
  5
2A5
330
1F
100
AcDbEntity
  8
0
100
AcDbLine
 10
8.272473954728682
 20
2.261076450691661
 30
0.0
 11
8.260173341889882
 21
2.21896399895019
 31
0.0
  0
LINE
  5
2A6
330
1F
100
AcDbEntity
  8
0
100
AcDbLine
 10
10.37077075662717
 20
2.188643852345828
 30
0.0
 11
10.33906188755592
 21
2.218963998950189
 31
0.0
  0
LINE
  5
2A7
330
1F
100
AcDbEntity
  8
0
100
AcDbLine
 10
8.22846447281863
 20
2.188643852345828
 30
0.0
 11
7.93898253632671
 21
1.978322914395102
 31
0.0
  0
LINE
  5
2A8
330
1F
100
AcDbEntity
  8
0
100
AcDbLine
 10
8.985741292548205
 20
2.85436213778166
 30
0.0
 11
8.968670492662948
 21
2.906370387756703
 31
0.0
  0
LINE
  5
2A9
330
1F
100
AcDbEntity
  8
0
100
AcDbLine
 10
7.856495363853873
 20
1.95885031368137
 30
0.0
 11
7.81917549670349
 21
1.981915247753799
 31
0.0
  0
LINE
  5
2AA
330
1F
100
AcDbEntity
  8
0
100
AcDbLine
 10
7.608896174331234
 20
2.203028841699434
 30
0.0
 11
7.564515924783617
 21
2.235070435359554
 31
0.0
  0
LINE
  5
2AB
330
1F
100
AcDbEntity
  8
0
100
AcDbLine
 10
7.564515924783617
 20
2.235070435359554
 30
0.0
 11
7.484712964367066
 21
2.279276939265572
 31
0.0
  0
LINE
  5
2AC
330
1F
100
AcDbEntity
  8
0
100
AcDbLine
 10
7.484712964367066
 20
2.279276939265572
 30
0.0
 11
7.36633541619788
 21
2.327226593855199
 31
0.0
  0
LINE
  5
2AD
330
1F
100
AcDbEntity
  8
0
100
AcDbLine
 10
10.33906188755592
 20
2.218963998950189
 30
0.0
 11
10.32676127471712
 21
2.261076450691661
 31
0.0
  0
LINE
  5
2AE
330
1F
100
AcDbEntity
  8
0
100
AcDbLine
 10
10.48282998936434
 20
3.202800648590089
 30
0.0
 11
10.41398697434956
 21
3.429784087643156
 31
0.0
  0
LINE
  5
2AF
330
1F
100
AcDbEntity
  8
0
100
AcDbLine
 10
9.522002039576488
 20
2.48444283655977
 30
0.0
 11
9.478527290604045
 21
2.478551328291858
 31
0.0
  0
LINE
  5
2B0
330
1F
100
AcDbEntity
  8
0
100
AcDbLine
 10
7.36633541619788
 20
2.327226593855199
 30
0.0
 11
7.207784863262205
 21
2.369970597632373
 31
0.0
  0
LINE
  5
2B1
330
1F
100
AcDbEntity
  8
0
100
AcDbLine
 10
10.66025269311909
 20
1.978322914395102
 30
0.0
 11
10.37077075662717
 21
2.188643852345828
 31
0.0
  0
LINE
  5
2B2
330
1F
100
AcDbEntity
  8
0
100
AcDbLine
 10
10.51661802532253
 20
2.713679797123174
 30
0.0
 11
10.52564018263737
 21
2.841080793835125
 31
0.0
  0
LINE
  5
2B3
330
1F
100
AcDbEntity
  8
0
100
AcDbLine
 10
7.207784863262205
 20
2.369970597632373
 30
0.0
 11
7.009090314005991
 21
2.398289262901144
 31
0.0
  0
LINE
  5
2B4
330
1F
100
AcDbEntity
  8
0
100
AcDbLine
 10
9.613493936897596
 20
2.85436213778166
 30
0.0
 11
9.573341701135424
 21
2.551878398039853
 31
0.0
  0
LINE
  5
2B5
330
1F
100
AcDbEntity
  8
0
100
AcDbLine
 10
9.556706522475821
 20
2.51128240687261
 30
0.0
 11
9.522002039576488
 21
2.48444283655977
 31
0.0
  0
LINE
  5
2B6
330
1F
100
AcDbEntity
  8
0
100
AcDbLine
 10
8.862507124134886
 20
3.097413866354508
 30
0.0
 11
8.759361327386538
 21
3.225188168576276
 31
0.0
  0
LINE
  5
2B7
330
1F
100
AcDbEntity
  8
0
100
AcDbLine
 10
10.32676127471712
 20
2.261076450691661
 30
0.0
 11
10.33716485738734
 21
2.303697210134821
 31
0.0
  0
LINE
  5
2B8
330
1F
100
AcDbEntity
  8
0
100
AcDbLine
 10
8.194619746588648
 20
3.454657554030118
 30
0.0
 11
8.185248255096246
 21
3.429784087643156
 31
0.0
  0
LINE
  5
2B9
330
1F
100
AcDbEntity
  8
0
100
AcDbLine
 10
10.19529051496425
 20
3.522671359011844
 30
0.0
 11
10.17308856236861
 21
3.508056726486994
 31
0.0
  0
LINE
  5
2BA
330
1F
100
AcDbEntity
  8
0
100
AcDbLine
 10
9.983975875287623
 20
3.36488817580043
 30
0.0
 11
9.839873902059265
 21
3.225188168576276
 31
0.0
  0
LINE
  5
2BB
330
1F
100
AcDbEntity
  8
0
100
AcDbLine
 10
7.347106824745586
 20
1.332168462450102
 30
0.0
 11
7.380575353770372
 21
1.303802616211978
 31
0.0
  0
LINE
  5
2BC
330
1F
100
AcDbEntity
  8
0
100
AcDbLine
 10
6.455217411415648
 20
0.7660912854343092
 30
0.0
 11
6.277824850568109
 21
0.6722118411310575
 31
0.0
  0
LINE
  5
2BD
330
1F
100
AcDbEntity
  8
0
100
AcDbLine
 10
6.277824850568109
 20
0.1476855847735452
 30
0.0
 11
6.455217411415648
 21
0.0538061404702935
 31
0.0
  0
LINE
  5
2BE
330
1F
100
AcDbEntity
  8
0
100
AcDbLine
 10
6.277824850568109
 20
0.6722118411310575
 30
0.0
 11
6.083224433349182
 21
0.5365965029907782
 31
0.0
  0
LINE
  5
2BF
330
1F
100
AcDbEntity
  8
0
100
AcDbLine
 10
7.347106824745586
 20
-0.5122710365454992
 30
0.0
 11
7.071835416203474
 21
-0.6439306981132392
 31
0.0
  0
LINE
  5
2C0
330
1F
100
AcDbEntity
  8
0
100
AcDbLine
 10
6.062464311192806
 20
0.5199973611169404
 30
0.0
 11
6.062464311192806
 21
0.2999000647876627
 31
0.0
  0
LINE
  5
2C1
330
1F
100
AcDbEntity
  8
0
100
AcDbLine
 10
6.616020606344154
 20
2.223668457603969
 30
0.0
 11
6.623059167179812
 21
2.198036976096685
 31
0.0
  0
LINE
  5
2C2
330
1F
100
AcDbEntity
  8
0
100
AcDbLine
 10
6.455217411415648
 20
0.0538061404702935
 30
0.0
 11
6.60861179825231
 21
-0.0048069108247525
 31
0.0
  0
LINE
  5
2C3
330
1F
100
AcDbEntity
  8
0
100
AcDbLine
 10
7.177936035803133
 20
0.0083831155536358
 30
0.0
 11
7.221685670648481
 21
0.0051069716638593
 31
0.0
  0
LINE
  5
2C4
330
1F
100
AcDbEntity
  8
0
100
AcDbLine
 10
7.36633541619788
 20
-1.507329167950596
 30
0.0
 11
7.484712964367065
 21
-1.459379513360969
 31
0.0
  0
LINE
  5
2C5
330
1F
100
AcDbEntity
  8
0
100
AcDbLine
 10
7.90034778390818
 20
-1.137638002508621
 30
0.0
 11
7.93898253632671
 21
-1.158425488490499
 31
0.0
  0
LINE
  5
2C6
330
1F
100
AcDbEntity
  8
0
100
AcDbLine
 10
7.071835416203474
 20
-0.6439306981132392
 30
0.0
 11
7.027647798435721
 21
-0.6762374266724721
 31
0.0
  0
LINE
  5
2C7
330
1F
100
AcDbEntity
  8
0
100
AcDbLine
 10
6.960944443863128
 20
1.558371417132017
 30
0.0
 11
7.027647798435721
 21
1.496134852577075
 31
0.0
  0
LINE
  5
2C8
330
1F
100
AcDbEntity
  8
0
100
AcDbLine
 10
7.93898253632671
 20
-1.158425488490499
 30
0.0
 11
8.22846447281863
 21
-1.368746426441226
 31
0.0
  0
LINE
  5
2C9
330
1F
100
AcDbEntity
  8
0
100
AcDbLine
 10
7.387545748084405
 20
1.219335288775703
 30
0.0
 11
7.276973487473631
 21
0.87902886262567
 31
0.0
  0
LINE
  5
2CA
330
1F
100
AcDbEntity
  8
0
100
AcDbLine
 10
7.276973487473631
 20
-0.0591314367210676
 30
0.0
 11
7.387545748084405
 21
-0.3994378628711009
 31
0.0
  0
LINE
  5
2CB
330
1F
100
AcDbEntity
  8
0
100
AcDbLine
 10
7.207784863262205
 20
-1.55007317172777
 30
0.0
 11
7.36633541619788
 21
-1.507329167950596
 31
0.0
  0
LINE
  5
2CC
330
1F
100
AcDbEntity
  8
0
100
AcDbLine
 10
6.732565346293922
 20
-0.0355954024037251
 30
0.0
 11
6.823111228523709
 21
-0.0467385927039824
 31
0.0
  0
LINE
  5
2CD
330
1F
100
AcDbEntity
  8
0
100
AcDbLine
 10
7.856495363853873
 20
-1.138952887776767
 30
0.0
 11
7.90034778390818
 21
-1.137638002508621
 31
0.0
  0
LINE
  5
2CE
330
1F
100
AcDbEntity
  8
0
100
AcDbLine
 10
6.823111228523709
 20
-0.0467385927039824
 30
0.0
 11
6.877849180835699
 21
-0.046902455083238
 31
0.0
  0
LINE
  5
2CF
330
1F
100
AcDbEntity
  8
0
100
AcDbLine
 10
6.732565346293922
 20
0.855492828308328
 30
0.0
 11
6.60861179825231
 21
0.8247043367293554
 31
0.0
  0
LINE
  5
2D0
330
1F
100
AcDbEntity
  8
0
100
AcDbLine
 10
6.083224433349182
 20
0.5365965029907782
 30
0.0
 11
6.062464311192806
 21
0.5199973611169404
 31
0.0
  0
LINE
  5
2D1
330
1F
100
AcDbEntity
  8
0
100
AcDbLine
 10
7.221685670648481
 20
0.0051069716638593
 30
0.0
 11
7.257935893885957
 21
-0.0196050695938147
 31
0.0
  0
LINE
  5
2D2
330
1F
100
AcDbEntity
  8
0
100
AcDbLine
 10
7.484712964367065
 20
-1.459379513360969
 30
0.0
 11
7.564515924783616
 21
-1.415173009454951
 31
0.0
  0
LINE
  5
2D3
330
1F
100
AcDbEntity
  8
0
100
AcDbLine
 10
8.22846447281863
 20
-1.368746426441226
 30
0.0
 11
8.260173341889882
 21
-1.399066573045587
 31
0.0
  0
LINE
  5
2D4
330
1F
100
AcDbEntity
  8
0
100
AcDbLine
 10
7.39537702701407
 20
-0.4426053823529244
 30
0.0
 11
7.380575353770372
 21
-0.4839051903073758
 31
0.0
  0
LINE
  5
2D5
330
1F
100
AcDbEntity
  8
0
100
AcDbLine
 10
8.260173341889882
 20
-1.399066573045587
 30
0.0
 11
8.272473954728682
 21
-1.441179024787059
 31
0.0
  0
LINE
  5
2D6
330
1F
100
AcDbEntity
  8
0
100
AcDbLine
 10
6.78911415962535
 20
-0.9738223846110587
 30
0.0
 11
6.700781516078864
 21
-1.154041181607444
 31
0.0
  0
LINE
  5
2D7
330
1F
100
AcDbEntity
  8
0
100
AcDbLine
 10
8.272473954728682
 20
-1.441179024787059
 30
0.0
 11
8.262070372058464
 21
-1.483799784230219
 31
0.0
  0
LINE
  5
2D8
330
1F
100
AcDbEntity
  8
0
100
AcDbLine
 10
7.257935893885957
 20
-0.0196050695938147
 30
0.0
 11
7.276973487473631
 21
-0.0591314367210676
 31
0.0
  0
LINE
  5
2D9
330
1F
100
AcDbEntity
  8
0
100
AcDbLine
 10
7.257935893885957
 20
0.8395024954984174
 30
0.0
 11
7.221685670648481
 21
0.8147904542407435
 31
0.0
  0
LINE
  5
2DA
330
1F
100
AcDbEntity
  8
0
100
AcDbLine
 10
6.623059167179811
 20
-1.378139550192082
 30
0.0
 11
6.616020606344154
 21
-1.403771031699366
 31
0.0
  0
LINE
  5
2DB
330
1F
100
AcDbEntity
  8
0
100
AcDbLine
 10
6.60861179825231
 20
0.8247043367293554
 30
0.0
 11
6.455217411415648
 21
0.7660912854343092
 31
0.0
  0
LINE
  5
2DC
330
1F
100
AcDbEntity
  8
0
100
AcDbLine
 10
6.623059167179812
 20
2.198036976096685
 30
0.0
 11
6.700781516078864
 21
1.973938607512046
 31
0.0
  0
LINE
  5
2DD
330
1F
100
AcDbEntity
  8
0
100
AcDbLine
 10
6.745390551195949
 20
-1.58183348484573
 30
0.0
 11
6.771942573619911
 21
-1.583059979074398
 31
0.0
  0
LINE
  5
2DE
330
1F
100
AcDbEntity
  8
0
100
AcDbLine
 10
7.380575353770372
 20
1.303802616211978
 30
0.0
 11
7.395377027014072
 21
1.262502808257527
 31
0.0
  0
LINE
  5
2DF
330
1F
100
AcDbEntity
  8
0
100
AcDbLine
 10
6.745390551195949
 20
2.401730910750334
 30
0.0
 11
6.616020606344154
 21
2.223668457603969
 31
0.0
  0
LINE
  5
2E0
330
1F
100
AcDbEntity
  8
0
100
AcDbLine
 10
6.878760938274845
 20
1.656137897558762
 30
0.0
 11
6.960944443863128
 21
1.558371417132017
 31
0.0
  0
LINE
  5
2E1
330
1F
100
AcDbEntity
  8
0
100
AcDbLine
 10
7.276973487473631
 20
0.87902886262567
 30
0.0
 11
7.257935893885957
 21
0.8395024954984174
 31
0.0
  0
LINE
  5
2E2
330
1F
100
AcDbEntity
  8
0
100
AcDbLine
 10
6.700781516078864
 20
1.973938607512046
 30
0.0
 11
6.789114159625351
 21
1.793719810515661
 31
0.0
  0
LINE
  5
2E3
330
1F
100
AcDbEntity
  8
0
100
AcDbLine
 10
6.877849180835699
 20
0.8667998809878409
 30
0.0
 11
6.823111228523709
 21
0.8666360186085851
 31
0.0
  0
LINE
  5
2E4
330
1F
100
AcDbEntity
  8
0
100
AcDbLine
 10
7.380575353770372
 20
-0.4839051903073758
 30
0.0
 11
7.347106824745586
 21
-0.5122710365454992
 31
0.0
  0
LINE
  5
2E5
330
1F
100
AcDbEntity
  8
0
100
AcDbLine
 10
6.960944443863128
 20
-0.7384739912274144
 30
0.0
 11
6.878760938274845
 21
-0.836240471654159
 31
0.0
  0
LINE
  5
2E6
330
1F
100
AcDbEntity
  8
0
100
AcDbLine
 10
7.221685670648481
 20
0.8147904542407435
 30
0.0
 11
7.177936035803133
 21
0.8115143103509667
 31
0.0
  0
LINE
  5
2E7
330
1F
100
AcDbEntity
  8
0
100
AcDbLine
 10
7.387545748084405
 20
-0.3994378628711009
 30
0.0
 11
7.39537702701407
 21
-0.4426053823529244
 31
0.0
  0
LINE
  5
2E8
330
1F
100
AcDbEntity
  8
0
100
AcDbLine
 10
6.789114159625351
 20
1.793719810515661
 30
0.0
 11
6.878760938274845
 21
1.656137897558762
 31
0.0
  0
LINE
  5
2E9
330
1F
100
AcDbEntity
  8
0
100
AcDbLine
 10
6.823111228523709
 20
0.8666360186085851
 30
0.0
 11
6.732565346293922
 21
0.855492828308328
 31
0.0
  0
LINE
  5
2EA
330
1F
100
AcDbEntity
  8
0
100
AcDbLine
 10
7.395377027014072
 20
1.262502808257527
 30
0.0
 11
7.387545748084405
 21
1.219335288775703
 31
0.0
  0
LINE
  5
2EB
330
1F
100
AcDbEntity
  8
0
100
AcDbLine
 10
6.062464311192806
 20
0.2999000647876627
 30
0.0
 11
6.083224433349182
 21
0.2833009229138248
 31
0.0
  0
LINE
  5
2EC
330
1F
100
AcDbEntity
  8
0
100
AcDbLine
 10
6.616020606344154
 20
-1.403771031699366
 30
0.0
 11
6.745390551195949
 21
-1.58183348484573
 31
0.0
  0
LINE
  5
2ED
330
1F
100
AcDbEntity
  8
0
100
AcDbLine
 10
7.564515924783616
 20
-1.415173009454951
 30
0.0
 11
7.608896174331234
 21
-1.383131415794831
 31
0.0
  0
LINE
  5
2EE
330
1F
100
AcDbEntity
  8
0
100
AcDbLine
 10
7.071835416203474
 20
1.463828124017842
 30
0.0
 11
7.347106824745586
 21
1.332168462450102
 31
0.0
  0
LINE
  5
2EF
330
1F
100
AcDbEntity
  8
0
100
AcDbLine
 10
6.771942573619911
 20
-1.583059979074398
 30
0.0
 11
7.009090314005991
 21
-1.578391836996541
 31
0.0
  0
LINE
  5
2F0
330
1F
100
AcDbEntity
  8
0
100
AcDbLine
 10
7.009090314005991
 20
-1.578391836996541
 30
0.0
 11
7.207784863262205
 21
-1.55007317172777
 31
0.0
  0
LINE
  5
2F1
330
1F
100
AcDbEntity
  8
0
100
AcDbLine
 10
7.177936035803133
 20
0.8115143103509667
 30
0.0
 11
6.877849180835699
 21
0.8667998809878409
 31
0.0
  0
LINE
  5
2F2
330
1F
100
AcDbEntity
  8
0
100
AcDbLine
 10
7.027647798435721
 20
-0.6762374266724721
 30
0.0
 11
6.960944443863128
 21
-0.7384739912274144
 31
0.0
  0
LINE
  5
2F3
330
1F
100
AcDbEntity
  8
0
100
AcDbLine
 10
6.083224433349182
 20
0.2833009229138248
 30
0.0
 11
6.277824850568109
 21
0.1476855847735452
 31
0.0
  0
LINE
  5
2F4
330
1F
100
AcDbEntity
  8
0
100
AcDbLine
 10
6.60861179825231
 20
-0.0048069108247525
 30
0.0
 11
6.732565346293922
 21
-0.0355954024037251
 31
0.0
  0
LINE
  5
2F5
330
1F
100
AcDbEntity
  8
0
100
AcDbLine
 10
7.027647798435721
 20
1.496134852577075
 30
0.0
 11
7.071835416203474
 21
1.463828124017842
 31
0.0
  0
LINE
  5
2F6
330
1F
100
AcDbEntity
  8
0
100
AcDbLine
 10
6.877849180835699
 20
-0.046902455083238
 30
0.0
 11
7.177936035803133
 21
0.0083831155536358
 31
0.0
  0
LINE
  5
2F7
330
1F
100
AcDbEntity
  8
0
100
AcDbLine
 10
6.878760938274845
 20
-0.836240471654159
 30
0.0
 11
6.78911415962535
 21
-0.9738223846110587
 31
0.0
  0
LINE
  5
2F8
330
1F
100
AcDbEntity
  8
0
100
AcDbLine
 10
6.700781516078864
 20
-1.154041181607444
 30
0.0
 11
6.623059167179811
 21
-1.378139550192082
 31
0.0
  0
LINE
  5
2F9
330
1F
100
AcDbEntity
  8
0
100
AcDbLine
 10
7.608896174331234
 20
-1.383131415794831
 30
0.0
 11
7.819175496703489
 21
-1.162017821849197
 31
0.0
  0
LINE
  5
2FA
330
1F
100
AcDbEntity
  8
0
100
AcDbLine
 10
7.819175496703489
 20
-1.162017821849197
 30
0.0
 11
7.856495363853873
 21
-1.138952887776767
 31
0.0
  0
LINE
  5
2FB
330
1F
100
AcDbEntity
  8
0
100
AcDbLine
 10
10.33716485738734
 20
-1.48379978423022
 30
0.0
 11
10.32676127471712
 21
-1.441179024787059
 31
0.0
  0
LINE
  5
2FC
330
1F
100
AcDbEntity
  8
0
100
AcDbLine
 10
10.69888744553762
 20
-1.137638002508622
 30
0.0
 11
10.74273986559193
 21
-1.138952887776768
 31
0.0
  0
LINE
  5
2FD
330
1F
100
AcDbEntity
  8
0
100
AcDbLine
 10
10.99033905511457
 20
-1.383131415794832
 30
0.0
 11
11.03471930466219
 21
-1.415173009454952
 31
0.0
  0
LINE
  5
2FE
330
1F
100
AcDbEntity
  8
0
100
AcDbLine
 10
10.37077075662717
 20
-1.368746426441226
 30
0.0
 11
10.66025269311909
 21
-1.1584254884905
 31
0.0
  0
LINE
  5
2FF
330
1F
100
AcDbEntity
  8
0
100
AcDbLine
 10
8.099999616755579
 20
-1.804224684725905
 30
0.0
 11
8.082617204123277
 21
-1.893782371218572
 31
0.0
  0
LINE
  5
300
330
1F
100
AcDbEntity
  8
0
100
AcDbLine
 10
9.556706522475821
 20
-1.691384980968008
 30
0.0
 11
9.573341701135424
 21
-1.731980972135251
 31
0.0
  0
LINE
  5
301
330
1F
100
AcDbEntity
  8
0
100
AcDbLine
 10
8.968670492662948
 20
-2.0864729618521
 30
0.0
 11
8.985741292548205
 21
-2.034464711877058
 31
0.0
  0
LINE
  5
302
330
1F
100
AcDbEntity
  8
0
100
AcDbLine
 10
8.116758731873702
 20
-1.752115162231005
 30
0.0
 11
8.099999616755579
 21
-1.804224684725905
 31
0.0
  0
LINE
  5
303
330
1F
100
AcDbEntity
  8
0
100
AcDbLine
 10
8.185248255096244
 20
-2.609886661738555
 30
0.0
 11
8.194619746588646
 21
-2.634760128125516
 31
0.0
  0
LINE
  5
304
330
1F
100
AcDbEntity
  8
0
100
AcDbLine
 10
8.930092472535895
 20
-2.1691437779961
 30
0.0
 11
8.968670492662948
 21
-2.0864729618521
 31
0.0
  0
LINE
  5
305
330
1F
100
AcDbEntity
  8
0
100
AcDbLine
 10
9.025893528310377
 20
-1.731980972135251
 30
0.0
 11
9.04252870696998
 21
-1.691384980968007
 31
0.0
  0
LINE
  5
306
330
1F
100
AcDbEntity
  8
0
100
AcDbLine
 10
9.120707938841756
 20
-1.658653902387256
 30
0.0
 11
9.478527290604045
 21
-1.658653902387256
 31
0.0
  0
LINE
  5
307
330
1F
100
AcDbEntity
  8
0
100
AcDbLine
 10
9.573341701135424
 20
-1.731980972135251
 30
0.0
 11
9.613493936897596
 21
-2.034464711877058
 31
0.0
  0
LINE
  5
308
330
1F
100
AcDbEntity
  8
0
100
AcDbLine
 10
9.630564736782851
 20
-2.0864729618521
 30
0.0
 11
9.669142756909906
 21
-2.1691437779961
 31
0.0
  0
LINE
  5
309
330
1F
100
AcDbEntity
  8
0
100
AcDbLine
 10
9.669142756909906
 20
-2.1691437779961
 30
0.0
 11
9.736728105310917
 21
-2.277516440449906
 31
0.0
  0
LINE
  5
30A
330
1F
100
AcDbEntity
  8
0
100
AcDbLine
 10
9.839873902059265
 20
-2.405290742671674
 30
0.0
 11
9.983975875287621
 21
-2.544990749895828
 31
0.0
  0
LINE
  5
30B
330
1F
100
AcDbEntity
  8
0
100
AcDbLine
 10
10.51729733063753
 20
-2.18518252803697
 30
0.0
 11
10.52564018263737
 21
-2.021183367930524
 31
0.0
  0
LINE
  5
30C
330
1F
100
AcDbEntity
  8
0
100
AcDbLine
 10
8.759361327386538
 20
-2.405290742671674
 30
0.0
 11
8.862507124134886
 21
-2.277516440449906
 31
0.0
  0
LINE
  5
30D
330
1F
100
AcDbEntity
  8
0
100
AcDbLine
 10
10.49923561269022
 20
-1.804224684725905
 30
0.0
 11
10.4824764975721
 21
-1.752115162231005
 31
0.0
  0
LINE
  5
30E
330
1F
100
AcDbEntity
  8
0
100
AcDbLine
 10
9.522002039576488
 20
-1.664545410655169
 30
0.0
 11
9.556706522475821
 21
-1.691384980968008
 31
0.0
  0
LINE
  5
30F
330
1F
100
AcDbEntity
  8
0
100
AcDbLine
 10
10.4824764975721
 20
-1.752115162231005
 30
0.0
 11
10.33716485738734
 21
-1.48379978423022
 31
0.0
  0
LINE
  5
310
330
1F
100
AcDbEntity
  8
0
100
AcDbLine
 10
10.66025269311909
 20
-1.1584254884905
 30
0.0
 11
10.69888744553762
 21
-1.137638002508622
 31
0.0
  0
LINE
  5
311
330
1F
100
AcDbEntity
  8
0
100
AcDbLine
 10
10.78005973274231
 20
-1.162017821849197
 30
0.0
 11
10.99033905511457
 21
-1.383131415794832
 31
0.0
  0
LINE
  5
312
330
1F
100
AcDbEntity
  8
0
100
AcDbLine
 10
8.262070372058464
 20
-1.483799784230219
 30
0.0
 11
8.116758731873702
 21
-1.752115162231005
 31
0.0
  0
LINE
  5
313
330
1F
100
AcDbEntity
  8
0
100
AcDbLine
 10
11.03471930466219
 20
-1.415173009454952
 30
0.0
 11
11.11452226507873
 21
-1.45937951336097
 31
0.0
  0
LINE
  5
314
330
1F
100
AcDbEntity
  8
0
100
AcDbLine
 10
11.23289981324792
 20
-1.507329167950597
 30
0.0
 11
11.3914503661836
 21
-1.550073171727771
 31
0.0
  0
LINE
  5
315
330
1F
100
AcDbEntity
  8
0
100
AcDbLine
 10
11.3914503661836
 20
-1.550073171727771
 30
0.0
 11
11.59014491543981
 21
-1.578391836996542
 31
0.0
  0
LINE
  5
316
330
1F
100
AcDbEntity
  8
0
100
AcDbLine
 10
8.082617204123277
 20
-1.893782371218572
 30
0.0
 11
8.07359504680843
 21
-2.021183367930523
 31
0.0
  0
LINE
  5
317
330
1F
100
AcDbEntity
  8
0
100
AcDbLine
 10
8.194619746588646
 20
-2.634760128125516
 30
0.0
 11
8.40394471448155
 21
-2.702773933107242
 31
0.0
  0
LINE
  5
318
330
1F
100
AcDbEntity
  8
0
100
AcDbLine
 10
10.17308856236861
 20
-2.688159300582392
 30
0.0
 11
10.19529051496425
 21
-2.702773933107242
 31
0.0
  0
LINE
  5
319
330
1F
100
AcDbEntity
  8
0
100
AcDbLine
 10
11.85384467824985
 20
-1.581833484845732
 30
0.0
 11
11.98321462310165
 21
-1.403771031699366
 31
0.0
  0
LINE
  5
31A
330
1F
100
AcDbEntity
  8
0
100
AcDbLine
 10
8.116405240081464
 20
-2.382903222685487
 30
0.0
 11
8.185248255096244
 21
-2.609886661738555
 31
0.0
  0
LINE
  5
31B
330
1F
100
AcDbEntity
  8
0
100
AcDbLine
 10
8.40394471448155
 20
-2.702773933107242
 30
0.0
 11
8.426146667077193
 21
-2.688159300582392
 31
0.0
  0
LINE
  5
31C
330
1F
100
AcDbEntity
  8
0
100
AcDbLine
 10
9.478527290604045
 20
-1.658653902387256
 30
0.0
 11
9.522002039576488
 21
-1.664545410655169
 31
0.0
  0
LINE
  5
31D
330
1F
100
AcDbEntity
  8
0
100
AcDbLine
 10
8.07359504680843
 20
-2.021183367930523
 30
0.0
 11
8.081937898808272
 21
-2.185182528036969
 31
0.0
  0
LINE
  5
31E
330
1F
100
AcDbEntity
  8
0
100
AcDbLine
 10
9.983975875287621
 20
-2.544990749895828
 30
0.0
 11
10.17308856236861
 21
-2.688159300582392
 31
0.0
  0
LINE
  5
31F
330
1F
100
AcDbEntity
  8
0
100
AcDbLine
 10
10.19529051496425
 20
-2.702773933107242
 30
0.0
 11
10.40461548285715
 21
-2.634760128125516
 31
0.0
  0
LINE
  5
320
330
1F
100
AcDbEntity
  8
0
100
AcDbLine
 10
10.48282998936434
 20
-2.382903222685488
 30
0.0
 11
10.51729733063753
 21
-2.18518252803697
 31
0.0
  0
LINE
  5
321
330
1F
100
AcDbEntity
  8
0
100
AcDbLine
 10
10.41398697434956
 20
-2.609886661738555
 30
0.0
 11
10.48282998936434
 21
-2.382903222685488
 31
0.0
  0
LINE
  5
322
330
1F
100
AcDbEntity
  8
0
100
AcDbLine
 10
10.52564018263737
 20
-2.021183367930524
 30
0.0
 11
10.51661802532252
 21
-1.893782371218572
 31
0.0
  0
LINE
  5
323
330
1F
100
AcDbEntity
  8
0
100
AcDbLine
 10
10.32676127471712
 20
-1.441179024787059
 30
0.0
 11
10.33906188755592
 21
-1.399066573045587
 31
0.0
  0
LINE
  5
324
330
1F
100
AcDbEntity
  8
0
100
AcDbLine
 10
8.426146667077193
 20
-2.688159300582392
 30
0.0
 11
8.61525935415818
 21
-2.544990749895828
 31
0.0
  0
LINE
  5
325
330
1F
100
AcDbEntity
  8
0
100
AcDbLine
 10
10.74273986559193
 20
-1.138952887776768
 30
0.0
 11
10.78005973274231
 21
-1.162017821849197
 31
0.0
  0
LINE
  5
326
330
1F
100
AcDbEntity
  8
0
100
AcDbLine
 10
11.59014491543981
 20
-1.578391836996542
 30
0.0
 11
11.82729265582589
 21
-1.583059979074399
 31
0.0
  0
LINE
  5
327
330
1F
100
AcDbEntity
  8
0
100
AcDbLine
 10
11.82729265582589
 20
-1.583059979074399
 30
0.0
 11
11.85384467824985
 21
-1.581833484845732
 31
0.0
  0
LINE
  5
328
330
1F
100
AcDbEntity
  8
0
100
AcDbLine
 10
11.11452226507873
 20
-1.45937951336097
 30
0.0
 11
11.23289981324792
 21
-1.507329167950597
 31
0.0
  0
LINE
  5
329
330
1F
100
AcDbEntity
  8
0
100
AcDbLine
 10
10.33906188755592
 20
-1.399066573045587
 30
0.0
 11
10.37077075662717
 21
-1.368746426441226
 31
0.0
  0
LINE
  5
32A
330
1F
100
AcDbEntity
  8
0
100
AcDbLine
 10
10.51661802532252
 20
-1.893782371218572
 30
0.0
 11
10.49923561269022
 21
-1.804224684725905
 31
0.0
  0
LINE
  5
32B
330
1F
100
AcDbEntity
  8
0
100
AcDbLine
 10
10.40461548285715
 20
-2.634760128125516
 30
0.0
 11
10.41398697434956
 21
-2.609886661738555
 31
0.0
  0
LINE
  5
32C
330
1F
100
AcDbEntity
  8
0
100
AcDbLine
 10
9.736728105310917
 20
-2.277516440449906
 30
0.0
 11
9.839873902059265
 21
-2.405290742671674
 31
0.0
  0
LINE
  5
32D
330
1F
100
AcDbEntity
  8
0
100
AcDbLine
 10
9.613493936897596
 20
-2.034464711877058
 30
0.0
 11
9.630564736782851
 21
-2.0864729618521
 31
0.0
  0
LINE
  5
32E
330
1F
100
AcDbEntity
  8
0
100
AcDbLine
 10
9.077233189869313
 20
-1.664545410655168
 30
0.0
 11
9.120707938841756
 21
-1.658653902387256
 31
0.0
  0
LINE
  5
32F
330
1F
100
AcDbEntity
  8
0
100
AcDbLine
 10
9.04252870696998
 20
-1.691384980968007
 30
0.0
 11
9.077233189869313
 21
-1.664545410655168
 31
0.0
  0
LINE
  5
330
330
1F
100
AcDbEntity
  8
0
100
AcDbLine
 10
8.985741292548205
 20
-2.034464711877058
 30
0.0
 11
9.025893528310377
 21
-1.731980972135251
 31
0.0
  0
LINE
  5
331
330
1F
100
AcDbEntity
  8
0
100
AcDbLine
 10
8.862507124134886
 20
-2.277516440449906
 30
0.0
 11
8.930092472535895
 21
-2.1691437779961
 31
0.0
  0
LINE
  5
332
330
1F
100
AcDbEntity
  8
0
100
AcDbLine
 10
8.61525935415818
 20
-2.544990749895828
 30
0.0
 11
8.759361327386538
 21
-2.405290742671674
 31
0.0
  0
LINE
  5
333
330
1F
100
AcDbEntity
  8
0
100
AcDbLine
 10
8.081937898808272
 20
-2.185182528036969
 30
0.0
 11
8.116405240081464
 21
-2.382903222685487
 31
0.0
  0
ENDSEC
  0
SECTION
  2
OBJECTS
  0
DICTIONARY
  5
C
330
0
100
AcDbDictionary
  3
ACAD_GROUP
350
D
  3
ACAD_LAYOUT
350
1A
  3
ACAD_MATERIAL
350
43
  3
ACAD_MLEADERSTYLE
350
6B
  3
ACAD_MLINESTYLE
350
17
  3
ACAD_PLOTSETTINGS
350
19
  3
ACAD_SCALELIST
350
47
  3
ACAD_VISUALSTYLE
350
2A
  3
ACDBHEADERROUNDTRIPXREC
350
334
  3
ACDBVARIABLEDICTIONARY
350
355
  0
DICTIONARY
  5
35C
330
8
100
AcDbDictionary
280
     1
  3
ACAD_XREC_ROUNDTRIP
360
35D
  0
DICTIONARY
  5
D
102
{ACAD_REACTORS
330
C
102
}
330
C
100
AcDbDictionary
  0
DICTIONARY
  5
1A
102
{ACAD_REACTORS
330
C
102
}
330
C
100
AcDbDictionary
  0
DICTIONARY
  5
43
102
{ACAD_REACTORS
330
C
102
}
330
C
100
AcDbDictionary
  3
BYBLOCK
350
45
  3
BYLAYER
350
44
  3
GLOBAL
350
46
  0
DICTIONARY
  5
6B
102
{ACAD_REACTORS
330
C
102
}
330
C
100
AcDbDictionary
  3
STANDARD
350
6C
  0
DICTIONARY
  5
17
102
{ACAD_REACTORS
330
C
102
}
330
C
100
AcDbDictionary
  3
STANDARD
350
18
  0
DICTIONARY
  5
19
102
{ACAD_REACTORS
330
C
102
}
330
C
100
AcDbDictionary
  0
DICTIONARY
  5
47
102
{ACAD_REACTORS
330
C
102
}
330
C
100
AcDbDictionary
  3
A0
350
48
  3
A1
350
49
  3
A2
350
4A
  3
A3
350
4B
  3
A4
350
4C
  3
A5
350
4D
  3
A6
350
4E
  3
A7
350
4F
  3
A8
350
50
  3
A9
350
51
  3
B0
350
52
  3
B1
350
53
  3
B2
350
54
  3
B3
350
55
  3
B4
350
56
  3
B5
350
57
  3
B6
350
58
  3
B7
350
59
  3
B8
350
5A
  3
B9
350
5B
  3
C0
350
5C
  3
C1
350
5D
  3
C2
350
5E
  3
C3
350
5F
  3
C4
350
60
  3
C5
350
61
  3
C6
350
62
  3
C7
350
63
  3
C8
350
64
  3
C9
350
65
  3
D0
350
66
  3
D1
350
67
  3
D2
350
68
  0
DICTIONARY
  5
2A
102
{ACAD_REACTORS
330
C
102
}
330
C
100
AcDbDictionary
  3
2DWIREFRAME
350
2F
  3
BASIC
350
32
  3
BRIGHTEN
350
36
  3
COLORCHANGE
350
3A
  3
CONCEPTUAL
350
34
  3
DIM
350
35
  3
EDGECOLOROFF
350
3D
  3
FACEPATTERN
350
39
  3
FLAT
350
2B
  3
FLATWITHEDGES
350
2C
  3
GOURAUD
350
2D
  3
GOURAUDWITHEDGES
350
2E
  3
HIDDEN
350
31
  3
JITTEROFF
350
3B
  3
LINEPATTERN
350
38
  3
OVERHANGOFF
350
3C
  3
REALISTIC
350
33
  3
SHADED
350
42
  3
SHADED_WITH_EDGES
350
41
  3
SHADES_OF_GRAY
350
3E
  3
SKETCHY
350
3F
  3
THICKEN
350
37
  3
WIREFRAME
350
30
  3
X-RAY
350
40
  0
DICTIONARY
  5
334
102
{ACAD_REACTORS
330
C
102
}
330
C
100
AcDbDictionary
  3
CEPSNID
350
33E
  3
CEPSNTYPE
350
33D
  3
DIMSTYLEDATA
350
354
  3
FINGERPRINTGUID
350
33F
  3
HYPERLINKBASE
350
337
  3
INSUNITS
350
33C
  3
LAYOUTDICT
350
339
  3
LWETCUNION
350
33B
  3
PLOTSETDICT
350
33A
  3
PSVPSCALE
350
341
  3
PUCSBASE
350
344
  3
PUCSORGBACK
350
34A
  3
PUCSORGBOTTOM
350
346
  3
PUCSORGFRONT
350
349
  3
PUCSORGLEFT
350
347
  3
PUCSORGRIGHT
350
348
  3
PUCSORGTOP
350
345
  3
PUCSORTHOREF
350
342
  3
PUCSORTHOVIEW
350
343
  3
STYLESHEET
350
338
  3
TSTACKALIGN
350
335
  3
TSTACKSIZE
350
336
  3
UCSBASE
350
34D
  3
UCSORGBACK
350
353
  3
UCSORGBOTTOM
350
34F
  3
UCSORGFRONT
350
352
  3
UCSORGLEFT
350
350
  3
UCSORGRIGHT
350
351
  3
UCSORGTOP
350
34E
  3
UCSORTHOREF
350
34B
  3
UCSORTHOVIEW
350
34C
  3
VERSIONGUID
350
340
  0
DICTIONARY
  5
355
102
{ACAD_REACTORS
330
C
102
}
330
C
100
AcDbDictionary
  3
CANNOSCALE
350
35E
  3
CMLEADERSTYLE
350
357
  3
CTABLESTYLE
350
356
  3
DIMASSOC
350
35A
  3
HIDETEXT
350
35B
  3
MSLTSCALE
350
35F
  0
XRECORD
  5
35D
102
{ACAD_REACTORS
330
35C
102
}
330
35C
100
AcDbXrecord
102
VTR_0.000_0.000_1.000_1.000_VISUALSTYLE
340
2F
102
VTR_0.000_0.000_1.000_1.000_GRIDDISPLAY
 70
     3
102
VTR_0.000_0.000_1.000_1.000_GRIDMAJOR
 70
     5
102
VTR_0.000_0.000_1.000_1.000_DEFAULTLIGHTING
280
     1
102
VTR_0.000_0.000_1.000_1.000_DEFAULTLIGHTINGTYPE
 70
     1
102
VTR_0.000_0.000_1.000_1.000_BRIGHTNESS
141
0.0
102
VTR_0.000_0.000_1.000_1.000_CONTRAST
142
0.0
  0
MATERIAL
  5
45
102
{ACAD_REACTORS
330
43
102
}
102
{ACAD_XDICTIONARY
360
362
102
}
330
43
100
AcDbMaterial
  1
BYBLOCK
  0
MATERIAL
  5
44
102
{ACAD_REACTORS
330
43
102
}
102
{ACAD_XDICTIONARY
360
360
102
}
330
43
100
AcDbMaterial
  1
BYLAYER
  0
MATERIAL
  5
46
102
{ACAD_REACTORS
330
43
102
}
102
{ACAD_XDICTIONARY
360
364
102
}
330
43
100
AcDbMaterial
  1
GLOBAL
  0
ACAD_PROXY_OBJECT
  5
6C
102
{ACAD_REACTORS
330
6B
102
}
330
6B
100
AcDbProxyObject
 90
      499
 91
      505
 93
      610
310
40901902A4063FBFFFFFE056BD1B81E855B9FC0AD7A3703D0AD73F4214DD185B99185C9900AD7A3703D0AC73F90141901A02B5E8DC0F42B1CFC02B5E8DC0F42B1CFE5764000000000000300FC0
340
14
340
0
340
11
340
0
 94
        0
1001
ACAD_MLEADERVER
1070
     2
  0
MLINESTYLE
  5
18
102
{ACAD_REACTORS
330
17
102
}
330
17
100
AcDbMlineStyle
  2
Standard
 70
     0
  3

 62
   256
 51
90.0
 52
90.0
 71
     2
 49
0.5
 62
   256
  6
BYLAYER
 49
-0.5
 62
   256
  6
BYLAYER
  0
ACAD_PROXY_OBJECT
  5
48
102
{ACAD_REACTORS
330
47
102
}
330
47
100
AcDbProxyObject
 90
      499
 91
      503
 93
       41
310
903313A31580
  0
ACAD_PROXY_OBJECT
  5
49
102
{ACAD_REACTORS
330
47
102
}
330
47
100
AcDbProxyObject
 90
      499
 91
      503
 93
      105
310
903313A324000000000000004000
  0
ACAD_PROXY_OBJECT
  5
4A
102
{ACAD_REACTORS
330
47
102
}
330
47
100
AcDbProxyObject
 90
      499
 91
      503
 93
      105
310
903313A344000000000000104000
  0
ACAD_PROXY_OBJECT
  5
4B
102
{ACAD_REACTORS
330
47
102
}
330
47
100
AcDbProxyObject
 90
      499
 91
      503
 93
      105
310
903313A354000000000000144000
  0
ACAD_PROXY_OBJECT
  5
4C
102
{ACAD_REACTORS
330
47
102
}
330
47
100
AcDbProxyObject
 90
      499
 91
      503
 93
      105
310
903313A384000000000000204000
  0
ACAD_PROXY_OBJECT
  5
4D
102
{ACAD_REACTORS
330
47
102
}
330
47
100
AcDbProxyObject
 90
      499
 91
      503
 93
      113
310
904313A31304000000000000244000
  0
ACAD_PROXY_OBJECT
  5
4E
102
{ACAD_REACTORS
330
47
102
}
330
47
100
AcDbProxyObject
 90
      499
 91
      503
 93
      113
310
904313A31364000000000000304000
  0
ACAD_PROXY_OBJECT
  5
4F
102
{ACAD_REACTORS
330
47
102
}
330
47
100
AcDbProxyObject
 90
      499
 91
      503
 93
      113
310
904313A32304000000000000344000
  0
ACAD_PROXY_OBJECT
  5
50
102
{ACAD_REACTORS
330
47
102
}
330
47
100
AcDbProxyObject
 90
      499
 91
      503
 93
      113
310
904313A333040000000000003E4000
  0
ACAD_PROXY_OBJECT
  5
51
102
{ACAD_REACTORS
330
47
102
}
330
47
100
AcDbProxyObject
 90
      499
 91
      503
 93
      113
310
904313A34304000000000000444000
  0
ACAD_PROXY_OBJECT
  5
52
102
{ACAD_REACTORS
330
47
102
}
330
47
100
AcDbProxyObject
 90
      499
 91
      503
 93
      113
310
904313A35304000000000000494000
  0
ACAD_PROXY_OBJECT
  5
53
102
{ACAD_REACTORS
330
47
102
}
330
47
100
AcDbProxyObject
 90
      499
 91
      503
 93
      121
310
905313A3130304000000000000594000
  0
ACAD_PROXY_OBJECT
  5
54
102
{ACAD_REACTORS
330
47
102
}
330
47
100
AcDbProxyObject
 90
      499
 91
      503
 93
      105
310
903323A310000000000000010100
  0
ACAD_PROXY_OBJECT
  5
55
102
{ACAD_REACTORS
330
47
102
}
330
47
100
AcDbProxyObject
 90
      499
 91
      503
 93
      105
310
903343A310000000000000410100
  0
ACAD_PROXY_OBJECT
  5
56
102
{ACAD_REACTORS
330
47
102
}
330
47
100
AcDbProxyObject
 90
      499
 91
      503
 93
      105
310
903383A310000000000000810100
  0
ACAD_PROXY_OBJECT
  5
57
102
{ACAD_REACTORS
330
47
102
}
330
47
100
AcDbProxyObject
 90
      499
 91
      503
 93
      113
310
90431303A310000000000000910100
  0
ACAD_PROXY_OBJECT
  5
58
102
{ACAD_REACTORS
330
47
102
}
330
47
100
AcDbProxyObject
 90
      499
 91
      503
 93
      121
310
9053130303A310000000000001650100
  0
ACAD_PROXY_OBJECT
  5
59
102
{ACAD_REACTORS
330
47
102
}
330
47
100
AcDbProxyObject
 90
      499
 91
      503
 93
      257
310
90E312F31323822203D2031272D3022000000000000200FC000000000000284000
  0
ACAD_PROXY_OBJECT
  5
5A
102
{ACAD_REACTORS
330
47
102
}
330
47
100
AcDbProxyObject
 90
      499
 91
      503
 93
      249
310
90D312F363422203D2031272D3022000000000000240FC000000000000284000
  0
ACAD_PROXY_OBJECT
  5
5B
102
{ACAD_REACTORS
330
47
102
}
330
47
100
AcDbProxyObject
 90
      499
 91
      503
 93
      249
310
90D312F333222203D2031272D3022000000000000280FC000000000000284000
  0
ACAD_PROXY_OBJECT
  5
5C
102
{ACAD_REACTORS
330
47
102
}
330
47
100
AcDbProxyObject
 90
      499
 91
      503
 93
      249
310
90D312F313622203D2031272D30220000000000002C0FC000000000000284000
  0
ACAD_PROXY_OBJECT
  5
5D
102
{ACAD_REACTORS
330
47
102
}
330
47
100
AcDbProxyObject
 90
      499
 91
      503
 93
      249
310
90D332F333222203D2031272D30220000000000002E0FC000000000000284000
  0
ACAD_PROXY_OBJECT
  5
5E
102
{ACAD_REACTORS
330
47
102
}
330
47
100
AcDbProxyObject
 90
      499
 91
      503
 93
      241
310
90C312F3822203D2031272D3022000000000000300FC000000000000284000
  0
ACAD_PROXY_OBJECT
  5
5F
102
{ACAD_REACTORS
330
47
102
}
330
47
100
AcDbProxyObject
 90
      499
 91
      503
 93
      249
310
90D332F313622203D2031272D3022000000000000320FC000000000000284000
  0
ACAD_PROXY_OBJECT
  5
60
102
{ACAD_REACTORS
330
47
102
}
330
47
100
AcDbProxyObject
 90
      499
 91
      503
 93
      241
310
90C312F3422203D2031272D3022000000000000340FC000000000000284000
  0
ACAD_PROXY_OBJECT
  5
61
102
{ACAD_REACTORS
330
47
102
}
330
47
100
AcDbProxyObject
 90
      499
 91
      503
 93
      241
310
90C332F3822203D2031272D3022000000000000360FC000000000000284000
  0
ACAD_PROXY_OBJECT
  5
62
102
{ACAD_REACTORS
330
47
102
}
330
47
100
AcDbProxyObject
 90
      499
 91
      503
 93
      241
310
90C312F3222203D2031272D3022000000000000380FC000000000000284000
  0
ACAD_PROXY_OBJECT
  5
63
102
{ACAD_REACTORS
330
47
102
}
330
47
100
AcDbProxyObject
 90
      499
 91
      503
 93
      241
310
90C332F3422203D2031272D30220000000000003A0FC000000000000284000
  0
ACAD_PROXY_OBJECT
  5
64
102
{ACAD_REACTORS
330
47
102
}
330
47
100
AcDbProxyObject
 90
      499
 91
      503
 93
      161
310
90A3122203D2031272D30224000000000000284000
  0
ACAD_PROXY_OBJECT
  5
65
102
{ACAD_REACTORS
330
47
102
}
330
47
100
AcDbProxyObject
 90
      499
 91
      503
 93
      257
310
90E312D312F3222203D2031272D30220000000000003E0FC000000000000284000
  0
ACAD_PROXY_OBJECT
  5
66
102
{ACAD_REACTORS
330
47
102
}
330
47
100
AcDbProxyObject
 90
      499
 91
      503
 93
      225
310
90A3322203D2031272D302200000000000002100000000000000284000
  0
ACAD_PROXY_OBJECT
  5
67
102
{ACAD_REACTORS
330
47
102
}
330
47
100
AcDbProxyObject
 90
      499
 91
      503
 93
      225
310
90A3622203D2031272D302200000000000006100000000000000284000
  0
ACAD_PROXY_OBJECT
  5
68
102
{ACAD_REACTORS
330
47
102
}
330
47
100
AcDbProxyObject
 90
      499
 91
      503
 93
      249
310
90D31272D3022203D2031272D30220000000000000A100000000000000284000
  0
ACAD_PROXY_OBJECT
  5
2F
102
{ACAD_REACTORS
330
2A
102
}
330
2A
100
AcDbProxyObject
 90
      499
 91
      501
 93
      436
310
42CC9915DA5C99599C985B595049028333333333333E33F0000000000000F90107901411070040501600405405064090741402480A0340
1001
ACAD
1000
AcDbSavedByObjectVersion
1070
     0
  0
ACAD_PROXY_OBJECT
  5
32
102
{ACAD_REACTORS
330
2A
102
}
330
2A
100
AcDbProxyObject
 90
      499
 91
      501
 93
      388
310
4150985CDA58D07406404333333333333E33F0000000000000F90107A41107004050150841D405064090741402480A0350
1001
ACAD
1000
AcDbSavedByObjectVersion
1070
     0
  0
ACAD_PROXY_OBJECT
  5
36
102
{ACAD_REACTORS
330
2A
102
}
330
2A
100
AcDbProxyObject
 90
      499
 91
      501
 93
      428
310
42109C9A59DA1D195B90C409028333333333333E33F0000000000000F9010790141107004050150841D405064090741402480A029950
1001
ACAD
1000
AcDbSavedByObjectVersion
1070
     0
  0
ACAD_PROXY_OBJECT
  5
3A
102
{ACAD_REACTORS
330
2A
102
}
330
2A
100
AcDbProxyObject
 90
      499
 91
      501
 93
      452
310
42D0DBDB1BDC90DA185B99D95104090240C333333333333E33F0000000000000F90108901411070040501508421405064090741402480A0350
1001
ACAD
1000
AcDbSavedByObjectVersion
1070
     0
  0
ACAD_PROXY_OBJECT
  5
34
102
{ACAD_REACTORS
330
2A
102
}
330
2A
100
AcDbProxyObject
 90
      499
 91
      501
 93
      500
310
4290DBDB98D95C1D1D585B10940D028333333333333E33F0000000000000F90107902409070040501000000000018199010841D405064090740C02480A0340
1001
ACAD
1000
AcDbSavedByObjectVersion
1070
     0
  0
ACAD_PROXY_OBJECT
  5
35
102
{ACAD_REACTORS
330
2A
102
}
330
2A
100
AcDbProxyObject
 90
      499
 91
      501
 93
      412
310
40D11A5B50B409028333333333333E33F0000000000000F9010790141107004050150841D405064090741402480A02677FFFFFD0
1001
ACAD
1000
AcDbSavedByObjectVersion
1070
     0
  0
ACAD_PROXY_OBJECT
  5
3D
102
{ACAD_REACTORS
330
2A
102
}
330
2A
100
AcDbProxyObject
 90
      499
 91
      501
 93
      452
310
43115919D950DBDB1BDC93D999916409028333333333333E33F0000000000000F9010790141107004050150841D405064090741402480A0350
1001
ACAD
1000
AcDbSavedByObjectVersion
1070
     0
  0
ACAD_PROXY_OBJECT
  5
39
102
{ACAD_REACTORS
330
2A
102
}
330
2A
100
AcDbProxyObject
 90
      499
 91
      501
 93
      444
310
42D19858D95C185D1D195C9B90F409028333333333333E33F0000000000000F9010790141107004050150841D405064090741402480A0350
1001
ACAD
1000
AcDbSavedByObjectVersion
1070
     0
  0
ACAD_PROXY_OBJECT
  5
2B
102
{ACAD_REACTORS
330
2A
102
}
330
2A
100
AcDbProxyObject
 90
      499
 91
      501
 93
      380
310
41119B185D240901404333333333333E33F0000000000000F9010740A907004050150841D405064090741402480A1B50
1001
ACAD
1000
AcDbSavedByObjectVersion
1070
     0
  0
ACAD_PROXY_OBJECT
  5
2C
102
{ACAD_REACTORS
330
2A
102
}
330
2A
100
AcDbProxyObject
 90
      499
 91
      501
 93
      468
310
43519B185D15DA5D1A115919D95CD0140901404333333333333E33F0000000000000F90107409019070040501600405405064090741402480A1B50
1001
ACAD
1000
AcDbSavedByObjectVersion
1070
     0
  0
ACAD_PROXY_OBJECT
  5
2D
102
{ACAD_REACTORS
330
2A
102
}
330
2A
100
AcDbProxyObject
 90
      499
 91
      501
 93
      404
310
41D1DBDD5C985D5910240902404333333333333E33F0000000000000F9010740A9070040501641D405064090741402480A1B50
1001
ACAD
1000
AcDbSavedByObjectVersion
1070
     0
  0
ACAD_PROXY_OBJECT
  5
2E
102
{ACAD_REACTORS
330
2A
102
}
330
2A
100
AcDbProxyObject
 90
      499
 91
      501
 93
      492
310
4411DBDD5C985D5915DA5D1A115919D95CD0340902404333333333333E33F0000000000000F90107409019070040501600405405064090741402480A1B50
1001
ACAD
1000
AcDbSavedByObjectVersion
1070
     0
  0
ACAD_PROXY_OBJECT
  5
31
102
{ACAD_REACTORS
330
2A
102
}
330
2A
100
AcDbProxyObject
 90
      499
 91
      501
 93
      476
310
41921A5919195B90640502408333333333333E33F0000000000000F901079024090700405020000000000001110200405405064090740C02480A0340
1001
ACAD
1000
AcDbSavedByObjectVersion
1070
     0
  0
ACAD_PROXY_OBJECT
  5
3B
102
{ACAD_REACTORS
330
2A
102
}
330
2A
100
AcDbProxyObject
 90
      499
 91
      501
 93
      428
310
42529A5D1D195C93D999914409028333333333333E33F0000000000000F9010790141107004050150A41D405064090741402480A0350
1001
ACAD
1000
AcDbSavedByObjectVersion
1070
     0
  0
ACAD_PROXY_OBJECT
  5
38
102
{ACAD_REACTORS
330
2A
102
}
330
2A
100
AcDbProxyObject
 90
      499
 91
      501
 93
      444
310
42D31A5B995C185D1D195C9B90E409028333333333333E33F0000000000000F9010790141107004050750841D405064090741402483A0350
1001
ACAD
1000
AcDbSavedByObjectVersion
1070
     0
  0
ACAD_PROXY_OBJECT
  5
3C
102
{ACAD_REACTORS
330
2A
102
}
330
2A
100
AcDbProxyObject
 90
      499
 91
      501
 93
      444
310
42D3DD995C9A185B99D3D999915409028333333333333E33F0000000000000F9010790141107004050150941D405064090741402480A0350
1001
ACAD
1000
AcDbSavedByObjectVersion
1070
     0
  0
ACAD_PROXY_OBJECT
  5
33
102
{ACAD_REACTORS
330
2A
102
}
330
2A
100
AcDbProxyObject
 90
      499
 91
      501
 93
      428
310
425499585B1A5CDD1A58D08409038333333333333E33F0000000000000F9010740A907004050150800405405064090740C02480A1B40
1001
ACAD
1000
AcDbSavedByObjectVersion
1070
     0
  0
ACAD_PROXY_OBJECT
  5
42
102
{ACAD_REACTORS
330
2A
102
}
330
2A
100
AcDbProxyObject
 90
      499
 91
      501
 93
      420
310
4194DA1859195911B40902404333333333333E33F0000000000000F9010740A41107004050150800405405064090840C02480A0B40
1001
ACAD
1000
AcDbSavedByObjectVersion
1070
     0
  0
ACAD_PROXY_OBJECT
  5
41
102
{ACAD_REACTORS
330
2A
102
}
330
2A
100
AcDbProxyObject
 90
      499
 91
      501
 93
      516
310
4454DA18591959081DDA5D1A08195919D95CD1A40902404333333333333E33F0000000000000F901074090142907004050250800405405064090740C02480A0B40
1001
ACAD
1000
AcDbSavedByObjectVersion
1070
     0
  0
ACAD_PROXY_OBJECT
  5
3E
102
{ACAD_REACTORS
330
2A
102
}
330
2A
100
AcDbProxyObject
 90
      499
 91
      501
 93
      532
310
4394DA1859195CC81BD98811DC985E5174090240C333333333333E33F0000000000000F901079024090741D01000000000000111010841D405064090740C02480A0340
1001
ACAD
1000
AcDbSavedByObjectVersion
1070
     0
  0
ACAD_PROXY_OBJECT
  5
3F
102
{ACAD_REACTORS
330
2A
102
}
330
2A
100
AcDbProxyObject
 90
      499
 91
      501
 93
      476
310
41D4DAD95D18DA1E51840502408333333333333E33F0000000000000F901079024090741D01000000000000111010B41D405064090741802480A0340
1001
ACAD
1000
AcDbSavedByObjectVersion
1070
     0
  0
ACAD_PROXY_OBJECT
  5
37
102
{ACAD_REACTORS
330
2A
102
}
330
2A
100
AcDbProxyObject
 90
      499
 91
      501
 93
      412
310
41D51A1A58DAD95B90D409028333333333333E33F0000000000000F9010790141107004050150C41D405064090741402480A0350
1001
ACAD
1000
AcDbSavedByObjectVersion
1070
     0
  0
ACAD_PROXY_OBJECT
  5
30
102
{ACAD_REACTORS
330
2A
102
}
330
2A
100
AcDbProxyObject
 90
      499
 91
      501
 93
      420
310
4255DA5C99599C985B595059028333333333333E33F0000000000000F90107901411070040501600405405064090740C02480A0340
1001
ACAD
1000
AcDbSavedByObjectVersion
1070
     0
  0
ACAD_PROXY_OBJECT
  5
40
102
{ACAD_REACTORS
330
2A
102
}
330
2A
100
AcDbProxyObject
 90
      499
 91
      501
 93
      404
310
41560B54985E51940902404000000000000E03F0000000000000F9010740501907004050150841D405064090740C02480A1B40
1001
ACAD
1000
AcDbSavedByObjectVersion
1070
     0
  0
XRECORD
  5
33E
102
{ACAD_REACTORS
330
334
102
}
330
334
100
AcDbXrecord
340
0
  0
XRECORD
  5
33D
102
{ACAD_REACTORS
330
334
102
}
330
334
100
AcDbXrecord
 90
        0
  0
XRECORD
  5
354
102
{ACAD_REACTORS
330
334
102
}
330
334
100
AcDbXrecord
1000
DSTYLE
1002
{
1070
   171
 70
     2
1070
   143
 40
25.4
1070
   274
 70
     2
1070
    41
 40
0.18
1070
   141
 40
0.09
1070
   271
 70
     4
1070
    43
 40
0.38
1070
   278
 70
    46
1070
    44
 40
0.18
1070
    42
 40
0.0625
1070
   147
 40
0.09
1070
    77
 70
     0
1070
   272
 70
     4
1070
    73
 70
     1
1070
   172
 70
     0
1070
    74
 70
     1
1070
   283
 70
     1
1070
   340
340
11
1070
   140
 40
0.18
1070
   284
 70
     0
1070
    78
 70
     0
1002
}
  0
XRECORD
  5
33F
102
{ACAD_REACTORS
330
334
102
}
330
334
100
AcDbXrecord
  1
{23E3A9F0-C6B0-437C-8844-1AB393DDFB3B}
  0
XRECORD
  5
337
102
{ACAD_REACTORS
330
334
102
}
330
334
100
AcDbXrecord
  1

  0
XRECORD
  5
33C
102
{ACAD_REACTORS
330
334
102
}
330
334
100
AcDbXrecord
 90
        5
  0
XRECORD
  5
339
102
{ACAD_REACTORS
330
334
102
}
330
334
100
AcDbXrecord
340
1A
  0
XRECORD
  5
33B
102
{ACAD_REACTORS
330
334
102
}
330
334
100
AcDbXrecord
 90
    10781
  0
XRECORD
  5
33A
102
{ACAD_REACTORS
330
334
102
}
330
334
100
AcDbXrecord
340
19
  0
XRECORD
  5
341
102
{ACAD_REACTORS
330
334
102
}
330
334
100
AcDbXrecord
 40
0.0
  0
XRECORD
  5
344
102
{ACAD_REACTORS
330
334
102
}
330
334
100
AcDbXrecord
340
0
  0
XRECORD
  5
34A
102
{ACAD_REACTORS
330
334
102
}
330
334
100
AcDbXrecord
 10
0.0
 20
0.0
 30
0.0
  0
XRECORD
  5
346
102
{ACAD_REACTORS
330
334
102
}
330
334
100
AcDbXrecord
 10
0.0
 20
0.0
 30
0.0
  0
XRECORD
  5
349
102
{ACAD_REACTORS
330
334
102
}
330
334
100
AcDbXrecord
 10
0.0
 20
0.0
 30
0.0
  0
XRECORD
  5
347
102
{ACAD_REACTORS
330
334
102
}
330
334
100
AcDbXrecord
 10
0.0
 20
0.0
 30
0.0
  0
XRECORD
  5
348
102
{ACAD_REACTORS
330
334
102
}
330
334
100
AcDbXrecord
 10
0.0
 20
0.0
 30
0.0
  0
XRECORD
  5
345
102
{ACAD_REACTORS
330
334
102
}
330
334
100
AcDbXrecord
 10
0.0
 20
0.0
 30
0.0
  0
XRECORD
  5
342
102
{ACAD_REACTORS
330
334
102
}
330
334
100
AcDbXrecord
340
0
  0
XRECORD
  5
343
102
{ACAD_REACTORS
330
334
102
}
330
334
100
AcDbXrecord
 70
     0
  0
XRECORD
  5
338
102
{ACAD_REACTORS
330
334
102
}
330
334
100
AcDbXrecord
  1

  0
XRECORD
  5
335
102
{ACAD_REACTORS
330
334
102
}
330
334
100
AcDbXrecord
 90
        1
  0
XRECORD
  5
336
102
{ACAD_REACTORS
330
334
102
}
330
334
100
AcDbXrecord
 90
       70
  0
XRECORD
  5
34D
102
{ACAD_REACTORS
330
334
102
}
330
334
100
AcDbXrecord
340
0
  0
XRECORD
  5
353
102
{ACAD_REACTORS
330
334
102
}
330
334
100
AcDbXrecord
 10
0.0
 20
0.0
 30
0.0
  0
XRECORD
  5
34F
102
{ACAD_REACTORS
330
334
102
}
330
334
100
AcDbXrecord
 10
0.0
 20
0.0
 30
0.0
  0
XRECORD
  5
352
102
{ACAD_REACTORS
330
334
102
}
330
334
100
AcDbXrecord
 10
0.0
 20
0.0
 30
0.0
  0
XRECORD
  5
350
102
{ACAD_REACTORS
330
334
102
}
330
334
100
AcDbXrecord
 10
0.0
 20
0.0
 30
0.0
  0
XRECORD
  5
351
102
{ACAD_REACTORS
330
334
102
}
330
334
100
AcDbXrecord
 10
0.0
 20
0.0
 30
0.0
  0
XRECORD
  5
34E
102
{ACAD_REACTORS
330
334
102
}
330
334
100
AcDbXrecord
 10
0.0
 20
0.0
 30
0.0
  0
XRECORD
  5
34B
102
{ACAD_REACTORS
330
334
102
}
330
334
100
AcDbXrecord
340
0
  0
XRECORD
  5
34C
102
{ACAD_REACTORS
330
334
102
}
330
334
100
AcDbXrecord
 70
     0
  0
XRECORD
  5
340
102
{ACAD_REACTORS
330
334
102
}
330
334
100
AcDbXrecord
  1
{FAEB1C32-E019-11D5-929B-00C0DF256EC4}
  0
DICTIONARYVAR
  5
35E
102
{ACAD_REACTORS
330
355
102
}
330
355
100
DictionaryVariables
280
     0
  1
1:1
  0
DICTIONARYVAR
  5
357
102
{ACAD_REACTORS
330
355
102
}
330
355
100
DictionaryVariables
280
     0
  1
Standard
  0
DICTIONARYVAR
  5
356
102
{ACAD_REACTORS
330
355
102
}
330
355
100
DictionaryVariables
280
     0
  1
Standard
  0
DICTIONARYVAR
  5
35A
102
{ACAD_REACTORS
330
355
102
}
330
355
100
DictionaryVariables
280
     0
  1
2
  0
DICTIONARYVAR
  5
35B
102
{ACAD_REACTORS
330
355
102
}
330
355
100
DictionaryVariables
280
     0
  1
1
  0
DICTIONARYVAR
  5
35F
102
{ACAD_REACTORS
330
355
102
}
330
355
100
DictionaryVariables
280
     0
  1
1
  0
DICTIONARY
  5
362
330
45
100
AcDbDictionary
280
     1
  3
ACAD_XREC_ROUNDTRIP
360
363
  0
DICTIONARY
  5
360
330
44
100
AcDbDictionary
280
     1
  3
ACAD_XREC_ROUNDTRIP
360
361
  0
DICTIONARY
  5
364
330
46
100
AcDbDictionary
280
     1
  3
ACAD_XREC_ROUNDTRIP
360
365
  0
XRECORD
  5
363
102
{ACAD_REACTORS
330
362
102
}
330
362
100
AcDbXrecord
102
MATERIAL
148
0.0
149
0.0
149
0.0
 93
        0
 94
      127
282
     0
 72
     1
 77
     1
171
     1
175
     1
179
     1
273
     0
  0
XRECORD
  5
361
102
{ACAD_REACTORS
330
360
102
}
330
360
100
AcDbXrecord
102
MATERIAL
148
0.0
149
0.0
149
0.0
 93
        0
 94
      127
282
     0
 72
     1
 77
     1
171
     1
175
     1
179
     1
273
     0
  0
XRECORD
  5
365
102
{ACAD_REACTORS
330
364
102
}
330
364
100
AcDbXrecord
102
MATERIAL
148
0.0
149
0.0
149
0.0
 93
        0
 94
      127
282
     0
 72
     1
 77
     1
171
     1
175
     1
179
     1
273
     0
  0
ENDSEC
  0
EOF
